<?xml version="1.0" encoding="UTF-8" standalone="no"?>
<!-- Created with Inkscape (http://www.inkscape.org/) -->

<svg
   width="105.98548mm"
   height="105.98548mm"
   viewBox="0 0 105.98548 105.98548"
   version="1.1"
   id="svg28834"
   sodipodi:docname="earthen-logo-grey.svg"
   inkscape:export-filename="/home/russs/Documents/Russs Files/Tractatus Ayyew/2022 Earthen.io PNGs/page logo.png"
   inkscape:export-xdpi="59.913868"
   inkscape:export-ydpi="59.913868"
   inkscape:version="1.1.2 (0a00cf5339, 2022-02-04)"
   xmlns:inkscape="http://www.inkscape.org/namespaces/inkscape"
   xmlns:sodipodi="http://sodipodi.sourceforge.net/DTD/sodipodi-0.dtd"
   xmlns="http://www.w3.org/2000/svg"
   xmlns:svg="http://www.w3.org/2000/svg">
  <sodipodi:namedview
     id="namedview28836"
     pagecolor="#ffffff"
     bordercolor="#666666"
     borderopacity="1.0"
     inkscape:pageshadow="2"
     inkscape:pageopacity="0.0"
     inkscape:pagecheckerboard="0"
     inkscape:document-units="mm"
     showgrid="false"
     inkscape:zoom="0.69664703"
     inkscape:cx="476.56846"
     inkscape:cy="191.6322"
     inkscape:window-width="1920"
     inkscape:window-height="1016"
     inkscape:window-x="0"
     inkscape:window-y="0"
     inkscape:window-maximized="1"
     inkscape:current-layer="g5959" />
  <defs
     id="defs28831" />
  <g
     inkscape:label="Layer 1"
     inkscape:groupmode="layer"
     id="layer1"
     transform="translate(31.557981,-13.403385)">
    <g
       id="g5959"
       transform="matrix(0.56090743,0,0,0.56090743,-73.572297,-111.03371)"
       style="display:inline;opacity:1;stroke:#4b8501;stroke-width:2.18833;stroke-miterlimit:4;stroke-dasharray:none;stroke-opacity:1">
      <g
         id="g2255"
         transform="matrix(-3.8652723,0,0,3.8652723,731.87686,31.089977)"
         style="display:inline;stroke:#666666;stroke-width:0.728352;stroke-miterlimit:4;stroke-dasharray:none;stroke-opacity:1">
        <circle
           style="fill:none;stroke:#666666;stroke-width:0.728352;stroke-miterlimit:4;stroke-dasharray:none;stroke-opacity:1"
           id="circle2249"
           cx="145.52554"
           cy="73.794655"
           r="19.228128" />
        <path
           sodipodi:type="spiral"
           style="fill:none;fill-rule:evenodd;stroke:#666666;stroke-width:2.75283;stroke-miterlimit:4;stroke-dasharray:none;stroke-opacity:1"
           id="path2251"
           sodipodi:cx="221.35513"
           sodipodi:cy="282.80667"
           sodipodi:expansion="2.1400001"
           sodipodi:revolution="3.1941473"
           sodipodi:radius="74.808487"
           sodipodi:argument="-17.566807"
           sodipodi:t0="0.106"
           transform="matrix(-0.24908598,0.0892217,-0.0892217,-0.24908598,227.10702,125.93926)"
           d="m 220.76322,282.6438 c -0.44771,-0.78222 0.43524,-1.58958 1.12372,-1.76984 1.88275,-0.49294 3.39193,1.37958 3.59076,3.06708 0.40702,3.45445 -2.94033,5.96122 -6.10523,6.07113 -5.52077,0.19172 -9.33194,-5.15048 -9.2324,-10.29143 0.15683,-8.10006 8.03507,-13.53059 15.66678,-13.09272 11.20685,0.643 18.57896,11.61455 17.66779,22.26505 -1.27072,14.85326 -15.9062,24.49574 -30.11508,22.9715 -19.04974,-2.04352 -31.29727,-20.92507 -29.01627,-39.24208 2.9645,-23.80562 26.6845,-38.99824 49.66853,-35.81337 29.12929,4.0364 47.61193,33.19649 43.37315,61.41472 -5.26175,35.02839 -40.47196,57.15051 -74.49921,51.70514 -15.92385,-2.54829 -30.663,-10.67678 -41.57975,-22.50826" />
      </g>
    </g>
  </g>
</svg>
