<?xml version="1.0" encoding="UTF-8"?>
<!-- Created with Inkscape (http://www.inkscape.org/) -->
<svg width="19.418mm" height="19.468mm" version="1.1" viewBox="0 0 19.418 19.468" xmlns="http://www.w3.org/2000/svg">
 <path d="m9.4694 11.36c-1.5199-0.19574-2.7551-1.3152-3.0831-2.7941-0.098233-0.44291-0.11775-0.82046-0.06371-1.2327 0.11546-0.8808 0.45474-1.5637 1.0755-2.165 0.58176-0.56347 1.2764-0.89323 2.1046-0.99913 0.86589-0.11071 1.837 0.14623 2.5522 0.67531 1.0579 0.78253 1.6106 2.0623 1.45 3.357-0.13096 1.0557-0.66588 1.9357-1.552 2.5533-0.4416 0.30778-0.96842 0.51268-1.5351 0.59705-0.22576 0.03361-0.71828 0.0379-0.9484 0.0083zm0.90236-1.2167v-0.34189l0.89765-0.89696v-1.1326h-1.8062l-0.22991-0.23057-0.22991-0.23057 0.00581-0.22336 0.00581-0.22336 1.1323-0.01088v-0.43867l-0.44881-0.44744v-0.24621l0.22441-0.22372 0.22441-0.22371v-0.43422l-0.06375-0.012778c-0.16975-0.033948-0.60123 0.0083478-0.93468 0.091638-0.61774 0.15429-1.2187 0.56414-1.6117 1.0993-0.14416 0.19626-0.36885 0.63959-0.42193 0.83251l-0.035404 0.12867 0.56782 0.56891h0.69964l0.65759 0.68867v0.89312l0.44883 0.44744v0.90855h0.91806zm2.477-2.4429c-0.0018-0.3073-0.03577-0.53375-0.12356-0.82523-0.0486-0.16138-0.19321-0.52013-0.22076-0.54769-0.0068-0.00678-0.136 0.11098-0.28709 0.26177l-0.27471 0.27413v1.1336l0.90786-0.01096-0.0016-0.28562z" fill="#1a1a1a" stroke-width=".020401"/>
 <path d="m4.5696 17.688c-0.38293-0.064087-0.8477-0.27007-1.1901-0.52746-0.48008-0.36089-0.83345-0.72478-0.93406-1.3708-0.027856-0.17888-0.034945-1.762-0.027578-6.1625 0.011108-6.6371-0.011779-6.0321 0.24839-6.5638 0.34955-0.71434 0.98415-1.245 1.7353-1.4512 0.1967-0.053978 0.54755-0.057251 6.1361-0.057251h5.9274l0.08864 0.066175c0.04875 0.036396 0.11842 0.10606 0.15482 0.15481l0.06617 0.088635v11.922l-0.06617 0.08864c-0.14352 0.19223-0.21497 0.22011-0.59404 0.23185l-0.35082 0.01088v2.5723l0.35082 0.01086c0.29358 0.0091 0.36526 0.02165 0.43934 0.07704 0.16837 0.12587 0.22087 0.2284 0.22087 0.43132 0 0.20298-0.05256 0.30556-0.22098 0.43132l-0.08863 0.06617-5.8633 0.0044c-3.2537 0.0025-5.9384-0.0082-6.0322-0.02387zm10.167-2.2834v-1.2918l-4.9669 4.57e-4c-4.269 4.56e-4 -4.9952 0.0071-5.1681 0.04792-0.7113 0.1677-1.1629 0.51235-1.1629 1.2794 0.064185 0.71955 0.47916 1.039 1.1394 1.2105 0.12406 0.03079 1.295 0.04045 5.1595 0.04256l4.999 0.0027zm-11.073-1.8991c0.10704-0.06919 0.2989-0.16907 0.42636-0.22198 0.50225-0.20846 0.17048-0.19787 6.2003-0.19787h5.4738v-10.52l-5.4965 4.792e-4c-6.0478 5.247e-4 -5.7052-0.010558-6.0949 0.19716-0.22228 0.11847-0.4397 0.34108-0.5546 0.56781-0.18525 0.36557-0.17801 0.15037-0.17853 5.3088-2.088e-4 2.6082 0.00622 4.991 0.014489 4.991 0.00823 0 0.10254-0.05661 0.20959-0.12579z" fill="#1a1a1a" stroke-width=".032096"/>
</svg>
