<?xml version="1.0" encoding="UTF-8" standalone="no"?>
<!-- Created with Inkscape (http://www.inkscape.org/) -->

<svg
   width="169.98796mm"
   height="168.53653mm"
   viewBox="0 0 169.98796 168.53653"
   version="1.1"
   id="svg5"
   inkscape:version="1.1.2 (0a00cf5339, 2022-02-04)"
   sodipodi:docname="footer-settings-button.svg"
   xmlns:inkscape="http://www.inkscape.org/namespaces/inkscape"
   xmlns:sodipodi="http://sodipodi.sourceforge.net/DTD/sodipodi-0.dtd"
   xmlns="http://www.w3.org/2000/svg"
   xmlns:svg="http://www.w3.org/2000/svg">
  <sodipodi:namedview
     id="namedview7"
     pagecolor="#ffffff"
     bordercolor="#666666"
     borderopacity="1.0"
     inkscape:pageshadow="2"
     inkscape:pageopacity="0.0"
     inkscape:pagecheckerboard="0"
     inkscape:document-units="mm"
     showgrid="false"
     inkscape:zoom="0.77403547"
     inkscape:cx="391.45493"
     inkscape:cy="499.33112"
     inkscape:window-width="1920"
     inkscape:window-height="1016"
     inkscape:window-x="0"
     inkscape:window-y="0"
     inkscape:window-maximized="1"
     inkscape:current-layer="g120457"
     showguides="true"
     inkscape:guide-bbox="true">
    <sodipodi:guide
       position="180.60943,28.456608"
       orientation="0,-1"
       id="guide21364" />
  </sodipodi:namedview>
  <defs
     id="defs2" />
  <g
     inkscape:label="Layer 1"
     inkscape:groupmode="layer"
     id="layer1"
     transform="translate(-27.152215,-41.185528)">
    <path
       style="fill:#808080;fill-opacity:1;stroke:#808080;stroke-width:0.750761;stroke-miterlimit:4;stroke-dasharray:none;stroke-opacity:1"
       d="m 103.56427,142.70298 c -1.32102,-0.37538 -2.72758,-1.47309 -3.3186,-2.58989 -0.264157,-0.49917 -1.006844,-3.20613 -1.650391,-6.01544 l -1.170114,-5.10785 -2.393017,-1.27879 c -1.316158,-0.70331 -3.160894,-1.81797 -4.099441,-2.477 l -1.706425,-1.19824 -5.220477,1.72205 c -5.733642,1.8913 -6.688052,1.97224 -8.871692,0.75239 -1.310355,-0.73203 -2.065224,-1.78962 -5.299575,-7.42495 -4.528018,-7.88937 -4.448362,-8.44597 2.054628,-14.35509 l 4.00757,-3.6416 -0.02821,-4.731832 -0.02821,-4.73181 -2.241984,-1.996871 c -8.276802,-7.371914 -8.397803,-7.834565 -4.043843,-15.462365 3.726624,-6.528763 4.131392,-7.107267 5.557579,-7.943067 2.021304,-1.184571 3.571089,-1.042892 9.292955,0.849529 l 4.819356,1.593928 2.132997,-1.424643 c 1.173148,-0.783547 2.998568,-1.831759 4.056497,-2.329352 2.187694,-1.028981 1.860052,-0.342271 3.343029,-7.006567 1.033001,-4.642145 1.561648,-5.906136 2.889218,-6.908047 1.49128,-1.125465 2.80895,-1.317993 9.03173,-1.319687 6.68194,-0.0021 8.10978,0.262476 9.53148,1.764202 1.31441,1.388402 1.46809,1.815864 2.64475,7.356582 0.59603,2.806589 1.12862,5.143491 1.18355,5.193117 0.0549,0.04966 1.0419,0.561934 2.1933,1.138453 1.1514,0.57652 2.93914,1.60948 3.97278,2.295471 l 1.87931,1.24725 4.82408,-1.597318 c 5.60476,-1.855815 7.23817,-2.021874 9.1758,-0.932863 1.40064,0.787205 2.24378,1.976859 5.68605,8.023012 4.16474,7.31513 4.04458,8.025949 -2.34785,13.888213 l -3.94464,3.617473 -0.028,4.70859 -0.0282,4.708602 4.00758,3.6416 c 6.41469,5.82889 6.53496,6.53318 2.36316,13.8365 -4.20473,7.36097 -5.0537,8.29143 -7.95691,8.72064 -1.12566,0.16641 -2.01055,-0.0411 -6.52053,-1.52871 l -5.21814,-1.72127 -2.13444,1.39898 c -1.17393,0.76941 -3.01791,1.88373 -4.09774,2.47622 l -1.9633,1.07727 -1.05883,5.00252 c -1.14923,5.42962 -1.31464,5.88708 -2.6317,7.27829 -1.43721,1.51812 -2.83439,1.76947 -9.67336,1.74019 -3.28823,-0.0141 -6.42554,-0.1526 -6.97179,-0.30782 z m 13.70098,-2.88598 c 0.50223,-0.20993 1.07825,-0.5808 1.28006,-0.82415 0.2018,-0.24334 0.92997,-3.0748 1.61815,-6.2921 0.68817,-3.21732 1.3287,-5.97501 1.42339,-6.1282 0.0947,-0.15321 0.34426,-0.27856 0.55462,-0.27856 1.10944,0 5.99035,-2.72254 8.66467,-4.83311 l 0.70941,-0.55989 5.39164,1.72663 c 6.41199,2.05339 7.19561,2.14411 8.34245,0.96573 0.90684,-0.93176 6.12324,-10.0882 6.41933,-11.26795 0.3307,-1.3176 -0.61642,-2.51557 -4.91894,-6.22187 l -4.16746,-3.58994 0.0311,-6.153682 0.0311,-6.153699 4.41583,-3.948627 c 4.97946,-4.452647 5.21917,-4.84716 4.17092,-6.864753 -2.36638,-4.554682 -5.54894,-9.940068 -6.15674,-10.418163 C 144.67645,68.661342 143.92732,68.405 143.41,68.405 c -0.5173,0 -3.34134,0.765228 -6.2756,1.700504 -2.93428,0.935277 -5.45094,1.70146 -5.59261,1.702617 -0.14164,0.0011 -0.90782,-0.4983 -1.70261,-1.109913 -1.91505,-1.47371 -4.76753,-3.167393 -6.69479,-3.975105 -0.85841,-0.359753 -1.58944,-0.678633 -1.62453,-0.708621 -0.035,-0.03004 -0.63929,-2.728714 -1.3427,-5.997181 -1.18456,-5.504232 -1.34244,-6.000237 -2.1399,-6.723038 l -0.86098,-0.780362 h -6.51775 -6.51774 l -0.86099,0.780362 c -0.79745,0.722801 -0.95533,1.218806 -2.13989,6.723038 -0.70341,3.268467 -1.307627,5.967193 -1.342707,5.997181 -0.0351,0.03004 -0.766117,0.351035 -1.624526,0.713426 -1.974971,0.833784 -4.4118,2.246876 -6.109988,3.543139 -2.306186,1.760351 -2.012178,1.765671 -7.872217,-0.142473 C 81.279184,69.18061 78.462804,68.405 77.931855,68.405 c -0.53305,0 -1.285849,0.252094 -1.681039,0.562953 -0.694571,0.546349 -6.173598,9.712061 -6.578569,11.005106 -0.455926,1.455724 0.299189,2.466945 4.914413,6.581245 l 4.47153,3.986184 -0.212091,1.48906 c -0.274082,1.92433 -0.272548,6.73936 0.0033,8.675122 l 0.214857,1.51066 -4.333335,3.73908 c -3.418684,2.94984 -4.433701,3.9905 -4.808803,4.93031 -0.610207,1.52888 -0.547625,1.70018 2.62408,7.18186 3.390626,5.86005 3.217652,5.61282 4.279634,6.11677 1.074703,0.50997 1.009086,0.52464 8.492548,-1.89837 l 4.356748,-1.41065 2.191502,1.60044 c 2.151937,1.57154 6.42816,3.81922 7.266106,3.81922 0.2342,0 0.503287,0.12535 0.597977,0.27856 0.0947,0.15319 0.735207,2.91088 1.423387,6.1282 0.68817,3.2173 1.41629,6.04854 1.61804,6.29162 0.84222,1.01483 1.94903,1.18388 7.82507,1.19521 4.20117,0.008 6.00205,-0.0921 6.66859,-0.37058 z m -9.00871,-29.15274 c -3.91367,-0.59231 -8.457687,-3.81508 -10.328688,-7.32545 -5.197964,-9.752362 1.783931,-21.596649 12.730648,-21.596649 9.41474,0 16.23328,8.810157 14.0353,18.134842 -0.61309,2.600967 -1.91796,4.853207 -3.93261,6.787757 -3.42912,3.29282 -7.84397,4.70486 -12.50465,3.9995 z m 5.01285,-3.13435 c 7.11717,-1.51011 11.02293,-9.388762 7.93047,-15.997212 -1.05524,-2.254978 -1.90957,-3.329111 -3.75714,-4.723788 -3.53275,-2.66676 -8.73016,-2.954505 -12.57753,-0.696329 -3.07662,1.805805 -5.521734,5.705667 -5.772224,9.206507 -0.5693,7.956812 6.307784,13.880362 14.176424,12.210822 z"
       id="path14586" />
    <g
       id="g120457"
       transform="matrix(0.73363972,-0.79816866,0.79816866,0.73363972,-41.744217,154.60443)"
       style="stroke:#808080;stroke-width:2.42448;stroke-miterlimit:4;stroke-dasharray:none">
      <g
         id="g22814"
         transform="matrix(-0.08410273,0.99645709,0.99645709,0.08410273,-42.742922,38.624343)">
        <path
           style="fill:#666666;stroke:#808080;stroke-width:2.8215;stroke-linecap:round;stroke-linejoin:miter;stroke-miterlimit:4;stroke-dasharray:none;stroke-opacity:1"
           d="m 65.699256,131.62116 36.547134,1.71702"
           id="path120443"
           sodipodi:nodetypes="cc" />
        <path
           style="fill:#666666;stroke:#808080;stroke-width:2.8215;stroke-linecap:round;stroke-linejoin:miter;stroke-miterlimit:4;stroke-dasharray:none;stroke-opacity:1"
           d="M 65.699256,131.62116 66.244114,94.169305"
           id="path1407"
           sodipodi:nodetypes="cc" />
      </g>
    </g>
  </g>
</svg>
