<?xml version="1.0" encoding="UTF-8" standalone="no"?>
<!-- Created with Inkscape (http://www.inkscape.org/) -->

<svg
   width="41.050293mm"
   height="41.069977mm"
   viewBox="0 0 41.050293 41.069977"
   version="1.1"
   id="svg5"
   inkscape:version="1.1.2 (0a00cf5339, 2022-02-04)"
   sodipodi:docname="icon-accessibility.svg"
   xmlns:inkscape="http://www.inkscape.org/namespaces/inkscape"
   xmlns:sodipodi="http://sodipodi.sourceforge.net/DTD/sodipodi-0.dtd"
   xmlns="http://www.w3.org/2000/svg"
   xmlns:svg="http://www.w3.org/2000/svg">
  <sodipodi:namedview
     id="namedview7"
     pagecolor="#ffffff"
     bordercolor="#666666"
     borderopacity="1.0"
     inkscape:pageshadow="2"
     inkscape:pageopacity="0.0"
     inkscape:pagecheckerboard="0"
     inkscape:document-units="mm"
     showgrid="false"
     inkscape:zoom="3.7828788"
     inkscape:cx="93.315176"
     inkscape:cy="87.631674"
     inkscape:window-width="1920"
     inkscape:window-height="1016"
     inkscape:window-x="0"
     inkscape:window-y="0"
     inkscape:window-maximized="1"
     inkscape:current-layer="layer1" />
  <defs
     id="defs2" />
  <g
     inkscape:label="Layer 1"
     inkscape:groupmode="layer"
     id="layer1"
     transform="translate(-83.429399,-109.19792)">
    <path
       style="fill:#1a1a1a;stroke-width:0.264583"
       d="m 100.73479,150.10732 c -8.17485,-1.49986 -14.427664,-7.11813 -16.667424,-14.97599 -0.850623,-2.98428 -0.850623,-7.83369 0,-10.81797 2.016078,-7.07311 7.405088,-12.46212 14.478193,-14.4782 2.966401,-0.84552 7.835591,-0.85025 10.779811,-0.0105 7.09796,2.02457 12.50068,7.41699 14.51635,14.48867 0.85063,2.98428 0.85063,7.83369 0,10.81797 -2.00094,7.02002 -7.42254,12.47618 -14.33817,14.42956 -2.2139,0.62533 -6.78586,0.91024 -8.76876,0.54643 z m 7.42032,-2.66371 c 6.27883,-1.50521 11.34442,-6.27622 13.31415,-12.53987 0.27837,-0.88524 0.57271,-2.80015 0.65408,-4.25535 0.57805,-10.33802 -7.78205,-19.1615 -18.16879,-19.17585 -6.765741,-0.009 -13.280269,4.02775 -16.222949,10.05347 -2.705429,5.5399 -2.70794,10.89782 -0.0077,16.39267 1.005395,2.04591 1.627814,2.90323 3.379436,4.65486 4.578832,4.57883 10.825043,6.36278 17.051753,4.87007 z m -9.870211,-4.11412 c -0.64013,-0.64014 -0.51869,-1.31821 0.88818,-4.9591 1.458241,-3.77386 1.872731,-5.88079 1.867441,-9.49248 -0.006,-3.75396 0.24629,-3.47677 -3.652061,-4.02029 -1.84568,-0.25734 -3.564274,-0.52626 -3.81909,-0.59762 -0.63854,-0.17882 -1.068718,-1.07476 -0.878989,-1.8307 0.293097,-1.1678 0.858236,-1.22204 5.358759,-0.51432 5.215071,0.82008 6.592571,0.82058 11.783381,0.004 2.287,-0.35965 4.34413,-0.58255 4.57141,-0.49533 0.45952,0.17633 0.9277,0.92503 0.9277,1.48356 0,1.02423 -0.66069,1.30162 -4.5117,1.89423 l -3.82268,0.58825 -0.16053,2.23232 c -0.28145,3.91388 0.0748,6.03407 1.72557,10.26807 0.81272,2.08459 1.47767,4.06763 1.47767,4.40675 0,1.28578 -1.6106,1.93703 -2.43626,0.98511 -0.22088,-0.25466 -1.0905,-2.27872 -1.93247,-4.49791 -0.84198,-2.21919 -1.61449,-4.03489 -1.71668,-4.03489 -0.1022,0 -0.87471,1.8157 -1.71668,4.03489 -0.84198,2.2192 -1.71159,4.24326 -1.93248,4.49792 -0.498991,0.5753 -1.469741,0.59799 -2.020491,0.0472 z m 4.694101,-21.5783 c -0.46378,-0.13059 -1.08573,-0.5457 -1.38211,-0.92248 -2.364181,-3.00558 1.46478,-6.8263 4.32463,-4.31532 2.58262,2.26757 0.38729,6.17535 -2.94252,5.2378 z"
       id="path836"
       sodipodi:nodetypes="sssscsssssssscssssscscsssscssscssssssssccscss" />
  </g>
</svg>
