<?xml version="1.0" encoding="UTF-8" standalone="no"?>
<!-- Created with Inkscape (http://www.inkscape.org/) -->

<svg
   width="101.17mm"
   height="100.97mm"
   version="1.1"
   viewBox="0 0 101.17 100.97"
   id="svg1194"
   sodipodi:docname="icon-revenue.svg"
   inkscape:version="1.1.2 (0a00cf5339, 2022-02-04)"
   xmlns:inkscape="http://www.inkscape.org/namespaces/inkscape"
   xmlns:sodipodi="http://sodipodi.sourceforge.net/DTD/sodipodi-0.dtd"
   xmlns="http://www.w3.org/2000/svg"
   xmlns:svg="http://www.w3.org/2000/svg">
  <defs
     id="defs1198" />
  <sodipodi:namedview
     id="namedview1196"
     pagecolor="#ffffff"
     bordercolor="#666666"
     borderopacity="1.0"
     inkscape:pageshadow="2"
     inkscape:pageopacity="0.0"
     inkscape:pagecheckerboard="0"
     inkscape:document-units="mm"
     showgrid="false"
     inkscape:zoom="2.1172955"
     inkscape:cx="191.28175"
     inkscape:cy="190.5733"
     inkscape:window-width="1920"
     inkscape:window-height="1016"
     inkscape:window-x="0"
     inkscape:window-y="0"
     inkscape:window-maximized="1"
     inkscape:current-layer="svg1194" />
  <g
     transform="translate(-54.541 -95.443)"
     id="g1192"
     style="fill:#1a1a1a">
    <path
       d="m100.69 196.2c-11.643-1.1095-22.341-6.0182-30.789-14.127l-2.6804-2.5727v8.5316h-5.0493l0.07728-7.9166 0.07728-7.9166 1.2829-1.3648h16.312v5.0271h-9.3785l1.845 1.8742c6.5602 6.6641 14.805 11.084 24.246 12.996 2.6081 0.5284 3.757 0.60561 8.8196 0.59266 4.9999-0.0128 6.2127-0.0989 8.599-0.61028 6.2084-1.3306 12.365-3.9717 17.198-7.378 3.211-2.2631 8.61-7.6676 10.904-10.915 6.8092-9.6397 9.9195-22.125 8.2718-33.205-0.8122-5.4617-0.8182-5.0365 0.0837-5.9384 0.85441-0.8544 2.0005-1.0606 2.9805-0.53607 1.5283 0.81793 2.2388 5.0494 2.22 13.221-0.0131 5.6951-0.0735 6.4957-0.7182 9.525-3.357 15.774-13.18 28.709-27.093 35.677-8.0862 4.0499-18.098 5.9026-27.208 5.0346zm-1.2818-20.744c-9.9308-1.8762-18.474-8.8018-22.135-17.943-1.6892-4.2185-1.9434-5.654-1.9514-11.02-0.0067-4.4745 0.05251-5.1153 0.68963-7.4628 2.9899-11.016 11.716-19.194 22.958-21.516 2.896-0.59816 8.3495-0.6034 11.113-0.0107 11.378 2.4408 19.963 10.491 22.958 21.527 0.63711 2.3475 0.69633 2.9883 0.68963 7.4628-8e-3 5.3664-0.26222 6.8018-1.9514 11.02-3.3736 8.4251-11.058 15.122-20.036 17.462-3.3012 0.86029-9.1261 1.0875-12.335 0.48117zm8.2933-13.587v-1.8216l1.404-0.17542c2.9192-0.36473 5.6865-2.2302 6.9393-4.6779 1.4488-2.8307 1.0193-5.724-1.1715-7.8922-2.0469-2.0258-3.2593-2.5029-9.419-3.707-5.9683-1.1667-7.3643-1.7246-7.7042-3.0788-0.22404-0.89266 0.5216-1.9225 1.8987-2.6223 0.90835-0.46163 1.5647-0.52917 5.1423-0.52917 4.7691 0 5.8392 0.33003 6.7025 2.0672l0.48481 0.97551h2.3438c1.2974 0 2.4178-0.11968 2.5095-0.26806 0.38088-0.61629-0.67831-3.1306-1.8835-4.4711-1.7325-1.927-3.4797-2.8545-6.2546-3.3203l-0.99218-0.16656v-3.4156h-5.0271v3.3712l-1.6236 0.18369c-2.6383 0.29849-4.4003 1.1035-6.067 2.772-2.1621 2.1644-2.8367 4.562-2.045 7.2685 0.3895 1.3316 2.7481 3.7468 4.4557 4.5627 0.64838 0.30978 3.6581 1.0763 6.6882 1.7034 5.3661 1.1105 5.5398 1.1669 6.6807 2.1712 0.64427 0.5671 1.1714 1.243 1.1714 1.5021 0 0.70746-1.0347 1.8824-2.0203 2.2942-1.0686 0.44648-8.6704 0.51116-9.8026 0.0834-0.99424-0.37565-2.2-1.5537-2.2-2.1493 0-0.4295-0.26285-0.47966-2.5135-0.47966h-2.5135l0.0026 0.85989c0.0086 2.8709 3.5472 6.4001 6.9427 6.9244 0.5457 0.0843 1.4089 0.21813 1.9182 0.29749l0.92604 0.14428v3.4156h5.0271v-1.8216zm-50.403-2.6619c-1.3392-0.54813-1.9099-2.1811-2.5292-7.2379-0.46361-3.7851-0.19508-11.729 0.5169-15.291 1.4225-7.1166 4.0352-13.445 7.9624-19.285 7.868-11.701 20.201-19.446 34.331-21.56 3.4657-0.51832 10.694-0.52118 14.321-6e-3 9.0448 1.2856 18.195 5.2661 24.863 10.816 1.0682 0.88909 2.3482 1.9555 2.8443 2.3698l0.90202 0.75327v-6.4013h5.0271v15.834l-0.68497 0.81405-0.68498 0.81405h-16.093v-5.0271h11.231l-1.845-1.8791c-4.9292-5.0204-11.887-9.2514-18.646-11.34-5.3775-1.6612-7.5324-1.9675-13.891-1.9742-5.344-6e-3 -6.0955 0.0526-9.1741 0.71162-8.6185 1.845-15.86 5.6677-22.14 11.688-11.256 10.789-16.276 26.462-13.363 41.717 0.51714 2.7078 0.36907 3.5153-0.77228 4.2112-0.91595 0.55848-1.3445 0.61202-2.1757 0.27182z"
       fill="#4d4d4d"
       stroke-width=".26458"
       id="path1190"
       style="fill:#1a1a1a" />
  </g>
</svg>
