<?xml version="1.0" encoding="UTF-8" standalone="no"?>
<!-- Created with Inkscape (http://www.inkscape.org/) -->

<svg
   width="19.308249mm"
   height="19.317955mm"
   viewBox="0 0 19.308249 19.317955"
   version="1.1"
   id="svg464886"
   inkscape:version="1.1.2 (0a00cf5339, 2022-02-04)"
   sodipodi:docname="icon-creativecommons.svg"
   xmlns:inkscape="http://www.inkscape.org/namespaces/inkscape"
   xmlns:sodipodi="http://sodipodi.sourceforge.net/DTD/sodipodi-0.dtd"
   xmlns="http://www.w3.org/2000/svg"
   xmlns:svg="http://www.w3.org/2000/svg">
  <sodipodi:namedview
     id="namedview464888"
     pagecolor="#ffffff"
     bordercolor="#666666"
     borderopacity="1.0"
     inkscape:pageshadow="2"
     inkscape:pageopacity="0.0"
     inkscape:pagecheckerboard="0"
     inkscape:document-units="mm"
     showgrid="false"
     inkscape:zoom="0.7198092"
     inkscape:cx="-240.34147"
     inkscape:cy="71.546738"
     inkscape:window-width="1920"
     inkscape:window-height="1016"
     inkscape:window-x="0"
     inkscape:window-y="0"
     inkscape:window-maximized="1"
     inkscape:current-layer="layer1" />
  <defs
     id="defs464883" />
  <g
     inkscape:label="Layer 1"
     inkscape:groupmode="layer"
     id="layer1"
     transform="translate(-168.61939,-129.28409)">
    <path
       style="fill:#1a1a1a;fill-opacity:1;stroke-width:0.0377622"
       d="m 177.58643,148.58959 c -0.0727,-0.009 -0.29361,-0.0339 -0.49091,-0.0564 -1.75311,-0.20019 -3.57225,-0.99218 -4.96573,-2.16191 -1.9504,-1.63723 -3.13228,-3.77284 -3.46225,-6.2562 -0.0724,-0.54513 -0.0611,-1.92612 0.0201,-2.45454 0.33061,-2.15072 1.21033,-3.94189 2.6869,-5.47075 1.22322,-1.26654 2.69325,-2.14653 4.29383,-2.57035 2.58416,-0.68426 5.38083,-0.30956 7.58238,1.01591 2.10776,1.269 3.66961,3.3014 4.32306,5.62548 0.24778,0.88126 0.38567,2.08831 0.34755,3.04237 -0.10223,2.55916 -1.01273,4.68454 -2.742,6.4007 -1.53819,1.5265 -3.37983,2.4605 -5.51603,2.79745 -0.45059,0.0711 -1.7513,0.12635 -2.07691,0.0883 z m 1.7937,-2.12985 c 1.30049,-0.19708 2.42512,-0.67164 3.53058,-1.48978 0.43611,-0.32277 1.18908,-1.06399 1.49935,-1.47598 0.73172,-0.97157 1.19367,-2.08041 1.39304,-3.34387 0.0801,-0.50765 0.0914,-1.72502 0.0208,-2.24414 -0.23089,-1.69719 -0.94539,-3.14657 -2.14015,-4.34134 -1.16657,-1.16657 -2.54261,-1.87549 -4.19052,-2.15893 -0.48098,-0.0828 -1.80624,-0.0939 -2.30325,-0.0194 -2.20323,0.33016 -4.01732,1.49493 -5.27231,3.3852 -0.5946,0.89558 -1.01492,1.96922 -1.19017,3.04009 -0.0821,0.50195 -0.0927,1.69127 -0.0192,2.15244 0.27032,1.69474 0.99858,3.11962 2.21064,4.32523 1.21237,1.20591 2.56891,1.90145 4.23326,2.17054 0.59744,0.0966 1.59044,0.0966 2.22797,-3e-5 z m -4.1916,-4.44245 c -0.0416,-0.008 -0.16899,-0.0334 -0.28322,-0.056 -0.68055,-0.13482 -1.3118,-0.56308 -1.69916,-1.15277 -0.33468,-0.50949 -0.49471,-1.10582 -0.49457,-1.84291 2e-4,-1.02418 0.29393,-1.75953 0.94896,-2.37574 0.53221,-0.50065 1.18038,-0.741 2.00001,-0.74159 1.06443,-7.3e-4 1.98742,0.452 2.48818,1.22058 0.17231,0.26449 0.18584,0.32684 0.0891,0.41059 -0.1285,0.11124 -1.33477,0.71643 -1.38758,0.69616 -0.0294,-0.0113 -0.0988,-0.0936 -0.15417,-0.18286 -0.14966,-0.2415 -0.27801,-0.36624 -0.486,-0.47233 -0.16379,-0.0836 -0.222,-0.0932 -0.47202,-0.0784 -0.55107,0.0327 -0.82985,0.30681 -0.96182,0.9457 -0.19503,0.94421 0.11905,1.85226 0.70098,2.0266 0.0864,0.0259 0.26458,0.0462 0.39596,0.0453 0.4308,-0.003 0.73904,-0.20048 0.93094,-0.59548 0.0482,-0.0992 0.11416,-0.17536 0.16228,-0.18743 0.0812,-0.0203 1.1668,0.49227 1.3092,0.61822 0.10125,0.0896 0.0817,0.16387 -0.11782,0.44677 -0.45419,0.64414 -1.11868,1.08723 -1.86717,1.24503 -0.23252,0.049 -0.91268,0.0679 -1.10207,0.0306 z m 5.36222,-0.0176 c -0.94185,-0.18417 -1.63615,-0.69569 -2.02267,-1.4902 -0.2082,-0.42797 -0.29982,-0.81583 -0.32511,-1.37628 -0.0707,-1.56861 0.72396,-2.78969 2.06457,-3.17212 0.79473,-0.22671 1.8749,-0.0976 2.55235,0.3051 0.44856,0.26664 1.05438,0.9914 0.96578,1.15541 -0.056,0.10369 -1.3556,0.77585 -1.44512,0.74744 -0.0401,-0.0127 -0.10491,-0.0856 -0.14407,-0.16199 -0.097,-0.18928 -0.33029,-0.41749 -0.51285,-0.50176 -0.35195,-0.16244 -0.88348,-0.0502 -1.13872,0.24053 -0.33441,0.38088 -0.43583,1.37644 -0.20347,1.99747 0.18699,0.49978 0.49328,0.71989 0.99897,0.7179 0.45806,-0.002 0.73232,-0.17211 0.96238,-0.59763 0.0541,-0.10002 0.12639,-0.18724 0.16071,-0.19382 0.0828,-0.0159 1.35242,0.62118 1.35816,0.68152 0.01,0.10145 -0.0162,0.16281 -0.15406,0.36534 -0.39418,0.57915 -1.04813,1.04817 -1.71965,1.23336 -0.26893,0.0742 -1.11773,0.10437 -1.3972,0.0498 z"
       id="path381380" />
  </g>
</svg>
