<?xml version="1.0" encoding="UTF-8" standalone="no"?>
<!-- Created with Inkscape (http://www.inkscape.org/) -->

<svg
   width="19.418mm"
   height="19.468mm"
   version="1.1"
   viewBox="0 0 19.418 19.468"
   id="svg2306"
   sodipodi:docname="icon-readfreely.svg"
   inkscape:version="1.1.2 (0a00cf5339, 2022-02-04)"
   xmlns:inkscape="http://www.inkscape.org/namespaces/inkscape"
   xmlns:sodipodi="http://sodipodi.sourceforge.net/DTD/sodipodi-0.dtd"
   xmlns="http://www.w3.org/2000/svg"
   xmlns:svg="http://www.w3.org/2000/svg">
  <defs
     id="defs2310" />
  <sodipodi:namedview
     id="namedview2308"
     pagecolor="#ffffff"
     bordercolor="#666666"
     borderopacity="1.0"
     inkscape:pageshadow="2"
     inkscape:pageopacity="0.0"
     inkscape:pagecheckerboard="0"
     inkscape:document-units="mm"
     showgrid="false"
     inkscape:zoom="10.981268"
     inkscape:cx="36.698858"
     inkscape:cy="36.74439"
     inkscape:window-width="1920"
     inkscape:window-height="1016"
     inkscape:window-x="0"
     inkscape:window-y="0"
     inkscape:window-maximized="1"
     inkscape:current-layer="svg2306" />
  <g
     transform="translate(-95.417 -159.72)"
     id="g2304"
     style="fill:#1a1a1a">
    <path
       d="m98.372 179c-0.43222-0.19631-0.56714-0.36406-2.0189-2.5101-0.88901-1.3142-0.9356-1.4085-0.93525-1.8932 2.3e-4 -0.32487 0.0656-0.6171 0.17988-0.80456 0.20752-0.3403 3.4301-3.8606 3.8828-4.2416 0.53424-0.44953 0.95581-0.48103 5.9857-0.44708 4.4938 0.0303 4.6724 0.0385 4.9992 0.23054 0.38953 0.22882 3.6425 3.6645 4.0788 4.308 0.23355 0.34439 0.29112 0.53187 0.29112 0.94806 0 0.50085-0.0389 0.5767-1.1247 2.1922-1.2459 1.8536-1.5053 2.144-2.0656 2.3118-1.2054 0.36115-2.3668-0.76638-2.0424-1.9829 0.0548-0.20543 0.3589-0.74759 0.67585-1.2048l0.57625-0.83129v-1.8584c0-1.9458-0.03-2.0911-0.43204-2.0917-0.10948-2.1e-4 -1.2804 0.33465-2.602 0.74407l-2.403 0.74438v6.5703h-0.58254v-6.5703l-2.403-0.74438c-1.3216-0.40942-2.4925-0.74425-2.602-0.74407-0.40201 7.3e-4 -0.43204 0.14593-0.43204 2.0905v1.8572l0.57204 0.81987c0.69247 0.99247 0.84894 1.4392 0.69904 1.9959-0.14284 0.5305-0.44471 0.89365-0.92364 1.1112-0.50064 0.22738-0.87365 0.22749-1.3736 3.7e-4zm5.7351-10.728c-1.6832-0.41033-2.9809-1.8362-3.2725-3.5956-0.29693-1.7919 0.6997-3.7007 2.3501-4.501 2.7029-1.3107 5.7799 0.30641 6.2401 3.2795 0.45802 2.9591-2.3829 5.5325-5.3177 4.8171z"
       fill="#4d4d4d"
       stroke-width=".09709"
       id="path2302"
       style="fill:#1a1a1a" />
  </g>
</svg>
