<?xml version="1.0" encoding="UTF-8" standalone="no"?>
<!-- Created with Inkscape (http://www.inkscape.org/) -->

<svg
   width="209.75403mm"
   height="129.97505mm"
   viewBox="0 0 209.75403 129.97505"
   version="1.1"
   id="svg77099"
   inkscape:version="1.2.2 (732a01da63, 2022-12-09, custom)"
   sodipodi:docname="left-menu.svg"
   xmlns:inkscape="http://www.inkscape.org/namespaces/inkscape"
   xmlns:sodipodi="http://sodipodi.sourceforge.net/DTD/sodipodi-0.dtd"
   xmlns="http://www.w3.org/2000/svg"
   xmlns:svg="http://www.w3.org/2000/svg">
  <sodipodi:namedview
     id="namedview77101"
     pagecolor="#ffffff"
     bordercolor="#666666"
     borderopacity="1.0"
     inkscape:pageshadow="2"
     inkscape:pageopacity="0.0"
     inkscape:pagecheckerboard="0"
     inkscape:document-units="mm"
     showgrid="false"
     showguides="true"
     inkscape:guide-bbox="true"
     inkscape:zoom="0.50898197"
     inkscape:cx="351.6824"
     inkscape:cy="226.92356"
     inkscape:window-width="1503"
     inkscape:window-height="874"
     inkscape:window-x="0"
     inkscape:window-y="0"
     inkscape:window-maximized="1"
     inkscape:current-layer="layer1"
     inkscape:showpageshadow="2"
     inkscape:deskcolor="#d1d1d1">
    <sodipodi:guide
       position="429.51766,239.97675"
       orientation="0,-1"
       id="guide77795"
       inkscape:locked="false" />
    <sodipodi:guide
       position="421.70958,176.04755"
       orientation="0,-1"
       id="guide77797"
       inkscape:locked="false" />
    <sodipodi:guide
       position="410.28463,208.62669"
       orientation="0,-1"
       id="guide78633"
       inkscape:locked="false" />
    <sodipodi:guide
       position="603.05621,272.41792"
       orientation="0,-1"
       id="guide78635"
       inkscape:locked="false" />
    <sodipodi:guide
       position="460.30057,144.21935"
       orientation="0,-1"
       id="guide78941"
       inkscape:locked="false" />
  </sodipodi:namedview>
  <defs
     id="defs77096" />
  <g
     inkscape:label="Layer 1"
     inkscape:groupmode="layer"
     id="layer1"
     transform="translate(-153.81408,4.1487733)">
    <path
       id="path78288"
       style="fill:none;stroke:none;stroke-width:1.621;stroke-miterlimit:4;stroke-dasharray:none;stop-color:#000000"
       d="M 362.75761,-3.3382733 V 125.01578 H 217.61353 v -0.14444 c -34.88437,-0.36275 -62.97732,-28.914432 -62.98895,-64.017504 0.003,-35.109469 28.09822,-63.6711062 62.98895,-64.0339193 v -0.15819 z"
       sodipodi:nodetypes="cccccccc" />
    <circle
       style="fill:#ffffff;stroke:#333333;stroke-width:1.621;stroke-miterlimit:4;stroke-dasharray:none;stop-color:#000000"
       id="path78511"
       cx="415.99231"
       cy="39.783241"
       r="6.6399965" />
    <circle
       style="fill:#ffffff;stroke:#333333;stroke-width:1.621;stroke-miterlimit:4;stroke-dasharray:none;stop-color:#000000"
       id="circle78593"
       cx="415.99231"
       cy="71.004097"
       r="6.6399965" />
    <circle
       style="fill:#ffffff;stroke:#333333;stroke-width:1.621;stroke-miterlimit:4;stroke-dasharray:none;stop-color:#000000"
       id="circle78595"
       cx="415.99231"
       cy="103.81245"
       r="6.6399965" />
    <path
       style="fill:#808080;stroke:#808080;stroke-width:3.39042;stroke-linecap:round;stroke-linejoin:miter;stroke-miterlimit:4;stroke-dasharray:none;stroke-opacity:1"
       d="m 23.966804,41.946138 h 49.49476"
       id="path92674-3"
       sodipodi:nodetypes="cc" />
    <path
       style="fill:#808080;stroke:#808080;stroke-width:3.39042;stroke-linecap:round;stroke-linejoin:miter;stroke-miterlimit:4;stroke-dasharray:none;stroke-opacity:1"
       d="M 48.433924,23.646288 V 61.367297"
       id="path119159"
       sodipodi:nodetypes="cc" />
    <path
       style="fill:#808080;stroke:#808080;stroke-width:3.39042;stroke-linecap:round;stroke-linejoin:miter;stroke-miterlimit:4;stroke-dasharray:none;stroke-opacity:1"
       d="m 23.406144,85.677265 h 49.49476"
       id="path2671"
       sodipodi:nodetypes="cc" />
    <path
       style="fill:#808080;fill-opacity:1;stroke:#808080;stroke-width:0.641366;stroke-miterlimit:4;stroke-dasharray:none;stroke-opacity:1;opacity:0.6"
       d="m 259.36498,73.062199 c -3.34341,-0.505998 -7.2253,-3.259173 -8.82368,-6.25804 -4.44056,-8.331325 1.52399,-18.449757 10.87565,-18.449757 8.04289,0 13.86789,7.526415 11.99018,15.492377 -0.52375,2.221975 -1.63849,4.146033 -3.35958,5.798699 -2.92946,2.813015 -6.70101,4.019304 -10.68257,3.416721 z m 4.28242,-2.677637 c 6.08011,-1.290069 9.41675,-8.020703 6.77491,-13.666218 -0.90149,-1.926405 -1.63133,-2.844023 -3.20969,-4.03548 -3.01798,-2.27818 -7.45806,-2.523998 -10.74483,-0.594864 -2.62832,1.542677 -4.71716,4.874286 -4.93115,7.865011 -0.48634,6.797402 5.38868,11.857823 12.11076,10.431551 z"
       id="path14586"
       sodipodi:nodetypes="ssssssssssss" />
    <path
       style="fill:#808080;fill-opacity:1;stroke:#808080;stroke-width:0.641366;stroke-miterlimit:4;stroke-dasharray:none;stroke-opacity:1;opacity:0.8"
       d="m 255.56151,99.563413 c -1.12853,-0.320691 -2.33013,-1.25845 -2.83503,-2.212514 -0.22567,-0.426436 -0.86014,-2.738957 -1.40992,-5.138923 l -0.9996,-4.363569 -2.04434,-1.092456 c -1.12438,-0.600833 -2.70031,-1.553069 -3.5021,-2.116074 l -1.45778,-1.023638 -4.45978,1.471119 c -4.89819,1.615723 -5.71353,1.684868 -7.57899,0.642758 -1.11942,-0.625359 -1.76429,-1.528851 -4.52736,-6.343043 -3.86823,-6.73979 -3.80018,-7.215287 1.75524,-12.263379 l 3.42363,-3.11098 -0.0241,-4.04234 -0.0241,-4.042329 -1.9153,-1.705905 c -7.07077,-6.297738 -7.17415,-6.692974 -3.4546,-13.209313 3.1836,-5.577443 3.52939,-6.071653 4.74776,-6.785666 1.72677,-1.011965 3.05074,-0.89093 7.93887,0.725742 l 4.11711,1.361674 1.8222,-1.217056 c 1.0022,-0.669375 2.56164,-1.564849 3.46542,-1.989937 1.86891,-0.879047 1.58902,-0.292399 2.8559,-5.985627 0.88249,-3.965728 1.33411,-5.045541 2.46823,-5.901461 1.27399,-0.961472 2.39966,-1.125946 7.7157,-1.127393 5.7083,-0.0018 6.92809,0.22423 8.14263,1.507136 1.12288,1.186095 1.25417,1.551272 2.25938,6.284641 0.50918,2.397634 0.96416,4.394022 1.01109,4.436418 0.0469,0.04242 0.89008,0.480053 1.87371,0.972566 0.98362,0.492514 2.51087,1.374959 3.39389,1.960994 l 1.60548,1.06551 4.12115,-1.364571 c 4.78808,-1.5854 6.18348,-1.727261 7.83877,-0.796933 1.19656,0.6725 1.91684,1.688808 4.85753,6.853963 3.55788,6.249228 3.45524,6.856473 -2.00574,11.864535 l -3.36985,3.090361 -0.024,4.022495 -0.0241,4.022496 3.42361,3.11098 c 5.48,4.979553 5.58274,5.581211 2.01883,11.820352 -3.59206,6.288393 -4.31732,7.08327 -6.7975,7.449944 -0.96163,0.142158 -1.71758,-0.03509 -5.57041,-1.305966 l -4.45779,-1.470453 -1.82343,1.195124 c -1.00288,0.657303 -2.57817,1.609251 -3.50064,2.115408 l -1.67722,0.920304 -0.90456,4.273585 c -0.98177,4.638459 -1.12307,5.02926 -2.24823,6.217756 -1.22779,1.296915 -2.42138,1.511645 -8.26384,1.486625 -2.80909,-0.012 -5.48925,-0.13036 -5.95591,-0.26296 z m 11.70459,-2.465465 c 0.42905,-0.17934 0.92114,-0.496169 1.09353,-0.704062 0.17241,-0.207883 0.79448,-2.626762 1.38238,-5.375265 0.58789,-2.748513 1.13509,-5.104373 1.21598,-5.235247 0.0809,-0.130884 0.2941,-0.237967 0.47381,-0.237967 0.94778,0 5.11748,-2.325836 7.40212,-4.128873 l 0.60604,-0.4783 4.60601,1.475036 c 5.47769,1.754182 6.14713,1.831689 7.12686,0.825011 0.7747,-0.795991 5.23101,-8.618225 5.48396,-9.626076 0.28251,-1.125612 -0.5266,-2.149021 -4.20219,-5.315268 l -3.56022,-3.066839 0.0266,-5.25702 0.0266,-5.257029 3.77239,-3.373265 c 4.2539,-3.803843 4.45868,-4.140871 3.56317,-5.864476 -2.02157,-3.89101 -4.74039,-8.491682 -5.25963,-8.900112 -0.34028,-0.267669 -0.98026,-0.486659 -1.42221,-0.486659 -0.44192,0 -2.85446,0.653725 -5.36116,1.452721 -2.50672,0.798995 -4.65668,1.453536 -4.77769,1.454525 -0.12101,9.46e-4 -0.77554,-0.425692 -1.45454,-0.948186 -1.63599,-1.258973 -4.07283,-2.705865 -5.71926,-3.395884 -0.73333,-0.307333 -1.35785,-0.579748 -1.38782,-0.605367 -0.0299,-0.02566 -0.54615,-2.331107 -1.14706,-5.123319 -1.01196,-4.7022 -1.14682,-5.125931 -1.82809,-5.743411 l -0.73559,-0.666653 h -5.56804 -5.56802 l -0.73554,0.666653 c -0.68125,0.61748 -0.81612,1.041211 -1.82807,5.743411 -0.60092,2.792212 -1.1171,5.097701 -1.14707,5.123319 -0.0299,0.02566 -0.65449,0.299885 -1.38782,0.609472 -1.68719,0.712292 -3.76895,1.919479 -5.21969,3.026861 -1.97014,1.503847 -1.71898,1.508391 -6.72513,-0.121714 -2.48708,-0.809833 -4.89308,-1.472428 -5.34667,-1.472428 -0.45537,0 -1.09849,0.215361 -1.43609,0.480924 -0.59335,0.46674 -5.27403,8.296897 -5.62,9.401531 -0.38949,1.243607 0.2556,2.107481 4.19833,5.622278 l 3.81998,3.405347 -0.18119,1.272085 c -0.23414,1.643937 -0.23284,5.75736 0.003,7.411051 l 0.18355,1.290546 -3.70191,3.194244 c -2.92055,2.520019 -3.78766,3.409035 -4.10811,4.211906 -0.52129,1.306105 -0.46784,1.452449 2.24172,6.135378 2.89657,5.006168 2.7488,4.794964 3.65603,5.225484 0.91811,0.43566 0.86206,0.448197 7.25509,-1.621757 l 3.72192,-1.205097 1.87217,1.367238 c 1.83838,1.342541 5.4915,3.262712 6.20734,3.262712 0.20008,0 0.42996,0.107083 0.51086,0.237967 0.0809,0.130874 0.62808,2.486734 1.21598,5.235247 0.58789,2.748503 1.20992,5.167193 1.38227,5.374861 0.7195,0.866956 1.66504,1.011366 6.68487,1.021055 3.589,0.0069 5.12748,-0.07867 5.6969,-0.316589 z"
       id="path21033"
       sodipodi:nodetypes="cssccscsscscccscsscscccccscsscssssccccssccsscsscccccsssscsssccccscsssccscsccccccccscsssccscccsscsccssssccc" />
    <path
       style="fill:#808080;fill-opacity:1;stroke:#808080;stroke-width:0.641366;stroke-miterlimit:4;stroke-dasharray:none;stroke-opacity:1"
       d="m 430.69295,45.097162 c -1.12853,-0.32069 -2.33013,-1.258449 -2.83503,-2.212513 -0.22567,-0.426436 -0.86014,-2.738957 -1.40992,-5.138923 l -0.9996,-4.363569 -2.04434,-1.092456 c -1.12438,-0.600833 -2.70031,-1.553069 -3.5021,-2.116074 l -1.45778,-1.023638 -4.45978,1.471119 c -4.89819,1.615723 -5.71353,1.684868 -7.57899,0.642758 -1.11942,-0.625359 -1.76429,-1.528851 -4.52736,-6.343043 -3.86823,-6.73979 -3.80018,-7.215287 1.75524,-12.263379 l 3.42363,-3.1109799 -0.0241,-4.04234 -0.0241,-4.042329 -1.9153,-1.70590501 c -7.07077,-6.29773799 -7.17415,-6.69297399 -3.4546,-13.20931309 3.1836,-5.577443 3.52939,-6.071653 4.74776,-6.785666 1.72677,-1.011965 3.05074,-0.89093 7.93887,0.725742 l 4.11711,1.361674 1.8222,-1.217056 c 1.0022,-0.669375 2.56164,-1.564849 3.46542,-1.989937 1.86891,-0.879047 1.58902,-0.292399 2.8559,-5.985627 0.88249,-3.965728 1.33411,-5.045541 2.46823,-5.901461 1.27399,-0.961472 2.39966,-1.125946 7.7157,-1.127393 5.7083,-0.0018 6.92809,0.22423 8.14263,1.507136 1.12288,1.186095 1.25417,1.551272 2.25938,6.284641 0.50918,2.397634 0.96416,4.394022 1.01109,4.436418 0.0469,0.04242 0.89008,0.480053 1.87371,0.972566 0.98362,0.492514 2.51087,1.374959 3.39389,1.960994 l 1.60548,1.06551 4.12115,-1.364571 c 4.78808,-1.5854 6.18348,-1.727261 7.83877,-0.796933 1.19656,0.6725 1.91684,1.688808 4.85753,6.853963 3.55788,6.2492281 3.45524,6.8564731 -2.00574,11.8645351 l -3.36985,3.090361 -0.024,4.022495 -0.0241,4.022496 3.42361,3.1109799 c 5.48,4.979553 5.58274,5.581211 2.01883,11.820352 -3.59206,6.288393 -4.31732,7.08327 -6.7975,7.449944 -0.96163,0.142158 -1.71758,-0.03509 -5.57041,-1.305966 l -4.45779,-1.470453 -1.82343,1.195124 c -1.00288,0.657303 -2.57817,1.609251 -3.50064,2.115408 l -1.67722,0.920304 -0.90456,4.273585 c -0.98177,4.638459 -1.12307,5.02926 -2.24823,6.217756 -1.22779,1.296914 -2.42138,1.511644 -8.26384,1.486624 -2.80909,-0.012 -5.48925,-0.13036 -5.95591,-0.26296 z m 11.70459,-2.465464 c 0.42905,-0.17934 0.92114,-0.496169 1.09353,-0.704062 0.17241,-0.207883 0.79448,-2.626762 1.38238,-5.375265 0.58789,-2.748513 1.13509,-5.104373 1.21598,-5.235247 0.0809,-0.130884 0.2941,-0.237967 0.47381,-0.237967 0.94778,0 5.11748,-2.325836 7.40212,-4.128873 l 0.60604,-0.4783 4.60601,1.475036 c 5.47769,1.754182 6.14713,1.831689 7.12686,0.825011 0.7747,-0.795991 5.23101,-8.618225 5.48396,-9.626076 0.28251,-1.125612 -0.5266,-2.149021 -4.20219,-5.315268 l -3.56022,-3.066839 0.0266,-5.2570199 0.0266,-5.25702901 3.77239,-3.37326499 c 4.2539,-3.803843 4.45868,-4.140871 3.56317,-5.864476 -2.02157,-3.8910101 -4.74039,-8.4916821 -5.25963,-8.9001121 -0.34028,-0.267669 -0.98026,-0.486659 -1.42221,-0.486659 -0.44192,0 -2.85446,0.653725 -5.36116,1.452721 -2.50672,0.798995 -4.65668,1.453536 -4.77769,1.454525 -0.12101,9.46e-4 -0.77554,-0.425692 -1.45454,-0.948186 -1.63599,-1.258973 -4.07283,-2.705865 -5.71926,-3.395884 -0.73333,-0.307333 -1.35785,-0.579748 -1.38782,-0.605367 -0.0299,-0.02566 -0.54615,-2.331107 -1.14706,-5.123319 -1.01196,-4.7022 -1.14682,-5.125931 -1.82809,-5.743411 l -0.73559,-0.666653 h -5.56804 -5.56802 l -0.73554,0.666653 c -0.68125,0.61748 -0.81612,1.041211 -1.82807,5.743411 -0.60092,2.792212 -1.1171,5.097701 -1.14707,5.123319 -0.0299,0.02566 -0.65449,0.299885 -1.38782,0.609472 -1.68719,0.712292 -3.76895,1.919479 -5.21969,3.026861 -1.97014,1.503847 -1.71898,1.508391 -6.72513,-0.121714 -2.48708,-0.809833 -4.89308,-1.472428 -5.34667,-1.472428 -0.45537,0 -1.09849,0.215361 -1.43609,0.480924 -0.59335,0.46674 -5.27403,8.2968971 -5.62,9.4015311 -0.38949,1.243607 0.2556,2.107481 4.19833,5.622278 l 3.81998,3.40534699 -0.18119,1.27208501 c -0.23414,1.643937 -0.23284,5.75736 0.003,7.411051 l 0.18355,1.2905459 -3.70191,3.194244 c -2.92055,2.520019 -3.78766,3.409035 -4.10811,4.211906 -0.52129,1.306105 -0.46784,1.452449 2.24172,6.135378 2.89657,5.006168 2.7488,4.794964 3.65603,5.225484 0.91811,0.43566 0.86206,0.448197 7.25509,-1.621757 l 3.72192,-1.205097 1.87217,1.367238 c 1.83838,1.342541 5.4915,3.262712 6.20734,3.262712 0.20008,0 0.42996,0.107083 0.51086,0.237967 0.0809,0.130874 0.62808,2.486734 1.21598,5.235247 0.58789,2.748503 1.20992,5.167193 1.38227,5.374861 0.7195,0.866956 1.66504,1.011366 6.68487,1.021055 3.589,0.0069 5.12748,-0.07867 5.6969,-0.316589 z m -7.69603,-24.904837 c -3.34341,-0.505998 -7.2253,-3.259173 -8.82368,-6.25804 -4.44056,-8.3313249 1.52399,-18.4497569 10.87565,-18.4497569 8.04289,0 13.86789,7.52641499 11.99018,15.492377 -0.52375,2.2219749 -1.63849,4.1460329 -3.35958,5.7986989 -2.92946,2.813015 -6.70101,4.019304 -10.68257,3.416721 z m 4.28242,-2.677637 c 6.08011,-1.290069 9.41675,-8.0207029 6.77491,-13.6662179 -0.90149,-1.92640501 -1.63133,-2.844023 -3.20969,-4.03548 -3.01798,-2.27818 -7.45806,-2.523998 -10.74483,-0.594864 -2.62832,1.542677 -4.71716,4.874286 -4.93115,7.865011 -0.48634,6.7974019 5.38868,11.8578229 12.11076,10.4315509 z"
       id="path21035" />
  </g>
</svg>
