<?xml version="1.0" encoding="UTF-8"?>
<!-- Created with Inkscape (http://www.inkscape.org/) -->
<svg width="146.26mm" height="88.297mm" version="1.1" viewBox="0 0 146.26 88.297" xmlns="http://www.w3.org/2000/svg">
 <g transform="translate(-41.831 -113.96)">
  <path d="m155.07 202.02c-0.49146-0.49146-0.38541-0.9542 0.32541-1.42 0.40782-0.26721 0.67624-0.72559 0.7276-1.2425 0.11135-1.1206 0.74285-1.2947 0.74285-0.2048 0 0.60074 0.0918 0.77315 0.33073 0.62141 0.47418-0.30109 1.7852-0.26705 1.79 0.0465 2e-3 0.14552 0.11482 0.0894 0.2502-0.12463 0.13538-0.21407 0.33096-0.3044 0.43463-0.20073 0.10366 0.10366 0.34826 0.0559 0.54355-0.10621 0.26347-0.21866 0.35507-0.21283 0.35507 0.0226 0 0.1745 0.30739-0.048 0.68308-0.49451 0.53961-0.64129 0.78237-0.75865 1.1558-0.55878 0.26001 0.13916 0.5534 0.17238 0.65195 0.0738 0.0986-0.0986 0.10482 0.35212 0.0139 1.0015l-0.16528 1.1807 0.49023-0.6022c0.36043-0.44276 0.56832-0.52412 0.78514-0.3073 0.21682 0.21683 0.42128 8e-3 0.77218-0.78686 0.63744-1.4448 0.9419-1.3777 0.4945 0.10886-0.38065 1.2648-0.28183 1.4817 0.33142 0.7276 0.27542-0.3387 0.41364-0.37378 0.51478-0.13064 0.0761 0.18281 0.22574 0.27832 0.33265 0.21224 0.44425-0.27455 1.6125-0.35759 1.6125-0.1146 0 0.14447 0.0952 0.20381 0.21163 0.13188 0.11639-0.0719 0.35996 0.10673 0.54126 0.39704 0.29787 0.47696 0.28082 0.50171-0.17684 0.25678-0.27856-0.14908-0.59027-0.18727-0.69268-0.0849-0.10241 0.10241-1.3218 0.20962-2.7098 0.23826-2.303 0.0475-2.5354 7e-3 -2.6586-0.46387-0.13064-0.49958-0.15072-0.4977-0.63392 0.0594-0.64471 0.74335-0.81555 0.54763-0.49564-0.56782 0.31487-1.0979 0.1315-1.3719-0.29366-0.43872-0.33458 0.73431-1.4206 1.2026-2.749 1.1856-1.645-0.0212-1.854 0.0623-2.249 0.89885-0.45182 0.95683-0.80471 1.1479-1.2667 0.68596zm1.2652-1.1364c0.16726-0.50679 0.25224-1.1914 0.18885-1.5214-0.0889-0.46295-0.12349-0.4133-0.1513 0.21752-0.0263 0.59563-0.21551 0.8992-0.69749 1.1188-0.77989 0.35534-0.88362 1.1065-0.15281 1.1065 0.34623 0 0.60575-0.29424 0.81275-0.92146zm11.643-0.79834c0-0.0728-0.0595-0.13229-0.13229-0.13229-0.0728 0-0.1323 0.0595-0.1323 0.13229 0 0.0728 0.0595 0.1323 0.1323 0.1323s0.13229-0.0595 0.13229-0.1323zm-5.2917-1.0583c0-0.0728-0.0595-0.13229-0.13229-0.13229-0.0728 0-0.13229 0.0595-0.13229 0.13229 0 0.0728 0.0595 0.13229 0.13229 0.13229 0.0728 0 0.13229-0.0595 0.13229-0.13229zm-39.65 1.9716c-0.52302-0.21456-0.60656-0.40553-0.51615-1.1799 0.0593-0.50817 0.0221-0.92395-0.0827-0.92395-0.10482 0-1.2418 0.26382-2.5266 0.58627-3.2777 0.8226-8.3273 0.80592-12.399-0.0409l-2.9192-0.60718-1.0147 0.6886c-1.3346 0.9057-2.5095 1.2417-4.9369 1.4119-1.6725 0.11725-2.0761 0.0647-2.4615-0.32071-0.78506-0.78505-0.43521-1.5173 1.0956-2.2933 1.6211-0.82168 1.444-1.0955-0.71217-1.1014-1.6118-4e-3 -5.1615 1.079-6.3814 1.9476l-0.71684 0.51043-0.14248-1.0622c-0.19536-1.4565-0.67728-2.0867-2.3747-3.105-2.0834-1.2499-4.1762-1.5288-7.3458-0.97884-3.3847 0.58726-3.9182 0.91664-5.9273 3.6596-0.87813 1.1989-2.1345 2.0256-3.0804 2.027-0.59444 7.9e-4 -0.75076-0.20428-1.2594-1.6527-0.96766-2.7552-0.77406-3.5261 1.13-4.4993 0.74825-0.38245 0.70457-0.39301-1.0936-0.26436-1.661 0.11885-2.0186 0.0557-3.1606-0.55831-1.0668-0.57359-4.7173-2.0202-5.0979-2.0202-0.39108 0 1.119-1.2267 2.1598-1.7545 2.0811-1.0553 4.8904-1.2938 8.4452-0.71681 4.4836 0.72772 6.0407 0.61506 8.8726-0.64195 1.2917-0.57337 3.2361-1.5346 4.3208-2.1361l1.9722-1.0936-1.3974-4e-3c-1.0284-3e-3 -1.4398-0.1141-1.5581-0.4224-0.5796-1.5104 4.1946-2.4052 5.5581-1.0417 0.34448 0.34448 0.82358 0.23948 4.0534-0.88826 2.0145-0.70341 4.4592-1.4904 5.4327-1.7489 1.9459-0.51671 2.9626-1.3383 3.2783-2.6491l0.19117-0.79375-0.73943 0.72949c-1.5451 1.5243-2.4436 1.8711-5.7861 2.2332-1.743 0.1888-3.2049 0.30743-3.2487 0.26362-0.0438-0.0438 1.1892-0.72811 2.74-1.5207 3.8344-1.9596 6.156-3.6426 7.8386-5.6825 2.2005-2.6677 2.8348-4.0273 3.0668-6.5736 0.15042-1.6503 0.38064-2.5115 0.93503-3.4977l0.73547-1.3084-0.86041-2.5059c-0.83101-2.4203-0.86152-2.6597-0.89268-7.006-0.0256-3.5639 0.0677-4.8898 0.44817-6.3732 0.26424-1.0302 0.44273-2.3994 0.39664-3.0427-0.0679-0.94769-0.18373-0.5671-0.61034 2.0053-0.538 3.2442-0.62509 6.4863-0.42286 15.743 0.0795 3.6368 0.0281 4.2604-0.45396 5.5083-1.0617 2.7488-0.97349 2.6943-4.357 2.6897-2.5366-3e-3 -4.0836-0.25386-3.6243-0.58662 0.0686-0.0497 0.62999-0.42905 1.2476-0.8431 1.4102-0.94532 2.953-2.6081 3.8667-4.1672 0.94248-1.6082 2.0262-4.7663 2.0031-5.8373l-0.0187-0.86486-0.37127 1.0121c-0.74727 2.037-3.1679 6.3362-4.3403 7.7085-1.2303 1.4401-2.5847 2.3879-3.9867 2.79-0.95138 0.27285-6.5599-0.79235-7.5346-1.431l-0.63396-0.41538 0.62227-1.7894c0.34225-0.98417 1.1096-3.0861 1.7052-4.671 0.59561-1.5849 1.0828-2.9541 1.0828-3.0427-1e-4 -0.0886-0.87169 1.3868-1.9369 3.2785-3.4214 6.0764-3.2626 5.9182-5.6152 5.5957-1.3914-0.19071-5.3542-1.6629-6.0076-2.2318-1.044-0.90907-0.0916-4.5107 2.418-9.1435l1.3122-2.4224-3.2258 3.175c-3.3063 3.2542-6.016 5.1594-7.338 5.1594-0.38182 0-1.2775-0.30799-1.9904-0.68444-3.578-1.8894-3.4326-2.7453 1.5177-8.9305 1.1833-1.4785 2.083-2.6286 1.9994-2.5558-0.0836 0.0728-1.8717 1.8289-3.9735 3.9026-3.4269 3.381-3.9156 3.7703-4.7327 3.7703-1.9139 0-4.9712-2.8762-4.6056-4.3327 0.19344-0.77072 2.0881-2.5232 5.3236-4.9241 2.7324-2.0276 3.8592-3.1659 2.1167-2.1383-4.428 2.6111-9.9813 5.0451-11.511 5.0451-0.60637 0-1.156-0.31895-2.1468-1.2457-1.6468-1.5404-1.9278-2.0283-1.5618-2.7122 0.38984-0.72841 3.1289-2.6222 6.0912-4.2113 1.3824-0.74164 2.4335-1.3501 2.3356-1.3521-0.09786-2e-3 -1.7052 0.66521-3.5719 1.4827-6.7628 2.9618-7.427 3.0571-9.0488 1.2976-0.60062-0.65159-1.092-1.366-1.092-1.5875 0-0.97306 2.7522-2.6513 7.4631-4.5509 1.6433-0.66264 3.0808-1.2899 3.1944-1.394 0.1136-0.10403-0.66031 0.0389-1.7198 0.31762-1.3364 0.35158-3.2458 0.55185-6.2352 0.65398-4.1966 0.14339-4.3252 0.13181-4.9386-0.44442-0.41946-0.39407-0.77371-1.2238-1.0608-2.4847-0.23705-1.0412-0.55301-2.3512-0.70214-2.911s-0.21854-1.0706-0.15424-1.1348c0.06429-0.0643 0.75715 0.43393 1.5397 1.1072 2.855 2.4562 7.2837 4.106 10.924 4.0696l1.8759-0.0188-1.8521-0.51919c-7.0608-1.9793-10.425-3.5897-11.475-5.4931-0.93333-1.6919-1.0315-2.4772-0.77926-6.2333 0.16335-2.4324 0.38041-3.756 0.75477-4.6023 0.28902-0.65336 0.59414-1.1193 0.67806-1.0354 0.08392 0.0839 0.26761 0.66455 0.40821 1.2903 0.44601 1.985 1.7181 4.243 4.0209 7.1373 3.7688 4.7368 7.6266 7.3326 12.878 8.6651 3.6198 0.91856 8.0176 1.2884 9.7864 0.82308 2.5815-0.67918 3.0959-0.64359 5.1143 0.35383 4.8732 2.4082 10.061 3.9336 17.375 5.1096 3.4356 0.55234 5.3611 0.70798 9.0385 0.73064 2.5701 0.0159 4.7569-0.0546 4.8596-0.15647 0.1027-0.10189 0.0545-1.306-0.107-2.6759-0.28811-2.4429-0.89216-4.724-2.2814-8.6152-0.38317-1.0732-0.85953-3.1921-1.0586-4.7086-0.43257-3.2954-1.2877-6.025-2.0562-6.5632-0.67186-0.47059-0.80056-0.37943 1.7916-1.2691 2.9738-1.0206 3.5108-0.9693 5.2061 0.49726l1.4085 1.2185 2.5136 0.0383c2.0106 0.0306 2.7253 0.1514 3.5719 0.60368 0.68864 0.3679 1.9826 0.66962 3.7042 0.86373 1.9208 0.21656 3.0414 0.49665 4.0892 1.0221 2.1572 1.0817 2.487 1.6883 2.6121 4.8044 0.11274 2.807-0.16595 4.1488-1.0228 4.9242-0.48102 0.43531-0.51921 0.43677-0.51921 0.0198 0-0.28441-0.51124-0.68807-1.3891-1.0968-1.8417-0.85742-3.7562-0.8756-4.988-0.0474-0.83872 0.56395-0.90427 0.71333-0.97723 2.2274-0.0867 1.7993 0.71387 5.4856 1.474 6.7871 0.26559 0.45474 0.80372 0.89126 1.2545 1.0176 1.4122 0.39577 9.3865 0.56127 12.186 0.25289 3.8773-0.42717 11.025-2.41 18.899-5.2429 3.5038-1.2606 3.6713-1.2818 9.1281-1.1539 3.954 0.0927 9.529-1.2224 13.626-3.2143 1.8911-0.91939 2.649-1.5012 4.763-3.6565 1.3827-1.4097 2.865-3.0885 3.294-3.7305s0.97419-1.4055 1.2115-1.6965c0.78243-0.95956 1.6113-3.4104 1.7673-5.2255 0.0844-0.98227 0.22877-1.7859 0.32081-1.7859 0.39537 0 1.3757 0.88248 1.72 1.5483 0.47845 0.92523 0.94629 4.2832 0.94629 6.7922 0 2.8188-0.41744 4.483-1.3136 5.2372-0.98858 0.83183-4.9642 2.8706-7.8613 4.0314l-2.3344 0.93537 2.3812-0.11314c1.5234-0.0724 2.8878-0.3081 3.7873-0.65429 1.7949-0.69082 4.1434-2.4596 4.7283-3.5613 0.37543-0.70705 0.47191-0.76781 0.55988-0.35264 0.16294 0.76898-0.45371 3.5843-1.0929 4.9894-0.43431 0.95482-0.7771 1.3254-1.4234 1.5387-0.89217 0.29444-7.2415 0.37226-9.3194 0.11422-1.0818-0.13435-0.96664-0.0554 1.0977 0.75245 2.4752 0.96863 4.6581 2.0436 5.8296 2.8707 0.93671 0.66138 0.95925 1.7557 0.0675 3.2774-1.1712 1.9986-2.3556 1.8122-9.394-1.4782-4.9193-2.2997-6.4071-2.9401-6.5347-2.8125-0.0566 0.0566 2.4547 1.3693 5.5807 2.9172 5.9999 2.9708 6.9472 3.6719 6.6362 4.9109-0.21448 0.85456-0.54179 1.2456-1.8193 2.1737-1.2638 0.9181-2.42 0.96611-4.7218 0.19606-1.8577-0.62151-7.5384-3.3423-10.452-5.0061-1.055-0.60244-1.9182-1.0416-1.9182-0.97589s0.92274 0.75231 2.0505 1.5258c5.7778 3.9627 9.3266 7.112 9.3266 8.2766 0 0.44431-0.32763 0.93426-0.99219 1.4838-1.1802 0.97587-3.4071 2.1285-4.1122 2.1285-0.77577 0-1.9038-0.89295-5.324-4.2146-3.2102-3.1177-3.2938-3.0202-0.43781 0.51044 1.7227 2.1297 2.664 3.7916 2.664 4.7034 0 0.74174-0.84831 1.5088-2.5688 2.3227-2.1222 1.004-2.7783 1.0596-4.2303 0.35842-1.3476-0.65072-4.8605-3.9801-7.1779-6.803-0.75283-0.91706-1.3688-1.6062-1.3688-1.5315 0 0.0747 0.54692 1.3013 1.2154 2.7257 3.4101 7.2664 3.818 8.5629 2.9273 9.3021-0.61798 0.51287-5.9675 2.4158-6.7913 2.4158-1.0987 0-2.5762-1.4071-4.5045-4.2899-0.86798-1.2976-1.5781-2.3095-1.5781-2.2486 0 0.0609 0.66116 1.5124 1.4692 3.2256 0.80808 1.7132 1.4332 3.3678 1.3891 3.6769-0.15113 1.0593-4.7585 2.7565-7.8137 2.8784-1.423 0.0567-3.1214-0.99521-4.9078-3.0399-1.8523-2.12-3.0402-4.07-3.6377-5.9711-0.73718-2.3456-0.60415-0.97406 0.16177 1.6678 1.0952 3.7777 3.268 6.4713 5.5681 6.9028 1.4937 0.28022 1.2578 0.57133-0.761 0.93928-2.9774 0.54265-5.104 0.46741-5.7757-0.20434-0.64863-0.64863-1.2177-3.9721-1.3886-8.1092-0.0588-1.4233-0.16345-2.6445-0.23261-2.7136-0.0692-0.0692-0.2783 0.55597-0.46476 1.3892-0.18646 0.8332-0.51968 1.8938-0.7405 2.3568-0.3714 0.77883-0.36248 0.89838 0.11902 1.5956 0.54708 0.79215 1.1441 2.6532 1.6557 5.1614 0.4375 2.1449 2.1761 5.5675 3.6032 7.0932 1.3712 1.4659 3.1912 2.701 4.675 3.1725 1.8932 0.60164 1.4702 0.87763-1.1508 0.75098-1.9552-0.0945-2.6901-0.24519-3.4548-0.70843-1.671-1.0123-2.9074-2.9793-3.6786-5.8524l-0.46164-1.7198-0.0258 1.4552c-0.0142 0.80036-0.1 2.2405-0.19062 3.2004l-0.16487 1.7452 0.82482-0.12106c1.3779-0.20223 2.1535 0.13559 2.5633 1.1164 0.36037 0.86248 0.43901 0.90108 2.1654 1.0629 3.222 0.30209 5.9747 0.95372 8.9725 2.124 3.905 1.5245 4.8807 2.0425 7.2673 3.8589 3.1871 2.4255 4.3056 4.0932 4.1508 6.1887-0.10402 1.4081-0.63331 1.4773-2.1932 0.28662-0.67815-0.51765-1.4322-0.93362-1.6758-0.9244-0.28868 0.0109-0.21533 0.10754 0.2108 0.2776 0.98522 0.3932 2.4298 1.5681 2.3228 1.8892-0.10281 0.30843-6.0487 1.8842-11.311 2.9974-2.8828 0.60991-3.4334 0.81353-4.2898 1.5864-2.7974 2.5245-7.7145 4.5074-9.4311 3.8032zm-19.915-1.9416 0.62792-0.34811-0.62792-0.16807c-1.1684-0.31273-2.6123-0.20245-2.6123 0.19954 0 0.70838 1.5638 0.89793 2.6123 0.31664zm27.926-1.4988c0.70014-0.44402 1.2206-0.85967 1.1566-0.92367-0.13457-0.13457-2.9661 0.55218-3.8473 0.93311-0.91489 0.39549-0.7075 0.79785 0.41122 0.79785 0.6676 0 1.4352-0.27184 2.2795-0.80729zm-36.536-0.79936c0.31551-0.0105-0.91326-0.35915-2.7306-0.7747-1.8174-0.41556-3.3456-0.71424-3.3961-0.66375-0.34438 0.34438 4.4801 1.8012 5.2007 1.5704 0.19381-0.0621 0.61052-0.12146 0.92605-0.13199zm28.62-1.2286c4.6015-0.5939 7.8856-0.71938 8.6366-0.32998 0.59475 0.30836 0.59062 0.28793-0.0888-0.43846-0.97588-1.0433-2.053-3.4889-2.2429-5.0924-0.17223-1.4542 0.1872-3.2374 0.98571-4.8901l0.51431-1.0645-0.80438 0.77064c-0.61842 0.59249-1.0472 1.5367-1.855 4.0842-1.3903 4.3851-1.9041 5.2647-3.558 6.0917-1.3215 0.66077-1.3311 0.66146-9.1281 0.66079-7.679-5.3e-4 -12.82-0.31439-17.595-1.0737-2.7363-0.43515-3.79-0.48237-3.4264-0.15355 0.46856 0.42364 4.195 0.87709 12.158 1.4794 8.3813 0.63396 11.21 0.62637 16.404-0.044zm-46.873-1.1736c-0.0228-0.1962-0.22713-1.3092-0.45398-2.4734l-0.41245-2.1167 0.15158 2.2796c0.10575 1.5902 0.05053 2.4684-0.18256 2.9039-0.33019 0.61697-0.32661 0.61926 0.3024 0.19383 0.3501-0.23679 0.61786-0.59106 0.59502-0.78725zm42.774-0.26783c1.0104-1.0104 1.2569-1.6116 1.7178-4.1899 0.46393-2.5953 0.59498-2.9308 1.421-3.6367l0.69499-0.594-0.8627-1e-3c-1.0623-2e-3 -5.3498 0.93719-6.5277 1.4293-0.99163 0.41433-1.5166 1.0944-2.9576 3.8312-0.566 1.075-1.3983 2.3528-1.8496 2.8395-0.4513 0.48675-0.75887 0.94666-0.68351 1.022 0.0754 0.0754 1.9535 0.13702 4.1736 0.13702h4.0366l0.83716-0.83715zm-40.468-0.50177c0.4703-0.74329 0.27464-2.0992-0.40034-2.7742-0.73271-0.73271-1.6705-0.85257-1.9042-0.2434-0.12999 0.33875 0.1004 1.6034 0.59056 3.2417 0.13229 0.44217 1.3971 0.2768 1.714-0.22411zm-1.603-0.11629c0-0.0728 0.0595-0.13229 0.13229-0.13229 0.0728 0 0.13229 0.0595 0.13229 0.13229 0 0.0728-0.0595 0.13229-0.13229 0.13229-0.0728 0-0.13229-0.0595-0.13229-0.13229zm1.0583-0.26458c0-0.0728 0.0595-0.1323 0.13229-0.1323 0.0728 0 0.1323 0.0595 0.1323 0.1323s-0.0595 0.13229-0.1323 0.13229-0.13229-0.0595-0.13229-0.13229zm-0.52916-0.52917c0-0.0728 0.0595-0.13229 0.13229-0.13229 0.0728 0 0.13229 0.0595 0.13229 0.13229 0 0.0728-0.0595 0.13229-0.13229 0.13229-0.0728 0-0.13229-0.0595-0.13229-0.13229zm0.79375-0.52917c0-0.0728 0.0595-0.13229 0.13229-0.13229 0.0728 0 0.13229 0.0595 0.13229 0.13229 0 0.0728-0.0595 0.13229-0.13229 0.13229-0.0728 0-0.13229-0.0595-0.13229-0.13229zm-0.26459-0.92604c0-0.19403 0.0794-0.2734 0.17639-0.17639 0.097 0.097 0.097 0.25577 0 0.35278-0.097 0.097-0.17639 0.0176-0.17639-0.17639zm2.6349 0.39688c0.18597-0.87313 0.56249-2.0299 0.83672-2.5706l0.49859-0.9831-1.2575 0.53691c-1.6346 0.6979-1.8208 0.90381-1.2938 1.4308 0.5941 0.59411 0.79165 1.5377 0.59775 2.8553-0.22981 1.5616 0.20577 0.66738 0.61827-1.2693zm21.901 1.4758c0.59485-0.43091 1.7523-1.6242 2.5722-2.6517 2.0487-2.5677 2.4135-2.8662 4.2379-3.4686l1.5946-0.52651-2.249 0.14266c-2.5721 0.16316-5.2085 0.58428-6.7469 1.0777-1.7151 0.55009-4.4621 1.8862-4.9517 2.4084-0.24959 0.26622-0.70687 0.72216-1.0162 1.0132-0.76716 0.72185-1.4022 1.9962-1.1302 2.2681 0.12262 0.12262 1.2474 0.25777 2.4995 0.30033 1.2521 0.0426 2.6887 0.10946 3.1924 0.14867 0.6702 0.0522 1.2058-0.13881 1.9973-0.7122zm6.2119-0.21898c0.52649-0.54571 1.3854-1.7066 1.9086-2.5797 0.52326-0.87313 1.1506-1.8852 1.3942-2.249 0.24354-0.3638-0.16161-0.0833-0.90033 0.62339-1.2918 1.2357-1.3872 1.2783-2.4962 1.1124-1.1873-0.17756-1.1495-0.0146 0.18291 0.78751 0.43079 0.25934 0.43035 0.32452-8e-3 1.1906-0.25507 0.50394-0.70872 1.1842-1.0081 1.5116-0.92694 1.0138-0.0871 0.65416 0.92693-0.39687zm25.018 0.80318c-0.41861-0.0636-1.067-0.5198-1.5417-1.0848l-0.81928-0.97511 0.41722 1.0245c0.22947 0.56348 0.41722 1.0695 0.41722 1.1245 0 0.055 0.50601 0.0822 1.1245 0.0603 0.77983-0.0275 0.90306-0.0733 0.40206-0.14936zm-39.127-1.5188c1.4199-2.516 4.7924-4.5783 8.6287-5.2766 3.9048-0.71073 10.674-1.398 14.42-1.464 2.7556-0.0486 10.058-1.1561 12.149-1.8426 1.7484-0.57398 4.6656-2.5744 3.3027-2.2648-0.4222 0.0959-1.5354 0.52419-2.4737 0.95175-2.3833 1.086-3.2186 1.2316-9.595 1.673-11.524 0.79765-15.59 1.2362-18.654 2.0114-5.0715 1.2833-7.2491 2.7195-8.273 5.4561-0.50217 1.3422-0.66821 2.199-0.42615 2.199 0.0589 0 0.47357-0.64946 0.92156-1.4432zm30.104-2.3153 1.8343-3.6263-1.3864 1.3112c-0.7625 0.72114-1.5048 1.3112-1.6496 1.3112s-0.59837 0.13577-1.008 0.30171l-0.74483 0.30171 0.66146 0.17626c0.73016 0.19456 0.81147 0.73211 0.44086 2.9146-0.11028 0.64938-0.15139 1.1256-0.0914 1.0583 0.06-0.0673 0.93459-1.7542 1.9435-3.7486zm12.734 3.3716c0.30376-0.30375-0.13096-0.2937-1.4012 0.0324l-1.3229 0.33962 1.2909-0.1149c0.71002-0.0632 1.3549-0.1789 1.4332-0.25712zm-48.084-4.0652c0.16936-0.53452 0.59643-1.5076 0.94904-2.1625l0.64112-1.1906-1.4652 1.6308c-1.2296 1.3686-1.7729 1.7484-3.3789 2.3621l-1.9137 0.73127 1.368 0.3081c1.7426 0.39247 2.6661 1.0006 2.9104 1.9164 0.15936 0.59752 0.22713 0.43132 0.38727-0.94972 0.10676-0.92069 0.33267-2.1113 0.50202-2.6458zm49.638 3.7466c-0.097-0.097-0.25577-0.097-0.35278 0-0.097 0.097-0.0176 0.17638 0.17639 0.17638 0.19403 0 0.2734-0.0794 0.17639-0.17638zm1.807-1.7963c0.77296-0.2247 1.7442-0.42042 2.1584-0.43493 0.41417-0.0145 1.0507-0.1217 1.4145-0.23821 1.4901-0.4772-0.97941-0.26312-3.038 0.26337-2.1767 0.5567-2.6323 0.80639-3.1009 1.6992-0.22622 0.43107-0.13143 0.39518 0.43572-0.165 0.39866-0.39376 1.3573-0.89977 2.1302-1.1245zm0.543 1.3228c0.88017-0.2076 2.2196-0.40571 2.9766-0.44025 0.75693-0.0345 1.3762-0.15497 1.3762-0.26763s-0.5932-0.13458-1.3182-0.0487c-0.87903 0.10411-1.452 0.0451-1.7198-0.17716-0.24036-0.19948-0.40158-0.2229-0.40158-0.0583 0 0.15121-0.68461 0.51358-1.5214 0.80526-1.8163 0.63314-1.5852 0.70415 0.60812 0.18683zm-4.5107-1.0344 0.79375-0.41805-0.79375 0.14205c-0.43656 0.0781-1.6867 0.30228-2.7781 0.4981l-1.9844 0.35605 1.5057 0.0239c0.82816 0.0131 1.5837 0.15007 1.679 0.30429 0.11409 0.1846 0.27763 0.14909 0.47864-0.10393 0.16793-0.21139 0.66251-0.57247 1.0991-0.8024zm9.8337 0.44952c-0.097-0.097-0.25577-0.097-0.35278 0-0.097 0.097-0.0176 0.17639 0.17639 0.17639 0.19402 0 0.2734-0.0794 0.17639-0.17639zm-9.836-2.0299c2.5219-0.51515 2.9518-0.68042 3.2372-1.2444 1.1447-2.2621-1.2005-4.7925-4.0463-4.3657-1.4501 0.21746-2.4959 0.64644-2.4959 1.0238 0 0.14642-0.0778 0.18844-0.17283 0.0934-0.27183-0.27182-1.3912 1.4103-1.5689 2.3577-0.27953 1.49 0.4473 2.7655 1.5622 2.7416 0.31702-7e-3 1.8851-0.27967 3.4845-0.60639zm-2.1144-0.84466c-0.43656-0.35784-1.0616-0.65122-1.3891-0.65194-0.32743-7.9e-4 -0.59532-0.0459-0.59532-0.10028 0-0.0544 0.3113-0.65594 0.69177-1.3367 1.3612-2.4355 2.8296-2.7219 4.7871-0.93365 1.3841 1.2645 1.6076 1.5755 1.1323 1.5755-0.1717 0-0.85323 0.47625-1.5145 1.0583-1.3852 1.2193-2.0045 1.2966-3.1122 0.38867zm1.9844 0.0391c0-0.0558-0.29405-0.15766-0.65345-0.22637-0.3594-0.0687-0.5905-0.023-0.51355 0.10145 0.13549 0.21923 1.167 0.32964 1.167 0.12492zm-1.5875-0.56001c0-0.0728-0.0595-0.1323-0.13229-0.1323-0.0728 0-0.13229 0.0595-0.13229 0.1323s0.0595 0.13229 0.13229 0.13229c0.0728 0 0.13229-0.0595 0.13229-0.13229zm-0.73295-1.2996c-0.12704-1.0217-0.13319-1.0268-0.48224-0.39687-0.48207 0.87003-0.45734 1.2418 0.0907 1.3637 0.25467 0.0566 0.47589 0.0951 0.49162 0.0855 0.0157-0.01-0.0293-0.48318-0.10009-1.0524zm4.193-0.33428c-0.34473-0.25681-0.44693-0.20287-0.58736 0.31001-0.0935 0.3415-0.26761 0.77907-0.38689 0.97237-0.11929 0.1933 0.14503 0.0538 0.58736-0.31 0.70581-0.58051 0.75316-0.69951 0.38689-0.97238zm-1.6609 0.91946c0.17462-0.17462 0.3081-0.56158 0.29661-0.85989-0.0145-0.37715-0.0641-0.42149-0.16273-0.14553-0.25491 0.71327-0.9032 1.0617-1.4404 0.77419-0.47076-0.25194-0.68649 2e-3 -0.31623 0.37234 0.28748 0.28748 1.2805 0.20113 1.6228-0.14111zm5.5582 1.6661c1.7053-0.86084 2.3102-1.6982 2.0507-2.8386-0.21537-0.9464-0.52507-1.3392-1.9056-2.4167-1.081-0.8438-1.6817-1.0696-1.6817-0.63223 0 0.37573 0.95594 1.1135 1.168 0.90148 0.10946-0.10946 0.15933-0.0204 0.11083 0.19786-0.0512 0.23053 0.0874 0.38455 0.33072 0.36747 0.23041-0.0162 0.42081 0.1029 0.4231 0.26459 2e-3 0.16169 0.0847 0.65158 0.18309 1.0886 0.15984 0.70996 0.0207 0.95674-1.3056 2.3151-0.81647 0.83624-1.3519 1.5204-1.1898 1.5204 0.1621 0 0.97939-0.34562 1.8162-0.76805zm4.2033-0.19626c0.17787-0.46351-0.61718-1.2427-1.0163-0.99598-0.34366 0.2124-0.26895 1.105 0.10512 1.2559 0.57692 0.2328 0.73997 0.18629 0.91119-0.25991zm-4.6646-2.7827c-0.21683-0.54107-0.249-0.48594-0.25664 0.43971-7e-3 0.80699 0.0522 0.95391 0.24791 0.61862 0.1618-0.2772 0.16502-0.66833 9e-3 -1.0583zm-14.966-0.75092c0.0899-0.14552 0.10399-0.26458 0.0312-0.26458-0.0728 0-0.20587 0.11906-0.29581 0.26458-0.0899 0.14552-0.10399 0.26458-0.0312 0.26458 0.0728 0 0.20587-0.11906 0.29581-0.26458zm14.684-0.66146c0-0.0728-0.0595-0.13229-0.1323-0.13229s-0.13229 0.0595-0.13229 0.13229c0 0.0728 0.0595 0.13229 0.13229 0.13229 0.0728 0 0.1323-0.0595 0.1323-0.13229zm-33.602-3.175c0-0.0728-0.0595-0.13229-0.13229-0.13229-0.0728 0-0.13229 0.0595-0.13229 0.13229 0 0.0728 0.0595 0.13229 0.13229 0.13229 0.0728 0 0.13229-0.0595 0.13229-0.13229zm15.081 0c0-0.0728-0.0595-0.13229-0.13229-0.13229-0.0728 0-0.13229 0.0595-0.13229 0.13229 0 0.0728 0.0595 0.13229 0.13229 0.13229 0.0728 0 0.13229-0.0595 0.13229-0.13229zm-14.254-0.59531c0.32911-0.41965 0.31975-0.429-0.0999-0.0999-0.44073 0.34565-0.58089 0.56292-0.36313 0.56292 0.0549 0 0.2633-0.20836 0.46302-0.46302zm0.49542 0.33073c0-0.0728-0.0595-0.13229-0.13229-0.13229-0.0728 0-0.13229 0.0595-0.13229 0.13229 0 0.0728 0.0595 0.13229 0.13229 0.13229 0.0728 0 0.13229-0.0595 0.13229-0.13229zm13.097-0.13229c0.0899-0.14552 0.10398-0.26459 0.0312-0.26459-0.0728 0-0.20587 0.11907-0.29581 0.26459-0.0899 0.14552-0.10399 0.26458-0.0312 0.26458 0.0728 0 0.20588-0.11906 0.29582-0.26458zm3.0407-1.4423c0.13467-0.88739 0.0952-1.2036-0.15023-1.2036-0.18308 0-0.39293-0.14882-0.46633-0.33073-0.0734-0.1819-0.14285 0.18232-0.15434 0.80937-0.0128 0.6973 0.0819 1.0766 0.2437 0.97657 0.35223-0.21769 0.33584 0.29298-0.0324 1.0096-0.23931 0.46572-0.23155 0.51622 0.04 0.26013 0.18533-0.17479 0.41915-0.8594 0.51961-1.5214zm-15.112 0.74663c0.4406-0.96701 0.24839-1.0206-0.29083-0.081-0.24516 0.42717-0.35133 0.77667-0.23594 0.77667 0.1154 0 0.35244-0.31304 0.52677-0.69565zm10.792 0.25467c-0.097-0.097-0.17639-0.0176-0.17639 0.17639 0 0.19403 0.0794 0.27341 0.17639 0.17639 0.097-0.097 0.097-0.25576 0-0.35278zm2.3006-0.95985c0.12095-1.2947-0.20388-1.7406-0.42507-0.58355-0.12342 0.64561 0.0426 2.0947 0.21973 1.9176 0.049-0.049 0.14137-0.64929 0.20534-1.334zm0.9626 1.2685c0-0.0728-0.0595-0.1323-0.13229-0.1323-0.0728 0-0.13229 0.0595-0.13229 0.1323s0.0595 0.13229 0.13229 0.13229c0.0728 0 0.13229-0.0595 0.13229-0.13229zm-16.933-0.26459c0-0.0728-0.0595-0.13229-0.1323-0.13229s-0.13229 0.0595-0.13229 0.13229c0 0.0728 0.0595 0.13229 0.13229 0.13229 0.0728 0 0.1323-0.0595 0.1323-0.13229zm-0.0924-1.3355c-0.4099-0.44551-0.52437-0.28338-0.2997 0.42448 0.13411 0.42255 0.24328 0.49037 0.39477 0.24525 0.1154-0.18672 0.0727-0.48737-0.0951-0.66973zm2.205 0.0787c2e-3 -0.10914-0.11501-0.19844-0.26053-0.19844s-0.26276 0.26789-0.26053 0.59532c3e-3 0.48139 0.0531 0.51936 0.26053 0.19843 0.14107-0.21828 0.2583-0.48617 0.26053-0.59531zm11.91 0.72761c0-0.0728-0.0595-0.1323-0.13229-0.1323-0.0728 0-0.13229 0.0595-0.13229 0.1323s0.0595 0.13229 0.13229 0.13229c0.0728 0 0.13229-0.0595 0.13229-0.13229zm-16.122-1.8364c0.53127-0.47998 1.0988-0.91799 1.2612-0.97337 0.37847-0.12904 0.0863-1.2913-0.32465-1.2913-0.62239 0-1.4178 0.79742-1.5739 1.5779-0.10288 0.51438-0.47214 1.0022-1.0272 1.3569l-0.86654 0.5538 0.78252-0.17559c0.43038-0.0966 1.2172-0.5683 1.7485-1.0483zm16.519 0.64574c0.0899-0.14552-0.0291-0.26458-0.26459-0.26458-0.23545 0-0.35452 0.11906-0.26458 0.26458 0.0899 0.14552 0.209 0.26458 0.26458 0.26458 0.0556 0 0.17465-0.11906 0.26459-0.26458zm-5.386-1.0209 1.4932-0.16972-2.0551-2.3812-6.3515-0.1766-0.26113 0.68683c-0.14362 0.37775-0.56118 0.82353-0.9279 0.99063-0.36672 0.16709-0.66677 0.40794-0.66677 0.53522s0.20836 0.12 0.46302-0.0162c0.75221-0.40223 2.3351-0.28348 3.1472 0.2361 0.80315 0.51388 2.4196 0.60628 5.159 0.29489zm3.9308-0.69889c0.18116-0.21828 0.76128-0.40628 1.2892-0.41776l0.95979-0.0209-1.12-0.39655c-0.98188-0.34764-1.1554-0.5327-1.4065-1.5005-1.0065-3.8786-1.6783-4.9318-3.5309-5.5348-1.642-0.53443-2.598-0.24331-4.3876 1.336-2.5905 2.2861-2.5761 2.325 0.81834 2.2088 3.8341-0.13124 4.2833 0.063 5.3672 2.3205 1.2834 2.6731 1.378 2.7673 2.0105 2.0051zm-14.288-4.572c0-1.0561 4e-3 -1.0572-0.8675 0.22727l-0.63321 0.9331 0.75035-0.11013c0.66264-0.0973 0.75036-0.22003 0.75036-1.0502zm3.1439 0.27257c0.27984-0.5457 0.81804-1.2808 1.196-1.6336 0.86946-0.81155 0.86199-0.97726-0.0523-1.1601-0.83806-0.16761-2.3392-1.5934-3.0262-2.8745-0.45783-0.85367-0.45978-0.84233-0.30538 1.7761 0.1909 3.2376 0.49658 4.5448 1.0998 4.7029 0.25177 0.066 0.48512 0.1338 0.51854 0.15069 0.0334 0.0169 0.28973-0.4158 0.56956-0.9615zm12.877 0.0832c0.50807-0.77541 0.92456-8.616 0.45768-8.616-0.14901 0-0.34258 0.44804-0.43015 0.99566-0.20763 1.2985-1.5353 3.3731-2.5558 3.9937-0.68815 0.41849-0.74915 0.53777-0.41627 0.81403 0.21451 0.17803 0.59394 0.87986 0.84318 1.5596 0.42575 1.1612 0.99661 1.8974 1.4712 1.8974 0.11436 0 0.39793-0.28999 0.63017-0.64444zm-10.5-4.8666c-0.48987-0.55722-1.028-1.2418-1.1959-1.5214-0.29111-0.48474-0.31693-0.47771-0.55911 0.15223-0.36766 0.95637 0.74117 2.3823 1.8525 2.3823h0.79313zm8.0634-0.31031c0.44411-0.75181 0.41024-1.3224-0.0785-1.3224-0.12173 0-0.45695 0.47625-0.74495 1.0583-0.47089 0.95176-0.47942 1.0583-0.0847 1.0583 0.24141 0 0.65007-0.35743 0.90812-0.79429zm-9.8042-1.7511c0.0903-0.0903-0.19667-0.87886-0.63764-1.7524-0.80699-1.5986-1.0895-1.6916-1.3796-0.45397-0.29341 1.2516 1.2662 2.9574 2.0173 2.2064zm11.326-1.356c0.14516-0.3818 0.22876-0.93248 0.18577-1.2238-0.0587-0.39777-0.25924-0.19562-0.80575 0.81222-0.40018 0.73798-0.72761 1.4192-0.72761 1.5137 0 0.42795 1.1115-0.48112 1.3476-1.1022zm-2.3528-1.0613 0.59361-0.59361h-1.2216c-1.4111 0-4.1919-0.80765-5.4511-1.5832-0.47656-0.29353-0.97468-0.81826-1.1069-1.1661-0.3006-0.79064 0.21043-2.8487 1.3089-5.2713 0.43825-0.96656 0.80079-1.9684 0.80563-2.2262 7e-3 -0.39015 0.10071-0.35835 0.55647 0.18951 0.55016 0.66134 0.57414 1.593 0.0886 3.4427l-0.17362 0.66145 0.37775-0.66145c0.20776-0.36381 0.7093-1.29 1.1145-2.0582 0.77994-1.4786 1.6354-2.2046 1.8717-1.5887 0.0727 0.18957 0.0273 0.90628-0.10089 1.5927-0.32961 1.7643 0.0486 1.3392 0.75044-0.84348 0.59947-1.8644 1.0857-2.5743 1.5617-2.2802 0.14183 0.0876 0.21813 0.42532 0.16956 0.75038-0.0486 0.32505-0.15528 1.1268-0.23713 1.7816l-0.14881 1.1906 0.57214-1.1245c1.3184-2.5912 1.6932-0.24452 0.55709 3.4882-0.0877 0.28833 0.37843-0.0538 1.0682-0.784 0.67313-0.71259 1.2239-1.442 1.2239-1.621 0-0.17895-0.25292-0.75403-0.56205-1.278-0.47748-0.80928-0.53491-1.1924-0.38171-2.5465 0.0992-0.87666 0.2504-1.7765 0.33603-1.9997 0.13924-0.36286 0.0747-0.3639-0.61047-0.01-1.2168 0.62867-5.2573 2.1513-8.6451 3.2578-3.5272 1.152-3.5048 1.1555-4.9437-0.76487-0.50401-0.67265-0.96014-1.1792-1.0136-1.1258-0.20086 0.20087 0.57674 1.3672 1.5393 2.3088 0.91554 0.89563 1.0353 1.1886 1.4607 3.5719 0.25483 1.4279 0.83272 3.6678 1.2842 4.9775 0.76101 2.2076 0.88841 2.4052 1.7469 2.7101 0.51476 0.18282 1.8342 0.29957 2.9709 0.26288 1.7138-0.0553 2.141-0.16213 2.6385-0.65963zm-1.5633-2.0074c-2.5507-0.60162-2.8556-0.76371-3.0637-1.6289-0.10025-0.41678-0.1338-0.38151-0.15798 0.16604-0.0169 0.38237 0.11814 0.81582 0.30004 0.96323 0.42329 0.34303 3.5256 1.0728 4.5641 1.0736 0.43656 2.7e-4 -0.30254-0.25795-1.6424-0.57399zm3.0976 0.2232c0-0.0728-0.0595-0.13229-0.13229-0.13229-0.0728 0-0.13229 0.0595-0.13229 0.13229 0 0.0728 0.0595 0.1323 0.13229 0.1323 0.0728 0 0.13229-0.0595 0.13229-0.1323zm-0.38126-0.76178c0.3438-1.3698 0.04-2.121-1.074-2.6552-1.632-0.78269-2.7015-0.68612-3.6054 0.32554-1.0825 1.2115-0.99429 1.7198 0.36426 2.1 3.793 1.0614 4.1022 1.0779 4.3151 0.2297zm0.562-0.21387c-0.0845-0.21106-0.14716-0.14837-0.15985 0.15986-0.0115 0.27891 0.051 0.43518 0.13896 0.34726 0.0879-0.0879 0.0973-0.31612 0.0209-0.50712zm1.6514-1.6702c6e-3 -0.78553-0.40683 0.0227-0.6078 1.1906l-0.15935 0.92604 0.38163-0.79375c0.2099-0.43656 0.38339-1.0319 0.38552-1.3229zm-24.248-1.3128c0.32337-0.0706 1.2428-0.24169 2.0432-0.38009 1.972-0.34102 2.6608-0.63756 3.4396-1.4808l0.66145-0.71623-1.0079 0.59126c-1.3647 0.8006-2.9274 0.61658-6.649-0.78299-1.5919-0.59866-3.001-1.0529-3.1314-1.0095-0.13036 0.0434 0.42797 0.82426 1.2407 1.7351 1.3489 1.5117 1.4777 1.7644 1.4777 2.8982v1.242l0.66883-0.98427c0.36786-0.54135 0.9334-1.0421 1.2568-1.1127zm22.592 1.2686c-0.097-0.097-0.17639-0.0176-0.17639 0.17639 0 0.19403 0.0794 0.2734 0.17639 0.17639 0.097-0.097 0.097-0.25576 0-0.35278zm13.847 0.30868c0-0.0728-0.0595-0.13229-0.13229-0.13229-0.0728 0-0.1323 0.0595-0.1323 0.13229 0 0.0728 0.0595 0.1323 0.1323 0.1323s0.13229-0.0595 0.13229-0.1323zm-18.453-1.9651c-0.0984-0.15089-1.6557 1.3493-1.6557 1.595 0 0.10583 0.38912-0.18434 0.86471-0.64481 0.47559-0.46048 0.83153-0.88808 0.79099-0.95023zm17.919 0.4941c-0.40464-1.4109-0.35902-1.5187 1.3274-3.1385 1.4438-1.3867 1.9289-2.1374 1.381-2.1374-0.11356 0-1.1554 0.3986-2.3151 0.88578-4.5656 1.9179-5.9352 2.2192-7.3671 1.6208-0.47619-0.199-0.47789-0.17969-0.0425 0.48483 0.56958 0.86929 1.1998 1.0713 3.1293 1.003 2.0333-0.072 2.3776 0.0673 3.239 1.3102 0.40208 0.5802 0.77086 1.0151 0.81951 0.96644 0.0487-0.0487-0.0286-0.49651-0.17159-0.99523zm-11.373 0.41265c0-0.0728-0.0595-0.13229-0.13229-0.13229-0.0728 0-0.1323 0.0595-0.1323 0.13229 0 0.0728 0.0595 0.13229 0.1323 0.13229s0.13229-0.0595 0.13229-0.13229zm-3.6079-0.67106c-0.15081-0.15081-0.74017-0.33004-1.3097-0.3983l-1.0355-0.12411 1.1906 0.36374c0.65484 0.20006 1.2442 0.37929 1.3097 0.3983 0.0655 0.019-4e-3 -0.0888-0.15512-0.23963zm-4.5942-0.12269c0-0.0728-0.0595-0.13229-0.13229-0.13229-0.0728 0-0.13229 0.0595-0.13229 0.13229 0 0.0728 0.0595 0.13229 0.13229 0.13229 0.0728 0 0.13229-0.0595 0.13229-0.13229zm-29.633-0.79375c0-0.0728-0.0595-0.13229-0.13229-0.13229-0.0728 0-0.13229 0.0595-0.13229 0.13229 0 0.0728 0.0595 0.13229 0.13229 0.13229 0.0728 0 0.13229-0.0595 0.13229-0.13229zm1.7411-2.639 0.81504-1.0652 1.8969 0.053c1.0433 0.0292 1.8969 5e-3 1.8969-0.0538 0-0.15819-7.2421-3.3066-7.606-3.3066-0.0481 0 0.15576 0.26113 0.45309 0.58029 0.29734 0.31915 0.78498 1.085 1.0836 1.702 0.4712 0.97335 0.50396 1.2728 0.2477 2.264-0.58893 2.2779-0.58825 2.2635-0.0727 1.546 0.2587-0.36003 0.83713-1.1339 1.2854-1.7198zm38.917 1.8011c-0.097-0.097-0.17639-0.0176-0.17639 0.17639 0 0.19403 0.0794 0.2734 0.17639 0.17639 0.097-0.097 0.097-0.25576 0-0.35278zm-20.638-0.26458c-0.097-0.097-0.17639-0.0176-0.17639 0.17639 0 0.19403 0.0794 0.2734 0.17639 0.17639 0.097-0.097 0.097-0.25577 0-0.35278zm19.056-1.0804c-0.0666-0.25466-0.12101-0.0463-0.12101 0.46302s0.0545 0.71768 0.12101 0.46302c0.0665-0.25466 0.0665-0.67138 0-0.92604zm20.842-0.45127c-0.54349-1.8059-0.49137-2.3021 0.36625-3.486 1.6586-2.2896 1.6669-2.2877-2.4137-0.57623-2.07 0.86819-4.0316 1.6853-4.359 1.8158-1.161 0.46265-0.56257 0.58074 2.0165 0.39789 2.5546-0.18111 2.623-0.17104 3.1185 0.45899 0.27868 0.35429 0.72933 1.1379 1.0014 1.7413 0.64149 1.4226 0.75818 1.2706 0.26994-0.35172zm-42.469-0.26233c0.73694-0.78443 1.0991-2.5377 0.77021-3.7288-0.51958-1.8818-4.5876-4.6414-9.199-6.2403-2.1908-0.7596-2.1915-0.59674-2e-3 0.52288 3.5774 1.8295 5.8419 3.4576 6.6029 4.7474 0.526 0.8915 0.77661 2.1954 0.26719 1.3901-0.1337-0.21134-0.18438-0.47923-0.11263-0.59532 0.0716-0.11608 4e-3 -0.21107-0.14984-0.21107-0.15411 0-0.2802-0.14898-0.2802-0.33107 0-0.35516-2.2724-2.4535-3.2467-2.998-0.32437-0.18127-1.2446-0.6494-2.045-1.0403-0.80036-0.39088-1.8124-0.88652-2.249-1.1014-1.0237-0.50391-3.1176-0.70678-4.6302-0.44861-1.1357 0.19384-1.0868 0.21144 1.0583 0.38145 2.8251 0.2239 5.1877 1.0309 7.4624 2.549 2.4102 1.6084 3.9146 3.27 3.9146 4.3233 0 1.2031-0.43576 1.8394-1.2661 1.8486-0.59199 7e-3 -0.64087 0.0532-0.27801 0.265 0.64136 0.37432 1.288 0.028 1.6954-0.90796 0.26099-0.59952 0.35752-0.67787 0.35865-0.29113 2e-3 0.65877-0.85604 1.7198-1.3907 1.7198-0.68704 0-1.236-0.30635-1.236-0.68976 0-0.20271-0.12609-0.36857-0.2802-0.36857s-0.19502 0.13782-0.0909 0.30626c0.13271 0.21473-1e-3 0.25535-0.44741 0.13591-0.35017-0.0937-0.78551-0.17199-0.96741-0.17398-0.1819-2e-3 -0.33073-0.12494-0.33073-0.27323 0-0.15346 0.31347-0.20615 0.7276-0.1223 0.40019 0.081-0.28442-0.27667-1.5214-0.79491-1.2369-0.51823-2.8767-1.2371-3.6439-1.5975-1.2944-0.60805-2.2011-0.8558-1.8511-0.50582 0.0822 0.0822 1.4381 0.66745 3.0132 1.3006 1.5751 0.63313 2.9044 1.2731 2.9541 1.4221 0.0497 0.14905-0.3877 0.04-0.97197-0.24225-0.58426-0.28228-1.1864-0.51324-1.338-0.51324-0.15164 0-1.4373-0.52167-2.8571-1.1593s-2.8195-1.2075-3.1105-1.2664c-0.30676-0.0621-0.49944-0.28483-0.45844-0.52997 0.0465-0.27803-0.29637-0.56975-1.001-0.8517-0.58946-0.23585-1.1401-0.60706-1.2237-0.8249-0.28037-0.73064 0.17662-1.7297 1.0367-2.2663l0.85279-0.53212-0.76707 0.18204c-0.49067 0.11645-0.70763 0.0859-0.60212-0.0848 0.29196-0.47241 2.5388-0.94645 4.4859-0.94645 2.1677 0 1.7936-0.23639-1.1591-0.73254-2.5184-0.42317-3.7924-0.18588-4.8889 0.91058-1.0032 1.0032-1.6745 2.8996-1.2594 3.5577 0.33705 0.53433 2.1026 1.4311 6.5719 3.3378 4.0216 1.7158 10.813 4.0771 11.794 4.1005 0.3968 9e-3 0.93556-0.25419 1.2897-0.63118zm-1.4862-2.7039c0.097-0.097 0.25577-0.097 0.35278 0 0.097 0.097 0.0176 0.17639-0.17639 0.17639-0.19402 0-0.2734-0.0794-0.17639-0.17639zm-15.461-3.0734c-0.73347-0.49274-0.91337-0.79725-0.97692-1.6536-0.0823-1.1085 0.49998-2.3125 0.84687-1.7512 0.10356 0.16756 0.0717 0.30466-0.0709 0.30466-0.34493 0-0.64803 1.4408-0.44059 2.0944 0.0906 0.28532 0.57403 0.65387 1.0744 0.81899 0.96407 0.31818 1.4658 0.7908 0.83954 0.7908-0.20535 0-0.77793-0.27178-1.2724-0.60395zm45.23 5.7328c1.4175-0.40504 8.0068-3.0795 11.153-4.5269 0.80036-0.36817 2.192-1.0031 3.0926-1.411 2.0637-0.93476 2.6848-1.9075 2.2163-3.4713-0.218-0.72761-0.61873-1.2266-1.3998-1.743-0.98309-0.64995-1.3249-0.72243-3.3616-0.71282-1.8809 9e-3 -2.6955 0.16221-4.7808 0.89989-4.7395 1.6767-7.4662 3.3206-9.3303 5.6253-1.2951 1.6011-1.6502 2.821-1.1617 3.9902 0.35628 0.85268 1.316 1.7771 1.8451 1.7771 0.12712 0 0.9043-0.19235 1.7271-0.42745zm-0.0729-0.8224c-0.67599-0.17234-1.027-0.55741-1.4492-1.59-0.36877-0.9018-0.20051-2.7164 0.25187-2.7164 0.13893 0 0.25259-0.11252 0.25259-0.25003 0-0.65731 2.7375-2.7707 5.1594-3.9832 3.2404-1.6222 4.0063-1.8667 6.3043-2.0128 1.4891-0.0947 1.9813-0.0165 2.802 0.44469 1.7029 0.95707 2.4661 3.113 1.4109 3.9854-0.41904 0.34645-2.9206 1.6481-3.2412 1.6865-0.0728 9e-3 -0.40018 0.16465-0.7276 0.34651-0.32743 0.18187-0.59532 0.26525-0.59532 0.18531 0-0.0799-0.47867 0.17141-1.0637 0.55858-0.58504 0.38716-1.1327 0.63489-1.2171 0.55052-0.2913-0.29131 0.15129-0.64095 1.4123-1.1157 0.69597-0.26201 1.5035-0.65151 1.7946-0.86555 0.65815-0.48403 0.78612-0.53274-5.36 2.0405-2.8025 1.1733-5.2089 2.1334-5.3475 2.1334s-0.4948-0.26058-0.79151-0.57906c-1.1488-1.2331-0.40088-3.1169 1.9343-4.8724 2.2562-1.696 3.8285-2.4373 6.7308-3.1736 3.5252-0.89423 4.3892-0.85278 5.5062 0.26417 0.88538 0.88539 1.2029 2.0809 0.62838 2.3658-0.14916 0.074-0.11939 0.10433 0.0661 0.0675 1.0609-0.21079-0.038-2.7738-1.4386-3.3554-0.69789-0.2898-3.1529-0.20902-4.8386 0.15921-0.43656 0.0954-1.5432 0.52035-2.4593 0.9444s-1.7262 0.771-1.8004 0.771c-0.21517 0-3.082 2.0188-3.8246 2.6933-0.60583 0.55024-1.3971 2.0327-1.4574 2.7306-0.0126 0.14552 0.21022 0.70021 0.49512 1.2326 0.58123 1.0862 1.3862 1.3793 2.3382 0.8514 0.34268-0.19003 0.83141-0.34973 1.0861-0.35488 0.25466-5e-3 0.46302-0.10959 0.46302-0.23208s0.50602-0.37388 1.1245-0.55865c0.61847-0.18476 1.5662-0.5608 2.1061-0.83562 1.1264-0.57336 1.2673-0.59951 1.2673-0.23511 0 0.14552-0.17497 0.26458-0.38883 0.26458-0.21385 0-0.81003 0.23658-1.3248 0.52573s-0.96492 0.51891-1.0002 0.51057c-0.0902-0.0213-1.1652 0.40408-2.6658 1.0549-0.70329 0.30503-1.3581 0.54078-1.4552 0.5239-0.0971-0.0169-0.4062-0.0892-0.68695-0.16082zm5.2377-3.4754c1.7959-0.85263 3.3497-1.6869 3.4529-1.854 0.46334-0.7497-0.75821-0.47845-3.4322 0.76212-4.0429 1.8757-4.1632 1.9406-4.2859 2.3114-0.22085 0.6676 1.0643 0.30014 4.2651-1.2195zm-3.3966-0.69871c0.78208-1.0426 0.83903-1.1827 0.26873-0.66146-0.39801 0.3638-0.90608 1.0186-1.129 1.4552-0.49822 0.97551-0.39655 0.88171 0.86031-0.79375zm11.363-1.4921c0.1422-0.13312-0.12569-0.10809-0.59531 0.0556-0.46962 0.16372-0.85386 0.35357-0.85386 0.4219 0 0.18277 1.1479-0.19547 1.4492-0.47752zm-6.7408 0.16922c0-0.0728-0.0595-0.13229-0.1323-0.13229s-0.13229 0.0595-0.13229 0.13229c0 0.0728 0.0595 0.1323 0.13229 0.1323 0.0728 0 0.1323-0.0595 0.1323-0.1323zm4.8024-0.52658c0.77844-0.36238 1.6832-0.66004 2.0106-0.66146 0.32742-1e-3 0.59531-0.12164 0.59531-0.26716 0-0.39032-1.733-0.32145-2.7653 0.10989-0.49293 0.20596-1.0291 0.62268-1.1914 0.92604-0.36947 0.69035-0.36127 0.6897 1.3508-0.10731zm2.8705-3e-3c0-0.0728-0.0595-0.13229-0.13229-0.13229-0.0728 0-0.13229 0.0595-0.13229 0.13229 0 0.0728 0.0595 0.13229 0.13229 0.13229 0.0728 0 0.13229-0.0595 0.13229-0.13229zm-6.0152-0.43252c-0.36176-0.36176-2.2902-0.38115-3.2144-0.0323-0.47475 0.17921-0.11676 0.25132 1.4484 0.29173 1.6007 0.0413 2.007-0.0184 1.7659-0.25941zm3.0172-1.2873c0.42993 0 0.43264-0.033 0.0353-0.43028-0.34523-0.34522-0.72251-0.39376-1.9088-0.24554-0.81318 0.1016-1.4785 0.29522-1.4785 0.43027s0.17304 0.24555 0.38453 0.24555c0.21148 0 0.58936 0.27156 0.83971 0.60346l0.4552 0.60346 0.60346-0.60346c0.33191-0.3319 0.81298-0.60346 1.0691-0.60346zm1.9397-0.54479c0-0.13693-0.17859-0.24896-0.39688-0.24896-0.40915 0-0.52564 0.31219-0.22767 0.61016 0.21138 0.21139 0.62455-0.0276 0.62455-0.3612zm-44.45 6.2416c0-0.47451-0.74932-1.3961-1.6584-2.0396l-0.85514-0.60536 0.87922 1.1162c0.48357 0.61392 0.98959 1.1844 1.1245 1.2678 0.13489 0.0834 0.24526 0.24886 0.24526 0.36775 0 0.52234-5.2799-1.5916-6.6437-2.66-0.97673-0.76513-1.2938-0.75513-1.2938 0.0408 0 0.32436 0.9445 0.85927 3.3734 1.9105 1.8554 0.80303 3.552 1.5193 3.7703 1.5916 0.40652 0.1348 1.0583-0.47483 1.0583-0.98985zm11.377 0.52086c0-0.0728-0.0595-0.13229-0.13229-0.13229-0.0728 0-0.13229 0.0595-0.13229 0.13229 0 0.0728 0.0595 0.1323 0.13229 0.1323 0.0728 0 0.13229-0.0595 0.13229-0.1323zm1.5834-0.19843c-2e-3 -0.1819-0.11946-0.50933-0.26053-0.72761-0.20899-0.32339-0.25723-0.29073-0.26053 0.17639-2e-3 0.3153-0.15288 0.63332-0.33478 0.70672s-0.0628 0.14285 0.26458 0.15434c0.32742 0.0115 0.59349-0.12794 0.59126-0.30984zm1.5916-0.70535c0-0.10213-0.17009-0.41682-0.37798-0.69929-0.37323-0.50715-0.38038-0.50696-0.56996 0.0156-0.10559 0.29104-0.25062 0.64823-0.32229 0.79375-0.0717 0.14552 0.03 0.11576 0.226-0.0661 0.50524-0.46896 0.91144-0.41146 0.51004 0.0722-0.27961 0.33691-0.26324 0.37562 0.0999 0.23627 0.23886-0.0917 0.43429-0.25023 0.43429-0.35237zm-2.239-0.70153c0.81152-0.51912 1.5369-1.1442 1.612-1.3891 0.0751-0.24487 0.24684-0.65195 0.38173-0.90464 0.1349-0.25269 0.24527-0.9373 0.24527-1.5214 0-1.2535 0.53952-1.4313 1.215-0.40047 0.23837 0.3638 0.5983 0.66146 0.79985 0.66146 0.20154 0 0.61091 0.24447 0.90971 0.54326 0.44894 0.44895 0.74278 0.51335 1.6924 0.37094 1.379-0.20679 2.7914-1.0109 2.7914-1.5892 0-0.59926-0.51631-1.4809-0.77399-1.3216-0.12005 0.0742-0.77837-0.0559-1.4629-0.28919-1.465-0.49919-2.7541-0.38091-4.3729 0.40122-0.63936 0.3089-1.3055 0.56164-1.4803 0.56164s-0.59895 0.23417-0.94249 0.52037l-0.62463 0.52036 0.8599 9e-3c0.98118 0.01 0.99473 0.0389 0.48287 1.0288-0.49708 0.96124-2.2688 1.8055-2.2688 1.0811 0-0.1541 0.0893-0.22853 0.19844-0.16539 0.10914 0.0631 0.43656 0.019 0.7276-0.0981l0.52917-0.21287-0.52917-0.0499c-0.29104-0.0275-0.61846-0.0358-0.7276-0.0186s-0.2024-0.17703-0.20724-0.43169c-7e-3 -0.37822-0.10671-0.34187-0.54336 0.19843-0.29401 0.36381-0.70437 0.86838-0.91191 1.1213-0.40957 0.49908-0.12724 1.719 0.48844 2.1104 0.41542 0.26414 0.24664 0.32912 1.9117-0.73599zm4.0205-4.2419c-0.24646-0.24646 0.35711-1.3806 0.83162-1.5627 0.26299-0.10092 0.60619 0.0609 0.90077 0.42467 0.36104 0.44587 0.54997 0.51364 0.78284 0.28077 0.23286-0.23286 0.20215-0.30693-0.12724-0.30693-0.2388 0-0.50776-0.11907-0.5977-0.26459-0.21219-0.34333 0.67598-0.33565 1.1906 0.0103 0.33423 0.22468 0.27654 0.36571-0.36546 0.89349-0.82846 0.68104-1.2058 0.71696-1.8568 0.17669-0.24387-0.20237-0.42357-0.23487-0.42357-0.0766 0 0.15121 0.14883 0.33499 0.33073 0.40838 0.21572 0.0871 0.18506 0.14072-0.0882 0.15434-0.23041 0.0115-0.49034-0.0505-0.57762-0.1378zm39.647 3.5321c-1.302-2.407-1.3386-2.6535-0.53548-3.6079 0.81489-0.96844 0.51899-1.0414-1.018-0.25103-0.61267 0.31506-2.0069 0.97483-3.0983 1.4662l-1.9844 0.89332 1.8266-0.14705c2.1126-0.17007 2.3998-0.0377 4.2824 1.975 0.68172 0.72881 1.2805 1.3251 1.3306 1.3251 0.0501 0-0.31143-0.74414-0.80338-1.6536zm-40.371 1.0005c0-0.23669-0.15513-0.32904-0.39688-0.23628-0.21828 0.0838-0.39687 0.25862-0.39687 0.38858 0 0.12995 0.17859 0.23627 0.39687 0.23627s0.39688-0.17486 0.39688-0.38857zm-37.741-1.1517c0.55626-0.27881 1.2184-0.33164 2.5047-0.19985 0.96173 0.0985 1.6795 0.11006 1.5951 0.0256-0.32256-0.32255-6.1317-2.7864-6.2621-2.656-0.07547 0.0755-0.0013 0.13722 0.16467 0.13722 0.33966 0 1.1092 1.3535 1.1092 1.9509 0 0.21434-0.32742 0.78537-0.7276 1.2689l-0.7276 0.87922 0.79375-0.51353c0.43656-0.28245 1.134-0.68409 1.5499-0.89254zm20.455 1.0993c-0.097-0.097-0.25577-0.097-0.35278 0-0.097 0.097-0.0176 0.17639 0.17639 0.17639 0.19402 0 0.2734-0.0794 0.17639-0.17639zm18.08-0.22049c0-0.21828-0.11907-0.39687-0.26459-0.39687s-0.26458 0.17859-0.26458 0.39687c0 0.21829 0.11906 0.39688 0.26458 0.39688s0.26459-0.17859 0.26459-0.39688zm-8.2021 0c0-0.0728-0.0595-0.13229-0.13229-0.13229-0.0728 0-0.13229 0.0595-0.13229 0.13229 0 0.0728 0.0595 0.1323 0.13229 0.1323 0.0728 0 0.13229-0.0595 0.13229-0.1323zm9.0355-0.26458c0-0.13824-0.12799-0.29402-0.28442-0.34616-0.15644-0.0522-0.28443 0.10362-0.28443 0.34616s0.12799 0.39831 0.28443 0.34616c0.15643-0.0521 0.28442-0.20791 0.28442-0.34616zm-2.0812-0.33667c-0.0314-0.14878 0.17696-0.20931 0.46302-0.1345 0.28607 0.0748 0.52012 0.0142 0.52012-0.13466 0-0.14887 0.2399-0.20794 0.5331-0.13126 0.39347 0.10289 0.49362 0.0365 0.38236-0.25341-0.13215-0.34438-0.28588-0.34625-1.2469-0.0152-1.4047 0.48397-1.5639 0.58932-1.3684 0.90562 0.20126 0.32564 0.79409 0.12992 0.71672-0.23663zm-24.681 0.0721c0-0.0728-0.0595-0.13229-0.13229-0.13229-0.0728 0-0.13229 0.0595-0.13229 0.13229 0 0.0728 0.0595 0.13229 0.13229 0.13229 0.0728 0 0.13229-0.0595 0.13229-0.13229zm27.921-0.59477c-0.22826-0.90945-0.22973-0.91073-0.80018-0.69182-0.45021 0.17275-0.44963 0.19733 0.0127 0.53539 0.27552 0.20146 0.34187 0.35432 0.1538 0.35432-0.18192 0-0.25719 0.11906-0.16725 0.26459 0.0899 0.14552 0.348 0.26458 0.57347 0.26458 0.31502 0 0.36768-0.16836 0.22746-0.72706zm-28.714 0.1983c-0.51815-0.33485-0.86841-0.33485-0.66146 0 0.0899 0.14552 0.36486 0.26276 0.61093 0.26053 0.38557-3e-3 0.39255-0.0395 0.0505-0.26053zm29.898-4e-3c0.32756-0.21503 0.28382-0.2914-0.25042-0.43727-0.59984-0.16378-0.60954-0.19151-0.13229-0.37827 0.46587-0.18231 0.45551-0.20331-0.10862-0.22013-0.46359-0.0138-0.58241 0.0888-0.46302 0.39991 0.0883 0.23019 0.1606 0.52784 0.1606 0.66146 0 0.31245 0.29311 0.30296 0.79375-0.0257zm5.2035-0.17233c-0.097-0.097-0.17639-0.0176-0.17639 0.17638 0 0.19403 0.0794 0.2734 0.17639 0.17639 0.097-0.097 0.097-0.25576 0-0.35278zm-36.16-0.22049c0-0.0728-0.0595-0.13229-0.1323-0.13229s-0.13229 0.0595-0.13229 0.13229c0 0.0728 0.0595 0.13229 0.13229 0.13229 0.0728 0 0.1323-0.0595 0.1323-0.13229zm2.03-0.5058c-0.22833-0.59501-2.1466-1.4786-3.21-1.4786-1.2985 0-1.2544 0.68134 0.0556 0.85753 0.54571 0.0734 1.4684 0.36507 2.0505 0.64817 1.1645 0.56634 1.3301 0.56227 1.1039-0.0271zm3.2617 0.24121c0-0.0728-0.0595-0.13229-0.13229-0.13229-0.0728 0-0.13229 0.0595-0.13229 0.13229 0 0.0728 0.0595 0.1323 0.13229 0.1323 0.0728 0 0.13229-0.0595 0.13229-0.1323zm18.293-3.5303c0.7295-0.16839 1.5712-0.30616 1.8705-0.30616s0.73665-0.2199 0.972-0.48865c0.23536-0.26876 0.7851-0.69193 1.2217-0.94037l0.79375-0.45171-1.2807 0.14484c-3.309 0.3742-6.5449 2.8813-6.5095 5.0432 0.0112 0.68206 0.1251 0.54829 0.80949-0.95061 0.77869-1.7054 0.82607-1.7512 2.1228-2.0505zm9.184 3.3721c0.6646-0.23168 0.82789-0.43248 0.80686-0.99219l-0.0264-0.70172-0.18367 0.66007c-0.19985 0.71824-0.97041 1.0171-1.4321 0.55537-0.48273-0.48274-0.73881-0.32398-0.38674 0.23977 0.18176 0.29104 0.3436 0.52917 0.35963 0.52917 0.016 0 0.40412-0.13071 0.8624-0.29047zm-5.7814-0.2387c0-0.33454-0.54067-0.33454-1.0583 0-0.30926 0.19986-0.23625 0.25737 0.33073 0.26053 0.40018 2e-3 0.72761-0.11501 0.72761-0.26053zm1.5875-0.56003c0-0.12854-0.23813-0.23372-0.52917-0.23372s-0.52917 0.16745-0.52917 0.3721c0 0.24185 0.18525 0.32367 0.52917 0.23373 0.29104-0.0761 0.52917-0.24356 0.52917-0.37211zm7.4083 0.42774c0-0.0728-0.0595-0.13229-0.13229-0.13229-0.0728 0-0.13229 0.0595-0.13229 0.13229 0 0.0728 0.0595 0.13229 0.13229 0.13229 0.0728 0 0.13229-0.0595 0.13229-0.13229zm-30.074-0.41378c-0.19162-0.19162-0.56749-0.19924-1.1774-0.0239l-0.89592 0.25762 1.1774 0.0239c0.83205 0.0169 1.0948-0.0587 0.89591-0.25762zm1.1458 0.1051c-0.097-0.097-0.25576-0.097-0.35278 0-0.097 0.097-0.0176 0.17639 0.17639 0.17639 0.19403 0 0.2734-0.0794 0.17639-0.17639zm-3.1678-1.1465c0.86907 0-0.0388-0.51651-1.4071-0.80058-1.1392-0.2365-1.5483-0.2343-1.7813 0.01-0.22888 0.23962-0.17939 0.39039 0.20351 0.61995 0.27827 0.16683 0.69499 0.4902 0.92604 0.71861 0.38182 0.37746 0.47759 0.37143 1.0511-0.0661 0.34704-0.26479 0.80056-0.48144 1.0078-0.48144zm19.396 0.66141c0-0.0728-0.0595-0.13229-0.13229-0.13229-0.0728 0-0.13229 0.0595-0.13229 0.13229 0 0.0728 0.0595 0.13229 0.13229 0.13229 0.0728 0 0.13229-0.0595 0.13229-0.13229zm-39.394-1.9844h1.0856l-0.82596-0.77156c-0.45428-0.42436-1.0042-1.1983-1.2222-1.7198-0.21791-0.52153-0.45632-0.94823-0.5298-0.94823s-0.11305 0.5806-0.08793 1.2902c0.03732 1.0544-0.10686 1.5162-0.78889 2.5268-0.45901 0.68012-0.83456 1.304-0.83456 1.3864 0 0.0824 0.47659-0.28075 1.0591-0.80701 0.85431-0.77182 1.269-0.95683 2.1446-0.95683zm40.982 1.5875c0-0.14552-0.32742-0.25621-0.7276-0.24598-0.64475 0.0165-0.66735 0.0445-0.19844 0.24598 0.72268 0.31055 0.92604 0.31055 0.92604 0zm10.848 0.13229c0-0.0728-0.0595-0.13229-0.1323-0.13229s-0.13229 0.0595-0.13229 0.13229c0 0.0728 0.0595 0.1323 0.13229 0.1323 0.0728 0 0.1323-0.0595 0.1323-0.1323zm31.168-3.71c2.1604-1.4955 2.307-1.6567 2.3866-2.6249 0.13297-1.6173-0.59569-3.1906-1.7262-3.7271-1.2973-0.6156-1.9514-0.52528-11.191 1.545l-1.7198 0.38535 1.7831 0.0309c1.9971 0.0346 3.8934 0.64954 5.2913 1.7158l0.91913 0.70105 1.4272-0.62446c1.702-0.74469 2.8824-1.058 2.8824-0.76516 0 0.21374-0.65794 0.65819-2.8921 1.9537-0.73303 0.42505-1.2663 0.9458-1.3547 1.3229-0.15372 0.65586-0.88076 2.4225-1.3161 3.198-0.14184 0.25269-0.2579 0.50758-0.2579 0.56643 0 0.14974 3.0282-1.781 5.768-3.6775zm-74.768 2.3209c-0.2238-0.69122-0.43975-1.396-0.4799-1.5662-0.0401-0.17019-0.94362-0.82503-2.0077-1.4552-1.7208-1.0191-1.856-1.1549-1.2234-1.2279 0.39125-0.0452 1.2586 0.10365 1.9275 0.33073 1.5757 0.53498 1.7484 0.52054 2.4344-0.20349 0.54149-0.57155 3.7386-2.0014 4.5906-2.0532 1.1857-0.072-6.7797-1.5472-8.395-1.5548-1.6664-8e-3 -1.9862 0.071-2.5418 0.62656-0.78326 0.78326-1.3335 2.7898-1.0032 3.6584 0.13019 0.34242 0.44436 0.79492 0.69816 1.0056 0.49712 0.41257 5.9674 3.6304 6.2416 3.6715 0.0911 0.0136-0.0175-0.5407-0.24126-1.2319zm1.7354-2.7472c0.66834-1.0814 1.5028-1.8711 2.5736-2.4356 1.2297-0.64829 0.31515-0.51383-1.2684 0.18648-0.77866 0.34435-1.6624 0.93967-1.9638 1.3229-0.5873 0.74663-1.2034 0.85831-2.3435 0.42482-1.129-0.42923-1.0469-0.10532 0.14274 0.56329 0.70672 0.3972 1.1314 0.84398 1.22 1.2835 0.0748 0.3708 0.27318 1.1504 0.4409 1.7325l0.30495 1.0583 0.16868-1.6182c0.0959-0.92039 0.4085-2.0062 0.72484-2.5181zm23.589 2.5223c0.022-0.65676-1.3037-2.57-2.159-3.1159-0.341-0.21765-1.6298-0.45481-2.9818-0.54873l-2.3812-0.16539 2.2478 1.2668c1.2363 0.69674 2.8436 1.8621 3.5719 2.5897 1.3622 1.3611 1.656 1.3565 1.7023-0.0264zm21.895-1.0744c0.47583-0.45991 1.7312-1.3203 2.7896-1.9119l1.9245-1.0757-3.9486-0.012-1.8033 1.8431c-1.5949 1.6301-1.783 1.9282-1.6271 2.5797 0.28842 1.2059 0.40558 1.2378 1.1186 0.30489 0.37463-0.49015 1.0704-1.2675 1.5463-1.7274zm-40.133 1.7622c0-0.14552-0.11907-0.26458-0.26459-0.26458s-0.26458 0.11906-0.26458 0.26458 0.11906 0.26459 0.26458 0.26459 0.26459-0.11907 0.26459-0.26459zm36.248 0.13229c0-0.0728-0.0595-0.13229-0.13229-0.13229-0.0728 0-0.13229 0.0595-0.13229 0.13229 0 0.0728 0.0595 0.1323 0.13229 0.1323 0.0728 0 0.13229-0.0595 0.13229-0.1323zm26.568-2.249c0.26443-0.80037 0.79447-1.7322 1.1779-2.0708l0.69707-0.61563-0.85153 0.1718c-0.6978 0.14077-1.0322 0.028-1.8521-0.62476-0.95811-0.76278-2.9416-1.6122-3.7787-1.6182-0.21828-2e-3 -0.0346 0.21806 0.40815 0.48806 1.6552 1.0094 2.8704 2.8826 3.1711 4.8883 0.22046 1.4701 0.3671 1.3819 1.0281-0.61869zm-26.832 1.4552c0-0.0728-0.0595-0.13229-0.13229-0.13229-0.0728 0-0.13229 0.0595-0.13229 0.13229 0 0.0728 0.0595 0.1323 0.13229 0.1323 0.0728 0 0.13229-0.0595 0.13229-0.1323zm38.1 0c0-0.0728-0.0595-0.13229-0.13229-0.13229-0.0728 0-0.13229 0.0595-0.13229 0.13229 0 0.0728 0.0595 0.1323 0.13229 0.1323 0.0728 0 0.13229-0.0595 0.13229-0.1323zm-0.78837-1.4447c-0.294-0.57629-0.53817-1.3204-0.54259-1.6536-7e-3 -0.55651-0.031-0.56635-0.29002-0.12087-0.15509 0.26674-0.83608 0.84081-1.5133 1.2757l-1.2313 0.79074 1.2007-0.17287c0.98474-0.14178 1.3179-0.0754 1.8521 0.36912 0.97396 0.81046 1.1184 0.67604 0.52443-0.48818zm-39.957 0.12175c0-0.0728-0.0595-0.13229-0.1323-0.13229s-0.13229 0.0595-0.13229 0.13229c0 0.0728 0.0595 0.13229 0.13229 0.13229 0.0728 0 0.1323-0.0595 0.1323-0.13229zm-0.52917-0.25779c0-0.25933-1.5851-0.93238-2.1697-0.92126-0.39124 7e-3 -0.13617 0.18373 0.71446 0.4938 0.72761 0.26522 1.3527 0.49813 1.3891 0.51759 0.0364 0.0194 0.0661-0.0211 0.0661-0.0901zm-6.9403-3.743c1.0207-0.29673 2.1051-0.39106 3.5405-0.30797 2.3563 0.13641 2.2669-0.12639-0.38006-1.1167-1.7268-0.64606-2.8301-1.4478-2.8463-2.0682-6e-3 -0.2441-0.17846 0.0245-0.38239 0.59694-0.24125 0.67718-1.0228 1.6491-2.2374 2.7822-1.0266 0.95778-1.8666 1.8804-1.8666 2.0502s0.60767-0.10016 1.3504-0.59997c0.74271-0.49981 2.0125-1.1012 2.8218-1.3365zm39.219 1.0904c0-0.0728-0.0595-0.13229-0.1323-0.13229s-0.13229 0.0595-0.13229 0.13229c0 0.0728 0.0595 0.13229 0.13229 0.13229 0.0728 0 0.1323-0.0595 0.1323-0.13229zm1.0583-0.52917c0-0.0728-0.0595-0.13229-0.13229-0.13229-0.0728 0-0.13229 0.0595-0.13229 0.13229 0 0.0728 0.0595 0.1323 0.13229 0.1323 0.0728 0 0.13229-0.0595 0.13229-0.1323zm-84.767-0.92604c0.39595 0 0.94277 0.20169 1.2151 0.44819 0.46893 0.42438 0.48547 0.42086 0.31135-0.0662-0.26364-0.73739-0.91868-1.4379-1.7433-1.8643-0.95901-0.49593-1.006-0.48002-1.006 0.34076 0 0.3908-0.26789 1.0013-0.59531 1.3566l-0.59531 0.64603 0.84676-0.43054c0.46572-0.2368 1.1707-0.43054 1.5667-0.43054zm97.202 0.13229c0-0.0728-0.0595-0.13229-0.1323-0.13229s-0.13229 0.0595-0.13229 0.13229c0 0.0728 0.0595 0.1323 0.13229 0.1323 0.0728 0 0.1323-0.0595 0.1323-0.1323zm-1.5214-1.1833c-1.14-1.0589-1.3824-1.7603-0.80698-2.3357 0.46049-0.46049 0.0687-0.39028-1.0733 0.19233-1.178 0.60099-1.4465 0.90667-1.8511 2.108l-0.3025 0.89802 0.64835-0.69959c0.80278-0.8662 0.98401-0.86008 2.7903 0.0942 0.80036 0.42283 1.5147 0.77292 1.5875 0.77797 0.0728 5e-3 -0.37372-0.4608-0.99219-1.0352zm-93.733-1.0273c0.0021-0.19717 0.35822-0.88328 0.79109-1.5247l0.78704-1.1662-0.8424 0.43562c-0.68333 0.35337-1.3191 0.40606-3.3667 0.27905-1.3884-0.0861-2.822-0.22494-3.1858-0.30851-0.3638-0.0836 0.11245 0.12828 1.0583 0.47078 2.2133 0.80143 2.6149 1.0293 3.5559 2.018 0.76926 0.80827 1.192 0.73654 1.2026-0.2041zm-14.019 0.35851c0-0.0728-0.05953-0.13229-0.13229-0.13229-0.07276 0-0.13229 0.0595-0.13229 0.13229 0 0.0728 0.05953 0.13229 0.13229 0.13229 0.07276 0 0.13229-0.0595 0.13229-0.13229zm0.52917-0.26458c0-0.0728-0.05953-0.1323-0.13229-0.1323-0.07276 0-0.13229 0.0595-0.13229 0.1323s0.05953 0.13229 0.13229 0.13229c0.07276 0 0.13229-0.0595 0.13229-0.13229zm1.489-0.57066c0.56348-0.2411 1.7984-0.51171 2.7443-0.60137l1.7198-0.163-1.4552-0.4955c-0.80036-0.27253-1.604-0.55044-1.7859-0.61757-0.19673-0.0726-0.33073 0.0977-0.33073 0.42042 0 0.3561-0.38633 0.77402-1.1245 1.2164-1.3018 0.78025-1.2221 0.86288 0.23227 0.24059zm102.95-1.4245 1.1254-0.71372-1.9154-0.13548c-1.0535-0.0745-2.1474-0.23096-2.431-0.34766-0.47885-0.19708-0.47345-0.15306 0.0758 0.61833 0.32526 0.45678 0.72577 1.216 0.89003 1.6872l0.29865 0.85672 0.41555-0.62585c0.22856-0.34422 0.92199-0.94703 1.541-1.3396zm12.773 0.93684c0-0.0728-0.0595-0.13229-0.13229-0.13229-0.0728 0-0.13229 0.0595-0.13229 0.13229 0 0.0728 0.0595 0.13229 0.13229 0.13229 0.0728 0 0.13229-0.0595 0.13229-0.13229zm-1.1906-0.57193c-1.1078-0.584-1.9979-1.4411-1.8108-1.7438 0.17176-0.27791-0.9151-0.0867-2.6814 0.47177l-1.064 0.33642 1.1906 0.0493c0.65485 0.0271 1.9645 0.32198 2.9104 0.65531 2.0542 0.7239 2.5349 0.80021 1.4552 0.23103zm-62.971-2.3977c0.47921-0.2932 0.45366-0.31258-0.27059-0.20526-0.43987 0.0652-1.1381-0.057-1.5516-0.27154-0.99518-0.51631-1.0011-0.51166-0.48777 0.38278 0.41563 0.72419 0.41511 0.83247-8e-3 1.7202l-0.45174 0.94731 1.1204-1.1248c0.6162-0.61866 1.3585-1.2705 1.6495-1.4486zm2.4792-1.6951c1.8933-0.21529 2.8599-0.21915 3.4491-0.0138 0.76129 0.26539 1.1508 0.0203 0.55399-0.34858-0.42589-0.26321-0.3044-1.1411 0.19843-1.434 0.37844-0.22042 0.29386-0.27078-0.46302-0.27567-1.4986-0.01-8.3639 1.8565-8.036 2.1844 0.26001 0.26001 1.25 0.23411 4.2975-0.11242zm-1.0902-2.3438c0.47294-0.28835 0.85989-0.63536 0.85989-0.77112 0-0.57087-0.34955-1.0839-0.73855-1.0839-0.88492 0-3.5501 0.89469-3.681 1.2357-0.435 1.1336 2.0166 1.5601 3.5596 0.6193zm13.852-2.7087c-0.21283-0.5598-0.54157-0.75167-1.7519-1.0225-1.2516-0.28009-1.9431-0.26533-4.3235 0.0923-3.1862 0.47868-5.8583 1.3614-5.8583 1.9352 0 0.47554 0.51723 0.47076 2.5135-0.0232 0.87312-0.21605 2.7781-0.46112 4.2333-0.5446 3.1302-0.17957 4.2347 0.20941 4.8948 1.7239l0.39688 0.91055 0.0786-1.1913c0.0432-0.65521-0.0393-1.5014-0.1834-1.8804zm-17.01 1.1207c0.0458-0.13051 0.2421-0.17633 0.43626-0.10183s0.43282 6e-3 0.53036-0.15147c0.0975-0.15781 0.28817-0.21843 0.42363-0.13471 0.13547 0.0837 0.2463 0.0299 0.2463-0.11967 0-0.14955 0.1786-0.20337 0.39688-0.1196 0.21828 0.0838 0.39687 0.0135 0.39687-0.15621 0-0.16968 0.0912-0.25216 0.20262-0.18329 0.3913 0.24184 5.9333-1.3414 6.2095-1.7739 0.10691-0.16743 0.19621-0.72429 0.19844-1.2375 4e-3 -0.92951 6e-5 -0.93265-1.0543-0.8321-0.58208 0.0555-1.0583 0.19777-1.0583 0.31614 0 0.71141-3.8951 2.3312-6.35 2.6408-1.9411 0.24473-3.7042 0.8003-3.7042 1.1673 0 0.13483 0.20675 0.4736 0.45944 0.75282 0.36802 0.40667 0.6707 0.47414 1.5214 0.33913 0.58406-0.0927 1.0994-0.27531 1.1452-0.40582zm-2.3189-2.1853c0.37111-0.47293 0.95288-1.3169 1.2928-1.8755 0.47324-0.77761 0.67749-0.93262 0.87157-0.66146 0.19047 0.26611 0.21655 0.23928 0.10491-0.10792-0.20815-0.64733 1.6315-1.5435 3.52-1.7148 1.1958-0.10843 1.7867-3e-3 3.12 0.55852 0.90464 0.38076 1.7674 0.69229 1.9174 0.69229 0.5512 0 0.24806-0.50115-0.63224-1.0452-2.4243-1.4983-7.5582-0.43337-10.262 2.1287-0.80551 0.76325-1.0039 1.1423-1.0039 1.9182 0 1.1903 0.20555 1.2108 1.0716 0.1071zm1.1938 0.0395c0.10319-0.16696 0.50961-0.22531 0.95242-0.13675 0.73397 0.14679 5.985-1.3052 5.7111-1.5792-0.0632-0.0632-1.2814 0.24416-2.7071 0.68302-2.7038 0.83228-3.1856 0.79403-3.3617-0.26683-0.0655-0.39471-0.23201-0.28427-0.82679 0.54838-0.55377 0.77525-0.64259 1.0426-0.34634 1.0426 0.21913 0 0.47941-0.13106 0.57841-0.29124zm13.676-1.0511c0.95328-0.25516 0.99218-0.31059 0.99218-1.4136 0-0.63141-0.14882-1.2613-0.33073-1.3997-0.55904-0.42546-3.638-1.3658-3.638-1.1111 0 0.13184 0.1057 0.23971 0.23489 0.23971 0.28243 0 0.24667 3.44-0.0404 3.8831-0.22729 0.35083 1.078 0.25777 2.782-0.19833zm-2.053-0.93992c0.2719-0.41496 0.35179-0.76125 0.19839-0.8599-0.31972-0.20559-0.69585-1.3558-0.44336-1.3558 0.10177 0 0.58604 0.24784 1.0762 0.55075 1.1939 0.73787 1.2198 1.6642 0.0579 2.0692-1.2385 0.43175-1.3913 0.36226-0.88909-0.40427zm7.0833 0.89318c-0.33691-1.3762-1.3681-1.7039-1.8732-0.59531-0.27224 0.59751-0.24438 0.66185 0.28826 0.66551 0.3243 2e-3 0.76824 0.11946 0.98652 0.26053 0.61299 0.39614 0.75694 0.3166 0.59847-0.33073zm-11.316-1.2599c-0.0924-0.14951 0.20688-0.34216 0.67788-0.43636l0.84333-0.16866-1.2888-0.48947c-1.3976-0.53078-2.0966-0.63608-1.355-0.20413 0.25466 0.14833 0.46302 0.56143 0.46302 0.918 0 0.41079 0.15112 0.64831 0.41249 0.64831 0.22687 0 0.33804-0.12046 0.24705-0.26769zm-5.6866-0.65835c0-0.0728-0.0595-0.13229-0.13229-0.13229-0.0728 0-0.13229 0.0595-0.13229 0.13229 0 0.0728 0.0595 0.13229 0.13229 0.13229 0.0728 0 0.13229-0.0595 0.13229-0.13229zm3.7754-1.0996c-0.17913-0.0725-0.53632-0.0769-0.79375-0.01-0.25743 0.0671-0.11087 0.12639 0.32569 0.13178 0.43656 5e-3 0.64719-0.0495 0.46806-0.12197zm-7.7525-1.2399c5e-3 -0.12257 0.23988-0.51712 0.52279-0.87678s0.44645-0.83097 0.36341-1.0474c-0.11624-0.3029-6e-3 -0.3574 0.47781-0.23686 0.34582 0.0861 1.1006 0.058 1.6772-0.0625l1.0485-0.21906-0.9474-0.58552c-1.1318-0.69952-1.2704-0.70857-2.4243-0.1583-1.2902 0.61524-1.8039 1.6176-1.5982 3.1183 0.14875 1.0852 0.20586 1.1683 0.51946 0.75511 0.19379-0.2553 0.35613-0.56447 0.36076-0.68704zm3.0511-1.4732c0.49195-0.30193 0.48264-0.31325-0.13229-0.16099-0.36381 0.0901-0.79355 0.19209-0.955 0.22669-0.30978 0.0664-0.76938 0.50216-1.4262 1.3522-0.27 0.34941-0.0163 0.25677 0.79375-0.28978 0.65484-0.44187 1.4288-0.94955 1.7198-1.1282zm64.608 81.297c-0.31385-0.31386-0.19859-1.0734 0.21497-1.4166 0.25027-0.2077 0.39688-0.22544 0.39688-0.048 0 0.15475-0.11906 0.35495-0.26458 0.44489-0.30599 0.18911-0.36209 0.69396-0.0662 0.59531 0.10914-0.0364 0.23713 0.0499 0.28443 0.19182 0.10459 0.31378-0.31274 0.48543-0.56555 0.23262zm0.61185-0.226c0-0.0728-0.0595-0.13229-0.13229-0.13229-0.0728 0-0.13229 0.0595-0.13229 0.13229 0 0.0728 0.0595 0.13229 0.13229 0.13229 0.0728 0 0.13229-0.0595 0.13229-0.13229zm-2.3812-0.47837c0-0.79107 0.68849-1.4525 1.092-1.0491 0.4783 0.47831 0.15766 1.519-0.49664 1.612-0.47821 0.0679-0.59531-0.0428-0.59531-0.56291zm0.92716-0.39664c0.0495-0.67233-0.26691-0.77426-0.50198-0.16169-0.24728 0.64442-0.19173 0.95888 0.14932 0.8452 0.17045-0.0568 0.32914-0.3644 0.35266-0.68351z" fill="#808080" stroke-width=".26458"/>
 </g>
</svg>
