<?xml version="1.0" encoding="UTF-8"?>
<!-- Created with Inkscape (http://www.inkscape.org/) -->
<svg width="68.28mm" height="70.364mm" version="1.1" viewBox="0 0 68.28 70.364" xmlns="http://www.w3.org/2000/svg">
 <g transform="translate(34.14 -294.54)" fill="#1a1a1a" stroke="#1a1a1a">
  <path d="m-25.48 363.99c-2.5978-0.43516-5.5601-2.6254-6.7689-5.0047-1.2193-2.4002-1.1793-1.5158-1.1821-26.094-0.0025-21.995 0.01142-22.789 0.4243-24.125 1.1501-3.7214 4.2602-6.3574 8.1582-6.9147 1.9913-0.2847 22.28-0.29718 23.024-0.0141 0.42169 0.16033 0.5575 0.36563 0.5575 0.84276 0 0.34694-0.12641 0.73571-0.28093 0.86395-0.18993 0.15763-4.0089 0.25425-11.791 0.29828-11.327 0.0641-11.531 0.073-12.814 0.5544-1.7507 0.6568-2.8572 1.4701-3.7314 2.7424-1.4514 2.1125-1.3902 0.9003-1.3258 26.233l0.05824 22.915 0.61017 1.3041c0.76886 1.6432 2.3788 3.1832 4.0218 3.8472l1.2363 0.49962h46.077l1.2466-0.58422c2.3968-1.1233 3.5757-2.395 4.3245-4.6647 0.37513-1.1371 0.40582-2.081 0.40582-12.484 0-6.7862 0.0841-11.475 0.21196-11.811 0.15849-0.41685 0.36686-0.55751 0.8259-0.55751 0.33767 0 0.73131 0.11737 0.87476 0.26081 0.19632 0.19632 0.26001 3.085 0.2576 11.682-2e-3 9.4237-0.0607 11.665-0.33178 12.815-0.90923 3.8574-3.8714 6.661-7.8062 7.3884-1.53 0.28284-44.597 0.29001-46.283 8e-3z" stroke-width="1.417"/>
  <g stroke-linecap="round" stroke-width="3.1974">
   <path d="m32.541 319.59-0.20884-23.45"/>
   <path d="m-6.9194 338.16 38.138-41.493"/>
   <path d="m7.0036 296.19 25.329-0.0567"/>
  </g>
 </g>
</svg>
