<?xml version="1.0" encoding="UTF-8"?>
<svg id="svg10" width="350.97" height="350.78" version="1.1" viewBox="-100 -100 350.97 350.78" xml:space="preserve" xmlns="http://www.w3.org/2000/svg"><defs id="defs1"><clipPath id="clipPath1316-2"><path id="path1" d="m-0.93951-82.951a83.807 83.768 0 0 0-83.807 83.768 83.807 83.768 0 0 0 83.807 83.769 83.807 83.768 0 0 0 83.807-83.769 83.807 83.768 0 0 0-83.807-83.768zm0 5.5617a78.243 78.207 0 0 1 78.242 78.206 78.243 78.207 0 0 1-78.242 78.207 78.243 78.207 0 0 1-78.243-78.207 78.243 78.207 0 0 1 78.243-78.206z" fill="#ff2a2a" stroke-width="0"/></clipPath></defs><circle id="path11" cx="75.551" cy="77.054" r="173.62" fill="#f9f9f9" stroke="#fff" stroke-width="2.2226"/><path id="the_sun_rays" d="m82.917 63.141c-1.1116 0.37314-2.7172 0.19986-2.9573 3.3471-0.30143 0.59954-1.189 0.25379-1.9945 1.9335l-0.61642-0.0411-1.2328-4.8527-1.2328 4.8527-0.44213 0.0584c-1.1736-0.73933-0.93599-1.6273-1.4262-2.6008-0.41014-1.2256-2.4222-0.10849-3.1579-2.5976-0.53865 2.4584 1.8352 3.5545 1.7388 4.2193-0.0948 1.4149 0.14459 1.7124 0.40097 2.1368l-0.40097 0.18347-5.1714-3.0049 3.1578 5.1006-0.26707 0.32877c-0.52269-0.53733-1.2128-0.74942-1.7948-0.77717-1.389-0.0171-1.0564 0.8131-4.1432-0.82749 0.65742 1.4494 1.6975 2.292 2.9961 2.421 0.93091 0.18286 1.2417 1.3325 2.0172 1.5857l-0.16425 0.47252-6.0818 1.3561 6.2051 1.2739 0.0617 0.45196c-1.4291 0.79466-0.61912 1.4083-2.3628 1.767-0.94019 0.24525-2.1081 1.097-2.5957 2.4638 1.0905-0.66191 1.3367-1.2186 3.5426-0.80265 0.94382 0.10466 1.5264-0.25123 2.4528-0.93271l0.24327 0.26704-3.6629 5.4742 5.6634-3.5842 0.59872 0.42516c-0.0404 0.74224 0.15606 1.3087-0.26063 1.7859-1.4574 1.6804-0.36278 2.5738-1.24 4.0383 1.3408-0.89305 1.1928-1.8132 2.5584-2.7846 0.56232-0.50668 0.95084-0.8376 1.0998-2.0017l0.41448 0.0894 1.1749 5.0819 1.3212-5.157 0.3804-0.0484c0.1903 0.49808 0.44744 1.4934 1.1712 1.9314 2.2871 1.158 1.0316 1.9264 2.9899 2.8748-0.66142-1.2509 0.26519-2.9176-1.4946-4.0414-0.4932-0.36766-0.32787-0.99417-0.53511-1.4606l0.60124-0.3727 5.6382 3.287-3.4191-5.2595 0.45204-0.53422c0.54431 0.22542 1.2488 0.21262 1.9714 0.17762 1.4141 2e-3 1.7918 1.2398 3.7658 1.5644-1.6181-1.5988-1.3501-2.3274-2.4746-3.0294-0.63216-0.36588-2.0087-0.12708-2.3622-0.76204l0.20913-0.58068 6.2256-1.6027-6.1434-1.3561v-0.61639c0.88148-0.37727 0.99522-1.1905 1.6311-1.315 1.2908-0.12604 2.4487-0.4155 3.6289-1.8492-1.9565 0.60626-2.0621 0.16959-3.556 0.0994-1.0747 0.0662-1.8566 0.99455-3.0236 0.62953l-0.22916-0.55153 3.0391-4.8742-4.8189 3.0944-0.61639-0.32871c0.49115-1.2242 1.4271-1.5736 1.5024-2.3887 0.15853-1.7132 0.45136-2.7072 1.0248-3.837zm-6.6057 6.3647c3.7449 0 6.7887 3.0437 6.7887 6.7887s-3.0437 6.7887-6.7887 6.7887-6.7887-3.0437-6.7887-6.7887 3.0437-6.7887 6.7887-6.7887z" display="none" fill="#ffd900" stroke-width="1.097" title="The Sun"/><g id="neptune_system" transform="matrix(2.2046 -.8976 .90199 2.2155 77.376 74.37)"><circle id="neptune-orbit" cx="-9.3846e-16" cy="-1.5149e-14" r="61.917" fill="none" stroke="#7939d9" stroke-width=".71276"/><ellipse id="neptune-start" cx="-24.577" cy="-56.783" rx="1.0666" ry="1.0613" display="none" fill="#7939d9" stroke-width=".36042" title="Neptune on Jan. 1st"/><g id="neptune" transform="matrix(.86292 .00068105 .00068778 .86152 -3.3639 -7.9544)" title="♅ Neptune"><ellipse id="ellipse1" cx="-24.577" cy="-56.783" rx="1.8299" ry="1.8208" fill="#7939d9" stroke="#7939d9" stroke-width=".8196" title="Uranus"/></g></g><g id="uranus_system" transform="matrix(1.8672 1.0734 -1.0787 1.8765 76.076 74.808)"><circle id="uranus-orbit" cx="-9.3846e-16" cy="-1.5149e-14" r="61.917" fill="none" stroke="#0cacf5" stroke-width=".82274"/><ellipse id="uranus-start" cx="-24.577" cy="-56.783" rx="1.4907" ry="1.4833" display="none" fill="#0cacf5" stroke-width=".50372" title="Uranus on Jan. 1st"/><g id="uranus" transform="matrix(.95369 0 0 .95369 -1.2796 -2.6675)" title="♅ Uranus"><ellipse id="ellipse2" cx="-24.577" cy="-56.783" rx="1.8299" ry="1.8208" fill="#0cacf5" stroke="#0cacf5" stroke-width=".8196" title="Uranus"/></g></g><g id="saturn_system" transform="matrix(1.6567 .95233 -.95707 1.6649 76.016 74.79)"><circle id="saturn-orbit" cx="-9.3846e-16" cy="-1.5149e-14" r="61.917" fill="none" stroke="#666" stroke-width=".94703" title="Saturn's orbit"/><ellipse id="saturn-start" cx="-60.042" cy="15.863" rx="1.6302" ry="1.6221" display="none" fill="#666" stroke-width=".50372" title="Saturn on Jan. 1st"/><g id="saturn" title="♄ Saturn"><ellipse id="ellipse3" cx="-60.042" cy="15.863" rx="2.0012" ry="1.9912" fill="#666" stroke="#666" stroke-width=".89632" title="Saturn today"/></g></g><g id="jupiter_system" transform="matrix(1.4492 .83304 -.83719 1.4564 76.016 74.79)"><circle id="jupiter-orbit" cx="-9.3846e-16" cy="-1.5149e-14" r="61.917" fill="none" stroke="#ff8201" stroke-width="1.1052" title="Jupiter's orbit"/><ellipse id="jupiter-start" cx="-52.219" cy="-33.322" rx="1.8988" ry="1.8894" display="none" fill="#ff8201" stroke-width=".50372" title="Jupiter on Jan. 1st"/><g id="jupiter" transform="matrix(.00038114 .99506 -1.005 .00035121 -85.686 18.651)" title="♃ Jupiter"><ellipse id="ellipse4" cx="-52.219" cy="-33.322" rx="2.3309" ry="2.3194" fill="#ff8201" stroke="#ff8201" stroke-width="1.009" title="Jupiter"/></g></g><g id="mars_system" transform="matrix(1.2133 .69745 -.70092 1.2193 76.016 74.79)"><circle id="mars-orbit" cx="-9.3846e-16" cy="-1.5149e-14" r="61.917" fill="none" stroke="#d40000" stroke-width="1.347"/><ellipse id="mars-start" cx="19.323" cy="-59.373" rx="2.1461" ry="2.1354" display="none" fill="#d40000" stroke-width=".50372" title="Mars on Jan. 1st"/><g id="mars" title="♂ Mars"><g id="g5" title="♂ Mars"><ellipse id="ellipse5" cx="19.323" cy="-59.373" rx="2.6344" ry="2.6214" fill="#d40000" stroke="#d40000" stroke-width="1.1403" title="Mars"/></g><path id="path5" d="m5.9443-62.335c2.5275 0.20513 7.0689 0.56984 11.539 1.1038l-0.88032 3.2844c-2.7868-1.3806-6.0151-2.1601-10.463-3.036" fill="#d40000"/></g></g><g id="earth_system" transform="matrix(.97878 0 0 .97878 -18.178 -18.965)" stroke="#00f"><g id="g7" transform="matrix(.93323 .53645 -.53645 .93323 96.322 96.139)"><circle id="earth-orbit" cx="-3.6979e-16" cy="1.3841e-14" r="64.57" fill="none" stroke="#2929e3" stroke-width="1.7936"/><circle id="earth-start" cx="32.252" cy="-55.996" r="2.8005" display="none" fill="#00f" stroke="none" stroke-width=".56303" title="Earth on Jan. 1st"/><g id="earth" title="Earth"><g id="g6" title="🜨 Earth"><circle id="circle5" cx="32.252" cy="-55.996" r="3.4377" fill="#2929e3" stroke="#2929e3" stroke-width="1.4058"/></g><path id="path6" d="m15.688-63.55c3.1855 0.8499 8.9101 2.372 14.504 4.0951l-1.8917 4.0182c-3.2432-2.4212-7.1914-4.172-12.677-6.3296" fill="#2929e3" stroke="none"/></g></g></g><g id="venus_system" transform="matrix(.64326 .36976 -.36976 .64326 76.085 75.14)"><circle id="venus-orbit" cx="1.4211e-14" cy="1.4211e-14" r="66.296" fill="none" stroke="#00e513" stroke-width="2.547"/><circle id="venus-start" cx="-62.875" cy="20.663" r="3.7014" display="none" fill="#00e513" stroke-width=".74416" title="Venus on Jan 1st"/><g id="venus" title="♀ Venus"><circle id="circle7" cx="-62.875" cy="20.663" r="4.5437" fill="#00e513" stroke="#00e513" stroke-width="2.6469"/><g id="g8" transform="rotate(251.38)" stroke-width=".24869" aria-label="♀"><path id="path7" transform="rotate(108.62)" d="m-53.364 41.803c-6.7332-8.1114-9.5303-11.598-11.757-16.554l6.4644-1.2153c1.2289 8.3249 6.6193 14.322 7.7214 16.493" fill="#00e513"/></g></g></g><g id="mercury_system" transform="matrix(.39972 .22978 -.22978 .39972 76.106 75.14)"><circle id="mercury-orbit" cx="1.4211e-14" cy="1.4211e-14" r="66.296" fill="none" stroke="#a05a2c" stroke-width="4.0988" title="Mercury's orbit"/><circle id="mercury-start" cx="-1.5468" cy="-64.885" r="6.066" display="none" fill="#a05a2c" stroke-width="1.2196" title="Mercury on Jan. 1st"/><g id="mercury" fill="#a05a2c" title="☿ Mercury"><path id="path8" d="m5.8995-64.885a7.4463 7.4463 0 0 1-7.4463 7.4463 7.4463 7.4463 0 0 1-7.4463-7.4463 7.4463 7.4463 0 0 1 7.4463-7.4463 7.4463 7.4463 0 0 1 7.4463 7.4463z" color="#000000" stroke-width="4.9165" style="-inkscape-stroke:none"/><path id="path9" d="m-1.5469-74.789c-5.441 0-9.9043 4.4633-9.9043 9.9043s4.4633 9.9043 9.9043 9.9043 9.9043-4.4633 9.9043-9.9043-4.4633-9.9043-9.9043-9.9043z" color="#000000" stroke-width="0"/><path id="path10" d="m-39.505-55.57c10.252-7.815 22.514-12.433 31.071-14.896l-1.1809 9.715c-13.791 0.06364-19.649 4.2882-28.547 8.7032"/></g></g><g id="solar_months" transform="matrix(2.0939 0 0 2.0938 77.454 73.679)" clip-path="url(#clipPath1316-2)" stroke-width=".92194"><path id="december" d="m43.633-77.074c13.675 7.9106 25.862 19.03 33.75 32.718l-77.98 45.653z" fill="#3d3de9" opacity=".65" title="December"/><path id="november" d="m-1.0687-88.702c15.798 0.01327 31.064 3.7655 44.739 11.676l-44.267 78.323z" fill="#0cacf5" opacity=".65" title="November"/><path id="october" d="m-47.124-75.685c13.751-7.9242 30.141-13.065 46.013-13.014l0.51368 89.997z" fill="#00e6a7" opacity=".65" title="October"/><path id="september" d="m-79.326-42.234c7.9106-13.675 18.611-25.505 32.3-33.393l46.428 76.923z" fill="#00e513" opacity=".65" title="September"/><path id="august" d="m-90.559 3.2571c0.01327-15.798 3.3955-31.741 11.306-45.416l78.654 43.457z" fill="#beee00" opacity=".65" title="August"/><path id="july" d="m-77.273 48.822c-7.8877-13.688-13.395-29.735-13.382-45.533l90.058-1.9902z" fill="#ff0" opacity=".65" title="July"/><path id="june" d="m-43.955 80.398c-13.675-7.9106-25.474-17.952-33.362-31.64l76.718-47.459z" fill="#fc0" opacity=".65" title="June"/><path id="may" d="m1.3052 91.374c-15.798-0.01327-31.533-3.1585-45.208-11.069l43.306-79.007z" fill="#ff8201" opacity=".65" title="May"/><path id="april" d="m45.87 78.283c-13.688 7.8877-28.79 12.959-44.589 12.946l-1.8784-89.932z" fill="#ff6303" opacity=".65" title="April"/><path id="march" d="m78.74 43.908c-7.9106 13.675-19.154 26.466-32.843 34.354l-46.495-76.963z" fill="#fb0000" opacity=".65" title="March"/><path id="february" d="m89.456 2.7994c-0.01327 15.798-2.7519 27.496-10.662 41.171l-79.39-42.673z" fill="#ff11ce" opacity=".65" title="February"/><path id="january" d="m77.426-44.315c7.8877 13.688 11.99 31.36 11.977 47.159l-90.414-1.7473z" fill="#60f" opacity=".65" title="January"/></g><circle id="circle10" cx="75.452" cy="75.663" r="10.888" fill="#fc0" fill-opacity=".65098" stroke-opacity=".87843"/></svg>
