<?xml version="1.0" encoding="UTF-8" standalone="no"?>
<!-- Created with Inkscape (http://www.inkscape.org/) -->

<svg
   width="123.74505mm"
   height="73.702637mm"
   viewBox="0 0 123.74505 73.702637"
   version="1.1"
   id="svg303"
   xml:space="preserve"
   inkscape:version="1.2.2 (b0a8486541, 2022-12-01)"
   sodipodi:docname="authoring.svg"
   xmlns:inkscape="http://www.inkscape.org/namespaces/inkscape"
   xmlns:sodipodi="http://sodipodi.sourceforge.net/DTD/sodipodi-0.dtd"
   xmlns="http://www.w3.org/2000/svg"
   xmlns:svg="http://www.w3.org/2000/svg"><sodipodi:namedview
     id="namedview305"
     pagecolor="#ffffff"
     bordercolor="#000000"
     borderopacity="0.25"
     inkscape:showpageshadow="2"
     inkscape:pageopacity="0.0"
     inkscape:pagecheckerboard="0"
     inkscape:deskcolor="#d1d1d1"
     inkscape:document-units="mm"
     showgrid="false"
     inkscape:zoom="0.2102413"
     inkscape:cx="266.3606"
     inkscape:cy="428.07954"
     inkscape:window-width="1503"
     inkscape:window-height="934"
     inkscape:window-x="0"
     inkscape:window-y="0"
     inkscape:window-maximized="1"
     inkscape:current-layer="layer1" /><defs
     id="defs300" /><g
     inkscape:label="Layer 1"
     inkscape:groupmode="layer"
     id="layer1"
     transform="translate(-34.213247,-35.067218)"><path
       style="fill:#000000;stroke-width:0.441748"
       d="m 146.88065,107.97902 c -1.32432,-0.45716 -2.63217,-1.13798 -2.90632,-1.51291 -0.27416,-0.37493 -1.47027,-0.89948 -2.65802,-1.16566 -3.08089,-0.69044 -4.85529,-1.94533 -5.95092,-4.20861 -0.52484,-1.08417 -1.0856,-1.970392 -1.24615,-1.969392 -0.16055,8.8e-4 -4.06885,0.68124 -8.68511,1.511652 -15.73134,2.82986 -17.69497,2.84551 -33.351948,0.26574 -4.25182,-0.70056 -8.91915,-1.337792 -10.37184,-1.416052 l -2.64126,-0.14229 -0.29706,2.050362 c -0.41495,2.86409 -1.60808,5.16347 -3.07213,5.92056 -1.74577,0.90277 -2.68944,0.8073 -4.55869,-0.46121 -0.89506,-0.6074 -2.19966,-1.10437 -2.89911,-1.10437 -1.53709,0 -3.507631,-1.57136 -4.66455,-3.71962 -0.963885,-1.78983 -1.180819,-1.87985 -2.032289,-0.84328 -1.048796,1.27679 -4.485569,3.23766 -5.674566,3.23766 -2.172656,0 -3.402524,-1.48229 -4.214991,-5.080102 l -0.299271,-1.32524 -2.055811,2.257532 c -2.716495,2.98304 -12.799251,8.43352 -14.207162,7.68003 -0.484113,-0.25909 -0.880205,-0.66592 -0.880205,-0.90407 0,-1.02874 5.51271,-11.372672 6.756584,-12.677912 0.752502,-0.78962 1.145656,-1.43568 0.873676,-1.43568 -0.271981,0 -1.127439,-0.53257 -1.901018,-1.1835 -1.327603,-1.1171 -1.396453,-1.32247 -1.227305,-3.66092 0.21806,-3.01465 1.563368,-5.35968 8.06477,-14.05785 5.4899,-7.3449 10.548887,-12.81069 14.071058,-15.20255 5.61141,-3.81064 17.86804,-8.73876 21.74598,-8.74358 0.58176,-7.3e-4 3.42018,-2.63419 8.09538,-7.51083 4.20854,-4.38987 7.53724,-7.50971 8.01245,-7.50971 1.06296,0 5.746298,5.18469 5.746298,6.36145 0,0.55324 -1.50901,2.42594 -3.84966,4.77749 -2.377378,2.38845 -3.686688,4.01794 -3.423538,4.26075 0.23436,0.21625 2.71215,1.14101 5.506208,2.05502 8.19658,2.68133 13.1684,4.80231 18.11165,7.72643 5.40431,3.19685 10.57271,5.83603 12.9193,6.59709 1.56469,0.50746 1.74445,0.46272 3.30332,-0.82223 0.90672,-0.7474 1.86567,-1.35891 2.131,-1.35891 0.26532,0 1.16426,-0.61995 1.99764,-1.37767 2.31222,-2.10229 3.90352,-2.59805 8.33921,-2.59805 4.4215,0 7.23324,0.82352 8.05514,2.35925 0.84823,1.58494 0.28006,42.005712 -0.61469,43.730332 -1.06593,2.05455 -5.89938,2.63232 -10.04605,1.20085 z m -71.661708,-4.58359 c 0.72477,-1.51218 0.40718,-2.50781 -0.79994,-2.50781 -1.26149,0 -2.71536,2.94452 -1.75754,3.55954 1.02065,0.65535 1.91571,0.28727 2.55748,-1.05173 z m -5.37969,-1.88289 c 0.63054,-0.96232 0.65095,-1.20224 0.12966,-1.524422 -0.82214,-0.50811 -3.942202,-1.02238 -4.262076,-0.7025 -0.390867,0.39087 2.043746,3.368992 2.754146,3.368992 0.34648,0 0.9667,-0.51393 1.37827,-1.14207 z m -28.016275,-0.53028 c 0.894154,-0.76732 0.640327,-1.419882 -0.552296,-1.419882 -0.919254,0 -1.9613,1.519922 -1.525492,2.225072 0.289299,0.46809 0.844984,0.25276 2.077788,-0.80519 z m 16.450145,-1.023902 c 0.858818,-0.75405 1.561488,-1.64395 1.561488,-1.97755 0,-0.3336 -0.832484,-1.00876 -1.849964,-1.50036 -2.208439,-1.067 -1.911,-1.04546 -2.756833,-0.19963 -0.791768,0.79177 -0.890859,2.26498 -0.263361,3.915422 0.56664,1.49038 1.4093,1.42979 3.30867,-0.237882 z m 96.669538,-18.83995 c 0.22747,-15.11668 0.18722,-16.48711 -0.49453,-16.83717 -1.30039,-0.66773 -6.40948,-0.95919 -8.18117,-0.46672 -1.56594,0.43529 -1.64362,0.52973 -1.0108,1.22898 2.64692,2.92482 3.51379,8.84878 3.30589,22.59169 -0.15577,10.29692 -0.14945,10.38215 0.77931,10.51469 1.2722,0.18154 1.47591,-0.79231 1.50647,-7.20158 0.0266,-5.57532 0.44472,-8.80696 1.2428,-9.60504 1.00208,-1.00209 1.48946,2.04235 1.50229,9.38416 0.007,4.00886 0.11251,7.46346 0.23446,7.67688 0.66272,1.15979 0.89095,-2.37755 1.11528,-17.28589 z M 49.656125,92.492888 c 4.687994,-5.10595 5.923968,-7.01319 2.249929,-3.47189 -1.202211,1.15878 -2.960413,2.50203 -3.907117,2.985 -1.61464,0.82373 -4.508989,3.64246 -4.508989,4.39119 0,0.5524 0.996468,1.38054 1.377669,1.14494 0.194009,-0.1199 2.348837,-2.39206 4.788508,-5.04924 z m 92.090095,3.42509 c 0.11282,-0.54666 0.28586,-2.89697 0.38453,-5.22291 0.0987,-2.32593 0.39373,-4.61197 0.65571,-5.08009 0.44592,-0.79679 0.50651,-0.77174 0.94913,0.39243 0.26005,0.68396 0.47281,3.31788 0.47281,5.85316 0,4.77649 0.55429,6.13527 1.04433,2.56007 0.44811,-3.26929 0.3184,-18.66133 -0.18331,-21.75336 -0.50728,-3.12635 -1.36605,-5.11271 -2.37835,-5.50116 -0.70485,-0.27048 -3.31656,0.47556 -3.37814,0.96497 -0.0199,0.15846 -0.0894,5.65533 -0.15429,12.21528 -0.0649,6.55996 -0.26779,12.63805 -0.45082,13.50687 -0.25481,1.20957 -0.15952,1.75293 0.40672,2.31917 1.06464,1.06465 2.3858,0.93692 2.63168,-0.25443 z m -51.668178,-0.37736 c 9.57293,-1.00533 14.359088,-0.93917 20.999288,0.2903 8.13891,1.50696 16.03817,-0.69236 20.71669,-5.76796 2.87968,-3.12408 4.15796,-6.30692 4.38196,-10.91082 0.10289,-2.1146 0.0609,-4.3473 -0.0932,-4.96156 -0.53403,-2.12778 -2.86773,-4.14524 -7.13115,-6.16484 -2.2775,-1.07887 -5.9885,-3.04594 -8.24666,-4.37128 -2.25817,-1.32535 -5.11992,-2.92084 -6.35945,-3.54554 -2.70749,-1.36453 -18.410698,-6.93002 -19.553278,-6.93002 -1.06875,0 -9.93148,9.1127 -9.51621,9.78461 0.2082,0.33687 0.60298,0.11301 1.1676,-0.6621 0.89575,-1.22966 2.42328,-1.56407 2.78915,-0.6106 0.11829,0.30825 -0.1845,2.12275 -0.67286,4.03222 -1.23898,4.84437 -1.74295,15.28256 -0.77658,16.08458 0.96293,0.79915 1.24376,0.18159 1.67792,-3.68983 0.55079,-4.91141 2.20614,-7.43138 3.8209,-5.81662 0.62507,0.62507 0.61986,0.86416 -0.0556,2.55226 -0.52505,1.31222 -0.72103,2.96186 -0.66327,5.58288 0.0451,2.04616 -0.0944,3.88922 -0.30998,4.0957 -0.75127,0.71951 -8.40112,1.33374 -16.6262,1.33497 -4.55553,8.9e-4 -8.28277,0.11371 -8.28277,0.25116 0,0.13746 0.22399,0.66845 0.49775,1.17999 0.27377,0.51154 0.47578,1.90606 0.4489,3.09895 -0.0579,2.56823 0.89185,4.64784 2.26405,4.95763 5.81584,1.31297 8.54368,1.33895 19.52302,0.18592 z m -26.881534,-3.3231 c 2.857197,-1.92964 2.985445,-2.5377 1.009817,-4.78781 -1.539631,-1.75354 -3.092343,-2.01733 -5.264053,-0.8943 -1.549687,0.80138 -2.199896,1.90124 -2.199896,3.72125 0,3.05931 3.329768,4.07094 6.454132,1.96086 z m -15.4658,-3.64397 c 2.18545,-1.61153 3.920858,-3.47514 6.757423,-7.25664 2.309863,-3.07933 2.637454,-4.12376 1.742781,-5.55636 -0.281306,-0.45044 -0.386938,-1.1435 -0.234738,-1.54013 0.303829,-0.79176 1.858542,-0.98125 2.292319,-0.27939 0.648568,1.04941 2.01037,0.18354 6.066127,-3.857 4.245192,-4.22926 4.749722,-5.10713 3.874782,-6.74198 -0.97325,-1.81853 0.71618,-2.86904 2.66884,-1.65951 0.81037,0.50196 1.25797,0.18005 4.92143,-3.5394 2.2165,-2.25037 3.92853,-4.19305 3.80452,-4.31707 -0.3424,-0.34239 -7.68031,2.34514 -11.1755,4.09306 -7.655139,3.82829 -10.889658,6.80983 -18.97219,17.48831 -3.466509,4.57988 -3.887004,5.32601 -3.423143,6.07403 0.290852,0.46902 0.771838,1.24459 1.068856,1.72349 0.452759,0.73001 0.345673,1.26703 -0.662621,3.3229 -1.835497,3.7425 -1.582396,4.14984 1.271114,2.04569 z m -4.693015,-1.80546 c 1.437776,-2.24058 1.61888,-3.77123 0.446205,-3.77123 -0.775456,0 -2.644436,3.50046 -2.644436,4.95283 0,1.56642 0.663787,1.20962 2.198231,-1.1816 z m 23.644009,-12.14925 c 4.61626,-4.87456 13.76043,-14.49696 20.32039,-21.38311 10.60509,-11.13245 13.154088,-14.19276 11.82146,-14.19276 -0.67173,0 -1.33721,0.67467 -20.47956,20.76214 -16.090324,16.88476 -22.485111,23.97182 -22.485111,24.91924 0,0.87977 3.625157,-2.50512 10.822821,-10.10551 z m 15.48642,3.24548 c 1.13656,-0.28619 1.96261,-0.75101 1.96261,-1.10437 0,-0.7318 0.1263,-0.72686 -3.4978,-0.13672 -3.70472,0.60328 -4.12853,0.74746 -3.79297,1.29041 0.36368,0.58845 2.88815,0.56508 5.32816,-0.0493 z m 0.95634,-4.85137 c 0.53987,-0.20125 1.08654,-0.86991 1.2148,-1.4859 0.12827,-0.616 0.33334,-1.60478 0.45571,-2.19729 0.36924,-1.78781 -0.55042,-1.7415 -3.80426,0.19157 -3.17484,1.88614 -3.77955,2.57633 -3.31587,3.78464 0.21324,0.55571 0.67431,0.63005 2.36643,0.38154 1.15588,-0.16975 2.54331,-0.4733 3.08319,-0.67456 z m 2.91767,-15.33677 c 0.65626,-0.68499 1.05511,-1.38352 0.88633,-1.5523 -0.32559,-0.32559 -2.79773,1.82925 -2.79773,2.43863 0,0.68764 0.72597,0.351 1.9114,-0.88633 z m 9.40911,-9.76791 c 3.34936,-3.50624 5.884948,-6.44325 5.634638,-6.52669 -0.25031,-0.0834 -2.652038,2.08956 -5.337168,4.82888 -6.25114,6.37727 -8.03082,8.43973 -7.10403,8.23283 0.39425,-0.088 3.45721,-3.02877 6.80656,-6.53502 z"
       id="path319"
       sodipodi:nodetypes="sssscssscsssssssscsssssssssssssssssssssssssssssssssssssssssssssssssssssssssssssssssssssssssssssscsssssssssssssscssssssssssssssssssssssssssssssssssssssssssssssssssssssscsss" /></g></svg>
