<?xml version="1.0" encoding="UTF-8" standalone="no"?>
<!-- Created with Inkscape (http://www.inkscape.org/) -->

<svg
   width="34.859898mm"
   height="32.047859mm"
   viewBox="0 0 34.859898 32.047859"
   version="1.1"
   id="svg19302"
   xml:space="preserve"
   inkscape:version="1.2.2 (732a01da63, 2022-12-09, custom)"
   sodipodi:docname="booknotes.svg"
   xmlns:inkscape="http://www.inkscape.org/namespaces/inkscape"
   xmlns:sodipodi="http://sodipodi.sourceforge.net/DTD/sodipodi-0.dtd"
   xmlns="http://www.w3.org/2000/svg"
   xmlns:svg="http://www.w3.org/2000/svg"><sodipodi:namedview
     id="namedview19304"
     pagecolor="#ffffff"
     bordercolor="#000000"
     borderopacity="0.25"
     inkscape:showpageshadow="2"
     inkscape:pageopacity="0.0"
     inkscape:pagecheckerboard="0"
     inkscape:deskcolor="#d1d1d1"
     inkscape:document-units="mm"
     showgrid="false"
     inkscape:zoom="2.3786088"
     inkscape:cx="-35.104554"
     inkscape:cy="53.602761"
     inkscape:window-width="1503"
     inkscape:window-height="874"
     inkscape:window-x="0"
     inkscape:window-y="0"
     inkscape:window-maximized="1"
     inkscape:current-layer="layer1" /><defs
     id="defs19299" /><g
     inkscape:label="Layer 1"
     inkscape:groupmode="layer"
     id="layer1"
     transform="translate(-95.931254,-121.53369)"><path
       style="opacity:1;fill:#808080;fill-opacity:1;stroke:#808080;stroke-width:0.312694;stroke-dasharray:none;stroke-opacity:1"
       d="m 104.16942,151.92051 c -0.1586,-0.0664 -0.36247,-0.22037 -0.45309,-0.34211 -0.16269,-0.21862 -0.16487,-0.36514 -0.18376,-11.98501 l -0.019,-14.04107 0.2043,-0.32364 c 0.11249,-0.17801 0.20434,-0.3536 0.20434,-0.3902 0,-0.112 0.76849,-0.80439 1.00911,-0.90908 0.12459,-0.0543 0.32484,-0.14488 0.44499,-0.20155 0.16993,-0.08 1.95001,-0.10302 8.01936,-0.10302 6.06937,0 7.84945,0.0227 8.01937,0.10302 0.12018,0.0567 0.31593,0.14879 0.43512,0.20501 0.38453,0.18115 0.91202,0.70821 1.15391,1.15311 l 0.23577,0.4336 v 14.02436 c 0,10.26313 -0.0164,11.77605 -0.12312,11.97695 -0.13212,0.24692 -0.69622,0.53642 -1.0452,0.53642 -0.25472,0 -0.7321,-0.22022 -1.01186,-0.46673 -0.38636,-0.34048 -1.27705,-1.06394 -1.60925,-1.30716 -0.18118,-0.13278 -0.41832,-0.34388 -0.52683,-0.46935 -0.10824,-0.12541 -0.24483,-0.2281 -0.30293,-0.2281 -0.0581,0 -0.17388,-0.0869 -0.2572,-0.19269 -0.0834,-0.10595 -0.19154,-0.20793 -0.24034,-0.22655 -0.0959,-0.0367 -0.67145,-0.50615 -1.22768,-1.0018 -0.19069,-0.16993 -0.36751,-0.3089 -0.39294,-0.3089 -0.0255,0 -0.15648,-0.10203 -0.29104,-0.22653 -0.13458,-0.12443 -0.34484,-0.30071 -0.46705,-0.39128 -0.1223,-0.0908 -0.28363,-0.22181 -0.35872,-0.29145 -0.0752,-0.0697 -0.26629,-0.22269 -0.42488,-0.33998 -0.15861,-0.11723 -0.4644,-0.37797 -0.67964,-0.57928 -0.21519,-0.20131 -0.39129,-0.34722 -0.39129,-0.32425 0,0.0229 -0.11134,-0.0648 -0.24712,-0.19501 l -0.24714,-0.23675 -0.23224,0.22251 c -0.1277,0.1223 -0.2575,0.19726 -0.28832,0.16636 -0.0308,-0.0308 -0.0561,-0.0186 -0.0561,0.0271 0,0.076 -0.48028,0.50513 -1.27444,1.13879 -0.17032,0.13589 -0.39646,0.33053 -0.50245,0.43251 -0.10596,0.10202 -0.22878,0.18527 -0.27284,0.18527 -0.044,0 -0.15304,0.0927 -0.24214,0.20594 -0.0893,0.11331 -0.18923,0.20594 -0.22254,0.20594 -0.0332,0 -0.19747,0.12035 -0.36485,0.26773 -0.59961,0.52751 -1.18473,1.00985 -1.2741,1.05032 -0.0502,0.0227 -0.19191,0.13391 -0.31522,0.24715 -0.12345,0.11331 -0.3348,0.30787 -0.46996,0.43248 -0.13523,0.12443 -0.26523,0.22652 -0.28908,0.22652 -0.0239,0 -0.12687,0.0714 -0.2293,0.15877 -0.10236,0.0873 -0.464,0.38598 -0.80381,0.66365 -0.3398,0.2777 -0.71051,0.58897 -0.82378,0.69171 -0.48311,0.43828 -1.02697,0.55162 -1.56518,0.32613 z m 1.00611,-1.0371 c 0.16334,-0.14731 0.48839,-0.416 0.72241,-0.59726 0.23401,-0.18116 0.52618,-0.4222 0.64925,-0.53543 0.12312,-0.11333 0.34605,-0.29743 0.49551,-0.40924 0.14945,-0.11166 0.36162,-0.27862 0.47146,-0.37069 0.10988,-0.0922 0.3129,-0.26009 0.4512,-0.37336 0.13849,-0.11331 0.29667,-0.24698 0.35194,-0.29718 0.0554,-0.0502 0.31562,-0.26642 0.57854,-0.48057 0.26294,-0.21417 0.55819,-0.45729 0.6561,-0.5403 0.16769,-0.14225 0.60751,-0.49998 1.16655,-0.949 0.21019,-0.16882 0.50544,-0.41389 1.11682,-0.92693 1.04218,-0.87447 1.35026,-1.08968 1.55991,-1.08968 0.1733,0 0.50876,0.22838 1.33117,0.90609 0.60474,0.49837 1.22697,1.0081 1.3828,1.13271 0.15567,0.12476 0.37821,0.32153 0.49425,0.43759 0.11626,0.11626 0.27587,0.23536 0.35517,0.26517 0.0793,0.0298 0.14422,0.0924 0.14422,0.13914 0,0.0468 0.0525,0.0849 0.11658,0.0849 0.0641,0 0.12901,0.0286 0.14422,0.0634 0.0229,0.0528 0.39635,0.37454 1.052,0.90599 0.0708,0.0574 0.24546,0.20568 0.38809,0.32952 0.14258,0.12378 0.35645,0.29925 0.47519,0.38987 0.25396,0.19389 0.73647,0.59092 1.00112,0.82378 0.10301,0.0908 0.37923,0.31305 0.61386,0.49426 0.23463,0.18117 0.53845,0.43182 0.67511,0.55691 0.13654,0.12509 0.33878,0.25003 0.44909,0.27771 0.45603,0.11446 0.43388,0.69721 0.43544,-11.46138 9.4e-4,-12.45734 0.0387,-13.9176 -0.55774,-14.53764 -0.16693,-0.17349 -0.4494,-0.38663 -0.62781,-0.47367 -0.3128,-0.15257 -0.59598,-0.15812 -7.92401,-0.15812 -4.97757,0 -7.61722,0.0284 -7.65055,0.0825 -0.0281,0.0452 -0.11496,0.0824 -0.19332,0.0824 -0.22284,0 -0.89824,0.74301 -1.03906,1.14307 -0.11167,0.3178 -0.12688,3.96316 -0.12688,13.83634 0,7.56187 0.0277,11.2502 0.0852,11.35778 0.1264,0.23609 0.42091,0.19388 0.75608,-0.10824 z"
       id="path17422"
       sodipodi:nodetypes="cccccsccsccccscscccscccscccccsccccsccscsccccsccccccccccccccccsccccssccsccccccccscscsccc" /><path
       style="opacity:0.5;fill:#808080;fill-opacity:1;stroke:#808080;stroke-width:1.14768;stroke-dasharray:none;stroke-opacity:1"
       d="m 103.98449,131.10609 h 18.54632"
       id="path20654" /></g></svg>
