<?xml version="1.0" encoding="UTF-8" standalone="no"?>
<!-- Created with Inkscape (http://www.inkscape.org/) -->

<svg
   width="34.859898mm"
   height="32.047859mm"
   viewBox="0 0 34.859898 32.047859"
   version="1.1"
   id="svg19302"
   xml:space="preserve"
   inkscape:version="1.2.2 (732a01da63, 2022-12-09, custom)"
   sodipodi:docname="booknotes-topmenu.svg"
   xmlns:inkscape="http://www.inkscape.org/namespaces/inkscape"
   xmlns:sodipodi="http://sodipodi.sourceforge.net/DTD/sodipodi-0.dtd"
   xmlns="http://www.w3.org/2000/svg"
   xmlns:svg="http://www.w3.org/2000/svg"><sodipodi:namedview
     id="namedview19304"
     pagecolor="#ffffff"
     bordercolor="#000000"
     borderopacity="0.25"
     inkscape:showpageshadow="2"
     inkscape:pageopacity="0.0"
     inkscape:pagecheckerboard="0"
     inkscape:deskcolor="#d1d1d1"
     inkscape:document-units="mm"
     showgrid="false"
     inkscape:zoom="2.3786088"
     inkscape:cx="-28.377933"
     inkscape:cy="51.080279"
     inkscape:window-width="1503"
     inkscape:window-height="874"
     inkscape:window-x="0"
     inkscape:window-y="0"
     inkscape:window-maximized="1"
     inkscape:current-layer="layer1" /><defs
     id="defs19299" /><g
     inkscape:label="Layer 1"
     inkscape:groupmode="layer"
     id="layer1"
     transform="translate(-95.931254,-121.53369)"><path
       style="fill:#808080;stroke:#808080;stroke-width:0.322043;stroke-dasharray:none"
       d="m 105.1965,146.57835 c -0.34279,-0.11683 -0.64222,-0.37284 -0.80172,-0.68547 -0.14989,-0.29382 -0.14263,0.1968 -0.13461,-9.09662 l 0.007,-8.61527 0.0617,-0.16314 c 0.1455,-0.3844 0.4557,-0.6946 0.8401,-0.8401 l 0.16315,-0.0617 6.9513,-0.007 c 4.75869,-0.006 6.99729,0.002 7.09709,0.0225 0.4853,0.10032 0.90696,0.49435 1.03812,0.97011 0.0437,0.15844 0.0537,0.29654 0.0537,0.73473 0,0.29679 0.007,0.53936 0.0144,0.53905 0.008,-3.4e-4 0.30583,-0.50787 0.66202,-1.1279 0.35621,-0.62002 0.67397,-1.15854 0.70616,-1.19671 0.0407,-0.0484 0.0985,-0.0739 0.19057,-0.0842 0.13022,-0.0147 0.15527,-9.3e-4 1.82342,0.95989 1.80193,1.0385 1.81091,1.04474 1.79206,1.24824 -0.007,0.0709 -0.77326,1.42334 -2.59083,4.57013 l -2.58153,4.46942 -0.008,3.66202 -0.008,3.66204 -0.0647,0.1704 c -0.0982,0.25873 -0.18886,0.39542 -0.37849,0.57097 -0.18134,0.1679 -0.39819,0.2874 -0.61026,0.33629 -0.0833,0.0192 -2.49233,0.0291 -7.07761,0.0291 l -6.95129,-4e-5 -0.19367,-0.066 z m 14.14205,-0.634 c 0.16641,-0.0595 0.30731,-0.18576 0.38541,-0.34537 l 0.0728,-0.1488 -0.007,-3.00636 -0.007,-3.00636 -0.39849,0.68982 -0.39851,0.68983 -1.9141,1.45359 c -1.05275,0.79947 -1.94203,1.46931 -1.97616,1.48854 -0.15272,0.086 -0.38113,0.003 -0.44996,-0.16283 -0.0334,-0.0807 -0.006,-0.37946 0.2412,-2.53847 l 0.27909,-2.447 2.31566,-4.0107 2.31567,-4.0107 v -1.14043 c 0,-1.2571 -6.2e-4,-1.26197 -0.18136,-1.45054 -0.0507,-0.0528 -0.1439,-0.12407 -0.20722,-0.15831 l -0.11514,-0.0622 -6.86397,-0.007 c -7.70941,-0.008 -7.06356,-0.0267 -7.29798,0.2077 -0.23593,0.23593 -0.21561,-0.60465 -0.21542,8.90785 10e-5,5.75205 0.01,8.5133 0.0299,8.58603 0.047,0.16935 0.19712,0.34428 0.37105,0.43249 l 0.15607,0.0791 6.88138,-9.3e-4 c 5.52504,-9.3e-4 6.90175,-0.008 6.98473,-0.0382 z m -10.67024,-11.90526 c -0.16142,-0.0652 -0.23031,-0.28782 -0.14196,-0.45867 0.0959,-0.1854 -0.12891,-0.17515 3.84249,-0.17515 3.97783,0 3.71263,-0.0126 3.83084,0.18129 0.0677,0.11102 0.0703,0.1694 0.0128,0.29055 -0.0972,0.20481 0.19732,0.19039 -3.84662,0.18836 -2.0002,-9.3e-4 -3.66407,-0.0129 -3.69751,-0.0264 z m -0.086,-2.6602 c -0.12047,-0.12048 -0.13439,-0.2797 -0.0355,-0.40546 0.13092,-0.16644 -0.0554,-0.15871 3.82971,-0.15867 4.01831,6e-5 3.72165,-0.0164 3.83289,0.21146 0.0725,0.14858 0.0285,0.31216 -0.10603,0.39423 -0.0899,0.0548 -0.17507,0.0561 -3.75761,0.0562 l -3.66561,1.1e-4 z m 8.35229,10.15993 c 1.28089,-0.97295 1.50477,-1.15357 1.46055,-1.1782 -0.0287,-0.0161 -0.62068,-0.3574 -1.31544,-0.75865 -0.69477,-0.40125 -1.26639,-0.72591 -1.2703,-0.72147 -0.004,0.005 -0.0998,0.83059 -0.21313,1.83587 -0.11333,1.00528 -0.21337,1.86492 -0.22231,1.91034 -0.0107,0.0539 -0.006,0.0788 0.0158,0.0719 0.0176,-0.006 0.7128,-0.52778 1.54484,-1.15977 z m 4.39692,-6.11089 c 1.37189,-2.3783 2.49766,-4.33835 2.50172,-4.35568 0.01,-0.0422 -2.62625,-1.56474 -2.65563,-1.53382 -0.0537,0.0564 -5.03708,8.71567 -5.02931,8.73894 0.006,0.0141 0.59755,0.36626 1.31745,0.78259 0.96041,0.5554 1.31726,0.74833 1.34018,0.72455 0.0172,-0.0179 1.15371,-1.97828 2.52559,-4.35658 z m 3.18882,-5.5271 c 0.18024,-0.31266 0.32773,-0.58458 0.32773,-0.60425 0,-0.0196 -0.59291,-0.37816 -1.31759,-0.79664 -1.29409,-0.74729 -1.31828,-0.75974 -1.35668,-0.69822 -0.0215,0.0345 -0.17756,0.30228 -0.34676,0.59516 -0.23284,0.40297 -0.29843,0.53818 -0.26962,0.5559 0.15545,0.0956 2.60364,1.51121 2.61751,1.51356 0.01,0.002 0.16515,-0.25284 0.34541,-0.56551 z"
       id="path19435" /></g></svg>
