<?xml version="1.0" encoding="UTF-8" standalone="no"?>
<!-- Created with Inkscape (http://www.inkscape.org/) -->

<svg
   width="34.859898mm"
   height="32.047859mm"
   viewBox="0 0 34.859898 32.047859"
   version="1.1"
   id="svg19302"
   xml:space="preserve"
   inkscape:version="1.2.2 (732a01da63, 2022-12-09, custom)"
   sodipodi:docname="booknotes-topmenu.svg"
   xmlns:inkscape="http://www.inkscape.org/namespaces/inkscape"
   xmlns:sodipodi="http://sodipodi.sourceforge.net/DTD/sodipodi-0.dtd"
   xmlns="http://www.w3.org/2000/svg"
   xmlns:svg="http://www.w3.org/2000/svg"><sodipodi:namedview
     id="namedview19304"
     pagecolor="#ffffff"
     bordercolor="#000000"
     borderopacity="0.25"
     inkscape:showpageshadow="2"
     inkscape:pageopacity="0.0"
     inkscape:pagecheckerboard="0"
     inkscape:deskcolor="#d1d1d1"
     inkscape:document-units="mm"
     showgrid="false"
     inkscape:zoom="1.1893044"
     inkscape:cx="52.131313"
     inkscape:cy="16.396139"
     inkscape:window-width="1503"
     inkscape:window-height="874"
     inkscape:window-x="0"
     inkscape:window-y="0"
     inkscape:window-maximized="1"
     inkscape:current-layer="layer1" /><defs
     id="defs19299" /><g
     inkscape:label="Layer 1"
     inkscape:groupmode="layer"
     id="layer1"
     transform="translate(-95.931254,-121.53369)"><path
       style="fill:#808080;fill-opacity:1;stroke:#808080;stroke-width:0.191237;stroke-dasharray:none;stroke-opacity:0.87843138;opacity:0.8"
       d="m 105.74244,146.19653 c -0.097,-0.0406 -0.22168,-0.13477 -0.2771,-0.20922 -0.0995,-0.13371 -0.10083,-0.22331 -0.11239,-7.32978 l -0.0116,-8.58723 0.12495,-0.19794 c 0.0688,-0.10886 0.12497,-0.21625 0.12497,-0.23863 0,-0.0685 0.46999,-0.49195 0.61715,-0.55598 0.0762,-0.0332 0.19866,-0.0886 0.27214,-0.12326 0.10393,-0.049 1.19259,-0.063 4.90448,-0.063 3.7119,0 4.80056,0.0139 4.90448,0.063 0.0735,0.0347 0.19322,0.091 0.26611,0.12538 0.23517,0.11079 0.55778,0.43313 0.70571,0.70522 l 0.14419,0.26518 v 8.57701 c 0,6.27671 -0.01,7.20198 -0.0753,7.32485 -0.0808,0.15101 -0.42579,0.32806 -0.63922,0.32806 -0.15578,0 -0.44774,-0.13468 -0.61883,-0.28544 -0.23629,-0.20823 -0.78102,-0.65068 -0.98419,-0.79943 -0.1108,-0.0812 -0.25583,-0.21031 -0.32219,-0.28704 -0.0662,-0.0767 -0.14974,-0.13951 -0.18527,-0.13951 -0.0355,0 -0.10634,-0.0531 -0.1573,-0.11784 -0.051,-0.0648 -0.11714,-0.12717 -0.14699,-0.13855 -0.0586,-0.0224 -0.41064,-0.30956 -0.75082,-0.61268 -0.11662,-0.10393 -0.22476,-0.18892 -0.24031,-0.18892 -0.0156,0 -0.0957,-0.0624 -0.178,-0.13855 -0.0823,-0.0761 -0.21089,-0.1839 -0.28563,-0.2393 -0.0748,-0.0555 -0.17347,-0.13564 -0.21939,-0.17824 -0.046,-0.0426 -0.16286,-0.13619 -0.25985,-0.20792 -0.097,-0.0717 -0.28402,-0.23116 -0.41565,-0.35428 -0.13161,-0.12311 -0.2393,-0.21235 -0.2393,-0.1983 0,0.014 -0.0681,-0.0396 -0.15114,-0.11927 l -0.15115,-0.14479 -0.14203,0.13608 c -0.0781,0.0748 -0.15748,0.12065 -0.17633,0.10175 -0.0189,-0.0189 -0.0343,-0.0114 -0.0343,0.0166 0,0.0465 -0.29373,0.30893 -0.77942,0.69646 -0.10417,0.0831 -0.24247,0.20215 -0.30729,0.26451 -0.0648,0.0624 -0.13992,0.11331 -0.16686,0.11331 -0.0269,0 -0.0936,0.0567 -0.14809,0.12595 -0.0546,0.0693 -0.11573,0.12595 -0.1361,0.12595 -0.0203,0 -0.12077,0.0736 -0.22314,0.16374 -0.36671,0.32261 -0.72455,0.6176 -0.77921,0.64235 -0.0307,0.0139 -0.11737,0.0819 -0.19278,0.15115 -0.0755,0.0693 -0.20476,0.18829 -0.28742,0.2645 -0.0827,0.0761 -0.16221,0.13853 -0.17679,0.13853 -0.0146,0 -0.0776,0.0437 -0.14024,0.0971 -0.0626,0.0534 -0.28377,0.23606 -0.49159,0.40588 -0.20782,0.16983 -0.43454,0.3602 -0.50381,0.42303 -0.29546,0.26805 -0.62807,0.33736 -0.95723,0.19946 z m 0.61531,-0.63426 c 0.0999,-0.0901 0.29869,-0.25442 0.44181,-0.36527 0.14312,-0.1108 0.3218,-0.25821 0.39707,-0.32747 0.0753,-0.0693 0.21164,-0.18189 0.30304,-0.25027 0.0914,-0.0683 0.22116,-0.1704 0.28834,-0.22671 0.0672,-0.0564 0.19136,-0.15907 0.27594,-0.22834 0.0847,-0.0693 0.18144,-0.15105 0.21524,-0.18175 0.0339,-0.0307 0.19303,-0.16294 0.35383,-0.29391 0.16081,-0.13098 0.34137,-0.27967 0.40125,-0.33043 0.10256,-0.087 0.37154,-0.30578 0.71344,-0.58039 0.12855,-0.10325 0.30912,-0.25313 0.68303,-0.56689 0.63737,-0.53481 0.82578,-0.66643 0.95401,-0.66643 0.10598,0 0.31114,0.13967 0.81411,0.55415 0.36984,0.30479 0.75039,0.61653 0.84569,0.69274 0.0952,0.0763 0.2313,0.19664 0.30227,0.26762 0.0711,0.0711 0.16872,0.14394 0.21722,0.16217 0.0485,0.0182 0.0882,0.0565 0.0882,0.0851 0,0.0286 0.0321,0.0519 0.0713,0.0519 0.0392,0 0.0789,0.0175 0.0882,0.0388 0.014,0.0323 0.2424,0.22906 0.64338,0.55408 0.0433,0.0351 0.15012,0.12579 0.23735,0.20153 0.0872,0.0757 0.218,0.18302 0.29061,0.23844 0.15532,0.11858 0.45042,0.36139 0.61227,0.50381 0.063,0.0555 0.23193,0.19145 0.37542,0.30228 0.1435,0.11079 0.32931,0.26409 0.41289,0.34059 0.0835,0.0765 0.20719,0.15291 0.27465,0.16984 0.2789,0.07 0.26535,0.4264 0.26631,-7.00954 6.7e-4,-7.61865 0.0237,-8.51171 -0.3411,-8.89092 -0.1021,-0.1061 -0.27485,-0.23645 -0.38396,-0.28969 -0.1913,-0.0933 -0.36449,-0.0967 -4.84616,-0.0967 -3.04418,0 -4.65853,0.0174 -4.67892,0.0504 -0.0172,0.0276 -0.0703,0.0504 -0.11823,0.0504 -0.13628,0 -0.54934,0.45441 -0.63546,0.69908 -0.0683,0.19436 -0.0776,2.42379 -0.0776,8.46202 0,4.62468 0.0169,6.88039 0.0521,6.94618 0.0773,0.14439 0.25742,0.11857 0.4624,-0.0662 z"
       id="path17422"
       sodipodi:nodetypes="cccccsccsccccscscccscccscccccsccccsccscsccccsccccccccccccccccsccccssccsccccccccscscsccc" /><path
       style="opacity:0.6;fill:#808080;fill-opacity:1;stroke:#808080;stroke-width:0.701892;stroke-dasharray:none;stroke-opacity:1"
       d="m 105.62934,133.46687 h 11.34254"
       id="path20654" /></g></svg>
