<?xml version="1.0" encoding="UTF-8" standalone="no"?>
<!-- Created with Inkscape (http://www.inkscape.org/) -->

<svg
   width="34.859898mm"
   height="32.047859mm"
   viewBox="0 0 34.859898 32.047859"
   version="1.1"
   id="svg19302"
   xml:space="preserve"
   inkscape:version="1.2.2 (b0a8486541, 2022-12-01)"
   sodipodi:docname="booknotes.svg"
   xmlns:inkscape="http://www.inkscape.org/namespaces/inkscape"
   xmlns:sodipodi="http://sodipodi.sourceforge.net/DTD/sodipodi-0.dtd"
   xmlns="http://www.w3.org/2000/svg"
   xmlns:svg="http://www.w3.org/2000/svg"><sodipodi:namedview
     id="namedview19304"
     pagecolor="#ffffff"
     bordercolor="#000000"
     borderopacity="0.25"
     inkscape:showpageshadow="2"
     inkscape:pageopacity="0.0"
     inkscape:pagecheckerboard="0"
     inkscape:deskcolor="#d1d1d1"
     inkscape:document-units="mm"
     showgrid="false"
     inkscape:zoom="2.3786088"
     inkscape:cx="-10.089932"
     inkscape:cy="50.449658"
     inkscape:window-width="1503"
     inkscape:window-height="934"
     inkscape:window-x="0"
     inkscape:window-y="0"
     inkscape:window-maximized="1"
     inkscape:current-layer="layer1" /><defs
     id="defs19299" /><g
     inkscape:label="Layer 1"
     inkscape:groupmode="layer"
     id="layer1"
     transform="translate(-95.931254,-121.53369)"><path
       style="fill:#808080;stroke-width:0.0468704"
       d="m 97.461668,153.47404 c -0.558181,-0.19023 -1.045769,-0.60712 -1.305484,-1.11621 -0.24408,-0.47843 -0.232258,0.32049 -0.219205,-14.81254 l 0.0121,-14.02874 0.100558,-0.26566 c 0.236936,-0.62594 0.742052,-1.13105 1.367993,-1.36799 l 0.265655,-0.10056 11.319215,-0.0124 c 7.74885,-0.008 11.39409,0.003 11.55661,0.0367 0.79024,0.16335 1.47685,0.80497 1.69043,1.57968 0.0711,0.25801 0.0876,0.48287 0.0876,1.19641 0,0.48327 0.0105,0.87826 0.0234,0.87775 0.0129,-5.3e-4 0.498,-0.82699 1.07802,-1.83661 0.58003,-1.00963 1.09747,-1.88653 1.14988,-1.94867 0.0664,-0.0788 0.16038,-0.12032 0.3103,-0.13721 0.21205,-0.0239 0.25286,-0.002 2.96919,1.56305 2.93419,1.69103 2.94882,1.70122 2.91813,2.03256 -0.0107,0.1155 -1.25915,2.31772 -4.21882,7.44183 l -4.20364,7.2778 -0.0135,5.96311 -0.0135,5.96311 -0.10538,0.27747 c -0.16,0.4213 -0.30755,0.64388 -0.61632,0.92974 -0.29529,0.2734 -0.64842,0.46799 -0.99372,0.54759 -0.13567,0.0313 -4.05842,0.0474 -11.52489,0.0473 l -11.31921,-5e-5 -0.315359,-0.10747 z m 23.028322,-1.03239 c 0.27097,-0.0969 0.50042,-0.30246 0.62758,-0.56237 l 0.11855,-0.24231 -0.0119,-4.89543 -0.0119,-4.89544 -0.64891,1.12329 -0.6489,1.12328 -3.11684,2.36696 c -1.71426,1.30183 -3.16232,2.39258 -3.21791,2.42388 -0.24866,0.14007 -0.6206,0.005 -0.73269,-0.26512 -0.0544,-0.13144 -0.008,-0.61792 0.39276,-4.13356 l 0.45447,-3.98458 3.77073,-6.53086 3.77073,-6.53087 v -1.85703 c 0,-2.047 -0.001,-2.05494 -0.29532,-2.36199 -0.0825,-0.086 -0.23432,-0.20204 -0.33743,-0.25779 l -0.18749,-0.10135 -11.177,-0.0121 c -12.553685,-0.0136 -11.502005,-0.0435 -11.883736,0.33821 -0.384181,0.38418 -0.351079,-0.98459 -0.350787,14.50518 1.77e-4,9.36639 0.01586,13.8627 0.04875,13.98113 0.07658,0.27576 0.320964,0.56061 0.604187,0.70425 l 0.254152,0.12889 11.205344,-0.002 c 8.99673,-0.002 11.23852,-0.0139 11.37363,-0.0622 z m -17.37498,-19.38603 c -0.26284,-0.1062 -0.37504,-0.46867 -0.23117,-0.74687 0.15612,-0.3019 -0.2099,-0.28522 6.25696,-0.28522 6.47735,0 6.04551,-0.0204 6.23798,0.29522 0.11022,0.18077 0.11439,0.27584 0.0208,0.47312 -0.15826,0.3335 0.32131,0.31002 -6.26368,0.30671 -3.25704,-0.002 -5.96643,-0.021 -6.02087,-0.043 z m -0.14005,-4.33177 c -0.19616,-0.19616 -0.21884,-0.45544 -0.0577,-0.66023 0.21317,-0.271 -0.0903,-0.25843 6.23611,-0.25835 6.54326,9e-5 6.0602,-0.0266 6.24132,0.34431 0.11816,0.24196 0.0465,0.50832 -0.17264,0.64196 -0.14638,0.0892 -0.28509,0.0913 -6.11873,0.0915 l -5.96895,1.7e-4 z m 13.60051,16.54403 c 2.08576,-1.58431 2.45033,-1.87841 2.37831,-1.91854 -0.0468,-0.0261 -1.01068,-0.58197 -2.142,-1.23535 -1.13133,-0.65338 -2.06215,-1.18204 -2.0685,-1.1748 -0.006,0.007 -0.16253,1.35249 -0.34706,2.98944 -0.18454,1.63695 -0.34744,3.03677 -0.362,3.11072 -0.0173,0.0878 -0.008,0.12841 0.0257,0.11705 0.0287,-0.01 1.16069,-0.8594 2.51555,-1.88852 z m 7.15978,-9.95072 c 2.23391,-3.87272 4.06707,-7.0644 4.07369,-7.09261 0.0161,-0.0687 -4.27648,-2.54795 -4.32431,-2.49761 -0.0874,0.092 -8.20217,14.19223 -8.18954,14.23013 0.008,0.023 0.97304,0.5964 2.1453,1.27433 1.56389,0.9044 2.14495,1.21855 2.1823,1.17983 0.028,-0.029 1.87865,-3.22135 4.11256,-7.09407 z m 5.19253,-9.0001 c 0.29351,-0.50913 0.53367,-0.95191 0.53367,-0.98394 0,-0.032 -0.96548,-0.61578 -2.14551,-1.29721 -2.10723,-1.21685 -2.14663,-1.23713 -2.20916,-1.13695 -0.035,0.0561 -0.28912,0.49221 -0.56467,0.96912 -0.37913,0.65617 -0.48593,0.87637 -0.43901,0.90521 0.25312,0.15562 4.23965,2.4608 4.26223,2.46461 0.0158,0.003 0.26893,-0.41171 0.56245,-0.92084 z"
       id="path19435" /></g></svg>
