<?xml version="1.0" encoding="UTF-8" standalone="no"?>
<!-- Created with Inkscape (http://www.inkscape.org/) -->

<svg
   width="34.859898mm"
   height="32.047859mm"
   viewBox="0 0 34.859898 32.047859"
   version="1.1"
   id="svg19302"
   xml:space="preserve"
   inkscape:version="1.2.2 (732a01da63, 2022-12-09, custom)"
   sodipodi:docname="booknotes-topmenu.svg"
   xmlns:inkscape="http://www.inkscape.org/namespaces/inkscape"
   xmlns:sodipodi="http://sodipodi.sourceforge.net/DTD/sodipodi-0.dtd"
   xmlns="http://www.w3.org/2000/svg"
   xmlns:svg="http://www.w3.org/2000/svg"><sodipodi:namedview
     id="namedview19304"
     pagecolor="#ffffff"
     bordercolor="#000000"
     borderopacity="0.25"
     inkscape:showpageshadow="2"
     inkscape:pageopacity="0.0"
     inkscape:pagecheckerboard="0"
     inkscape:deskcolor="#d1d1d1"
     inkscape:document-units="mm"
     showgrid="false"
     inkscape:zoom="2.3786088"
     inkscape:cx="74.833659"
     inkscape:cy="30.480002"
     inkscape:window-width="1503"
     inkscape:window-height="874"
     inkscape:window-x="0"
     inkscape:window-y="0"
     inkscape:window-maximized="1"
     inkscape:current-layer="layer1" /><defs
     id="defs19299" /><g
     inkscape:label="Layer 1"
     inkscape:groupmode="layer"
     id="layer1"
     transform="translate(-95.931254,-121.53369)"><path
       style="fill:#808080;stroke:#808080;stroke-width:0.322043;stroke-dasharray:none"
       d="m 50.762426,146.9064 c -0.34279,-0.11683 -0.64222,-0.37284 -0.80172,-0.68547 -0.14989,-0.29382 -0.14263,0.1968 -0.13461,-9.09662 l 0.007,-8.61527 0.0617,-0.16314 c 0.1455,-0.3844 0.4557,-0.6946 0.8401,-0.8401 l 0.16315,-0.0617 6.9513,-0.007 c 4.75869,-0.006 6.99729,0.002 7.09709,0.0225 0.4853,0.10032 0.90696,0.49435 1.03812,0.97011 0.0437,0.15844 0.0537,0.29654 0.0537,0.73473 0,0.29679 0.007,0.53936 0.0144,0.53905 0.008,-3.4e-4 0.30583,-0.50787 0.66202,-1.1279 0.35621,-0.62002 0.67397,-1.15854 0.70616,-1.19671 0.0407,-0.0484 0.0985,-0.0739 0.19057,-0.0842 0.13022,-0.0147 0.15527,-9.3e-4 1.82342,0.95989 1.80193,1.0385 1.81091,1.04474 1.79206,1.24824 -0.007,0.0709 -0.77326,1.42334 -2.59083,4.57013 l -2.58153,4.46942 -0.008,3.66202 -0.008,3.66204 -0.0647,0.1704 c -0.0982,0.25873 -0.18886,0.39542 -0.37849,0.57097 -0.18134,0.1679 -0.39819,0.2874 -0.61026,0.33629 -0.0833,0.0192 -2.49233,0.0291 -7.07761,0.0291 l -6.95129,-4e-5 -0.19367,-0.066 z m 14.14205,-0.634 c 0.16641,-0.0595 0.30731,-0.18576 0.38541,-0.34537 l 0.0728,-0.1488 -0.007,-3.00636 -0.007,-3.00636 -0.39849,0.68982 -0.39851,0.68983 -1.9141,1.45359 c -1.05275,0.79947 -1.94203,1.46931 -1.97616,1.48854 -0.15272,0.086 -0.38113,0.003 -0.44996,-0.16283 -0.0334,-0.0807 -0.006,-0.37946 0.2412,-2.53847 l 0.27909,-2.447 2.31566,-4.0107 2.31567,-4.0107 v -1.14043 c 0,-1.2571 -6.2e-4,-1.26197 -0.18136,-1.45054 -0.0507,-0.0528 -0.1439,-0.12407 -0.20722,-0.15831 l -0.11514,-0.0622 -6.86397,-0.007 c -7.70941,-0.008 -7.06356,-0.0267 -7.29798,0.2077 -0.23593,0.23593 -0.21561,-0.60465 -0.21542,8.90785 10e-5,5.75205 0.01,8.5133 0.0299,8.58603 0.047,0.16935 0.19712,0.34428 0.37105,0.43249 l 0.15607,0.0791 6.88138,-9.3e-4 c 5.52504,-9.3e-4 6.90175,-0.008 6.98473,-0.0382 z m -10.67024,-11.90526 c -0.16142,-0.0652 -0.23031,-0.28782 -0.14196,-0.45867 0.0959,-0.1854 -0.12891,-0.17515 3.84249,-0.17515 3.97783,0 3.71263,-0.0126 3.83084,0.18129 0.0677,0.11102 0.0703,0.1694 0.0128,0.29055 -0.0972,0.20481 0.19732,0.19039 -3.84662,0.18836 -2.0002,-9.3e-4 -3.66407,-0.0129 -3.69751,-0.0264 z m -0.086,-2.6602 c -0.12047,-0.12048 -0.13439,-0.2797 -0.0355,-0.40546 0.13092,-0.16644 -0.0554,-0.15871 3.82971,-0.15867 4.01831,6e-5 3.72165,-0.0164 3.83289,0.21146 0.0725,0.14858 0.0285,0.31216 -0.10603,0.39423 -0.0899,0.0548 -0.17507,0.0561 -3.75761,0.0562 l -3.66561,1.1e-4 z m 8.35229,10.15993 c 1.28089,-0.97295 1.50477,-1.15357 1.46055,-1.1782 -0.0287,-0.0161 -0.62068,-0.3574 -1.31544,-0.75865 -0.69477,-0.40125 -1.26639,-0.72591 -1.2703,-0.72147 -0.004,0.005 -0.0998,0.83059 -0.21313,1.83587 -0.11333,1.00528 -0.21337,1.86492 -0.22231,1.91034 -0.0107,0.0539 -0.006,0.0788 0.0158,0.0719 0.0176,-0.006 0.7128,-0.52778 1.54484,-1.15977 z m 4.39692,-6.11089 c 1.37189,-2.3783 2.49766,-4.33835 2.50172,-4.35568 0.01,-0.0422 -2.62625,-1.56474 -2.65563,-1.53382 -0.0537,0.0564 -5.03708,8.71567 -5.02931,8.73894 0.006,0.0141 0.59755,0.36626 1.31745,0.78259 0.96041,0.5554 1.31726,0.74833 1.34018,0.72455 0.0172,-0.0179 1.15371,-1.97828 2.52559,-4.35658 z m 3.18882,-5.5271 c 0.18024,-0.31266 0.32773,-0.58458 0.32773,-0.60425 0,-0.0196 -0.59291,-0.37816 -1.31759,-0.79664 -1.29409,-0.74729 -1.31828,-0.75974 -1.35668,-0.69822 -0.0215,0.0345 -0.17756,0.30228 -0.34676,0.59516 -0.23284,0.40297 -0.29843,0.53818 -0.26962,0.5559 0.15545,0.0956 2.60364,1.51121 2.61751,1.51356 0.01,0.002 0.16515,-0.25284 0.34541,-0.56551 z"
       id="path19435" /><path
       style="fill:#808080;fill-opacity:1;stroke:#808080;stroke-width:0.526881;stroke-dasharray:none;stroke-opacity:1"
       d="m 32.687803,160.25077 c -3.62176,-0.65577 -6.96562,-2.73385 -9.22599,-5.7336 -5.709687,-7.57731 -2.9312,-18.50546 5.72144,-22.50322 0.60901,-0.28139 1.73065,-0.67872 2.49251,-0.88298 1.19868,-0.32136 1.6858,-0.37228 3.61738,-0.37809 2.44197,-0.008 3.73816,0.23105 5.78486,1.06396 4.15973,1.69281 7.52371,5.55688 8.7131,10.0084 0.34099,1.27623 0.38477,1.7023 0.38477,3.74427 0,2.02349 -0.0453,2.47289 -0.37179,3.68938 -1.80803,6.7365 -7.73105,11.26754 -14.64434,11.20274 -0.75828,-0.008 -1.87067,-0.10193 -2.47194,-0.21086 z m 6.3923,-0.69009 c 4.39258,-1.14897 8.04664,-4.38596 9.7483,-8.63569 0.75674,-1.88986 0.92312,-2.83628 0.92883,-5.28348 0.006,-2.77022 -0.28864,-4.09798 -1.42429,-6.40845 -2.03943,-4.14914 -5.61944,-6.92333 -10.1172,-7.83991 -9.84765,-2.00684 -18.728457,6.54649 -17.111505,16.48052 0.990294,6.08405 5.631265,10.79418 11.788845,11.96451 1.60537,0.30512 4.44686,0.17768 6.18702,-0.2775 z m -10.48929,-5.02654 c -0.0379,-0.099 -0.052,-4.1979 -0.0315,-9.10864 l 0.0374,-8.92864 5.8109,-0.0376 c 3.53051,-0.0228 6.01984,0.0186 6.34332,0.10576 0.29281,0.0788 0.72371,0.34301 0.95756,0.58703 l 0.42518,0.44369 0.0408,7.79772 c 0.0301,5.75135 -0.004,7.90553 -0.12933,8.20853 -0.0936,0.22593 -0.40242,0.56862 -0.6863,0.76153 l -0.51615,0.35072 h -6.09152 c -4.74051,0 -6.10678,-0.0399 -6.16035,-0.18 z m 12.69314,-0.74165 c 0.42799,-0.42799 0.48965,-0.58151 0.48965,-1.21923 v -0.72959 l -0.46803,0.26862 c -0.67352,0.38657 -1.45811,0.43431 -7.20052,0.43821 l -5.14836,0.004 v 0.86406 0.86406 h 5.91882 5.91881 z m -0.16372,-2.0832 c 0.23469,-0.13492 0.47124,-0.40507 0.52568,-0.60036 0.0545,-0.19528 0.10537,-3.25404 0.11328,-6.79724 l 0.0144,-6.44218 -0.39602,-0.43467 c -0.21782,-0.23906 -0.59697,-0.47306 -0.84255,-0.52 l -0.44652,-0.0854 -0.10538,4.58584 c -0.0579,2.52222 -0.13267,4.61319 -0.16608,4.6466 -0.0977,0.0977 -0.65387,-0.4824 -1.42771,-1.4892 -0.39603,-0.51526 -0.78486,-0.93743 -0.86406,-0.93817 -0.0792,-5.5e-4 -0.58571,0.58132 -1.12555,1.29348 -0.53984,0.71214 -1.04208,1.25739 -1.11608,1.21166 -0.0788,-0.0487 -0.13454,-1.98749 -0.13454,-4.68298 v -4.59983 h -3.09622 -3.09622 v 7.55788 7.55787 l 3.34823,0.0503 c 5.39577,0.081 8.30914,-0.0227 8.8153,-0.31362 z m -4.76112,-7.43445 c 0.30906,-0.43143 0.70838,-0.922 0.88739,-1.09017 l 0.32545,-0.30574 0.89731,1.09327 c 0.49351,0.6013 0.92045,1.09327 0.94873,1.09327 0.0283,0 0.0514,-1.84693 0.0514,-4.10429 v -4.10429 h -1.94413 -1.94414 v 4.10429 c 0,2.25736 0.0486,4.10289 0.10806,4.10118 0.0595,-0.001 0.36087,-0.3561 0.66994,-0.78752 z"
       id="path212" /><path
       style="fill:#808080;fill-opacity:1;stroke:#808080;stroke-width:0.526881;stroke-dasharray:none;stroke-opacity:1"
       d="m 59.950246,132.93228 c -3.62176,-0.65577 -6.96562,-2.73385 -9.22599,-5.7336 -5.709687,-7.57731 -2.9312,-18.50546 5.72144,-22.50322 0.60901,-0.28139 1.73065,-0.67872 2.49251,-0.88298 1.19868,-0.32136 1.6858,-0.37228 3.61738,-0.37809 2.44197,-0.008 3.73816,0.23105 5.78486,1.06396 4.15973,1.69281 7.52371,5.55688 8.7131,10.0084 0.34099,1.27623 0.38477,1.7023 0.38477,3.74427 0,2.02349 -0.0453,2.47289 -0.37179,3.68938 -1.80803,6.7365 -7.73105,11.26754 -14.64434,11.20274 -0.75828,-0.008 -1.87067,-0.10193 -2.47194,-0.21086 z m 6.3923,-0.69009 c 4.39258,-1.14897 8.04664,-4.38596 9.7483,-8.63569 0.75674,-1.88986 0.92312,-2.83628 0.92883,-5.28348 0.006,-2.77022 -0.28864,-4.09798 -1.42429,-6.40845 -2.03943,-4.14914 -5.61944,-6.92333 -10.1172,-7.83991 -9.84765,-2.00684 -18.728457,6.54649 -17.111505,16.48052 0.990294,6.08405 5.631265,10.79418 11.788845,11.96451 1.60537,0.30512 4.44686,0.17768 6.18702,-0.2775 z m -10.48929,-5.02654 c -0.0379,-0.099 -0.052,-4.1979 -0.0315,-9.10864 l 0.0374,-8.92864 5.8109,-0.0376 c 3.53051,-0.0228 6.01984,0.0186 6.34332,0.10576 0.29281,0.0788 0.72371,0.34301 0.95756,0.58703 l 0.42518,0.44369 0.0408,7.79772 c 0.0301,5.75135 -0.004,7.90553 -0.12933,8.20853 -0.0936,0.22593 -0.40242,0.56862 -0.6863,0.76153 l -0.51615,0.35072 h -6.09152 c -4.74051,0 -6.10678,-0.0399 -6.16035,-0.18 z m 12.69314,-0.74165 c 0.42799,-0.42799 0.48965,-0.58151 0.48965,-1.21923 v -0.72959 l -0.46803,0.26862 c -0.67352,0.38657 -1.45811,0.43431 -7.20052,0.43821 l -5.14836,0.004 v 0.86406 0.86406 h 5.91882 5.91881 z m -0.16372,-2.0832 c 0.23469,-0.13492 0.47124,-0.40507 0.52568,-0.60036 0.0545,-0.19528 0.10537,-3.25404 0.11328,-6.79724 l 0.0144,-6.44218 -0.39602,-0.43467 c -0.21782,-0.23906 -0.59697,-0.47306 -0.84255,-0.52 l -0.44652,-0.0854 -0.10538,4.58584 c -0.0579,2.52222 -0.13267,4.61319 -0.16608,4.6466 -0.0977,0.0977 -0.65387,-0.4824 -1.42771,-1.4892 -0.39603,-0.51526 -0.78486,-0.93743 -0.86406,-0.93817 -0.0792,-5.5e-4 -0.58571,0.58132 -1.12555,1.29348 -0.53984,0.71214 -1.04208,1.25739 -1.11608,1.21166 -0.0788,-0.0487 -0.13454,-1.98749 -0.13454,-4.68298 v -4.59983 h -3.09622 -3.09622 v 7.55788 7.55787 l 3.34823,0.0503 c 5.39577,0.081 8.30914,-0.0227 8.8153,-0.31362 z m -4.76112,-7.43445 c 0.30906,-0.43143 0.70838,-0.922 0.88739,-1.09017 l 0.32545,-0.30574 0.89731,1.09327 c 0.49351,0.6013 0.92045,1.09327 0.94873,1.09327 0.0283,0 0.0514,-1.84693 0.0514,-4.10429 v -4.10429 h -1.94413 -1.94414 v 4.10429 c 0,2.25736 0.0486,4.10289 0.10806,4.10118 0.0595,-0.001 0.36087,-0.3561 0.66994,-0.78752 z"
       id="path3092" /><path
       style="opacity:0.1;fill:#808080;fill-opacity:1;stroke:#808080;stroke-width:0.173631;stroke-dasharray:none;stroke-opacity:1"
       d="m 71.935617,166.70881 c -4.110334,-1.17788 -8.028619,-3.90586 -10.462532,-7.4213 -1.193902,-1.72442 -1.65098,-3.98822 -1.601194,-6.08501 0.07444,-3.13486 0.605748,-6.75629 2.822983,-8.97366 3.873153,-3.87339 9.940023,-6.85069 15.675232,-4.93224 3.776564,1.26328 6.41011,3.6006 8.273682,7.34306 1.099354,2.20775 1.240641,2.81615 1.303059,5.61113 0.05748,2.57379 -0.04101,3.44458 -0.554056,4.89859 -1.625571,4.607 -5.321398,8.06186 -9.874756,9.23091 -1.547293,0.39726 -3.790517,0.84202 -5.582418,0.32852 z m 8.161512,-4.93191 c 1.006137,-0.76824 0.920614,0.0421 0.956778,-9.06599 l 0.03198,-8.05554 -0.421305,-0.43552 c -0.881574,-0.91132 -0.785734,-0.89475 -5.499512,-0.95089 -2.303582,-0.0274 -5.119205,-0.0131 -6.25694,0.0318 l -2.06861,0.0816 v 9.20679 c 0,7.27903 0.02941,9.23119 0.140454,9.32334 0.227675,0.18896 0.745164,0.20607 6.823515,0.22568 l 5.796007,0.0187 z"
       id="path3947"
       sodipodi:nodetypes="aaaasssssasscssscssscs" /><circle
       style="opacity:0.2;fill:none;stroke:#808080;stroke-width:0.775526;stroke-dasharray:none;stroke-opacity:0.980392"
       id="path6735"
       cx="72.072319"
       cy="144.2164"
       r="15.339929" /><path
       style="fill:#808080;fill-opacity:1;stroke:#808080;stroke-width:0.5;stroke-dasharray:none;stroke-opacity:1"
       d="m 77.775287,111.78508 v -7.63758 h 5.51783 5.51782 v 7.63758 7.63757 l -0.11001,-0.0827 c -0.0605,-0.0456 -1.30221,-0.93114 -2.75932,-1.96811 l -2.64931,-1.88539 -1.4129,1.00535 c -2.65023,1.88577 -3.88397,2.76557 -3.99409,2.84826 l -0.11002,0.0826 z m 1.99724,5.95856 c 0.94024,-0.66987 2.10533,-1.50043 2.5891,-1.84569 0.48376,-0.34527 0.90267,-0.62736 0.93092,-0.62688 0.0282,5.2e-4 1.23192,0.84218 2.67485,1.87045 l 2.6235,1.8696 0.008,-7.30488 c 0.005,-4.01766 0.002,-7.32389 -0.008,-7.34716 -0.0127,-0.0336 -1.10699,-0.0423 -5.31493,-0.0423 h -5.29885 v 7.34782 c 0,5.86923 0.008,7.3427 0.0423,7.32241 0.0232,-0.014 0.81159,-0.57349 1.75182,-1.24335 z"
       id="path10336"
       sodipodi:nodetypes="ccccccsscsscccscccccscsscc" /><path
       style="opacity:0.1;fill:none;fill-opacity:1;stroke:#4d4d4d;stroke-width:0.210207;stroke-dasharray:none;stroke-opacity:1"
       d="m 78.301377,114.61404 c -0.04039,-2.06451 -0.07351,-5.16772 -0.07361,-6.89602 l -1.78e-4,-3.14238 4.64404,10e-4 c 2.554222,6.6e-4 4.831748,0.0323 5.061169,0.0702 l 0.417129,0.069 -0.01509,3.29467 c -0.0083,1.81207 -0.04584,4.87873 -0.08343,6.81479 l -0.06833,3.52013 -1.167962,-0.84399 c -0.642379,-0.4642 -1.737281,-1.23329 -2.433116,-1.70911 -1.104844,-0.75549 -1.295122,-0.8494 -1.501665,-0.74109 -0.21988,0.1153 -3.591705,2.47924 -4.362006,3.05814 l -0.343521,0.25816 z"
       id="path15521" /><path
       style="opacity:1;fill:#808080;fill-opacity:1;stroke:none;stroke-width:0.210207;stroke-dasharray:none;stroke-opacity:1"
       d="m 78.552783,117.73875 c -0.0047,-0.17354 -0.02288,-0.39061 -0.04045,-0.48237 -0.01757,-0.0918 -0.06814,-2.96537 -0.112395,-6.38577 l -0.08046,-6.21892 4.598094,0.0725 c 2.528952,0.0399 4.767704,0.0728 4.975005,0.0732 l 0.376911,7.2e-4 -0.0701,2.47496 c -0.03855,1.36124 -0.08107,3.95161 -0.09448,5.75639 -0.01341,1.80478 -0.05137,3.66502 -0.08435,4.13387 l -0.05996,0.85246 -0.945493,-0.69585 c -1.955562,-1.43923 -3.45194,-2.39949 -3.739143,-2.39949 -0.253127,0 -2.332424,1.36396 -4.241931,2.78259 l -0.472747,0.35122 z"
       id="path15523" /><path
       style="fill:#808080;fill-opacity:1;stroke:#808080;stroke-width:0.191237;stroke-dasharray:none;stroke-opacity:0.87843138;opacity:0.8"
       d="m 105.74244,146.19653 c -0.097,-0.0406 -0.22168,-0.13477 -0.2771,-0.20922 -0.0995,-0.13371 -0.10083,-0.22331 -0.11239,-7.32978 l -0.0116,-8.58723 0.12495,-0.19794 c 0.0688,-0.10886 0.12497,-0.21625 0.12497,-0.23863 0,-0.0685 0.46999,-0.49195 0.61715,-0.55598 0.0762,-0.0332 0.19866,-0.0886 0.27214,-0.12326 0.10393,-0.049 1.19259,-0.063 4.90448,-0.063 3.7119,0 4.80056,0.0139 4.90448,0.063 0.0735,0.0347 0.19322,0.091 0.26611,0.12538 0.23517,0.11079 0.55778,0.43313 0.70571,0.70522 l 0.14419,0.26518 v 8.57701 c 0,6.27671 -0.01,7.20198 -0.0753,7.32485 -0.0808,0.15101 -0.42579,0.32806 -0.63922,0.32806 -0.15578,0 -0.44774,-0.13468 -0.61883,-0.28544 -0.23629,-0.20823 -0.78102,-0.65068 -0.98419,-0.79943 -0.1108,-0.0812 -0.25583,-0.21031 -0.32219,-0.28704 -0.0662,-0.0767 -0.14974,-0.13951 -0.18527,-0.13951 -0.0355,0 -0.10634,-0.0531 -0.1573,-0.11784 -0.051,-0.0648 -0.11714,-0.12717 -0.14699,-0.13855 -0.0586,-0.0224 -0.41064,-0.30956 -0.75082,-0.61268 -0.11662,-0.10393 -0.22476,-0.18892 -0.24031,-0.18892 -0.0156,0 -0.0957,-0.0624 -0.178,-0.13855 -0.0823,-0.0761 -0.21089,-0.1839 -0.28563,-0.2393 -0.0748,-0.0555 -0.17347,-0.13564 -0.21939,-0.17824 -0.046,-0.0426 -0.16286,-0.13619 -0.25985,-0.20792 -0.097,-0.0717 -0.28402,-0.23116 -0.41565,-0.35428 -0.13161,-0.12311 -0.2393,-0.21235 -0.2393,-0.1983 0,0.014 -0.0681,-0.0396 -0.15114,-0.11927 l -0.15115,-0.14479 -0.14203,0.13608 c -0.0781,0.0748 -0.15748,0.12065 -0.17633,0.10175 -0.0189,-0.0189 -0.0343,-0.0114 -0.0343,0.0166 0,0.0465 -0.29373,0.30893 -0.77942,0.69646 -0.10417,0.0831 -0.24247,0.20215 -0.30729,0.26451 -0.0648,0.0624 -0.13992,0.11331 -0.16686,0.11331 -0.0269,0 -0.0936,0.0567 -0.14809,0.12595 -0.0546,0.0693 -0.11573,0.12595 -0.1361,0.12595 -0.0203,0 -0.12077,0.0736 -0.22314,0.16374 -0.36671,0.32261 -0.72455,0.6176 -0.77921,0.64235 -0.0307,0.0139 -0.11737,0.0819 -0.19278,0.15115 -0.0755,0.0693 -0.20476,0.18829 -0.28742,0.2645 -0.0827,0.0761 -0.16221,0.13853 -0.17679,0.13853 -0.0146,0 -0.0776,0.0437 -0.14024,0.0971 -0.0626,0.0534 -0.28377,0.23606 -0.49159,0.40588 -0.20782,0.16983 -0.43454,0.3602 -0.50381,0.42303 -0.29546,0.26805 -0.62807,0.33736 -0.95723,0.19946 z m 0.61531,-0.63426 c 0.0999,-0.0901 0.29869,-0.25442 0.44181,-0.36527 0.14312,-0.1108 0.3218,-0.25821 0.39707,-0.32747 0.0753,-0.0693 0.21164,-0.18189 0.30304,-0.25027 0.0914,-0.0683 0.22116,-0.1704 0.28834,-0.22671 0.0672,-0.0564 0.19136,-0.15907 0.27594,-0.22834 0.0847,-0.0693 0.18144,-0.15105 0.21524,-0.18175 0.0339,-0.0307 0.19303,-0.16294 0.35383,-0.29391 0.16081,-0.13098 0.34137,-0.27967 0.40125,-0.33043 0.10256,-0.087 0.37154,-0.30578 0.71344,-0.58039 0.12855,-0.10325 0.30912,-0.25313 0.68303,-0.56689 0.63737,-0.53481 0.82578,-0.66643 0.95401,-0.66643 0.10598,0 0.31114,0.13967 0.81411,0.55415 0.36984,0.30479 0.75039,0.61653 0.84569,0.69274 0.0952,0.0763 0.2313,0.19664 0.30227,0.26762 0.0711,0.0711 0.16872,0.14394 0.21722,0.16217 0.0485,0.0182 0.0882,0.0565 0.0882,0.0851 0,0.0286 0.0321,0.0519 0.0713,0.0519 0.0392,0 0.0789,0.0175 0.0882,0.0388 0.014,0.0323 0.2424,0.22906 0.64338,0.55408 0.0433,0.0351 0.15012,0.12579 0.23735,0.20153 0.0872,0.0757 0.218,0.18302 0.29061,0.23844 0.15532,0.11858 0.45042,0.36139 0.61227,0.50381 0.063,0.0555 0.23193,0.19145 0.37542,0.30228 0.1435,0.11079 0.32931,0.26409 0.41289,0.34059 0.0835,0.0765 0.20719,0.15291 0.27465,0.16984 0.2789,0.07 0.26535,0.4264 0.26631,-7.00954 6.7e-4,-7.61865 0.0237,-8.51171 -0.3411,-8.89092 -0.1021,-0.1061 -0.27485,-0.23645 -0.38396,-0.28969 -0.1913,-0.0933 -0.36449,-0.0967 -4.84616,-0.0967 -3.04418,0 -4.65853,0.0174 -4.67892,0.0504 -0.0172,0.0276 -0.0703,0.0504 -0.11823,0.0504 -0.13628,0 -0.54934,0.45441 -0.63546,0.69908 -0.0683,0.19436 -0.0776,2.42379 -0.0776,8.46202 0,4.62468 0.0169,6.88039 0.0521,6.94618 0.0773,0.14439 0.25742,0.11857 0.4624,-0.0662 z"
       id="path17422"
       sodipodi:nodetypes="cccccsccsccccscscccscccscccccsccccsccscsccccsccccccccccccccccsccccssccsccccccccscscsccc" /><path
       style="opacity:0.6;fill:#808080;fill-opacity:1;stroke:#808080;stroke-width:0.701892;stroke-dasharray:none;stroke-opacity:1"
       d="m 105.62934,133.46687 h 11.34254"
       id="path20654" /></g></svg>
