<?xml version="1.0" encoding="UTF-8" standalone="no"?>
<!-- Created with Inkscape (http://www.inkscape.org/) -->

<svg
   width="34.859898mm"
   height="32.047859mm"
   viewBox="0 0 34.859898 32.047859"
   version="1.1"
   id="svg19302"
   xml:space="preserve"
   inkscape:version="1.2.2 (b0a8486541, 2022-12-01)"
   sodipodi:docname="booknotes.svg"
   xmlns:inkscape="http://www.inkscape.org/namespaces/inkscape"
   xmlns:sodipodi="http://sodipodi.sourceforge.net/DTD/sodipodi-0.dtd"
   xmlns="http://www.w3.org/2000/svg"
   xmlns:svg="http://www.w3.org/2000/svg"><sodipodi:namedview
     id="namedview19304"
     pagecolor="#ffffff"
     bordercolor="#000000"
     borderopacity="0.25"
     inkscape:showpageshadow="2"
     inkscape:pageopacity="0.0"
     inkscape:pagecheckerboard="0"
     inkscape:deskcolor="#d1d1d1"
     inkscape:document-units="mm"
     showgrid="false"
     inkscape:zoom="2.3786088"
     inkscape:cx="-10.089932"
     inkscape:cy="50.449658"
     inkscape:window-width="1503"
     inkscape:window-height="934"
     inkscape:window-x="0"
     inkscape:window-y="0"
     inkscape:window-maximized="1"
     inkscape:current-layer="layer1" /><defs
     id="defs19299" /><g
     inkscape:label="Layer 1"
     inkscape:groupmode="layer"
     id="layer1"
     transform="translate(-95.931254,-121.53369)"><path
       style="fill:#808080;stroke-width:0.0392373"
       d="m 100.05099,150.88196 c -0.467275,-0.15925 -0.875456,-0.50824 -1.092875,-0.93442 -0.204331,-0.40052 -0.194434,0.26829 -0.183507,-12.40024 l 0.01013,-11.74409 0.08418,-0.22239 c 0.19835,-0.524 0.621205,-0.94685 1.145212,-1.14521 l 0.22239,-0.0842 9.47582,-0.0104 c 6.48691,-0.007 9.5385,0.003 9.67455,0.0307 0.66155,0.13675 1.23634,0.67388 1.41514,1.32242 0.0595,0.21599 0.0733,0.40424 0.0733,1.00157 0,0.40457 0.009,0.73523 0.0196,0.73481 0.0108,-4.5e-4 0.4169,-0.69232 0.90246,-1.53751 0.48557,-0.84521 0.91874,-1.5793 0.96261,-1.63132 0.0556,-0.066 0.13426,-0.10073 0.25977,-0.11487 0.17752,-0.02 0.21168,-0.002 2.48564,1.3085 2.45634,1.41564 2.46859,1.42417 2.4429,1.70155 -0.009,0.0967 -1.05409,1.94027 -3.53176,6.22989 l -3.51906,6.09257 -0.0113,4.99198 -0.0113,4.99199 -0.0882,0.23228 c -0.13394,0.35269 -0.25746,0.53902 -0.51595,0.77833 -0.2472,0.22887 -0.54282,0.39177 -0.83189,0.45841 -0.11357,0.0262 -3.39748,0.0397 -9.648,0.0396 l -9.47581,-5e-5 -0.264,-0.09 z m 19.27804,-0.86425 c 0.22684,-0.0811 0.41892,-0.25321 0.52537,-0.47079 l 0.0992,-0.20285 -0.01,-4.09818 -0.01,-4.09819 -0.54323,0.94035 -0.54322,0.94035 -2.60925,1.98149 c -1.43508,1.08982 -2.64732,2.00293 -2.69385,2.02914 -0.20817,0.11726 -0.51954,0.004 -0.61337,-0.22195 -0.0455,-0.11003 -0.007,-0.51728 0.3288,-3.46038 l 0.38045,-3.33567 3.15665,-5.46728 3.15665,-5.46728 v -1.5546 c 0,-1.71364 -8.4e-4,-1.72028 -0.24723,-1.97733 -0.0691,-0.072 -0.19616,-0.16914 -0.28248,-0.21581 l -0.15695,-0.0848 -9.35677,-0.0101 c -10.509248,-0.0114 -9.62884,-0.0364 -9.948404,0.28313 -0.321615,0.32161 -0.293904,-0.82424 -0.293659,12.14293 1.48e-4,7.84103 0.01328,11.60509 0.04081,11.70423 0.06411,0.23085 0.268693,0.46931 0.505793,0.58956 l 0.21276,0.1079 9.38049,-0.002 c 7.53157,-0.002 9.40827,-0.0116 9.52138,-0.0521 z M 104.78366,133.7888 c -0.22004,-0.0889 -0.31396,-0.39235 -0.19352,-0.62524 0.13069,-0.25274 -0.17572,-0.23877 5.23798,-0.23877 5.42247,0 5.06096,-0.0171 5.22209,0.24714 0.0923,0.15133 0.0958,0.23092 0.0174,0.39607 -0.13249,0.27919 0.26898,0.25953 -5.24361,0.25676 -2.72661,-0.002 -4.99476,-0.0176 -5.04034,-0.036 z m -0.11724,-3.62632 c -0.16422,-0.16422 -0.1832,-0.38127 -0.0483,-0.55271 0.17846,-0.22687 -0.0756,-0.21634 5.22053,-0.21628 5.47765,8e-5 5.07326,-0.0223 5.22489,0.28824 0.0989,0.20256 0.0389,0.42554 -0.14453,0.53741 -0.12254,0.0747 -0.23866,0.0764 -5.12226,0.0766 l -4.99687,1.4e-4 z m 11.38559,13.84974 c 1.74608,-1.32629 2.05128,-1.5725 1.99099,-1.60609 -0.0392,-0.0219 -0.84609,-0.4872 -1.79317,-1.03417 -0.94708,-0.54697 -1.72631,-0.98954 -1.73163,-0.98348 -0.005,0.006 -0.13606,1.13223 -0.29054,2.5026 -0.15448,1.37036 -0.29086,2.54221 -0.30304,2.60412 -0.0145,0.0735 -0.007,0.1075 0.0215,0.098 0.024,-0.008 0.97167,-0.71945 2.10588,-1.58097 z m 5.99377,-8.33019 c 1.87011,-3.24203 3.40473,-5.91392 3.41027,-5.93754 0.0135,-0.0575 -3.58003,-2.133 -3.62008,-2.09086 -0.0732,0.077 -6.8664,11.88095 -6.85582,11.91268 0.007,0.0192 0.81457,0.49927 1.79592,1.0668 1.3092,0.75711 1.79564,1.0201 1.8269,0.98768 0.0234,-0.0243 1.5727,-2.69673 3.44281,-5.93876 z m 4.3469,-7.53438 c 0.24571,-0.42622 0.44676,-0.79689 0.44676,-0.8237 0,-0.0268 -0.80825,-0.5155 -1.7961,-1.08596 -1.76406,-1.01868 -1.79704,-1.03565 -1.84939,-0.95179 -0.0293,0.047 -0.24204,0.41205 -0.47271,0.8113 -0.31739,0.54931 -0.4068,0.73364 -0.36752,0.75779 0.2119,0.13027 3.5492,2.06004 3.56811,2.06323 0.0132,0.003 0.22513,-0.34466 0.47085,-0.77087 z"
       id="path19435" /></g></svg>
