<?xml version="1.0" encoding="UTF-8" standalone="no"?>
<!-- Created with Inkscape (http://www.inkscape.org/) -->

<svg
   width="31.595007mm"
   height="32.6035mm"
   viewBox="0 0 31.595007 32.6035"
   version="1.1"
   id="svg19302"
   xml:space="preserve"
   inkscape:version="1.2.2 (732a01da63, 2022-12-09, custom)"
   sodipodi:docname="booknotes.svg"
   xmlns:inkscape="http://www.inkscape.org/namespaces/inkscape"
   xmlns:sodipodi="http://sodipodi.sourceforge.net/DTD/sodipodi-0.dtd"
   xmlns="http://www.w3.org/2000/svg"
   xmlns:svg="http://www.w3.org/2000/svg"><sodipodi:namedview
     id="namedview19304"
     pagecolor="#ffffff"
     bordercolor="#000000"
     borderopacity="0.25"
     inkscape:showpageshadow="2"
     inkscape:pageopacity="0.0"
     inkscape:pagecheckerboard="0"
     inkscape:deskcolor="#d1d1d1"
     inkscape:document-units="mm"
     showgrid="false"
     inkscape:zoom="2.3786088"
     inkscape:cx="-34.68414"
     inkscape:cy="53.182348"
     inkscape:window-width="1503"
     inkscape:window-height="874"
     inkscape:window-x="0"
     inkscape:window-y="0"
     inkscape:window-maximized="1"
     inkscape:current-layer="layer1" /><defs
     id="defs19299" /><g
     inkscape:label="Layer 1"
     inkscape:groupmode="layer"
     id="layer1"
     transform="translate(-97.470904,-121.01811)"><path
       style="fill:#808080;stroke:#808080;stroke-width:0.498526;stroke-dasharray:none"
       d="m 38.930491,155.70973 c -0.530635,-0.18084 -0.994164,-0.57715 -1.241064,-1.06112 -0.232037,-0.45483 -0.220798,0.30467 -0.20839,-14.08166 l 0.0115,-13.33653 0.09559,-0.25255 c 0.225246,-0.59505 0.705438,-1.07524 1.300498,-1.30049 l 0.252545,-0.0956 10.760699,-0.0118 c 7.3665,-0.008 10.83188,0.003 10.98637,0.0349 0.75126,0.1553 1.40399,0.76526 1.60703,1.50174 0.0676,0.24527 0.0832,0.45905 0.0832,1.13738 0,0.45942 0.0102,0.83492 0.0223,0.83444 0.0123,-5.1e-4 0.47343,-0.78619 1.02483,-1.74599 0.55141,-0.95981 1.04331,-1.79344 1.09313,-1.85252 0.0631,-0.075 0.15247,-0.11439 0.295,-0.13044 0.20159,-0.0227 0.24038,-0.002 2.82268,1.48592 2.78941,1.6076 2.80332,1.61728 2.77414,1.93228 -0.0102,0.10981 -1.19702,2.20336 -4.01065,7.07463 l -3.99623,6.9187 -0.0128,5.66887 -0.0128,5.66888 -0.10016,0.26377 c -0.1521,0.40052 -0.29237,0.61211 -0.58591,0.88387 -0.28072,0.25991 -0.61642,0.4449 -0.94469,0.52057 -0.12897,0.0298 -3.85816,0.0451 -10.95623,0.045 l -10.760682,-6e-5 -0.299797,-0.1022 z m 21.892058,-0.98143 c 0.2576,-0.0921 0.47572,-0.28755 0.59661,-0.53463 l 0.11265,-0.23036 -0.0114,-4.65387 -0.0114,-4.65389 -0.61689,1.06786 -0.61688,1.06786 -2.96306,2.25017 c -1.62967,1.23759 -3.00628,2.27452 -3.05912,2.30428 -0.2364,0.13316 -0.58999,0.005 -0.69654,-0.25205 -0.0517,-0.12495 -0.008,-0.58742 0.37338,-3.92959 l 0.43204,-3.78797 3.58468,-6.20862 3.58468,-6.20862 v -1.76539 c 0,-1.94601 -9.6e-4,-1.95355 -0.28076,-2.24545 -0.0785,-0.0818 -0.22275,-0.19208 -0.32078,-0.24507 l -0.17823,-0.0963 -10.62551,-0.0115 c -11.934252,-0.013 -10.934465,-0.0413 -11.29736,0.32152 -0.365225,0.36522 -0.333756,-0.936 -0.333478,13.78946 1.68e-4,8.90424 0.01508,13.17868 0.04634,13.29127 0.0728,0.26215 0.305127,0.53294 0.574377,0.6695 l 0.241609,0.12253 10.652442,-0.002 c 8.55282,-0.002 10.68399,-0.0132 10.81244,-0.0592 z m -16.51766,-18.42948 c -0.24988,-0.10096 -0.35653,-0.44555 -0.21976,-0.71002 0.14841,-0.28701 -0.19955,-0.27115 5.94823,-0.27115 6.15773,0 5.7472,-0.0194 5.93018,0.28065 0.10481,0.17185 0.10879,0.26223 0.0198,0.44978 -0.15046,0.31705 0.30545,0.29472 -5.95462,0.29157 -3.09633,-0.002 -5.67203,-0.02 -5.72379,-0.0409 z m -0.13314,-4.11803 c -0.18648,-0.18649 -0.20804,-0.43297 -0.0549,-0.62766 0.20266,-0.25763 -0.0858,-0.24567 5.92842,-0.24561 6.22039,9e-5 5.76117,-0.0253 5.93336,0.32733 0.11231,0.23002 0.0442,0.48324 -0.16413,0.61028 -0.13916,0.0848 -0.27102,0.0868 -5.81682,0.087 l -5.67442,1.6e-4 z m 12.92943,15.7277 c 1.98284,-1.50613 2.32942,-1.78573 2.26096,-1.82387 -0.0445,-0.0249 -0.96082,-0.55326 -2.03632,-1.1744 -1.0755,-0.62114 -1.96039,-1.12372 -1.96643,-1.11683 -0.006,0.007 -0.15451,1.28575 -0.32993,2.84194 -0.17543,1.55617 -0.3303,2.88692 -0.34414,2.95722 -0.0165,0.0835 -0.008,0.12208 0.0244,0.11129 0.0272,-0.009 1.10342,-0.817 2.39143,-1.79534 z m 6.8065,-9.45973 c 2.12369,-3.68163 3.86639,-6.71582 3.87268,-6.74264 0.0153,-0.0653 -4.06546,-2.42223 -4.11094,-2.37437 -0.0831,0.0874 -7.79745,13.49195 -7.78544,13.52798 0.008,0.0218 0.92502,0.56697 2.03944,1.21146 1.48672,0.85977 2.03912,1.15842 2.07462,1.1216 0.0266,-0.0276 1.78595,-3.06239 3.90964,-6.74403 z m 4.93632,-8.55601 c 0.27902,-0.48401 0.50734,-0.90494 0.50734,-0.93539 0,-0.0304 -0.91785,-0.5854 -2.03965,-1.23321 -2.00326,-1.15681 -2.04071,-1.17608 -2.10016,-1.08085 -0.0333,0.0534 -0.27486,0.46793 -0.5368,0.92131 -0.36043,0.6238 -0.46196,0.83312 -0.41736,0.86054 0.24064,0.14794 4.03046,2.33938 4.05193,2.343 0.015,0.003 0.25566,-0.39139 0.5347,-0.8754 z"
       id="path19435" /><path
       style="opacity:1;fill:#808080;fill-opacity:1;stroke:#808080;stroke-width:0.343372;stroke-dasharray:none;stroke-opacity:1"
       d="m 102.64555,152.47496 c -0.17759,-0.0715 -0.40586,-0.23732 -0.50732,-0.36843 -0.18216,-0.23545 -0.18459,-0.39324 -0.20575,-12.90744 l -0.0213,-15.12174 0.22876,-0.34856 c 0.12594,-0.19171 0.22878,-0.38081 0.22878,-0.42022 0,-0.12062 0.86046,-0.8663 1.12986,-0.97905 0.13951,-0.0585 0.36371,-0.15604 0.49823,-0.21707 0.19028,-0.0862 2.18336,-0.11094 8.97899,-0.11094 6.79564,0 8.78872,0.0245 8.97898,0.11094 0.13456,0.0612 0.35373,0.16025 0.4872,0.22079 0.43055,0.1951 1.02115,0.76272 1.29198,1.24185 l 0.26397,0.46698 v 15.10376 c 0,11.05303 -0.0183,12.68238 -0.13784,12.89874 -0.14793,0.26593 -0.77953,0.57771 -1.17027,0.57771 -0.2852,0 -0.81971,-0.23716 -1.13294,-0.50265 -0.4326,-0.36667 -1.42987,-1.14582 -1.80182,-1.40776 -0.20287,-0.14299 -0.46839,-0.37035 -0.58987,-0.50547 -0.12118,-0.13506 -0.27413,-0.24566 -0.33918,-0.24566 -0.0651,0 -0.1947,-0.0936 -0.28797,-0.20752 -0.0933,-0.11415 -0.21447,-0.22394 -0.26911,-0.24398 -0.10733,-0.0394 -0.75179,-0.54512 -1.37459,-1.0789 -0.2135,-0.18303 -0.41148,-0.33269 -0.43995,-0.33269 -0.0286,0 -0.1752,-0.10991 -0.32587,-0.24396 -0.15069,-0.13402 -0.38611,-0.32386 -0.52294,-0.4214 -0.13694,-0.0977 -0.31757,-0.23888 -0.40164,-0.31388 -0.0842,-0.0751 -0.29815,-0.23983 -0.47573,-0.36615 -0.17759,-0.12625 -0.51996,-0.40707 -0.76097,-0.62385 -0.24092,-0.21681 -0.4381,-0.37395 -0.4381,-0.34922 0,0.0247 -0.12467,-0.0698 -0.27669,-0.21001 l -0.27671,-0.25498 -0.26003,0.23964 c -0.14298,0.1317 -0.28832,0.21244 -0.32283,0.17916 -0.0345,-0.0332 -0.0628,-0.02 -0.0628,0.0292 0,0.0819 -0.53777,0.54401 -1.42694,1.22644 -0.1907,0.14634 -0.44391,0.35597 -0.56259,0.46579 -0.11868,0.10991 -0.25614,0.19953 -0.30549,0.19953 -0.0494,0 -0.17134,0.0999 -0.2711,0.22179 -0.1,0.12204 -0.21187,0.22181 -0.24917,0.22181 -0.0372,0 -0.2211,0.1296 -0.40852,0.28833 -0.67136,0.5681 -1.32649,1.08756 -1.42656,1.13115 -0.0561,0.0245 -0.21488,0.14421 -0.35294,0.26617 -0.13822,0.12204 -0.37484,0.33157 -0.52619,0.46578 -0.15142,0.134 -0.29697,0.24394 -0.32367,0.24394 -0.0268,0 -0.14206,0.0769 -0.25675,0.17099 -0.11463,0.0941 -0.51951,0.41568 -0.89998,0.71473 -0.38048,0.29907 -0.79554,0.6343 -0.92237,0.74495 -0.54091,0.47202 -1.14985,0.59407 -1.75245,0.35123 z m 1.1265,-1.11691 c 0.18289,-0.15866 0.54683,-0.44801 0.80884,-0.64322 0.26203,-0.19511 0.58914,-0.4547 0.72695,-0.57665 0.13786,-0.12205 0.38745,-0.32032 0.5548,-0.44074 0.16734,-0.12025 0.40489,-0.30006 0.52788,-0.39922 0.12303,-0.0993 0.35033,-0.2801 0.50517,-0.4021 0.15508,-0.12203 0.33219,-0.26599 0.39407,-0.32006 0.062,-0.054 0.35339,-0.28691 0.64777,-0.51754 0.29442,-0.23066 0.62499,-0.49249 0.73462,-0.58189 0.18775,-0.15319 0.6802,-0.53847 1.30613,-1.02203 0.23535,-0.18182 0.56593,-0.44576 1.25047,-0.99828 1.16689,-0.94178 1.51182,-1.17355 1.74657,-1.17355 0.19403,0 0.56964,0.24595 1.49046,0.97583 0.67709,0.53673 1.37379,1.0857 1.54827,1.21988 0.17429,0.13436 0.42346,0.34629 0.5534,0.47127 0.13015,0.12521 0.30886,0.25348 0.39766,0.28558 0.0888,0.0322 0.16147,0.0995 0.16147,0.14985 0,0.0504 0.0588,0.0914 0.13053,0.0914 0.0718,0 0.14445,0.0308 0.16149,0.0683 0.0257,0.0569 0.44378,0.40338 1.17788,0.97573 0.0792,0.0619 0.27484,0.22151 0.43452,0.35488 0.15966,0.1333 0.39911,0.32227 0.53205,0.41987 0.28436,0.20881 0.82461,0.6364 1.12093,0.88719 0.11533,0.0977 0.4246,0.33714 0.68732,0.53231 0.2627,0.19511 0.60287,0.46505 0.75589,0.59976 0.15288,0.13472 0.37931,0.26927 0.50283,0.29909 0.51059,0.12326 0.48579,0.75087 0.48755,-12.34352 0.001,-13.41611 0.0433,-14.98876 -0.62447,-15.65652 -0.18692,-0.18685 -0.50321,-0.4164 -0.70296,-0.51014 -0.35022,-0.1643 -0.6673,-0.17028 -8.87221,-0.17028 -5.5732,0 -8.5287,0.0306 -8.56602,0.0889 -0.0316,0.0486 -0.12872,0.0888 -0.21646,0.0888 -0.24951,0 -1.00572,0.80018 -1.16338,1.23104 -0.12506,0.34227 -0.14207,4.26819 -0.14207,14.90127 0,8.14387 0.031,12.11607 0.0954,12.23193 0.14152,0.25426 0.47128,0.20879 0.84655,-0.11657 z"
       id="path17422"
       sodipodi:nodetypes="cccccsccsccccscscccscccscccccsccccsccscsccccsccccccccccccccccsccccssccsccccccccscscsccc" /><path
       style="opacity:0.5;fill:#808080;fill-opacity:1;stroke:#808080;stroke-width:1.26221;stroke-dasharray:none;stroke-opacity:1"
       d="m 102.41261,130.05701 h 20.82486"
       id="path20654" /></g></svg>
