<?xml version="1.0" encoding="UTF-8" standalone="no"?>
<!-- Created with Inkscape (http://www.inkscape.org/) -->
<svg width="34.859898mm" height="32.047859mm" viewBox="0 0 34.859898 32.047859" version="1.1" id="svg19302" xml:space="preserve" inkscape:version="1.2.2 (b0a8486541, 2022-12-01)" sodipodi:docname="booknotes.svg" xmlns:inkscape="http://www.inkscape.org/namespaces/inkscape" xmlns:sodipodi="http://sodipodi.sourceforge.net/DTD/sodipodi-0.dtd" xmlns="http://www.w3.org/2000/svg" xmlns:svg="http://www.w3.org/2000/svg"><sodipodi:namedview id="namedview19304" pagecolor="#ffffff" bordercolor="#000000" borderopacity="0.25" inkscape:showpageshadow="2" inkscape:pageopacity="0.0" inkscape:pagecheckerboard="0" inkscape:deskcolor="#d1d1d1" inkscape:document-units="mm" showgrid="false" inkscape:zoom="2.3786088" inkscape:cx="-28.588139" inkscape:cy="50.449658" inkscape:window-width="1503" inkscape:window-height="934" inkscape:window-x="0" inkscape:window-y="0" inkscape:window-maximized="1" inkscape:current-layer="layer1"/><defs id="defs19299"/><g inkscape:label="Layer 1" inkscape:groupmode="layer" id="layer1" transform="translate(-95.931254,-121.53369)"><path style="fill:#808080;stroke:#808080;stroke-width:0.498526;stroke-dasharray:none" d="m 98.246282,152.68858 c -0.530635,-0.18084 -0.994164,-0.57715 -1.241064,-1.06112 -0.232037,-0.45483 -0.220798,0.30467 -0.20839,-14.08166 l 0.0115,-13.33653 0.09559,-0.25255 c 0.225246,-0.59505 0.705438,-1.07524 1.300498,-1.30049 l 0.252545,-0.0956 10.760699,-0.0118 c 7.3665,-0.008 10.83188,0.003 10.98637,0.0349 0.75126,0.1553 1.40399,0.76526 1.60703,1.50174 0.0676,0.24527 0.0832,0.45905 0.0832,1.13738 0,0.45942 0.0102,0.83492 0.0223,0.83444 0.0123,-5.1e-4 0.47343,-0.78619 1.02483,-1.74599 0.55141,-0.95981 1.04331,-1.79344 1.09313,-1.85252 0.0631,-0.075 0.15247,-0.11439 0.295,-0.13044 0.20159,-0.0227 0.24038,-0.002 2.82268,1.48592 2.78941,1.6076 2.80332,1.61728 2.77414,1.93228 -0.0102,0.10981 -1.19702,2.20336 -4.01065,7.07463 l -3.99623,6.9187 -0.0128,5.66887 -0.0128,5.66888 -0.10016,0.26377 c -0.1521,0.40052 -0.29237,0.61211 -0.58591,0.88387 -0.28072,0.25991 -0.61642,0.4449 -0.94469,0.52057 -0.12897,0.0298 -3.85816,0.0451 -10.95623,0.045 l -10.760682,-6e-5 -0.299797,-0.1022 z m 21.892058,-0.98143 c 0.2576,-0.0921 0.47572,-0.28755 0.59661,-0.53463 l 0.11265,-0.23036 -0.0114,-4.65387 -0.0114,-4.65389 -0.61689,1.06786 -0.61688,1.06786 -2.96306,2.25017 c -1.62967,1.23759 -3.00628,2.27452 -3.05912,2.30428 -0.2364,0.13316 -0.58999,0.005 -0.69654,-0.25205 -0.0517,-0.12495 -0.008,-0.58742 0.37338,-3.92959 l 0.43204,-3.78797 3.58468,-6.20862 3.58468,-6.20862 v -1.76539 c 0,-1.94601 -9.6e-4,-1.95355 -0.28076,-2.24545 -0.0785,-0.0818 -0.22275,-0.19208 -0.32078,-0.24507 l -0.17823,-0.0963 -10.62551,-0.0115 c -11.934252,-0.013 -10.934465,-0.0413 -11.29736,0.32152 -0.365225,0.36522 -0.333756,-0.936 -0.333478,13.78946 1.68e-4,8.90424 0.01508,13.17868 0.04634,13.29127 0.0728,0.26215 0.305127,0.53294 0.574377,0.6695 l 0.241609,0.12253 10.652442,-0.002 c 8.55282,-0.002 10.68399,-0.0132 10.81244,-0.0592 z m -16.51766,-18.42948 c -0.24988,-0.10096 -0.35653,-0.44555 -0.21976,-0.71002 0.14841,-0.28701 -0.19955,-0.27115 5.94823,-0.27115 6.15773,0 5.7472,-0.0194 5.93018,0.28065 0.10481,0.17185 0.10879,0.26223 0.0198,0.44978 -0.15046,0.31705 0.30545,0.29472 -5.95462,0.29157 -3.09633,-0.002 -5.67203,-0.02 -5.72379,-0.0409 z m -0.13314,-4.11803 c -0.18648,-0.18649 -0.20804,-0.43297 -0.0549,-0.62766 0.20266,-0.25763 -0.0858,-0.24567 5.92842,-0.24561 6.22039,9e-5 5.76117,-0.0253 5.93336,0.32733 0.11231,0.23002 0.0442,0.48324 -0.16413,0.61028 -0.13916,0.0848 -0.27102,0.0868 -5.81682,0.087 l -5.67442,1.6e-4 z m 12.92943,15.7277 c 1.98284,-1.50613 2.32942,-1.78573 2.26096,-1.82387 -0.0445,-0.0249 -0.96082,-0.55326 -2.03632,-1.1744 -1.0755,-0.62114 -1.96039,-1.12372 -1.96643,-1.11683 -0.006,0.007 -0.15451,1.28575 -0.32993,2.84194 -0.17543,1.55617 -0.3303,2.88692 -0.34414,2.95722 -0.0165,0.0835 -0.008,0.12208 0.0244,0.11129 0.0272,-0.009 1.10342,-0.817 2.39143,-1.79534 z m 6.8065,-9.45973 c 2.12369,-3.68163 3.86639,-6.71582 3.87268,-6.74264 0.0153,-0.0653 -4.06546,-2.42223 -4.11094,-2.37437 -0.0831,0.0874 -7.79745,13.49195 -7.78544,13.52798 0.008,0.0218 0.92502,0.56697 2.03944,1.21146 1.48672,0.85977 2.03912,1.15842 2.07462,1.1216 0.0266,-0.0276 1.78595,-3.06239 3.90964,-6.74403 z m 4.93632,-8.55601 c 0.27902,-0.48401 0.50734,-0.90494 0.50734,-0.93539 0,-0.0304 -0.91785,-0.5854 -2.03965,-1.23321 -2.00326,-1.15681 -2.04071,-1.17608 -2.10016,-1.08085 -0.0333,0.0534 -0.27486,0.46793 -0.5368,0.92131 -0.36043,0.6238 -0.46196,0.83312 -0.41736,0.86054 0.24064,0.14794 4.03046,2.33938 4.05193,2.343 0.015,0.003 0.25566,-0.39139 0.5347,-0.8754 z" id="path19435"/></g></svg>