<?xml version="1.0" encoding="UTF-8" standalone="no"?>
<!-- Created with Inkscape (http://www.inkscape.org/) -->

<svg
   width="86.722771mm"
   height="86.865784mm"
   viewBox="0 0 86.722771 86.865784"
   version="1.1"
   id="svg5"
   inkscape:version="1.1.2 (0a00cf5339, 2022-02-04)"
   sodipodi:docname="buy.svg"
   xmlns:inkscape="http://www.inkscape.org/namespaces/inkscape"
   xmlns:sodipodi="http://sodipodi.sourceforge.net/DTD/sodipodi-0.dtd"
   xmlns="http://www.w3.org/2000/svg"
   xmlns:svg="http://www.w3.org/2000/svg">
  <sodipodi:namedview
     id="namedview7"
     pagecolor="#ffffff"
     bordercolor="#666666"
     borderopacity="1.0"
     inkscape:pageshadow="2"
     inkscape:pageopacity="0.0"
     inkscape:pagecheckerboard="0"
     inkscape:document-units="mm"
     showgrid="false"
     inkscape:zoom="0.7198092"
     inkscape:cx="170.87862"
     inkscape:cy="314.66672"
     inkscape:window-width="1920"
     inkscape:window-height="1016"
     inkscape:window-x="0"
     inkscape:window-y="0"
     inkscape:window-maximized="1"
     inkscape:current-layer="layer1" />
  <defs
     id="defs2" />
  <g
     inkscape:label="Layer 1"
     inkscape:groupmode="layer"
     id="layer1"
     transform="translate(-59.996787,-65.111984)">
    <path
       style="fill:#000000;stroke-width:0.21798"
       d="m 86.235699,145.08984 c -3.230506,-0.83724 -5.239352,-3.05342 -5.780256,-6.37686 -0.253,-1.55449 0.16417,-3.78858 0.961496,-5.1491 2.01248,-3.43404 6.420388,-4.69772 10.2292,-2.93256 2.827354,1.31032 4.577618,4.63449 4.167689,7.91545 -0.18981,1.51922 -1.39878,3.99454 -2.339582,4.79024 -1.875751,1.58644 -4.980037,2.33815 -7.238547,1.75283 z m 3.64912,-4.64062 c 1.657365,-0.84687 2.065285,-3.61971 0.744089,-5.05797 -2.074696,-2.25852 -5.806652,-0.90793 -5.809268,2.10235 -0.0023,2.67133 2.623244,4.2034 5.065179,2.95562 z m 34.497441,4.62822 c -3.20122,-0.79323 -5.16498,-2.93363 -5.78912,-6.30984 -0.2745,-1.48495 -0.0114,-3.17847 0.74622,-4.80393 0.97175,-2.08477 2.77693,-3.42071 5.34608,-3.95639 3.46768,-0.72303 6.94187,0.89755 8.42253,3.92884 0.76824,1.57277 1.04735,3.32619 0.76908,4.83148 -0.63967,3.4603 -2.74071,5.66498 -6.07232,6.37188 -1.40704,0.29855 -2.01145,0.28759 -3.42247,-0.062 z m 3.73696,-4.73845 c 1.33389,-0.79968 1.8325,-2.97714 1.00584,-4.39256 -1.68965,-2.89309 -6.15253,-1.77857 -6.19843,1.54794 -0.038,2.75134 2.77642,4.29313 5.19259,2.84462 z M 84.002532,127.26805 c -0.389015,-0.11314 -0.865765,-0.44756 -1.059442,-0.74314 -0.193678,-0.2956 -2.742914,-11.10747 -5.664971,-24.02643 -2.922056,-12.91894 -5.365388,-23.709683 -5.429627,-23.979433 -0.115869,-0.486548 -0.14861,-0.490453 -4.115886,-0.490453 -3.677096,0 -4.043985,-0.03534 -4.5567,-0.438617 -1.156929,-0.910039 -0.941064,-2.947864 0.378601,-3.574082 1.02124,-0.484613 9.770386,-0.510252 10.91503,-0.03197 0.861658,0.360028 1.273169,1.115856 1.637216,3.007116 l 0.240847,1.251234 31.68239,0.05668 31.6824,0.05668 0.94516,0.663622 c 1.26247,0.886411 1.96024,2.178656 1.96786,3.644383 0.007,1.41042 -7.13473,27.11917 -8.02551,28.88888 -0.42984,0.85396 -0.84155,1.30707 -1.58453,1.74385 l -1.00379,0.59011 -23.77051,0.10899 -23.770505,0.10898 1.012889,4.35962 1.01289,4.3596 22.985276,0.109 c 21.23229,0.10067 23.02878,0.13748 23.55559,0.48273 1.18963,0.7796 1.23856,2.67837 0.0911,3.53514 -0.60095,0.4487 -0.71068,0.45088 -24.51107,0.48701 -14.459171,0.0219 -24.186932,-0.045 -24.614708,-0.16943 z m 50.479838,-30.9836 c 2.06275,-7.343214 3.74847,-13.424864 3.74605,-13.51478 -0.002,-0.08992 -13.68812,-0.163488 -30.41267,-0.163488 -24.727103,0 -30.408259,0.05265 -30.408259,0.281967 0,0.155076 1.263988,5.91794 2.808861,12.806349 1.544874,6.888422 2.876899,12.843202 2.960056,13.232852 l 0.151194,0.70843 h 23.702158 23.70215 z"
       id="path1385" />
  </g>
</svg>
