<?xml version="1.0" encoding="UTF-8"?>
<!-- Created with Inkscape (http://www.inkscape.org/) -->
<svg width="211.38mm" height="211.45mm" version="1.1" viewBox="0 0 211.38 211.45" xml:space="preserve" xmlns="http://www.w3.org/2000/svg"><g transform="translate(2.3129 -27.704)"><path d="m97.558 239.07c-0.50932-0.0586-2.4738-0.23613-4.3656-0.39456-14.001-1.1725-29.444-6.0615-42.257-13.377-12.34-7.0459-23.651-17.05-32.266-28.54-11.365-15.156-18.349-32.876-20.51-52.042-0.62892-5.5767-0.62892-17.074 0-22.651 3.3296-29.524 18.187-55.57 41.872-73.407 14.941-11.251 32.923-18.333 52.023-20.487 5.5767-0.62891 17.074-0.62891 22.651 0 21.118 2.3816 40.208 10.493 56.408 23.967 21.045 17.505 34.38 42.379 37.486 69.927 0.62892 5.5767 0.62892 17.074 0 22.651-2.403 21.308-10.648 40.525-24.486 57.069-2.6548 3.174-9.3317 9.8324-12.547 12.512-16.344 13.622-35.827 21.979-56.586 24.271-3.5704 0.39426-15.394 0.73425-17.422 0.50099zm14.155-16.546c22.277-1.8339 44.292-13.104 59.114-30.263 4.1141-4.7628 6.2713-7.7264 9.3404-12.832 6.8962-11.473 11.044-24.06 12.364-37.519 0.37737-3.8478 0.37737-13.189 0-17.037-1.7102-17.437-8.2598-33.61-19.212-47.441-2.8177-3.5583-10.173-10.956-13.585-13.665-14.213-11.28-30.33-17.857-47.89-19.542-3.9418-0.37823-13.05-0.37451-16.933 7e-3 -17.502 1.7192-33.679 8.2664-47.493 19.221-3.5572 2.8211-10.947 10.168-13.661 13.582-11.28 14.188-17.796 30.153-19.535 47.859-0.38178 3.8883-0.38264 13.097-2e-3 16.978 2.7967 28.481 18.65 53.594 43.119 68.308 16.41 9.8672 34.519 13.979 54.372 12.344zm-61.316-45.514c-4.2286-0.61773-6.2702-5.3164-3.9201-9.0221 0.96573-1.5228 1.7711-2.1229 5.954-4.4368 7.5536-4.1784 11.238-6.8066 15.362-10.958 4.5201-4.5506 6.4615-7.8025 5.9019-9.8855-0.41421-1.5418-2.11-2.199-6.9764-2.7036-7.7562-0.80427-14.305-5.574-17.823-12.982-1.843-3.8802-2.269-6.0126-2.269-11.358 0-5.4392 0.37134-7.1318 2.5251-11.509 3.6479-7.4144 10.224-12.329 18.406-13.756 8.5922-1.4984 16.829 0.92676 22.974 6.7642 3.7319 3.5449 6.4738 7.6507 8.0913 12.116 4.8689 13.441 1.5415 28.161-9.713 42.968-2.4116 3.1728-9.0375 9.9123-12.253 12.463-1.2369 0.98122-3.6182 2.7114-5.2917 3.845-9.3232 6.315-16.315 9.1344-20.967 8.4547zm64.268-4e-3c-2.6788-0.39116-4.6127-2.4687-4.8625-5.2234-0.12437-1.3715-0.0446-1.7998 0.56878-3.0535 0.93959-1.9204 1.9725-2.7577 6.6724-5.4087 9.9497-5.6121 16.272-10.894 19.544-16.327 2.5697-4.2675 1.5249-6.0361-3.9715-6.7226-7.3832-0.92211-10.604-2.2977-14.562-6.2189-4.8257-4.7814-7.2662-10.973-7.2662-18.434 0-11.371 7.3461-21.456 17.859-24.517 4.4038-1.2823 10.597-1.4256 14.737-0.341 7.2132 1.8899 14.149 7.8066 17.872 15.247 5.3151 10.62 4.795 22.662-1.533 35.494-5.3771 10.904-13.855 20.241-25.254 27.814-4.0991 2.7234-10.032 5.8286-12.966 6.786-2.5253 0.82406-5.0811 1.1627-6.8385 0.90605z" fill="#808080" stroke-width=".26458"/></g></svg>
