<?xml version="1.0" encoding="UTF-8"?>
<!-- Created with Inkscape (http://www.inkscape.org/) -->
<svg width="218.15mm" height="250.03mm" version="1.1" viewBox="0 0 218.15 250.03" xml:space="preserve" xmlns="http://www.w3.org/2000/svg"><g transform="translate(2.8712 9.6383)"><path d="m14.88 238.94c-9.4135-4.9537-15.607-12.856-17.373-22.165-0.49243-2.5959-0.50558-7.84-0.0264-10.517 1.4381-8.034 6.5643-16.213 14.201-22.657 2.4883-2.0999 4.1178-4.3979 5.4706-7.7151 2.8561-7.0038 4.4455-16.393 4.7455-28.035l0.15848-6.1516h-0.92281c-1.5505 0-4.8988-0.98901-6.9078-2.0404-3.7709-1.9735-7.0214-6.233-7.8678-10.31-0.47143-2.2709-0.20599-6.962 0.51154-9.0406 0.91697-2.6564 22.345-45.638 23.667-47.474 3.1881-4.4257 8.835-8.4967 14.196-10.234 3.837-1.2436 5.239-1.3335 20.804-1.3335h14.65l5e-3 -26.524c5e-3 -28.718-0.0196-28.182 1.4543-31.701 2.1115-5.0407 6.9168-9.6304 11.926-11.391 3.3932-1.1926 4.7595-1.2924 17.704-1.2924 13.392 0 14.492 0.0924 18.188 1.5278 5.0935 1.9778 9.3972 6.2651 11.49 11.446 1.4193 3.5137 1.4006 3.0953 1.4056 31.542l5e-3 26.392h14.391c16.063 0 16.904 0.0701 21.157 1.7622 5.6973 2.2671 10.258 5.8915 13.317 10.582 1.8486 2.8349 22.687 44.901 23.435 47.309 0.84389 2.7147 0.82397 6.9559-0.0452 9.6213-1.2075 3.703-4.0527 7.1358-7.3104 8.8203-1.1009 0.56925-1.7073 1.0453-1.7079 1.3408-5.3e-4 0.25199 0.29799 2.2761 0.6634 4.4979 0.83893 5.1011 2.652 19.835 4.3552 35.393 0.72487 6.6212 1.756 15.075 2.2914 18.785 1.4515 10.061 1.3113 14.829-0.60466 20.561-2.9222 8.7425-10.476 16.509-19.127 19.666l-2.1464 0.78332-173.42-0.012zm30.019-23.885c8.4605-13.176 13.226-24.2 14.782-34.197 0.26046-1.6735 0.49351-3.0699 0.51788-3.1031 0.0244-0.0332 4.3828 0.47278 9.6853 1.1244 5.3026 0.65162 9.7303 1.1848 9.8395 1.1848 0.30279 1.3e-4 0.23634 1.4802-0.17817 3.9688-1.2486 7.4964-3.7998 21.435-4.9396 26.988-1.7872 8.7074-1.7126 8.2021-1.2117 8.2021 0.84312 0 7.6893-11.1 11.007-17.846 3.6533-7.4286 5.7159-13.428 6.7719-19.696 0.35281-2.0941 0.67874-3.8448 0.72429-3.8903 0.0455-0.0456 4.4242 0.44737 9.7304 1.0954 5.3062 0.648 9.7368 1.1782 9.846 1.1783 0.30279 2e-4 0.23634 1.4803-0.17818 3.9689-1.2486 7.4964-3.7998 21.435-4.9395 26.988-0.73179 3.5653-1.3984 6.8692-1.4814 7.3422l-0.15085 0.85989h5.9079l2.4726-3.7703c6.0717-9.2585 10.215-17.501 12.85-25.563 1.1919-3.6469 1.6813-5.7474 2.3966-10.288 0.21966-1.3941 0.41064-1.9182 0.69901-1.9182 0.8149 0 19.261 2.419 19.384 2.542 0.37246 0.37246-4.7087 28.658-6.7321 37.476l-0.34909 1.5214h6.1753l2.6759-4.1672c8.4913-13.224 13.299-24.367 14.782-34.264 0.37683-2.5143 0.54885-3.1089 0.89948-3.1089 0.23845 0 4.5985 0.53466 9.6891 1.1881 5.0905 0.65347 9.4117 1.1892 9.6025 1.1906 0.41898 3e-3 0.36064 0.5092-0.88459 7.6754-0.49308 2.8377-1.2639 7.3025-1.7129 9.9219-0.9502 5.5432-2.9922 15.993-3.7224 19.05-0.27811 1.1642-0.50649 2.206-0.50751 2.3151-1e-3 0.10914 2.0686 0.19843 4.5992 0.19843h4.6011l1.5536-1.1437c1.8409-1.3552 2.7778-2.4189 3.7448-4.2518 0.65953-1.2501 0.71295-1.5892 0.71295-4.5263 0-2.0386-0.2607-5.0217-0.72835-8.3344-0.40059-2.8377-1.442-11.47-2.3141-19.182-2.4834-21.96-4.4344-36.673-5.1841-39.092-0.13617-0.43948-3.7818-0.46302-71.695-0.46302h-71.552l-4e-3 2.4474c-5e-3 3.4581-0.46828 11.07-0.92916 15.28-1.4662 13.394-4.8405 24.324-9.8362 31.862-1.6894 2.5492-2.9582 3.93-8.7398 9.5117-3.5914 3.4672-5.6265 6.9527-5.6265 9.6363 0 2.4918 1.6404 5.5178 4.0061 7.3898l1.0954 0.86686h20.171zm147.47-94.391c0-0.0732-4.0349-8.1992-8.9664-18.058-9.6658-19.323-9.1374-18.453-12.017-19.794l-1.3737-0.63957-47.493-6e-3v-70.907h-22.225v70.908h-48.877l-1.8884 0.94475c-1.0616 0.53112-2.1714 1.3158-2.5349 1.7923-0.51777 0.67882-17.873 35.435-17.873 35.793 0 0.0546 36.731 0.0992 81.624 0.0992 44.893 0 81.624-0.0599 81.624-0.13306z" fill="#808080" stroke-width=".26458"/></g></svg>
