<?xml version="1.0" encoding="UTF-8"?>
<!-- Created with Inkscape (http://www.inkscape.org/) -->
<svg width="221.48mm" height="226.15mm" version="1.1" viewBox="0 0 221.48 226.15" xml:space="preserve" xmlns="http://www.w3.org/2000/svg"><g transform="translate(7.2527 -1.3949)"><path d="m42.199 227.2c-0.08565-0.19275-1.5609-1.0494-3.2782-1.9037-3.8285-1.9044-6.9664-5.1445-8.8214-9.1086l-1.3697-2.9271-6.306-70.771c-3.4683-38.924-6.8425-76.868-7.4982-84.321-0.65572-7.4528-1.2816-13.813-1.3908-14.135-0.14464-0.4257-1.818-0.58687-6.1708-0.59434-4.7661-0.008812-6.3497-0.18216-7.8412-0.86148-2.0032-0.91233-5.0777-4.002-5.5907-5.6182-0.17219-0.5424-0.50909-0.98616-0.74877-0.98616-0.23967 0-0.43577-1.6821-0.43577-3.7381s0.1961-3.7381 0.43577-3.7381c0.23968 0 0.57662-0.44377 0.74877-0.98616 0.51298-1.6162 3.5875-4.7059 5.5907-5.6182 1.7457-0.79503 3.8621-0.85189 32.064-0.86148l30.195-0.01064 0.3244-2.8673c0.43705-3.8631 1.8325-7.4161 3.9795-10.132 1.872-2.3682 5.4488-4.9397 7.6151-5.4748 0.70673-0.17448 1.285-0.50483 1.285-0.73397 0-0.2397 12.897-0.4166 30.372-0.4166 16.705 0 30.372 0.16088 30.372 0.35758 0 0.19666 1.0391 0.72665 2.3091 1.1777 3.0634 1.088 6.9661 4.7138 8.6446 8.0313 0.84795 1.676 1.5189 3.9997 1.8337 6.3507l0.4964 3.7076 28.286 0.01064c26.355 0.0088 28.413 0.06834 30.155 0.86148 2.0032 0.91233 5.0777 4.002 5.5907 5.6182 0.17219 0.5424 0.50909 0.98616 0.74878 0.98616 0.23966 0 0.43576 1.6821 0.43576 3.7381s-0.1961 3.7381-0.43576 3.7381c-0.23969 0-0.57662 0.44376-0.74878 0.98616-0.51298 1.6162-3.5875 4.7059-5.5907 5.6182-1.7858 0.81329-5.6316 0.85168-86.326 0.86148-77.457 0.0088-84.457 0.07294-84.457 0.76546 0 0.41537 2.834 32.534 6.2977 71.374 3.4637 38.84 6.6608 74.771 7.1046 79.847l0.8068 9.2284h109.61v-0.95256c0-1.9805 10.262-122.32 10.692-125.37 0.57747-4.1101 2.3439-7.0399 5.3738-8.9132 5.8307-3.6048 13.869-1.0422 16.503 5.261 0.37279 0.89221 0.67847 2.905 0.67926 4.4729 1e-3 2.4532-5.6103 69.811-9.8526 118.26-1.6415 18.749-1.8245 19.407-6.7629 24.334-2.4517 2.4462-3.954 3.5351-5.7682 4.1808-1.3492 0.48023-2.4531 1.0419-2.4531 1.2481 0 0.47432-126.49 0.49878-126.71 0.0245zm22.698-37.914c-1.946-1.1866-3.3015-2.995-3.6252-4.8363-0.62208-3.5386-7.8586-108.9-7.5812-110.38 0.41664-2.2209 2.8751-4.7062 5.3016-5.3596 3.4298-0.92356 7.195 0.70326 8.7968 3.8008 0.57115 1.1045 1.5812 13.334 4.6563 56.38l3.927 54.97-1.0444 2.102c-1.412 2.8418-3.5556 4.2065-6.6038 4.2043-1.5099-9.2e-4 -2.9132-0.32443-3.8272-0.88181zm37.64 0.52535c-1.5358-0.73443-2.7012-1.8116-3.6569-3.3798l-0.99651-1.6354-0.0022-55.3c-0.0021-61.902-0.25868-57.367 3.384-59.778 3.4684-2.2953 8.1383-1.3128 10.514 2.2118l1.0529 1.5624v55.581c0 61.448 0.19155 57.561-2.9474 59.796-1.4845 1.057-5.9182 1.6249-7.348 0.94113zm35.505-0.69471c-2.5169-1.6961-3.489-3.8149-3.3758-7.3578 0.0533-1.6704 1.7816-26.546 3.8405-55.279 2.9979-41.837 3.8968-52.565 4.5134-53.864 2.2288-4.6968 8.559-5.6167 12.186-1.7709 0.84919 0.9004 1.6574 2.3643 1.8446 3.3412 0.39858 2.08-7.177 109.51-7.8469 111.28-0.57771 1.5252-2.1369 3.2054-3.7568 4.0482-1.9798 1.0301-5.5737 0.83765-7.405-0.39644z" fill="#808080" stroke-width=".46726"/></g></svg>
