<?xml version="1.0" encoding="UTF-8" standalone="no"?>
<!-- Created with Inkscape (http://www.inkscape.org/) -->

<svg
   width="142.97092mm"
   height="142.92366mm"
   viewBox="0 0 142.97092 142.92366"
   version="1.1"
   id="svg4044"
   inkscape:version="1.2.2 (b0a8486541, 2022-12-01)"
   sodipodi:docname="code.svg"
   xml:space="preserve"
   xmlns:inkscape="http://www.inkscape.org/namespaces/inkscape"
   xmlns:sodipodi="http://sodipodi.sourceforge.net/DTD/sodipodi-0.dtd"
   xmlns="http://www.w3.org/2000/svg"
   xmlns:svg="http://www.w3.org/2000/svg"><sodipodi:namedview
     id="namedview4046"
     pagecolor="#ffffff"
     bordercolor="#666666"
     borderopacity="1.0"
     inkscape:pageshadow="2"
     inkscape:pageopacity="0.0"
     inkscape:pagecheckerboard="0"
     inkscape:document-units="mm"
     showgrid="false"
     inkscape:zoom="0.7198092"
     inkscape:cx="370.93163"
     inkscape:cy="393.15974"
     inkscape:window-width="1503"
     inkscape:window-height="934"
     inkscape:window-x="0"
     inkscape:window-y="0"
     inkscape:window-maximized="1"
     inkscape:current-layer="layer1"
     inkscape:showpageshadow="2"
     inkscape:deskcolor="#d1d1d1" /><defs
     id="defs4041" /><g
     inkscape:label="Layer 1"
     inkscape:groupmode="layer"
     id="layer1"
     transform="translate(-6.8078617,-43.956485)"><path
       style="fill:#808080;stroke-width:0.250793"
       d="m 62.760191,169.57349 c -2.350903,-0.86486 -4.038044,-3.49139 -4.03539,-6.28229 9.48e-4,-0.9675 3.437818,-13.34551 13.300414,-47.9015 7.314543,-25.628299 13.493469,-47.161184 13.730932,-47.850866 0.60889,-1.768421 2.361264,-3.482536 4.082974,-3.993827 4.715636,-1.400393 8.763045,1.507128 8.763045,6.295063 0,1.009935 -3.294641,12.866191 -13.558872,48.79367 -7.457388,26.10274 -13.769473,47.79976 -14.02685,48.21558 -0.692399,1.11857 -1.757493,2.05656 -2.856569,2.51568 -1.437782,0.6006 -4.058736,0.7018 -5.399684,0.20849 z M 40.347296,146.39034 c -0.521751,-0.12286 -1.311742,-0.40541 -1.755559,-0.62788 -0.443807,-0.22249 -6.316918,-5.89456 -13.05135,-12.60458 -8.870979,-8.83885 -12.427672,-12.54556 -12.909537,-13.45406 -0.951936,-1.79474 -0.951936,-4.47508 0,-6.26982 0.48106,-0.90698 4.053411,-4.63425 12.909537,-13.469373 C 39.083033,86.454069 38.863996,86.632328 41.9229,86.632328 c 2.910711,0 5.322232,1.629457 6.164517,4.165357 0.538132,1.620158 0.382812,4.182943 -0.339188,5.59685 -0.32281,0.632145 -4.189364,4.644465 -10.206838,10.591615 l -9.687171,9.57396 9.561445,9.4599 c 5.263747,5.20786 9.852339,9.95628 10.208619,10.56423 0.486016,0.82931 0.676862,1.56678 0.766361,2.96136 0.109821,1.71125 0.05536,1.98659 -0.693156,3.50712 -0.931956,1.89308 -2.227215,2.89909 -4.306854,3.3451 -1.414843,0.30343 -1.726241,0.30266 -3.043339,-0.007 z m 73.250394,-0.0639 c -3.72172,-1.0458 -5.5906,-4.8719 -4.31516,-8.83428 0.35993,-1.11823 1.34393,-2.17449 10.33084,-11.08972 l 9.933,-9.85375 -9.58241,-9.41941 c -5.5207,-5.42679 -9.86319,-9.898504 -10.24481,-10.549698 -0.50214,-0.856834 -0.69123,-1.579577 -0.78158,-2.987332 -0.10928,-1.702949 -0.0534,-1.990458 0.67241,-3.464969 0.59668,-1.212034 1.07375,-1.794837 1.93762,-2.36704 2.34904,-1.555934 5.30072,-1.57552 7.65026,-0.05077 0.60386,0.391881 6.58609,6.227361 13.29386,12.967739 11.44602,11.50167 12.22287,12.33833 12.63404,13.60661 0.5674,1.75017 0.39677,3.77665 -0.4577,5.43573 -0.96896,1.88139 -24.67017,25.47361 -26.31617,26.19517 -1.54412,0.67688 -3.27664,0.82693 -4.7542,0.41172 z"
       id="path7652" /></g></svg>
