<?xml version="1.0" encoding="UTF-8" standalone="no"?>
<!-- Created with Inkscape (http://www.inkscape.org/) -->

<svg
   width="142.97092mm"
   height="142.92366mm"
   viewBox="0 0 142.97092 142.92366"
   version="1.1"
   id="svg4044"
   inkscape:version="1.2.2 (b0a8486541, 2022-12-01)"
   sodipodi:docname="comments.svg"
   xml:space="preserve"
   xmlns:inkscape="http://www.inkscape.org/namespaces/inkscape"
   xmlns:sodipodi="http://sodipodi.sourceforge.net/DTD/sodipodi-0.dtd"
   xmlns="http://www.w3.org/2000/svg"
   xmlns:svg="http://www.w3.org/2000/svg"><sodipodi:namedview
     id="namedview4046"
     pagecolor="#ffffff"
     bordercolor="#666666"
     borderopacity="1.0"
     inkscape:pageshadow="2"
     inkscape:pageopacity="0.0"
     inkscape:pagecheckerboard="0"
     inkscape:document-units="mm"
     showgrid="false"
     inkscape:zoom="0.7198092"
     inkscape:cx="370.93163"
     inkscape:cy="393.15974"
     inkscape:window-width="1503"
     inkscape:window-height="934"
     inkscape:window-x="0"
     inkscape:window-y="0"
     inkscape:window-maximized="1"
     inkscape:current-layer="layer1"
     inkscape:showpageshadow="2"
     inkscape:deskcolor="#d1d1d1" /><defs
     id="defs4041" /><g
     inkscape:label="Layer 1"
     inkscape:groupmode="layer"
     id="layer1"
     transform="translate(-6.8078617,-43.956485)"><path
       style="fill:#808080;stroke-width:0.298887"
       d="m 21.275677,173.01771 c -2.030469,-0.33005 -4.067501,-2.36503 -4.693125,-4.68843 -0.441987,-1.6414 -0.03536,-3.20288 1.280505,-4.91684 4.728822,-6.15966 5.973856,-7.84844 7.225352,-9.80061 1.471698,-2.29563 4.314883,-7.93623 4.322599,-8.5756 0.0023,-0.19591 -0.681101,-1.13741 -1.518827,-2.0922 C 14.367577,127.52923 12.775616,106.27521 23.866792,89.201715 29.382518,80.710952 37.903308,73.52783 48.32546,68.582787 c 16.611195,-7.88158 37.816828,-8.961617 56.13888,-2.859243 9.39533,3.129226 17.19809,7.7731 23.81758,14.175222 7.95409,7.692911 12.84684,16.534934 14.57502,26.339504 0.68546,3.88891 0.69315,10.33111 0.0172,14.34657 -3.32347,19.74067 -20.50929,36.40925 -43.442898,42.13535 -13.349676,3.33317 -28.312066,3.16708 -40.454473,-0.44909 l -1.992716,-0.59345 -2.650806,1.67476 c -2.99561,1.89262 -9.976154,5.37893 -13.095189,6.54016 -5.549333,2.06606 -16.21018,3.73502 -19.962317,3.12514 z M 38.832051,158.0944 c 4.141494,-1.68511 7.774091,-3.6914 12.100384,-6.68309 2.053356,-1.41992 3.903861,-2.58166 4.112247,-2.58166 0.208387,0 2.43005,0.59407 4.937051,1.32016 2.50699,0.72609 6.372691,1.69356 8.590445,2.14992 3.683759,0.75802 4.60064,0.83026 10.607798,0.8357 7.508397,0.007 11.31522,-0.4392 17.685719,-2.07193 6.710275,-1.71983 12.827755,-4.52064 18.479605,-8.46066 3.4746,-2.42222 8.99192,-8.01498 11.07048,-11.22183 6.60353,-10.18818 7.19521,-22.55382 1.58314,-33.086559 C 120.10595,83.480952 101.26253,73.759376 80.375531,73.724895 69.742508,73.70734 60.799013,75.715714 51.981272,80.101178 37.031975,87.536132 28.491167,99.560893 28.428098,113.26211 c -0.02496,5.42286 0.846211,9.35868 3.04301,13.74775 2.118887,4.2334 4.14608,6.88183 10.996331,14.36619 l 0.700903,0.76578 -1.168364,3.26919 c -1.471563,4.11752 -3.278113,8.24091 -5.000673,11.41386 -0.736273,1.35619 -1.286628,2.46581 -1.223017,2.46581 0.0636,0 1.438713,-0.53833 3.055763,-1.19629 z"
       id="path7617" /></g></svg>
