<?xml version="1.0" encoding="UTF-8" standalone="no"?>
<!-- Created with Inkscape (http://www.inkscape.org/) -->

<svg
   width="181.76924mm"
   height="189.43402mm"
   viewBox="0 0 181.76924 189.43402"
   version="1.1"
   id="svg3617"
   xml:space="preserve"
   inkscape:version="1.2.2 (b0a8486541, 2022-12-01)"
   sodipodi:docname="copy.svg"
   xmlns:inkscape="http://www.inkscape.org/namespaces/inkscape"
   xmlns:sodipodi="http://sodipodi.sourceforge.net/DTD/sodipodi-0.dtd"
   xmlns="http://www.w3.org/2000/svg"
   xmlns:svg="http://www.w3.org/2000/svg"><sodipodi:namedview
     id="namedview3619"
     pagecolor="#ffffff"
     bordercolor="#000000"
     borderopacity="0.25"
     inkscape:showpageshadow="2"
     inkscape:pageopacity="0.0"
     inkscape:pagecheckerboard="0"
     inkscape:deskcolor="#d1d1d1"
     inkscape:document-units="mm"
     showgrid="false"
     inkscape:zoom="0.2102413"
     inkscape:cx="-580.2856"
     inkscape:cy="437.59242"
     inkscape:window-width="1503"
     inkscape:window-height="934"
     inkscape:window-x="0"
     inkscape:window-y="0"
     inkscape:window-maximized="1"
     inkscape:current-layer="layer1" /><defs
     id="defs3614" /><g
     inkscape:label="Layer 1"
     inkscape:groupmode="layer"
     id="layer1"
     transform="translate(-207.80293,-33.257675)"><path
       style="fill:#808080;stroke-width:0.249871"
       d="m 271.47934,217.03897 c -4.81347,-1.2945 -8.799,-5.78114 -9.52658,-10.72437 -0.16468,-1.11876 -0.23297,-8.96349 -0.1895,-21.76819 l 0.068,-20.01909 2.24885,1.35826 c 1.23687,0.74705 3.56726,1.9971 5.17864,2.77794 l 2.9298,1.41967 0.007,17.44097 c 0.007,19.34725 -0.0563,18.60151 1.63892,19.30987 0.72464,0.30278 7.9977,0.35513 49.3411,0.35513 52.32482,0 49.62301,0.0683 50.5664,-1.27857 0.37353,-0.5333 0.40746,-4.92013 0.40746,-52.69375 0,-57.386569 0.12978,-52.75511 -1.50199,-53.598926 -1.06377,-0.55011 -97.49745,-0.567921 -98.81297,-0.01823 -1.60887,0.672226 -1.63273,0.833406 -1.63273,11.024896 v 9.15601 l -1.30014,-1.08523 c -1.90612,-1.59105 -6.10105,-5.85523 -7.78469,-7.91324 l -1.46374,-1.78919 0.10413,-4.68678 c 0.0945,-4.25409 0.16362,-4.853241 0.74859,-6.489865 1.15053,-3.218877 3.62209,-6.030734 6.62731,-7.539806 2.67331,-1.342395 -0.11723,-1.276655 54.19351,-1.276655 49.25472,0 50.30243,0.0099 51.85836,0.490661 1.81411,0.560528 4.20059,1.920224 5.41666,3.08615 1.28299,1.230096 2.69009,3.489232 3.33346,5.352054 l 0.58393,1.690687 v 53.597504 53.5975 l -0.58393,1.69069 c -1.11445,3.22671 -3.32488,5.82654 -6.30789,7.41909 -3.02023,1.61243 0.67078,1.51141 -54.56667,1.49333 -43.04296,-0.014 -50.42692,-0.0682 -51.58044,-0.37849 z m 38.59943,-28.12064 c -1.48902,-0.34828 -2.57949,-1.14204 -3.33532,-2.42781 l -0.68494,-1.16516 -0.0748,-8.26997 -0.0748,-8.27 -3.79822,-0.15632 c -12.08685,-0.49745 -24.97397,-4.40653 -34.81004,-10.55899 -5.44234,-3.40419 -11.50713,-8.72506 -15.34356,-13.46151 -5.83648,-7.20572 -10.60092,-16.61855 -13.46576,-26.60353 -2.02913,-7.07219 -3.78677,-17.34671 -3.28575,-19.207331 1.01025,-3.751816 5.38431,-5.209787 8.33441,-2.778053 0.55445,0.457013 1.35932,1.665829 2.18777,3.285764 5.97055,11.6745 13.87868,21.41378 22.91259,28.21807 9.89102,7.44984 21.87673,11.83098 33.84478,12.37131 l 3.42306,0.15454 0.0751,-8.34609 c 0.0729,-8.09332 0.0921,-8.37782 0.63506,-9.39358 1.36338,-2.55064 4.47652,-3.50037 7.00777,-2.13787 0.44627,0.24024 7.83485,7.38694 16.41906,15.88162 14.80457,14.65015 15.62729,15.51099 15.98934,16.73011 0.42332,1.4255 0.31181,2.56441 -0.38493,3.93152 -0.53006,1.04004 -31.0425,31.25315 -32.10855,31.79355 -1.03538,0.52485 -2.32016,0.6769 -3.46234,0.40973 z m -88.10212,-22.5272 c -4.20881,-1.44018 -7.13672,-4.30765 -8.5364,-8.3602 l -0.58393,-1.69069 V 102.74273 49.145226 l 0.58393,-1.690689 c 1.11445,-3.226699 3.32489,-5.826533 6.3079,-7.419089 3.01846,-1.611487 -0.64992,-1.509774 54.45171,-1.509774 55.26013,0 51.41523,-0.10988 54.5459,1.558757 3.26845,1.742069 6.09334,5.740178 6.66676,9.435604 0.14798,0.953677 0.2528,7.684363 0.25391,16.304136 l 0.002,14.679969 h -5.24732 -5.24731 V 65.749295 c 0,-16.376243 0.0445,-15.922949 -1.63274,-16.623753 -0.72464,-0.302777 -7.9977,-0.355123 -49.3411,-0.355123 -52.32481,0 -49.623,-0.06832 -50.56638,1.278562 -0.37355,0.533307 -0.40748,4.920131 -0.40748,52.693749 0,46.81824 0.0396,52.16858 0.38998,52.6688 0.91884,1.31182 0.82344,1.30352 14.98141,1.30352 h 13.14734 l 0.85789,0.65434 0.85788,0.65434 v 4.46803 4.46804 l -14.92984,-0.007 c -14.76963,-0.007 -14.94727,-0.0124 -16.554,-0.56221 z"
       id="path3750" /></g></svg>
