<?xml version="1.0" encoding="UTF-8"?>
<!-- Created with Inkscape (http://www.inkscape.org/) -->
<svg width="181.77mm" height="189.43mm" version="1.1" viewBox="0 0 181.77 189.43" xml:space="preserve" xmlns="http://www.w3.org/2000/svg"><g transform="translate(-207.8 -33.258)"><path d="m275.41 204.18c-4.1187-1.1077-7.529-4.9467-8.1516-9.1765-0.14091-0.95728-0.19934-7.6697-0.16215-18.626l0.0582-17.13 1.9243 1.1622c1.0583 0.63922 3.0524 1.7088 4.4312 2.377l2.5069 1.2148 6e-3 14.924c6e-3 16.555-0.0482 15.917 1.4024 16.523 0.62005 0.25908 6.8433 0.30387 42.219 0.30387 44.772 0 42.461 0.0584 43.268-1.094 0.31962-0.45633 0.34865-4.21 0.34865-45.088 0-49.104 0.11105-45.141-1.2852-45.863-0.91023-0.47071-83.425-0.48595-84.551-0.0156-1.3766 0.5752-1.3971 0.71312-1.3971 9.4336v7.8345l-1.1125-0.92859c-1.631-1.3614-5.2204-5.0101-6.6611-6.7711l-1.2525-1.531 0.0891-4.0103c0.0809-3.6401 0.14-4.1527 0.64054-5.5531 0.98447-2.7543 3.0993-5.1603 5.6708-6.4515 2.2875-1.1486-0.10031-1.0924 46.371-1.0924 42.145 0 43.042 0.0085 44.373 0.41984 1.5523 0.47962 3.5943 1.6431 4.6348 2.6407 1.0978 1.0525 2.3018 2.9856 2.8523 4.5796l0.49965 1.4467v91.723l-0.49965 1.4467c-0.95359 2.761-2.845 4.9856-5.3974 6.3482-2.5843 1.3797 0.57396 1.2933-46.691 1.2778-36.83-0.012-43.148-0.0584-44.136-0.32386zm33.028-24.062c-1.2741-0.29801-2.2072-0.9772-2.8539-2.0774l-0.58608-0.99698-0.064-7.0763-0.064-7.0763-3.25-0.13375c-10.342-0.42565-21.369-3.7705-29.786-9.035-4.6568-2.9128-9.8462-7.4657-13.129-11.519-4.9941-6.1657-9.0708-14.22-11.522-22.764-1.7362-6.0514-3.2402-14.843-2.8115-16.435 0.86444-3.2103 4.6072-4.4578 7.1315-2.3771 0.47442 0.39105 1.1631 1.4254 1.872 2.8115 5.1088 9.9894 11.875 18.323 19.605 24.145 8.4634 6.3746 18.719 10.123 28.96 10.586l2.929 0.13223 0.0643-7.1414c0.0624-6.9252 0.0788-7.1686 0.5434-8.0377 1.1666-2.1825 3.8304-2.9951 5.9963-1.8293 0.38186 0.20556 6.704 6.3207 14.049 13.589 12.668 12.536 13.372 13.272 13.682 14.315 0.36222 1.2198 0.26681 2.1943-0.32937 3.3641-0.45355 0.88992-26.562 26.742-27.474 27.205-0.88593 0.4491-1.9853 0.5792-2.9626 0.35059zm-75.386-19.276c-3.6013-1.2323-6.1066-3.6859-7.3043-7.1535l-0.49965-1.4467v-91.723l0.49965-1.4467c0.95359-2.761 2.845-4.9856 5.3974-6.3482 2.5828-1.3789-0.55611-1.2919 46.592-1.2919 47.284 0 43.994-0.09402 46.673 1.3338 2.7967 1.4906 5.2138 4.9117 5.7045 8.0737 0.12662 0.81603 0.21631 6.5752 0.21726 13.951l2e-3 12.561h-8.9799v-12.625c0-14.013 0.0381-13.625-1.3971-14.224-0.62005-0.25908-6.8433-0.30387-42.219-0.30387-44.772 0-42.461-0.05846-43.268 1.094-0.31963 0.45633-0.34866 4.21-0.34866 45.088 0 40.061 0.0339 44.639 0.33369 45.067 0.78622 1.1225 0.70459 1.1154 12.819 1.1154h11.25l0.73406 0.55989 0.73406 0.5599v7.6463l-12.775-6e-3c-12.638-6e-3 -12.79-0.0106-14.165-0.48106z" fill="#808080" stroke-width=".21381"/></g></svg>
