<?xml version="1.0" encoding="UTF-8" standalone="no"?>
<!-- Created with Inkscape (http://www.inkscape.org/) -->

<svg
   width="86.722771mm"
   height="86.865784mm"
   viewBox="0 0 86.722771 86.865784"
   version="1.1"
   id="svg5"
   inkscape:version="1.1.2 (0a00cf5339, 2022-02-04)"
   sodipodi:docname="dash.svg"
   xmlns:inkscape="http://www.inkscape.org/namespaces/inkscape"
   xmlns:sodipodi="http://sodipodi.sourceforge.net/DTD/sodipodi-0.dtd"
   xmlns="http://www.w3.org/2000/svg"
   xmlns:svg="http://www.w3.org/2000/svg">
  <sodipodi:namedview
     id="namedview7"
     pagecolor="#ffffff"
     bordercolor="#666666"
     borderopacity="1.0"
     inkscape:pageshadow="2"
     inkscape:pageopacity="0.0"
     inkscape:pagecheckerboard="0"
     inkscape:document-units="mm"
     showgrid="false"
     inkscape:zoom="0.7198092"
     inkscape:cx="170.87862"
     inkscape:cy="314.66672"
     inkscape:window-width="1920"
     inkscape:window-height="1016"
     inkscape:window-x="0"
     inkscape:window-y="0"
     inkscape:window-maximized="1"
     inkscape:current-layer="layer1" />
  <defs
     id="defs2" />
  <g
     inkscape:label="Layer 1"
     inkscape:groupmode="layer"
     id="layer1"
     transform="translate(-59.996787,-65.111984)">
    <path
       style="fill:#000000;stroke-width:0.230876"
       d="M 98.349816,146.50386 C 86.635885,144.91353 76.440015,138.06321 70.519828,127.80571 64.07511,116.63936 63.862246,102.27636 69.974417,91.004827 c 3.047482,-5.619866 7.87003,-10.805003 13.173503,-14.163969 6.715368,-4.253181 15.4166,-6.404248 23.07775,-5.705128 5.57819,0.509031 9.24321,1.514094 13.91456,3.815824 7.78515,3.836 14.10864,10.299515 17.72025,18.112651 4.36643,9.446075 4.52719,21.216745 0.4199,30.743695 -6.75114,15.65942 -23.1413,24.97535 -39.930564,22.69596 z m 11.401004,-4.96352 c 13.3148,-2.67115 23.36302,-12.68375 26.2471,-26.1541 0.67593,-3.15702 0.73169,-9.41283 0.11121,-12.48293 -1.19917,-5.933931 -3.60844,-10.949486 -7.48998,-15.592492 -4.50864,-5.393122 -11.43189,-9.518598 -18.38349,-10.954489 -5.56092,-1.148641 -11.745794,-0.81419 -17.163349,0.928116 -3.989972,1.283187 -8.932737,4.205179 -12.394462,7.327182 -4.706921,4.244995 -8.582776,11.347002 -9.982529,18.291683 -0.624245,3.09712 -0.571174,9.34605 0.105983,12.48293 1.977856,9.16176 6.98478,16.51049 14.609901,21.44316 4.388937,2.83918 9.524983,4.66714 14.608516,5.19927 2.64337,0.27669 7.0098,0.0576 9.731,-0.48833 z m -8.40378,-9.22791 c -4.653324,-0.91364 -8.162702,-6.23683 -7.200548,-10.92212 0.614396,-2.99186 2.835423,-5.77463 5.485641,-6.87309 l 1.229967,-0.50978 V 99.497333 c 0,-15.974844 -0.0207,-15.730673 1.39512,-16.462811 1.0055,-0.519975 2.11067,-0.285262 2.86216,0.607845 l 0.59111,0.702496 v 14.82739 14.827387 l 0.86579,0.30291 c 4.18472,1.46411 6.84607,5.9157 6.09484,10.1947 -0.96389,5.49025 -5.88118,8.88386 -11.32408,7.81518 z m 3.85139,-4.72604 c 0.98175,-0.41011 2.03222,-1.33851 2.46781,-2.18108 0.8156,-1.57757 0.6007,-3.81341 -0.50725,-5.27755 -1.65576,-2.18803 -5.85876,-2.18803 -7.514507,0 -1.510496,1.99609 -1.316931,4.80304 0.446647,6.47692 1.36199,1.2927 3.41714,1.68773 5.1073,0.98171 z M 78.606676,112.24373 c -1.557933,-0.48299 -2.663658,-2.35649 -2.356659,-3.99296 0.566426,-3.0193 4.839804,-3.76305 6.335078,-1.10256 1.258225,2.2387 0.01817,4.80757 -2.501809,5.18254 -0.444449,0.0661 -1.108918,0.0269 -1.47661,-0.087 z m 47.638274,0.0209 c -1.12874,-0.35628 -1.60374,-0.73234 -2.06364,-1.6338 -0.61643,-1.20833 -0.59486,-2.50732 0.0577,-3.47572 1.42853,-2.11977 4.27965,-2.19105 5.8047,-0.14513 0.66941,0.89804 0.67458,2.87101 0.0102,3.76132 -0.98507,1.31942 -2.49012,1.90953 -3.80866,1.49333 z M 85.739741,95.606079 c -0.925372,-0.293846 -1.347193,-0.643954 -1.932362,-1.603859 -1.350123,-2.214754 0.324539,-5.075195 2.971294,-5.075195 2.650969,0 4.275343,2.763216 2.979631,5.068629 -0.787355,1.400912 -2.507488,2.090235 -4.018563,1.610425 z m 33.246109,0 c -0.92537,-0.293846 -1.34719,-0.643954 -1.93236,-1.603859 -1.35012,-2.214754 0.32454,-5.075195 2.97131,-5.075195 2.65095,0 4.27533,2.763216 2.97962,5.068629 -0.78736,1.400912 -2.50749,2.090235 -4.01857,1.610425 z"
       id="path1536" />
  </g>
</svg>
