<?xml version="1.0" encoding="UTF-8" standalone="no"?>
<!-- Created with Inkscape (http://www.inkscape.org/) -->

<svg
   width="142.97092mm"
   height="142.92366mm"
   viewBox="0 0 142.97092 142.92366"
   version="1.1"
   id="svg4044"
   inkscape:version="1.1.2 (0a00cf5339, 2022-02-04)"
   sodipodi:docname="eco.svg"
   xmlns:inkscape="http://www.inkscape.org/namespaces/inkscape"
   xmlns:sodipodi="http://sodipodi.sourceforge.net/DTD/sodipodi-0.dtd"
   xmlns="http://www.w3.org/2000/svg"
   xmlns:svg="http://www.w3.org/2000/svg">
  <sodipodi:namedview
     id="namedview4046"
     pagecolor="#ffffff"
     bordercolor="#666666"
     borderopacity="1.0"
     inkscape:pageshadow="2"
     inkscape:pageopacity="0.0"
     inkscape:pagecheckerboard="0"
     inkscape:document-units="mm"
     showgrid="false"
     inkscape:zoom="0.7198092"
     inkscape:cx="370.93163"
     inkscape:cy="393.85437"
     inkscape:window-width="1920"
     inkscape:window-height="1016"
     inkscape:window-x="0"
     inkscape:window-y="0"
     inkscape:window-maximized="1"
     inkscape:current-layer="layer1" />
  <defs
     id="defs4041" />
  <g
     inkscape:label="Layer 1"
     inkscape:groupmode="layer"
     id="layer1"
     transform="translate(-6.8078617,-43.956485)">
    <path
       style="fill:#808080;stroke-width:0.174495"
       d="M 74.979879,186.81268 C 59.748797,186.24542 44.434902,180.28943 32.42462,170.26334 13.78637,154.70439 4.3214894,130.56988 7.3715745,106.38064 8.5619891,96.939869 11.876541,87.30639 16.794581,78.993445 25.54711,64.199031 39.465959,52.992064 55.799601,47.587923 c 26.057485,-8.621346 54.685509,-1.612717 73.760579,18.05772 8.75259,9.025864 14.87845,19.968532 17.98134,32.120279 2.68287,10.506748 2.95158,21.003998 0.81278,31.751878 -5.20355,26.14887 -24.73053,47.33143 -50.341135,54.60931 -7.806015,2.21834 -14.532057,3.00253 -23.033286,2.68557 z m 30.536551,-29.10177 c 2.63923,-0.0719 4.9353,-0.18936 5.10237,-0.26366 0.68471,-0.30121 0.82939,-2.38364 0.20174,-2.90457 -0.40772,-0.33796 -4.32439,-0.48258 -13.505377,-0.49776 -4.462693,-0.005 -8.644021,-0.0639 -9.291832,-0.12464 l -1.177839,-0.11105 7.03e-4,-31.25292 c 5.19e-4,-29.346105 0.06312,-35.938232 0.342517,-36.390927 0.127596,-0.206933 1.990182,0.02397 9.864853,1.206043 8.197785,1.233367 15.699345,2.471208 15.848405,2.615102 0.2325,0.223711 -3.16606,7.702293 -9.19765,20.237622 -3.32074,6.90157 -4.281615,8.65642 -5.46698,9.98487 -0.504309,0.56567 -1.048981,1.28114 -1.210357,1.59106 -0.833092,1.59954 0.331172,6.34693 2.363747,9.63852 3.59922,5.82871 10.11285,9.50133 16.86181,9.50724 3.28818,0.003 5.93731,-0.63678 8.88475,-2.14451 5.16272,-2.64139 8.8663,-7.22739 10.29589,-12.74898 0.72754,-2.80997 0.52228,-4.21224 -0.80981,-5.53517 -0.98982,-0.98305 -1.43998,-1.68686 -2.93044,-4.58136 l -1.42284,-2.76315 0.94089,-0.98849 c 1.14396,-1.20173 1.59466,-1.86839 1.47462,-2.18126 -0.091,-0.23729 -2.81014,-1.2118 -3.97702,-1.42544 -0.72626,-0.13263 -0.34995,0.53771 -3.86657,-6.89166 -3.48868,-7.370322 -4.87018,-10.458095 -4.75931,-10.637463 0.0535,-0.08629 0.53787,-0.211726 1.07684,-0.27884 1.10612,-0.138221 1.52878,-0.460205 1.77508,-1.352253 0.22155,-0.802324 0.0711,-1.482406 -0.39685,-1.78873 -0.45149,-0.295619 -2.91584,-0.723866 -12.48445,-2.170477 C 93.877283,83.013134 87.515035,81.991893 87.183359,81.786878 87.028999,81.6918 86.924653,80.021557 86.800254,75.661109 l -0.170979,-5.994739 -0.67369,-0.95972 c -1.345846,-1.917044 -2.807311,-2.700433 -5.04284,-2.70291 -1.269552,-0.0014 -1.625013,0.07191 -2.467621,0.481778 -1.10244,0.541701 -2.198105,1.632053 -2.783613,2.770982 -0.4185,0.814228 -0.625832,3.080262 -0.691986,7.564231 -0.01678,1.151633 -0.08285,2.329552 -0.146451,2.61742 -0.111776,0.505747 -0.144534,0.520927 -0.982707,0.467396 -0.476904,-0.03196 -5.617705,-0.760617 -11.424015,-1.621745 -22.27322,-3.304773 -22.199707,-3.296383 -22.925817,-2.615982 -0.585723,0.548891 -0.866737,1.404506 -0.649162,1.976647 0.217879,0.57286 1.003832,1.182233 1.525007,1.182233 0.226987,0 0.412667,0.0799 0.412667,0.175773 0,0.09668 -0.912629,1.999898 -2.028077,4.229099 -1.115447,2.229441 -3.557613,7.234497 -5.427039,11.122596 -5.707485,11.870832 -6.881865,14.104582 -8.171184,15.542572 -1.396189,1.55695 -1.597097,2.16568 -1.331912,4.03502 0.386621,2.72529 1.873181,6.21022 3.684546,8.63765 2.581666,3.45985 6.758192,6.32863 10.743494,7.37943 1.842708,0.48577 5.524673,0.65515 7.864651,0.36193 8.151042,-1.02268 15.172638,-7.76733 16.580739,-15.92687 0.379989,-2.20188 0.196546,-2.88068 -1.210229,-4.47933 -1.347364,-1.53107 -2.535022,-3.71896 -6.403402,-11.796131 -5.51781,-11.52136 -8.490691,-17.996438 -8.334293,-18.152876 0.126157,-0.125438 26.356554,3.688117 27.841021,4.048531 l 0.392613,0.09508 v 34.867446 34.86745 l -0.916105,0.0983 c -0.503829,0.0559 -5.666706,0.13023 -11.473015,0.16938 -5.806302,0.04 -10.775868,0.12783 -11.043474,0.19734 -0.829058,0.21572 -1.240502,1.45093 -0.802908,2.41137 0.36425,0.79961 0.805864,0.87335 5.913564,0.98816 6.929267,0.1558 43.200817,0.16379 48.858483,0.008 z m -5.49422,-35.30377 c 0.0623,-0.21652 1.86557,-3.96544 4.00743,-8.33212 2.14186,-4.36676 4.30079,-8.84258 4.79762,-9.9462 2.26696,-5.035972 4.67657,-9.158967 6.70268,-11.468784 l 0.95293,-1.086437 0.59244,0.824695 c 0.76285,1.061988 2.44272,3.713844 3.60707,5.694406 0.96599,1.643078 5.24995,10.11134 5.24995,10.37772 0,0.0855 -0.26557,0.20613 -0.59011,0.26765 -0.69678,0.13023 -1.92174,0.9753 -2.21832,1.52955 -0.11505,0.21492 -0.26941,0.98912 -0.34315,1.72041 -0.15564,1.54465 -0.61944,2.856 -0.85969,2.43119 -0.28459,-0.50335 -1.04899,-3.80917 -1.04899,-4.53679 0,-2.13308 -1.81491,-3.26881 -4.93921,-3.09088 -1.78165,0.10146 -4.23582,0.78858 -4.71698,1.31997 -0.27253,0.30121 -0.25687,0.36992 0.2607,1.15179 1.06718,1.6112 3.45262,3.26251 5.0613,3.5038 0.9638,0.14461 2.74681,-0.18936 2.88123,-0.5401 0.1534,-0.40029 -0.41195,-1.08708 -1.60645,-1.95332 -0.61273,-0.44423 -1.08364,-0.83828 -1.0465,-0.87551 0.0368,-0.0399 0.31935,-0.008 0.62711,0.0559 1.21984,0.26765 2.76504,2.48766 3.39943,4.88337 0.55824,2.10808 0.51118,5.48412 -0.10866,7.80864 l -0.17457,0.65435 h -10.3002 -10.300201 z m 22.87622,0.11905 c -0.21373,-0.55689 -0.10906,-6.42171 0.13047,-7.31743 0.55696,-2.08196 1.73612,-3.56268 3.13909,-3.94195 0.3696,-0.0999 0.70876,-0.14462 0.75383,-0.0999 0.0447,0.0479 -0.25735,0.31798 -0.67202,0.60641 -1.08214,0.75263 -2.12686,1.88205 -2.01359,2.17727 0.11449,0.29802 1.39816,0.64796 2.38043,0.64796 0.38742,0 1.02336,-0.12703 1.41318,-0.28363 0.38981,-0.1558 0.72842,-0.25407 0.75255,-0.21812 0.0248,0.04 0.64292,1.32189 1.37522,2.85743 1.52207,3.19156 1.93093,4.33321 1.85106,5.16869 l -0.0567,0.58964 -4.47345,0.0479 c -3.96526,0.04 -4.48561,0.016 -4.58048,-0.2325 z M 26.993874,112.21398 c 0,-0.33476 16.138726,-31.077702 16.517956,-31.464802 0.324301,-0.330773 4.602288,7.511419 8.136772,14.916656 2.106591,4.413496 7.45228,16.266916 7.45228,16.524336 0,0.0799 -7.224087,0.13982 -16.053508,0.13982 -8.829422,0 -16.0535,-0.0559 -16.0535,-0.11585 z"
       id="path3757" />
  </g>
</svg>
