<?xml version="1.0" encoding="UTF-8"?>
<!-- Created with Inkscape (http://www.inkscape.org/) -->
<svg width="75.08mm" height="36.458mm" version="1.1" viewBox="0 0 75.08 36.458" xml:space="preserve" xmlns="http://www.w3.org/2000/svg"><g transform="translate(-61.577 -49.632)"><path d="m95.441 85.164v-0.92604h-16.422c-16.252 0-17.448-0.0596-17.443-0.86921 0.0038-0.56106 12.114-27.026 12.412-27.126 0.15709-0.0524 0.28562 0.07 0.28562 0.27183 0 0.20186-1.4946 3.8134-3.3213 8.0257-6.2874 14.499-6.9975 16.18-6.9975 16.574 0 0.21729 0.25034 0.62189 0.55631 0.89911 0.44899 0.40679 1.0537 0.52133 3.1348 0.59371 3.1009 0.10785 5.6696-0.3287 11.522-1.9582 7.4952-2.0868 9.4628-2.3342 12.426-1.5623 2.1362 0.5564 3.7162 1.4682 5.7941 3.3436l1.7639 1.592 1.6433-1.5214c2.8796-2.666 6.72-4.0539 10.255-3.7058 0.94589 0.0931 4.2201 0.80998 7.276 1.593 7.9286 2.0316 9.5794 2.3256 12.463 2.2201 2.1456-0.0786 2.5515-0.16956 3.0698-0.68828 0.59212-0.59254 0.59333-0.60902 0.13856-1.8894-0.25232-0.71043-2.6016-6.1965-5.2206-12.191-2.619-5.9948-4.7618-11.068-4.7618-11.274 0-0.80971 0.58981-0.30432 1.1847 1.0152 0.34447 0.76398 3.0797 6.8043 6.0784 13.423 2.9986 6.6186 5.4182 12.209 5.3769 12.424-0.0413 0.2145-0.37213 0.47265-0.73517 0.57366-0.36304 0.10102-7.9526 0.19554-16.866 0.21004l-16.206 0.0264v1.8521h-7.4083zm2.249-4.8249c-2.7574-3.1022-6.0433-4.8971-8.9958-4.914-1.2964-7e-3 -2.679 0.36135-7.5406 2.0111-6.8298 2.3176-9.8243 3.0931-11.953 3.0957-1.4512 2e-3 -2.334-0.41022-2.334-1.0893 0-0.22759 2.8981-7.9399 8.3147-22.127l1.6418-4.3002 3.0254-0.092c3.137-0.0954 4.1754-0.3597 10.434-2.6555 2.9376-1.0776 4.4018-0.84916 7.5697 1.1811l1.2197 0.78169 2.0177-1.2329c3.0158-1.8428 3.4811-1.8332 9.4336 0.19483 4.8433 1.6501 4.9261 1.6678 7.8672 1.6798 2.9249 0.012 2.9762 0.0227 3.2139 0.67361 0.13285 0.3638 2.2937 6.0193 4.8019 12.568 2.885 7.5322 4.5717 12.292 4.5913 12.956 0.0262 0.88759-0.077 1.1019-0.669 1.3902-1.5164 0.73848-5.2694-0.2042-14.514-3.6456-2.8052-1.0443-3.2494-1.1344-5.691-1.154-2.4864-0.02-2.7577 0.0325-4.4396 0.85906-1.2032 0.59128-2.5603 1.6121-4.1332 3.1089-1.288 1.2257-2.3858 2.2219-2.4395 2.2139-0.05376-8e-3 -0.69306-0.68438-1.4207-1.503zm-20.19-3.8913c5.0372-1.9885 8.302-2.9772 10.614-3.214 2.8583-0.29283 6.4743 0.77895 8.4344 2.5 0.52073 0.45721 1.0204 0.83129 1.1103 0.83129 0.08993 0 0.16351-5.0125 0.16351-11.139v-11.139l-0.87588-0.87587c-1.0406-1.0406-2.7513-1.5682-4.4158-1.362-0.65484 0.0811-2.6202 0.67965-4.3676 1.33-3.4547 1.2859-6.854 1.9087-8.9307 1.6362-1.1971-0.15707-1.274-0.12866-1.548 0.57182-2.0395 5.2154-7.4688 20.282-7.57 21.008-0.10999 0.78852-0.02374 1.0348 0.49194 1.4049 0.89744 0.64402 1.905 0.41715 6.8937-1.5522zm50.691 1.2433c0.4669-0.62691 0.35845-1.007-2.4971-8.7508-1.3781-3.7372-3.0986-8.4024-3.8233-10.367l-1.3177-3.5719-2.8324-0.0491c-2.9982-0.052-3.9642-0.27334-8.9179-2.0434-1.4552-0.51999-3.0961-0.94649-3.6465-0.94779-1.2549-3e-3 -2.7499 0.61045-3.6957 1.5164l-0.72761 0.69693v22.416l0.99219-0.79345c1.3439-1.0747 3.6311-2.0847 5.5181-2.4367 3.0268-0.56459 5.9514 0.0812 13.333 2.9441 2.5466 0.98763 4.8683 1.8575 5.1594 1.933 0.8507 0.22079 2.0891-0.0546 2.455-0.54589z" fill="#666" stroke-width=".26458"/></g></svg>
