<?xml version="1.0" encoding="UTF-8" standalone="no"?>
<!-- Created with Inkscape (http://www.inkscape.org/) -->

<svg
   width="86.722771mm"
   height="86.865784mm"
   viewBox="0 0 86.722771 86.865784"
   version="1.1"
   id="svg5"
   inkscape:version="1.1.2 (0a00cf5339, 2022-02-04)"
   sodipodi:docname="pdf.svg"
   xmlns:inkscape="http://www.inkscape.org/namespaces/inkscape"
   xmlns:sodipodi="http://sodipodi.sourceforge.net/DTD/sodipodi-0.dtd"
   xmlns="http://www.w3.org/2000/svg"
   xmlns:svg="http://www.w3.org/2000/svg">
  <sodipodi:namedview
     id="namedview7"
     pagecolor="#ffffff"
     bordercolor="#666666"
     borderopacity="1.0"
     inkscape:pageshadow="2"
     inkscape:pageopacity="0.0"
     inkscape:pagecheckerboard="0"
     inkscape:document-units="mm"
     showgrid="false"
     inkscape:zoom="0.7198092"
     inkscape:cx="170.87862"
     inkscape:cy="314.66672"
     inkscape:window-width="1920"
     inkscape:window-height="1016"
     inkscape:window-x="0"
     inkscape:window-y="0"
     inkscape:window-maximized="1"
     inkscape:current-layer="layer1" />
  <defs
     id="defs2" />
  <g
     inkscape:label="Layer 1"
     inkscape:groupmode="layer"
     id="layer1"
     transform="translate(-59.996787,-65.111984)">
    <path
       style="fill:#808080;stroke-width:0.25343"
       d="m 80.071298,150.37871 c -2.773195,-0.61762 -5.39437,-2.56706 -6.814598,-5.06819 -1.331914,-2.34563 -1.295401,-1.32094 -1.292164,-36.25805 0.0029,-26.678191 0.06485,-32.681292 0.350515,-33.754301 1.076562,-4.04329 4.349839,-7.031464 8.435246,-7.700558 1.95234,-0.319739 30.930173,-0.315237 32.886473,0.0048 3.01152,0.493147 3.73951,1.050307 11.58155,8.863815 7.33329,7.306616 7.94573,8.052242 8.72631,10.624059 0.53836,1.773817 0.53196,53.753665 -0.007,55.822445 -0.99554,3.82217 -4.22525,6.82329 -8.11729,7.54277 -2.21913,0.41023 -43.876177,0.34002 -45.74914,-0.0771 z m 45.515002,-5.0889 c 0.74375,-0.22087 1.58482,-0.71223 2.06058,-1.20379 1.68463,-1.74057 1.58987,-0.0146 1.58987,-28.96134 0,-23.027273 -0.0477,-26.361872 -0.38931,-27.188531 -0.48544,-1.174818 -13.21599,-14.031139 -14.68977,-14.834896 -1.00525,-0.548233 -1.14192,-0.553521 -16.34626,-0.632897 -10.895513,-0.0569 -15.722169,0.0048 -16.678981,0.211818 -1.601069,0.347047 -2.96168,1.436846 -3.629653,2.907217 -0.438694,0.965682 -0.46151,2.619269 -0.46151,33.454959 0,30.83569 0.0228,32.48928 0.46151,33.45496 0.544574,1.19874 2.040126,2.58888 3.01667,2.80406 0.380763,0.0839 0.806334,0.19059 0.94572,0.23709 0.139386,0.0466 9.840905,0.0936 21.558924,0.10454 18.0659,0.017 21.49658,-0.0368 22.56221,-0.35319 z m -23.51434,-20.8332 c -0.44579,-0.1176 -13.279077,-14.15928 -13.818555,-15.11971 -0.82256,-1.46439 -0.06858,-3.94369 1.476903,-4.85629 0.827206,-0.48848 1.313409,-0.50687 13.403142,-0.50687 12.08972,0 12.57593,0.0184 13.40313,0.50687 1.60011,0.94487 2.29246,3.36339 1.43398,5.00916 -0.5878,1.12682 -13.29306,14.81948 -13.90248,14.98292 -0.60995,0.16357 -1.33741,0.15771 -1.99612,-0.0161 z m 5.32932,-10.83211 c 2.25245,-2.42805 4.09536,-4.48083 4.09536,-4.56175 0,-0.0809 -3.76343,-0.14711 -8.36319,-0.14711 -4.599767,0 -8.363203,0.0662 -8.363203,0.14711 0,0.21711 8.160923,8.97637 8.363203,8.97637 0.0948,0 2.01538,-1.98658 4.26783,-4.41462 z"
       id="path1154" />
  </g>
</svg>
