<?xml version="1.0" encoding="UTF-8" standalone="no"?>
<!-- Created with Inkscape (http://www.inkscape.org/) -->

<svg
   width="32.792198mm"
   height="50.25412mm"
   viewBox="0 0 32.792198 50.25412"
   version="1.1"
   id="svg31694"
   xml:space="preserve"
   inkscape:version="1.2.2 (b0a8486541, 2022-12-01)"
   sodipodi:docname="publishing.svg"
   xmlns:inkscape="http://www.inkscape.org/namespaces/inkscape"
   xmlns:sodipodi="http://sodipodi.sourceforge.net/DTD/sodipodi-0.dtd"
   xmlns="http://www.w3.org/2000/svg"
   xmlns:svg="http://www.w3.org/2000/svg"><sodipodi:namedview
     id="namedview31696"
     pagecolor="#ffffff"
     bordercolor="#000000"
     borderopacity="0.25"
     inkscape:showpageshadow="2"
     inkscape:pageopacity="0.0"
     inkscape:pagecheckerboard="0"
     inkscape:deskcolor="#d1d1d1"
     inkscape:document-units="mm"
     showgrid="false"
     inkscape:zoom="0.2102413"
     inkscape:cx="-294.89924"
     inkscape:cy="594.55492"
     inkscape:window-width="1503"
     inkscape:window-height="934"
     inkscape:window-x="0"
     inkscape:window-y="0"
     inkscape:window-maximized="1"
     inkscape:current-layer="layer1" /><defs
     id="defs31691" /><g
     inkscape:label="Layer 1"
     inkscape:groupmode="layer"
     id="layer1"
     transform="translate(-182.12024,-114.77352)"><path
       style="fill:#666666;stroke-width:0.264583"
       d="m 182.53212,164.43434 c -0.34926,-0.49864 -0.41188,-1.72809 -0.41188,-8.08718 0,-4.66338 0.10358,-7.69267 0.2739,-8.01092 0.15491,-0.28946 0.55193,-0.51178 0.91395,-0.51178 0.60497,0 0.64435,-0.0964 0.71829,-1.75831 0.0582,-1.30896 0.19333,-1.83061 0.52857,-2.04117 0.74249,-0.46634 0.85162,0.007 0.38695,1.67826 -0.24222,0.87124 -0.44041,1.70493 -0.44041,1.85265 0,0.17782 4.11265,0.26857 12.17083,0.26857 9.20074,0 12.17084,-0.0765 12.17084,-0.31337 0,-0.17235 -0.1952,-1.00903 -0.43376,-1.85929 -0.47955,-1.70908 -0.40701,-1.98147 0.4111,-1.54363 0.47202,0.25262 0.55182,0.5427 0.55182,2.00581 0,1.64162 0.0262,1.71048 0.65216,1.71048 0.37397,0 0.76898,0.2183 0.92604,0.51178 0.17074,0.31904 0.27389,3.40227 0.27389,8.18708 0,7.63151 -0.003,7.67766 -0.58804,8.08718 -0.32342,0.22654 -0.83271,0.41188 -1.13175,0.41188 -0.29905,0 -0.80834,-0.18534 -1.13176,-0.41188 -0.56921,-0.39869 -0.58804,-0.55874 -0.58804,-4.99877 0,-3.83317 -0.0652,-4.61193 -0.39687,-4.7392 -0.30071,-0.11539 -0.39688,-0.60308 -0.39688,-2.01268 v -1.86039 h -10.31875 -10.31874 v 1.86039 c 0,1.4096 -0.0962,1.89729 -0.39688,2.01268 -0.33227,0.12751 -0.39687,0.92136 -0.39687,4.87718 0,4.40057 -0.0351,4.74369 -0.51177,4.99878 -0.88672,0.47455 -2.06671,0.32722 -2.51594,-0.31415 z m 2.41826,-17.0729 c -0.0613,-0.10914 0.31267,-1.65695 0.83111,-3.43958 l 0.94262,-3.24115 h 0.87307 c 0.51896,0 0.87542,-0.13413 0.87887,-0.33073 0.003,-0.1819 0.23993,-0.84664 0.52608,-1.47719 0.47459,-1.04584 0.55703,-1.1097 0.93913,-0.72761 0.36093,0.36094 1.38454,0.41887 7.40122,0.41887 h 6.98236 l 0.28498,1.05833 c 0.2494,0.92617 0.38088,1.05833 1.05292,1.05833 0.42237,0 0.85259,0.13698 0.95606,0.30439 0.3219,0.52084 1.89462,6.16684 1.77616,6.37634 -0.0617,0.10914 -5.3369,0.19844 -11.72264,0.19844 -6.38574,0 -11.66061,-0.0893 -11.72194,-0.19844 z m 20.35494,-2.16185 c -0.0912,-0.57055 -0.4135,-2.11286 -0.71616,-3.42736 l -0.55028,-2.38999 -6.92442,-0.0784 c -3.80844,-0.0431 -7.10004,-0.1379 -7.31467,-0.21066 -0.30235,-0.10249 -0.58037,0.58279 -1.23443,3.04271 -0.4643,1.74625 -0.85424,3.38336 -0.86653,3.63802 -0.0209,0.43224 0.56922,0.46302 8.87502,0.46302 h 8.89736 z m -20.87834,-2.19613 c -0.42877,-0.31462 -0.45627,-1.20198 -0.39175,-12.6415 l 0.0694,-12.30312 h 1.05833 c 1.00062,0 1.06286,0.0469 1.14124,0.85989 l 0.0829,0.8599 h 4.36776 c 3.96835,0 4.32979,-0.038 3.95251,-0.41525 -0.445,-0.445 -0.2028,-1.28751 0.43086,-1.49873 0.224,-0.0747 0.14781,-0.33208 -0.24677,-0.8337 -0.68181,-0.86677 -0.59255,-1.20206 0.48353,-1.81638 1.47539,-0.84229 2.35567,-0.46386 2.35567,1.0127 0,0.46241 0.17859,0.98895 0.39687,1.17011 0.50252,0.41705 0.51461,1.29435 0.0205,1.48397 -0.20704,0.0794 -0.44142,0.31383 -0.52087,0.52086 -0.12159,0.31687 0.60507,0.37642 4.593,0.37642 h 4.73743 l 0.0829,-0.8599 c 0.0784,-0.813 0.14062,-0.85989 1.14124,-0.85989 h 1.05833 l 0.0714,5.62239 0.0714,5.6224 h 2.47588 c 2.57587,0 3.3175,0.29592 2.97546,1.18726 -0.23154,0.60336 -15.98386,0.60336 -16.21539,0 -0.0845,-0.22014 -0.007,-0.57733 0.17299,-0.79375 0.20421,-0.24606 0.22198,-0.39351 0.0474,-0.39351 -0.44024,0 -0.65653,1.04347 -0.30427,1.46791 0.17536,0.21129 0.49277,0.38417 0.70536,0.38417 0.21259,0 0.33692,0.14883 0.27629,0.33073 -0.0788,0.23636 -0.89665,0.33073 -2.86632,0.33073 h -2.75608 v -1.5875 -1.5875 l 2.71671,-0.0754 c 2.24589,-0.0624 2.74373,-0.005 2.87258,0.33073 0.12996,0.33866 0.77788,0.40625 3.89787,0.40661 l 3.74201,4.3e-4 -0.0801,-3.7046 -0.0801,-3.70459 h -10.3048 -10.3048 l -0.0201,9.72343 c -0.0206,9.94268 -0.16069,11.47271 -1.06675,11.64932 -0.20821,0.0406 -0.58609,-0.0785 -0.83972,-0.26459 z m 23.02992,-0.40452 c -0.19681,-0.45483 -0.35045,-2.73619 -0.40983,-6.08541 l -0.095,-5.35782 h 1.21013 1.21012 v 5.81153 c 0,5.47489 -0.0296,5.82739 -0.51177,6.08542 -0.78989,0.42273 -1.06256,0.33459 -1.40365,-0.45372 z m -19.07115,-6.85341 c -0.30751,-0.30751 -0.19757,-2.879 0.13741,-3.21398 0.50334,-0.50334 15.91297,-0.44872 16.33342,0.0579 0.17948,0.21625 0.27734,0.97339 0.23084,1.78594 l -0.0807,1.41054 -8.22043,0.0699 c -4.52124,0.0384 -8.30147,-0.0112 -8.40052,-0.11024 z m 6.56678,-8.1648 c -0.29104,-0.35206 -0.51726,-0.76327 -0.50271,-0.91381 0.0677,-0.70077 0.13168,-0.80287 0.50271,-0.80287 0.54983,0 0.49593,-0.45207 -0.15211,-1.27593 l -0.549,-0.69793 0.57754,-0.46766 c 0.33326,-0.26986 0.51302,-0.63578 0.42501,-0.86515 -0.24045,-0.6266 2.25623,-0.55048 2.83256,0.0864 0.58527,0.64672 0.55186,0.99381 -0.14247,1.48014 l -0.58035,0.40649 0.58035,0.61775 c 0.71691,0.76312 0.7172,0.83241 0.006,1.49489 -0.55764,0.51952 -0.56027,0.55041 -0.0913,1.06864 0.47873,0.529 0.47046,0.53355 -0.94712,0.52142 -1.18198,-0.0101 -1.52187,-0.12328 -1.95924,-0.65233 z"
       id="path31710" /></g></svg>
