<?xml version="1.0" encoding="UTF-8"?>
<!-- Created with Inkscape (http://www.inkscape.org/) -->
<svg width="77.685mm" height="77.685mm" version="1.1" viewBox="0 0 77.685 77.685" xmlns="http://www.w3.org/2000/svg">
 <g transform="translate(-49.844 -80.168)">
  <g fill="#808080" stroke-width="1.5816" aria-label="i">
   <g stroke-linecap="round" stroke-width="14.166" aria-label="?">
    <path d="m94.391 102.62q0-3.2592-1.6128-5.1408-1.5792-1.8816-4.4016-1.8816-2.184 0-3.864 1.2096-1.6464 1.176-2.52 3.4272-0.3024 0.7728-0.7056 2.352-0.9072 3.8304-3.024 3.8304-0.9744 0-1.6128-0.7728-0.6384-0.8064-0.6384-2.0496 0-4.5024 3.7632-7.728 3.7968-3.2256 9.4416-3.2256 5.4096 0 8.6688 3.0576 3.2928 3.024 3.2928 8.0304 0 2.8224-1.0752 5.1072-1.0416 2.2512-3.9984 5.208-0.2688 0.3024-0.9072 0.84-3.2928 2.9904-4.2 6.6864-0.3024 1.2432-0.336 3.2592 0 1.9824-0.1344 2.52-0.2016 0.9072-0.672 1.3776-0.4368 0.4704-1.1088 0.4704-0.84 0-1.2768-0.9744-0.4032-1.008-0.4032-3.024 0-3.4608 0.5376-5.9136 0.5712-2.4528 1.8144-4.6704 0.4368-0.8064 1.4448-2.4192 3.528-5.6112 3.528-9.576zm-9.576 38.472q0-1.5456 1.0752-2.6544 1.1088-1.1088 2.7216-1.1088 1.5456 0 2.6208 1.1088 1.0752 1.1088 1.0752 2.7216 0 1.512-1.1424 2.6208-1.1088 1.1088-2.7216 1.1088-1.5456 0-2.5872-1.0752-1.0416-1.0752-1.0416-2.7216z"/>
   </g>
  </g>
  <circle cx="88.687" cy="119.01" r="37.222" fill="none" stop-color="#000000" stroke="#808080" stroke-width="2"/>
 </g>
</svg>
