<?xml version="1.0" encoding="UTF-8" standalone="no"?>
<!-- Created with Inkscape (http://www.inkscape.org/) -->

<svg
   width="86.722771mm"
   height="86.865784mm"
   viewBox="0 0 86.722771 86.865784"
   version="1.1"
   id="svg5"
   inkscape:version="1.1.2 (0a00cf5339, 2022-02-04)"
   sodipodi:docname="reader.svg"
   xmlns:inkscape="http://www.inkscape.org/namespaces/inkscape"
   xmlns:sodipodi="http://sodipodi.sourceforge.net/DTD/sodipodi-0.dtd"
   xmlns="http://www.w3.org/2000/svg"
   xmlns:svg="http://www.w3.org/2000/svg">
  <sodipodi:namedview
     id="namedview7"
     pagecolor="#ffffff"
     bordercolor="#666666"
     borderopacity="1.0"
     inkscape:pageshadow="2"
     inkscape:pageopacity="0.0"
     inkscape:pagecheckerboard="0"
     inkscape:document-units="mm"
     showgrid="false"
     inkscape:zoom="0.7198092"
     inkscape:cx="170.87862"
     inkscape:cy="314.66672"
     inkscape:window-width="1920"
     inkscape:window-height="1016"
     inkscape:window-x="0"
     inkscape:window-y="0"
     inkscape:window-maximized="1"
     inkscape:current-layer="layer1" />
  <defs
     id="defs2" />
  <g
     inkscape:label="Layer 1"
     inkscape:groupmode="layer"
     id="layer1"
     transform="translate(-59.996787,-65.111984)">
    <path
       style="fill:#000000;stroke-width:0.240092"
       d="m 97.834234,146.9725 c -8.093099,-3.14783 -13.707965,-4.38045 -24.381912,-5.35252 -4.313431,-0.39283 -5.461663,-0.75069 -7.069548,-2.20331 -0.549071,-0.49606 -1.287025,-1.44897 -1.639909,-2.11761 l -0.641602,-1.2157 -0.06679,-15.58366 c -0.06016,-14.04695 -0.02713,-15.70305 0.335333,-16.79437 0.859414,-2.58746 3.875903,-4.701304 7.009804,-4.91221 2.80217,-0.188583 10.890533,0.770114 16.90262,2.00345 4.901286,1.00545 8.741244,2.26312 12.97334,4.24903 l 2.1008,0.98581 2.10082,-0.99041 c 6.55984,-3.09258 13.20522,-4.72978 24.13812,-5.946829 6.35499,-0.707437 9.00269,-0.173275 11.29652,2.279019 1.91742,2.04987 1.86216,1.45835 1.78643,19.12651 l -0.0668,15.58366 -0.64161,1.2157 c -0.35287,0.66864 -1.09084,1.62155 -1.63991,2.11761 -1.5912,1.43756 -2.76801,1.81062 -6.94994,2.20313 -11.24347,1.05533 -15.20799,1.93489 -25.22178,5.59565 -1.86379,0.68136 -2.29066,0.74569 -4.92189,0.74182 -2.79493,-0.005 -2.95651,-0.0336 -5.402081,-0.98477 z m 3.121206,-20.37011 V 110.2788 l -1.860723,-0.93466 c -5.321411,-2.67301 -14.507743,-4.80521 -24.108012,-5.59558 -3.287466,-0.27066 -3.586121,-0.26004 -4.519165,0.1607 -1.791386,0.8078 -1.684881,-0.20352 -1.680942,15.96128 0.0027,11.05587 0.0745,14.67023 0.300116,15.10926 0.617827,1.20218 1.307687,1.45545 4.983726,1.82967 11.005378,1.12036 20.37808,3.1584 25.324393,5.50664 0.660247,0.31345 1.281497,0.57891 1.380527,0.5899 0.099,0.011 0.18008,-7.32563 0.18008,-16.30362 z m 8.49568,14.88579 c 5.73178,-2.29412 13.08104,-3.80124 22.6906,-4.65322 4.1895,-0.37143 4.83374,-0.58936 5.48426,-1.85516 0.37389,-0.72752 0.43948,-28.87962 0.0695,-29.8526 -0.12875,-0.33867 -0.58793,-0.84015 -1.02039,-1.11443 -0.72072,-0.45708 -1.02649,-0.48702 -3.66739,-0.35896 -8.67768,0.42077 -19.90049,2.92949 -25.34012,5.66449 l -1.91034,0.9605 v 16.34928 c 0,12.9863 0.0617,16.32348 0.30011,16.2238 0.16507,-0.0691 1.69224,-0.68269 3.39372,-1.3637 z M 99.853632,98.152643 c -5.10662,-1.1111 -9.584216,-5.602452 -10.796486,-10.829635 -1.818918,-7.843037 2.64708,-15.516739 10.337687,-17.762714 1.953907,-0.570623 5.969137,-0.570623 7.923047,0 5.07279,1.48147 9.05268,5.557779 10.32189,10.571978 0.45925,1.814335 0.46003,5.326828 0.002,7.271099 -0.61504,2.608532 -1.72919,4.548312 -3.8598,6.720113 -1.59994,1.630862 -2.29355,2.142274 -3.96153,2.920926 -1.1121,0.519162 -2.66307,1.061056 -3.44662,1.204213 -1.87145,0.34193 -4.69847,0.300315 -6.519808,-0.09598 z m 7.508878,-5.391582 c 3.53491,-1.654183 5.8427,-5.166956 5.83478,-8.881335 -0.0169,-7.907801 -8.69102,-12.594452 -15.281568,-8.256619 -5.263117,3.464135 -5.906833,10.973626 -1.309302,15.274081 1.307605,1.223114 3.186505,2.258335 4.67435,2.575456 1.77331,0.377956 4.4136,0.06906 6.08174,-0.711583 z"
       id="path854" />
  </g>
</svg>
