<?xml version="1.0" encoding="UTF-8" standalone="no"?>
<!-- Created with Inkscape (http://www.inkscape.org/) -->

<svg
   width="59.496243mm"
   height="68.399086mm"
   viewBox="0 0 59.496243 68.399086"
   version="1.1"
   id="svg5"
   xml:space="preserve"
   inkscape:version="1.2.2 (b0a8486541, 2022-12-01)"
   sodipodi:docname="save.svg"
   xmlns:inkscape="http://www.inkscape.org/namespaces/inkscape"
   xmlns:sodipodi="http://sodipodi.sourceforge.net/DTD/sodipodi-0.dtd"
   xmlns="http://www.w3.org/2000/svg"
   xmlns:svg="http://www.w3.org/2000/svg"><sodipodi:namedview
     id="namedview7"
     pagecolor="#ffffff"
     bordercolor="#000000"
     borderopacity="0.25"
     inkscape:showpageshadow="2"
     inkscape:pageopacity="0.0"
     inkscape:pagecheckerboard="0"
     inkscape:deskcolor="#d1d1d1"
     inkscape:document-units="mm"
     showgrid="false"
     inkscape:zoom="0.2102413"
     inkscape:cx="-71.34659"
     inkscape:cy="390.02803"
     inkscape:window-width="1503"
     inkscape:window-height="934"
     inkscape:window-x="0"
     inkscape:window-y="0"
     inkscape:window-maximized="1"
     inkscape:current-layer="layer1" /><defs
     id="defs2" /><g
     inkscape:label="Layer 1"
     inkscape:groupmode="layer"
     id="layer1"
     transform="translate(-72.922128,-45.133734)"><path
       style="fill:#808080;stroke-width:0.23236"
       d="M 77.335143,108.5739 76.54512,107.78387 V 81.628848 c 0,-25.729064 0.0077,-26.175582 0.472468,-27.417803 0.664957,-1.777262 2.029356,-3.231694 3.891675,-4.148476 l 1.551361,-0.76371 h 20.108916 20.1089 l 1.55127,0.76371 c 1.85401,0.912751 3.19966,2.342962 3.94966,4.197849 l 0.53057,1.312162 0.069,25.327238 c 0.0379,13.929982 0.008,25.663982 -0.0674,26.075572 -0.28755,1.57854 -1.97094,2.71667 -3.36414,2.27448 -0.27413,-0.087 -5.45747,-4.01801 -11.51854,-8.73557 -6.06108,-4.717554 -11.12274,-8.57738 -11.24814,-8.57738 -0.1254,0 -4.949716,3.671573 -10.720693,8.15904 -5.770977,4.48748 -10.860353,8.40855 -11.309724,8.7135 -1.200795,0.81488 -2.240964,0.73867 -3.215203,-0.23556 z M 90.827599,94.272488 c 11.292281,-8.805094 10.691051,-8.376931 11.762811,-8.376931 1.01317,0 0.14756,-0.621975 12.34934,8.873533 4.56721,3.554222 8.35911,6.46222 8.42644,6.46222 0.0674,0 0.0947,-10.203382 0.0609,-22.67419 l -0.0615,-22.674207 -0.75883,-0.677979 -0.75883,-0.677979 H 102.56944 83.290892 l -0.758836,0.677979 -0.758836,0.677979 -0.06148,22.674207 c -0.03381,12.470808 -0.0046,22.67419 0.06494,22.67419 0.06953,0 4.142437,-3.131468 9.050915,-6.958822 z"
       id="path248" /></g></svg>
