<?xml version="1.0" encoding="UTF-8" standalone="no"?>
<!-- Created with Inkscape (http://www.inkscape.org/) -->

<svg
   width="142.97092mm"
   height="142.92366mm"
   viewBox="0 0 142.97092 142.92366"
   version="1.1"
   id="svg4044"
   inkscape:version="1.2.2 (b0a8486541, 2022-12-01)"
   sodipodi:docname="search.svg"
   xml:space="preserve"
   xmlns:inkscape="http://www.inkscape.org/namespaces/inkscape"
   xmlns:sodipodi="http://sodipodi.sourceforge.net/DTD/sodipodi-0.dtd"
   xmlns="http://www.w3.org/2000/svg"
   xmlns:svg="http://www.w3.org/2000/svg"><sodipodi:namedview
     id="namedview4046"
     pagecolor="#ffffff"
     bordercolor="#666666"
     borderopacity="1.0"
     inkscape:pageshadow="2"
     inkscape:pageopacity="0.0"
     inkscape:pagecheckerboard="0"
     inkscape:document-units="mm"
     showgrid="false"
     inkscape:zoom="0.7198092"
     inkscape:cx="293.82786"
     inkscape:cy="393.15974"
     inkscape:window-width="1503"
     inkscape:window-height="934"
     inkscape:window-x="0"
     inkscape:window-y="0"
     inkscape:window-maximized="1"
     inkscape:current-layer="layer1"
     inkscape:showpageshadow="2"
     inkscape:deskcolor="#d1d1d1" /><defs
     id="defs4041" /><g
     inkscape:label="Layer 1"
     inkscape:groupmode="layer"
     id="layer1"
     transform="translate(-6.8078617,-43.956485)"><path
       style="fill:#808080;fill-opacity:1;stroke-width:0.362196"
       d="m 133.35076,178.46871 c -0.69722,-0.37655 -8.84599,-8.2743 -18.10835,-17.55051 -9.26235,-9.27622 -16.970554,-16.86586 -17.1293,-16.86586 -0.158769,0 -1.137349,0.63285 -2.174642,1.40633 -4.924742,3.67226 -11.494828,6.63405 -18.10972,8.16387 -13.82153,3.19649 -28.695112,0.68737 -40.400125,-6.81536 C 21.383894,136.52276 11.970635,117.29295 13.79097,98.519123 15.0658,85.371161 20.037113,74.717541 29.049385,65.820026 c 13.23723,-13.068687 31.809196,-17.93299 50.43247,-13.209085 14.505668,3.679439 28.078705,15.344576 34.016785,29.235224 3.1467,7.36089 4.43173,14.506927 4.15195,23.088985 -0.34478,10.57614 -3.03373,18.93263 -8.77315,27.26454 -1.08185,1.57052 -1.96699,2.9609 -1.96699,3.08973 0,0.12882 7.72258,7.98001 17.16129,17.44709 13.69337,13.7345 17.25169,17.49586 17.60854,18.61332 1.62785,5.09741 -3.67726,9.63146 -8.32952,7.11888 z M 73.769486,142.24523 c 10.208375,-2.04829 18.493622,-7.43681 24.788094,-16.12161 2.35438,-3.24844 3.14289,-4.69509 4.71179,-8.64459 3.24118,-8.15918 3.45618,-19.640991 0.52086,-27.814834 C 99.107151,76.623448 88.508255,67.017334 75.264632,63.810559 65.86706,61.535054 56.47632,62.588077 47.691358,66.902481 35.98807,72.6501 27.597237,84.236386 25.804718,97.124142 c -1.785414,12.836638 2.373616,25.156118 11.577375,34.293408 4.8001,4.76544 9.480611,7.6322 15.86737,9.7186 6.712154,2.19269 13.335396,2.55066 20.520023,1.10908 z"
       id="path984" /></g></svg>
