<?xml version="1.0" encoding="UTF-8" standalone="no"?>
<!-- Created with Inkscape (http://www.inkscape.org/) -->

<svg
   width="142.97092mm"
   height="142.92366mm"
   viewBox="0 0 142.97092 142.92366"
   version="1.1"
   id="svg4044"
   inkscape:version="1.2.2 (b0a8486541, 2022-12-01)"
   sodipodi:docname="search.svg"
   xml:space="preserve"
   xmlns:inkscape="http://www.inkscape.org/namespaces/inkscape"
   xmlns:sodipodi="http://sodipodi.sourceforge.net/DTD/sodipodi-0.dtd"
   xmlns="http://www.w3.org/2000/svg"
   xmlns:svg="http://www.w3.org/2000/svg"><sodipodi:namedview
     id="namedview4046"
     pagecolor="#ffffff"
     bordercolor="#666666"
     borderopacity="1.0"
     inkscape:pageshadow="2"
     inkscape:pageopacity="0.0"
     inkscape:pagecheckerboard="0"
     inkscape:document-units="mm"
     showgrid="false"
     inkscape:zoom="0.7198092"
     inkscape:cx="273.68364"
     inkscape:cy="393.15974"
     inkscape:window-width="1503"
     inkscape:window-height="934"
     inkscape:window-x="0"
     inkscape:window-y="0"
     inkscape:window-maximized="1"
     inkscape:current-layer="layer1"
     inkscape:showpageshadow="2"
     inkscape:deskcolor="#d1d1d1" /><defs
     id="defs4041" /><g
     inkscape:label="Layer 1"
     inkscape:groupmode="layer"
     id="layer1"
     transform="translate(-6.8078617,-43.956485)"><path
       style="fill:#808080;fill-opacity:1;stroke-width:0.311363"
       d="m 43.489716,155.39871 15.779749,-15.75114 2.747346,2.03149 c 11.591636,8.57129 27.160179,10.95384 41.098969,6.28963 19.28739,-6.45396 32.01363,-25.99897 30.05843,-46.16383 C 132.0783,90.502172 127.80469,81.343765 120.05727,73.694983 108.67786,62.46045 92.712407,58.278842 76.702845,62.339754 64.233017,65.502797 52.564916,75.530766 47.460206,87.471899 c -4.27745,10.006021 -4.80351,21.317981 -1.495,32.147351 1.02282,3.34794 4.11385,9.34836 6.39036,12.40526 l 2.05019,2.753 -15.57516,15.67411 c -9.56519,9.62593 -15.65262,15.98264 -15.77586,16.47367 -0.51498,2.05188 1.22526,4.22454 3.38373,4.22454 1.26304,0 1.37638,-0.10473 17.05125,-15.75112 z M 81.784054,142.94462 C 73.905343,141.47006 65.6829,136.97521 60.607139,131.36816 44.143356,113.18108 48.352616,85.362912 69.48837,72.67367 c 6.783658,-4.072694 16.012787,-5.97506 23.888674,-4.924085 10.454176,1.395027 20.848086,7.805171 26.533136,16.363543 4.38842,6.606411 6.27732,12.262678 6.60624,19.782302 0.46713,10.67951 -3.1863,20.24193 -10.71914,28.05607 -6.45334,6.69431 -15.21408,10.81059 -24.687199,11.59943 -2.134783,0.17776 -6.734467,-0.12128 -9.326027,-0.60631 z"
       id="path1287" /></g></svg>
