<?xml version="1.0" encoding="UTF-8" standalone="no"?>
<!-- Created with Inkscape (http://www.inkscape.org/) -->

<svg
   width="142.97092mm"
   height="142.92366mm"
   viewBox="0 0 142.97092 142.92366"
   version="1.1"
   id="svg4044"
   inkscape:version="1.2.2 (b0a8486541, 2022-12-01)"
   sodipodi:docname="search.svg"
   xml:space="preserve"
   xmlns:inkscape="http://www.inkscape.org/namespaces/inkscape"
   xmlns:sodipodi="http://sodipodi.sourceforge.net/DTD/sodipodi-0.dtd"
   xmlns="http://www.w3.org/2000/svg"
   xmlns:svg="http://www.w3.org/2000/svg"><sodipodi:namedview
     id="namedview4046"
     pagecolor="#ffffff"
     bordercolor="#666666"
     borderopacity="1.0"
     inkscape:pageshadow="2"
     inkscape:pageopacity="0.0"
     inkscape:pagecheckerboard="0"
     inkscape:document-units="mm"
     showgrid="false"
     inkscape:zoom="0.7198092"
     inkscape:cx="370.93163"
     inkscape:cy="393.15974"
     inkscape:window-width="1503"
     inkscape:window-height="934"
     inkscape:window-x="0"
     inkscape:window-y="0"
     inkscape:window-maximized="1"
     inkscape:current-layer="layer1"
     inkscape:showpageshadow="2"
     inkscape:deskcolor="#d1d1d1" /><defs
     id="defs4041" /><g
     inkscape:label="Layer 1"
     inkscape:groupmode="layer"
     id="layer1"
     transform="translate(-6.8078617,-43.956485)"><path
       style="fill:#808080;stroke-width:0.336963"
       d="m 132.70452,180.64276 c -0.72478,-0.17001 -1.82264,-0.62112 -2.43969,-1.00249 -0.61705,-0.38135 -8.30417,-7.97139 -17.08249,-16.86673 l -15.96058,-16.17336 -2.449845,1.58479 c -15.430002,9.98162 -35.172329,11.14185 -51.72971,3.04006 C 22.236328,141.0444 10.892914,119.37438 14.277108,96.273298 15.909285,85.131782 20.925202,75.255161 29.076704,67.132059 38.21868,58.021932 48.95872,53.117711 62.305515,51.958796 74.308011,50.916609 87.60229,54.743302 97.29329,62.029855 c 8.50857,6.397502 14.88855,15.063581 18.13998,24.63999 5.38225,15.852305 3.37084,32.983785 -5.43657,46.303625 l -1.5406,2.32995 16.44011,16.32279 c 17.86957,17.74207 17.78603,17.642 17.78603,21.30622 0,3.69074 -2.08228,6.54774 -5.51521,7.56722 -1.94039,0.57623 -2.53476,0.59528 -4.46251,0.14311 z M 73.368898,139.73539 c 7.059822,-1.46652 12.725458,-4.40895 17.800213,-9.24446 7.231443,-6.89054 11.172329,-16.25749 11.135439,-26.46748 C 102.2471,88.120179 92.256805,74.406808 77.289699,69.686357 64.867467,65.76853 52.225727,68.287852 42.221554,76.674945 32.747186,84.617873 27.898697,98.641698 30.396362,110.87827 c 0.892384,4.37197 2.048381,7.65593 3.856382,10.95519 5.343038,9.75006 14.896664,16.3965 26.191463,18.22135 3.777696,0.61035 9.079529,0.47932 12.924691,-0.31942 z"
       id="path7528" /></g></svg>
