<?xml version="1.0" encoding="UTF-8" standalone="no"?>
<!-- Created with Inkscape (http://www.inkscape.org/) -->

<svg
   width="142.97092mm"
   height="142.92366mm"
   viewBox="0 0 142.97092 142.92366"
   version="1.1"
   id="svg4044"
   inkscape:version="1.2.2 (b0a8486541, 2022-12-01)"
   sodipodi:docname="search.svg"
   xml:space="preserve"
   xmlns:inkscape="http://www.inkscape.org/namespaces/inkscape"
   xmlns:sodipodi="http://sodipodi.sourceforge.net/DTD/sodipodi-0.dtd"
   xmlns="http://www.w3.org/2000/svg"
   xmlns:svg="http://www.w3.org/2000/svg"><sodipodi:namedview
     id="namedview4046"
     pagecolor="#ffffff"
     bordercolor="#666666"
     borderopacity="1.0"
     inkscape:pageshadow="2"
     inkscape:pageopacity="0.0"
     inkscape:pagecheckerboard="0"
     inkscape:document-units="mm"
     showgrid="false"
     inkscape:zoom="0.7198092"
     inkscape:cx="273.68364"
     inkscape:cy="393.15974"
     inkscape:window-width="1503"
     inkscape:window-height="934"
     inkscape:window-x="0"
     inkscape:window-y="0"
     inkscape:window-maximized="1"
     inkscape:current-layer="layer1"
     inkscape:showpageshadow="2"
     inkscape:deskcolor="#d1d1d1" /><defs
     id="defs4041" /><g
     inkscape:label="Layer 1"
     inkscape:groupmode="layer"
     id="layer1"
     transform="translate(-6.8078617,-43.956485)"><path
       style="fill:#808080;fill-opacity:1;stroke-width:0.336588"
       d="m 115.12609,158.59175 -17.058135,-17.0272 -2.96992,2.19607 C 82.56731,153.0263 65.737492,155.60187 50.669464,150.5598 29.819521,143.58297 16.062272,122.45454 18.175874,100.65603 19.36057,88.437667 23.980396,78.537298 32.355475,70.268855 44.656781,58.124164 61.915656,53.603786 79.222222,57.99369 c 13.480062,3.419295 26.093448,14.259673 31.611708,27.168209 4.62399,10.816652 5.19267,23.045041 1.61612,34.751751 -1.10568,3.61917 -4.44713,10.10571 -6.90807,13.41026 l -2.21629,2.97603 16.83698,16.94394 c 10.3401,10.40577 16.9207,17.27746 17.05392,17.80827 0.55671,2.21811 -1.32452,4.56679 -3.65786,4.56679 -1.36536,0 -1.48788,-0.11321 -18.43264,-17.02719 z M 73.729362,145.1287 c 8.516999,-1.59402 17.405578,-6.45301 22.892548,-12.51431 17.79758,-19.6605 13.24731,-49.732337 -9.600738,-63.449589 -7.333231,-4.40264 -17.310052,-6.459125 -25.823998,-5.323006 -11.301109,1.508044 -22.537072,8.437501 -28.682694,17.689224 -4.743949,7.141625 -6.785879,13.256131 -7.141443,21.384951 -0.504978,11.5447 3.444442,21.88182 11.587545,30.32901 6.976153,7.23665 16.446636,11.68641 26.687211,12.53915 2.307731,0.19216 7.280055,-0.1311 10.081569,-0.65543 z"
       id="path1287" /></g></svg>
