<?xml version="1.0" encoding="UTF-8" standalone="no"?>
<!-- Created with Inkscape (http://www.inkscape.org/) -->

<svg
   width="65.065422mm"
   height="75.836205mm"
   viewBox="0 0 65.065422 75.836205"
   version="1.1"
   id="svg31294"
   xml:space="preserve"
   inkscape:version="1.2.2 (b0a8486541, 2022-12-01)"
   sodipodi:docname="thankyou.svg"
   xmlns:inkscape="http://www.inkscape.org/namespaces/inkscape"
   xmlns:sodipodi="http://sodipodi.sourceforge.net/DTD/sodipodi-0.dtd"
   xmlns="http://www.w3.org/2000/svg"
   xmlns:svg="http://www.w3.org/2000/svg"><sodipodi:namedview
     id="namedview31296"
     pagecolor="#ffffff"
     bordercolor="#000000"
     borderopacity="0.25"
     inkscape:showpageshadow="2"
     inkscape:pageopacity="0.0"
     inkscape:pagecheckerboard="0"
     inkscape:deskcolor="#d1d1d1"
     inkscape:document-units="mm"
     showgrid="false"
     inkscape:zoom="0.2102413"
     inkscape:cx="90.372348"
     inkscape:cy="347.22007"
     inkscape:window-width="1503"
     inkscape:window-height="934"
     inkscape:window-x="0"
     inkscape:window-y="0"
     inkscape:window-maximized="1"
     inkscape:current-layer="layer1" /><defs
     id="defs31291" /><g
     inkscape:label="Layer 1"
     inkscape:groupmode="layer"
     id="layer1"
     transform="translate(-80.330734,-56.96146)"><path
       style="fill:#808080;stroke-width:0.264583"
       d="m 92.701474,132.59558 c -5.06856,-0.15417 -5.80281,-0.33469 -5.19916,-1.27825 0.26256,-0.41041 0.79593,-0.44717 5.36193,-0.36962 l 5.07035,0.0861 -0.1751,-0.74758 c -0.18472,-0.78867 -3.29218,-11.60568 -3.87712,-13.49617 -0.18837,-0.60881 -0.41183,-1.17626 -0.49658,-1.26101 -0.0847,-0.0848 -1.63055,0.55181 -3.4351,1.4146 -3.11643,1.49001 -6.26143,2.68076 -8.07691,3.05805 -0.58208,0.12097 -0.95113,0.0479 -1.24553,-0.24646 -0.6189,-0.6189 -0.26203,-1.15576 0.97542,-1.46739 2.23093,-0.56183 4.3755,-1.41906 8.46953,-3.38545 l 4.19725,-2.01598 0.4991,0.61636 c 0.27451,0.339 0.4991,0.78177 0.4991,0.98392 0,0.49109 0.17911,0.46446 1.0507,-0.15616 0.88727,-0.6318 1.52286,-2.17073 2.78874,-6.75231 0.52269,-1.89177 1.710446,-5.82084 2.639456,-8.731246 2.04637,-6.41087 2.63759,-8.700826 3.17905,-12.313201 1.06219,-7.086552 1.94725,-10.450415 3.01998,-11.478156 0.9797,-0.938615 2.94874,-1.226014 4.14863,-0.605528 0.69177,0.357728 0.85642,0.357696 1.53968,-2.91e-4 1.09975,-0.576216 3.15288,-0.331633 4.03378,0.48053 0.37781,0.348327 0.85238,1.021718 1.05459,1.496424 0.42738,1.003264 1.49433,6.217785 2.0789,10.160172 0.52168,3.518279 1.12483,5.853308 3.0544,11.82482 0.86309,2.671026 2.12006,6.838216 2.79327,9.260416 1.3571,4.88276 1.87252,6.09923 2.85781,6.74482 0.81275,0.53253 0.95059,0.54264 0.95059,0.0697 0,-0.20216 0.22459,-0.64493 0.4991,-0.98393 l 0.4991,-0.61636 4.19725,2.01598 c 4.09403,1.96639 6.2386,2.82362 8.46953,3.38545 1.23746,0.31163 1.59432,0.84849 0.97542,1.46739 -0.2944,0.2944 -0.66345,0.36743 -1.24553,0.24646 -1.81403,-0.37699 -4.95938,-1.56751 -8.06814,-3.05381 -1.79972,-0.86045 -3.31265,-1.56445 -3.36206,-1.56445 -0.19279,0 -3.65894,11.60635 -4.45336,14.91198 l -0.18187,0.75678 4.90737,-0.19368 c 5.04681,-0.19921 5.70069,-0.10334 5.70069,0.83573 0,0.67406 -1.15072,0.82988 -6.83198,0.92513 -4.78012,0.0801 -5.6603,0.0348 -5.87477,-0.30262 -0.13875,-0.21828 -0.19374,-0.55611 -0.12219,-0.75074 0.0716,-0.19462 0.20437,-0.81843 0.29517,-1.38625 l 0.16509,-1.0324 -2.05692,-0.97683 c -1.89257,-0.89878 -2.28804,-0.98634 -4.94984,-1.09601 -3.06315,-0.12621 -3.6591,-0.41162 -2.75249,-1.31823 0.34002,-0.34002 0.93521,-0.42933 2.74816,-0.41237 2.54847,0.0238 3.98074,0.3378 6.10135,1.33741 0.77328,0.36451 1.44531,0.62074 1.49341,0.56939 0.0753,-0.0804 0.66655,-2.06797 2.73802,-9.20452 0.29733,-1.02435 0.33162,-1.46687 0.11917,-1.53768 -0.16406,-0.0547 -0.76964,-0.44088 -1.34574,-0.8582 -1.31089,-0.94961 -2.07806,-2.56073 -3.21374,-6.7492 -0.47349,-1.74625 -1.73267,-5.92669 -2.79817,-9.289866 -2.36883,-7.477042 -2.5533,-8.191758 -3.43935,-13.325712 -0.38869,-2.252112 -0.82051,-4.395237 -0.95961,-4.7625 -0.43676,-1.153207 -1.29232,-1.858372 -2.25469,-1.858372 -1.08635,0 -1.40255,0.647332 -1.40255,2.871361 v 1.513996 l 0.8599,0.061 c 2.07544,0.147235 2.94336,1.571249 3.49855,5.740098 0.51,3.829544 1.39449,7.098379 2.68401,9.919419 1.03426,2.262576 1.02833,2.912876 -0.0266,2.912876 -0.81967,0 -1.39774,-0.8653 -2.5301,-3.787176 -1.04479,-2.69595 -1.45031,-4.35194 -2.07084,-8.456694 -0.52583,-3.478321 -1.0443,-4.787543 -1.83633,-4.637003 -0.60343,0.114697 -0.79531,2.765708 -0.50367,6.958994 0.12145,1.746253 0.25423,7.997029 0.29506,13.890629 0.0753,10.86209 0.22347,12.71916 1.1412,14.29959 0.49169,0.84673 1.84884,1.78762 3.06145,2.12244 1.74287,0.48123 1.46003,2.03212 -0.31004,1.70005 -2.27747,-0.42725 -4.45842,-2.2379 -5.09389,-4.229 l -0.37835,-1.18548 -0.34597,1.17171 c -0.57911,1.96134 -2.80046,3.81358 -5.08825,4.24277 -1.77007,0.33207 -2.05291,-1.21882 -0.31004,-1.70005 1.21261,-0.33482 2.56976,-1.27571 3.06145,-2.12244 0.91773,-1.58043 1.06594,-3.4375 1.1412,-14.29959 0.0408,-5.8936 0.17361,-12.144376 0.29506,-13.890629 0.29164,-4.193286 0.0998,-6.844297 -0.50367,-6.958994 -0.79337,-0.150794 -1.31042,1.157481 -1.83266,4.637003 -0.63337,4.220074 -1.52663,7.417344 -2.81128,10.06248 -0.84687,1.74375 -1.10381,2.06159 -1.72427,2.13296 -1.12684,0.12961 -1.15683,-0.54225 -0.12527,-2.805966 1.36957,-3.00548 2.01589,-5.32204 2.59794,-9.311607 0.70678,-4.844584 1.50341,-6.256644 3.61425,-6.40639 l 0.8599,-0.061 v -1.513996 c 0,-2.224029 -0.3162,-2.871361 -1.40255,-2.871361 -1.00467,0 -1.86918,0.752387 -2.29317,1.995757 -0.14673,0.430302 -0.57101,2.568305 -0.94285,4.751118 -0.83725,4.914894 -1.05749,5.769014 -3.30869,12.831899 -0.9973,3.128916 -2.3095,7.474866 -2.916,9.657676 -0.6065,2.18282 -1.330636,4.41683 -1.609206,4.96449 -0.44744,0.87964 -2.09969,2.36234 -2.94736,2.6449 -0.20409,0.068 0.20441,1.83739 1.24075,5.37414 0.84977,2.9 1.58212,5.31473 1.62745,5.36607 0.0453,0.0514 0.7151,-0.20488 1.488376,-0.56939 2.12061,-0.99961 3.55288,-1.31357 6.10135,-1.33741 1.81295,-0.017 2.40814,0.0724 2.74816,0.41237 0.90661,0.90661 0.31066,1.19202 -2.75249,1.31823 -2.6618,0.10967 -3.05727,0.19723 -4.94984,1.09601 l -2.056916,0.97683 0.16509,1.0324 c 0.0908,0.56782 0.231716,1.20605 0.313166,1.41828 0.24595,0.64097 -0.617516,1.25302 -1.687186,1.19593 -0.53531,-0.0286 -3.14056,-0.11787 -5.78943,-0.19844 z M 111.93737,77.785972 c 2e-5,-0.08742 -0.13068,-0.533908 -0.29044,-0.992188 -0.24617,-0.706173 -0.42279,-0.833231 -1.15823,-0.833231 -0.92745,0 -1.28053,0.282738 -1.6865,1.350531 l -0.25539,0.67173 1.69526,-0.01894 c 0.9324,-0.01042 1.69528,-0.09047 1.6953,-0.177902 z m 4.98731,-0.474888 c -0.4066,-1.069451 -0.75928,-1.350531 -1.69456,-1.350531 -0.8829,0 -0.89899,0.01926 -1.32614,1.5875 -0.0875,0.321334 0.21397,0.400481 1.584,0.415819 l 1.69209,0.01894 z M 91.829074,73.985596 c -3.5927,-1.692304 -4.10105,-2.009388 -4.10105,-2.558085 0,-0.428698 0.17025,-0.650704 0.53952,-0.703569 0.77627,-0.11113 8.43605,3.509008 8.54431,4.038184 0.0871,0.425602 -0.39516,1.218529 -0.7157,1.176824 -0.0913,-0.01188 -2.01151,-0.890891 -4.26708,-1.953354 z m 37.432236,1.606196 c -0.95437,-0.697851 -0.31655,-1.232644 3.70011,-3.102425 2.17712,-1.013464 4.20118,-1.807905 4.49792,-1.765425 0.32765,0.04691 0.57279,0.311571 0.62425,0.673983 0.0685,0.482456 -0.13419,0.692682 -1.05833,1.097659 -0.62869,0.275503 -2.53194,1.158581 -4.22945,1.962397 -2.58992,1.226399 -3.15846,1.408777 -3.5345,1.133811 z m -28.94292,-8.888086 c -2.455396,-3.45192 -2.777826,-4.295922 -1.700126,-4.450266 0.45547,-0.06523 1.01066,0.537867 2.841256,3.086419 1.25135,1.742119 2.34817,3.357695 2.43738,3.59017 0.18074,0.470986 -0.31554,1.209691 -0.81269,1.209691 -0.17695,0 -1.42157,-1.546206 -2.76582,-3.436014 z m 21.67597,3.042508 c -0.44973,-0.541888 -0.31445,-0.80414 2.273,-4.406355 1.8306,-2.548552 2.38579,-3.151648 2.84126,-3.086419 1.05256,0.150743 0.76043,0.98623 -1.41902,4.058463 -2.88836,4.071539 -3.04532,4.217415 -3.69524,3.434311 z m -9.60077,-2.287909 c -0.40599,-0.227199 -0.45619,-0.788981 -0.45619,-5.104544 0,-5.255112 0.14011,-5.811644 1.306,-5.187676 0.52139,0.279041 0.54608,0.512702 0.54608,5.168427 0,4.400197 -0.0459,4.900719 -0.46985,5.127631 -0.29806,0.159518 -0.63665,0.158115 -0.92604,-0.0038 z"
       id="path31310" /></g></svg>
