<?xml version="1.0" encoding="UTF-8"?>
<!-- Created with Inkscape (http://www.inkscape.org/) -->
<svg width="77.685mm" height="77.685mm" version="1.1" viewBox="0 0 77.685 77.685" xml:space="preserve" xmlns="http://www.w3.org/2000/svg"><g transform="translate(-49.844 -80.168)" fill="#808080"><path d="m37.018 214.99c-4.5712-0.66748-8.432-3.8308-9.9578-8.1588-0.26912-0.76336-0.54529-2.0054-0.64031-2.8796-0.34945-3.2152 0.64913-6.5715 2.7089-9.1048 0.55468-0.6822 1.7096-1.7616 2.4735-2.3119 1.9365-1.3948 4.726-2.2875 7.1555-2.2898 4.9122-5e-3 9.4981 3.008 11.425 7.5052 1.9015 4.4387 1.0882 9.5525-2.0926 13.158-1.9561 2.217-4.6487 3.663-7.6025 4.0828-0.89206 0.12678-2.5988 0.12644-3.4694-6.4e-4zm4.1348-0.86637c1.5145-0.31128 2.8607-0.87358 4.1226-1.722l0.6221-0.41827-0.5871-0.54312c-0.75813-0.70132-1.0279-0.81267-1.6632-0.68656-0.85546 0.16979-1.2649 0.16925-1.7233-2e-3 -0.76411-0.28589-1.3139-0.96869-1.6801-2.0864-0.26407-0.80611 0.03284-1.8669 0.67685-2.4181 0.14718-0.12599 0.70071-0.46953 1.2301-0.76343 0.89288-0.49573 0.98643-0.56742 1.2939-0.99163 0.52504-0.7243 1.2036-1.0761 1.8978-0.98405 0.60825 0.0807 1.0193 0.3306 1.5343 0.93282 0.22091 0.25833 0.37667 0.27788 0.96207 0.12074 0.73099-0.1962 1.1496-0.11479 1.918 0.37307 0.18853 0.11968 0.36621 0.20313 0.39486 0.18544 0.0287-0.0177 0.10688-0.39477 0.17387-0.83792 0.14551-0.96258 0.11492-2.7095-0.065-3.7111-0.16986-0.9457-0.62037-2.2866-1.0564-3.1444-1.1098-2.1833-3.023-4.0886-5.2012-5.1801-0.67518-0.33831-1.3472-0.62247-1.3843-0.58536-0.01181 0.0118-0.22714 0.79969-0.4786 1.7509-0.44107 1.6072-0.42592 2.396-1.8746 2.8554-0.77962 0.24264-1.0376 0.46219-1.0376 0.88301 0 0.29517 0.0527 0.39838 0.53974 1.0569 0.84245 1.1392 0.85426 1.6034 0.07188 2.8238-0.47364 0.73884-1.1094 1.137-1.9928 1.2479-0.54057 0.0679-0.79582 0.19751-0.91832 0.46636-0.11666 0.25604-0.10186 0.42572 0.09422 1.0809 0.20713 0.69201 0.21935 1.1224 0.04274 1.5052-0.33615 0.72834-1.2186 1.0192-2.0188 0.66535-0.48736-0.21551-0.69255-0.44523-1.074-1.2025-0.18762-0.37243-0.41209-0.72686-0.49881-0.7876-0.08936-0.0626-0.30038-0.11045-0.487-0.11045-0.31873 0-0.34578 0.0171-0.84203 0.5334-0.57827 0.6016-1.0413 0.86503-1.5222 0.8661-0.17015 2.6e-4 -0.96915-0.12705-1.7756-0.28316-0.80642-0.15612-1.482-0.26808-1.5013-0.24882-0.09141 0.0914 0.32803 1.5302 0.71948 2.4679 0.54702 1.3104 1.2741 2.4213 2.2811 3.4853 1.8062 1.9086 4.0837 3.0922 6.7463 3.5062 0.92702 0.14413 3.1387 0.0899 4.0605-0.0996zm6.4589-3.8047c0.64637-0.76532 1.199-1.6002 1.5866-2.397 0.30736-0.63183 0.74069-1.7357 0.74045-1.8863-6e-5 -0.0407-0.26382-0.2395-0.58611-0.44165-0.64399-0.40391-0.8236-0.43743-1.4026-0.26177-0.48695 0.14772-1.0072 0.1338-1.2829-0.0343-0.12453-0.0759-0.33775-0.29302-0.47382-0.48242-0.28372-0.3949-0.59444-0.56915-1.015-0.56915-0.40423 0-0.75488 0.18359-0.97219 0.50903-0.41326 0.61884-0.65197 0.81829-1.6242 1.357-0.535 0.29644-1.0701 0.63414-1.189 0.75045-0.57068 0.55794-0.64637 1.2066-0.24068 2.0625 0.2958 0.624 0.5214 0.88883 0.91072 1.0691 0.34622 0.1603 0.75934 0.16675 1.3201 0.0206 0.85471-0.22272 1.4408-0.0147 2.4604 0.87358l0.63007 0.5489 0.3255-0.27076c0.17901-0.14892 0.54476-0.53039 0.81277-0.84771zm-11.377-5.1496c0.2501-0.23266 0.25462-0.6113 0.01645-1.378-0.26141-0.8416-0.21805-1.194 0.20926-1.7008 0.27167-0.32219 0.62089-0.4809 1.251-0.56855 0.8292-0.11533 1.0228-0.25041 1.6335-1.1395 0.47568-0.69251 0.45845-0.8522-0.18423-1.7072-0.2783-0.37025-0.55038-0.7794-0.60462-0.90922-0.14866-0.3558-0.12178-0.85359 0.06786-1.2556 0.26803-0.56839 0.57272-0.77474 1.392-0.94268 0.443-0.0908 0.76149-0.31279 0.88041-0.6136 0.07019-0.17756 0.99162-3.4149 0.99162-3.484 0-0.041-0.41314-0.14889-1.1222-0.29309-0.82928-0.16867-3.0642-0.16814-3.97 1e-3 -2.4001 0.44805-4.4883 1.5279-6.1823 3.1971-1.9407 1.9123-3.0814 4.2441-3.4237 6.999-0.08437 0.67906-0.10001 2.5919-0.02123 2.5927 0.02888 2.7e-4 0.76029 0.12633 1.6254 0.28004 0.86508 0.15371 1.685 0.27947 1.8222 0.27947 0.30751 0 0.4639-0.10186 1.0855-0.7071 0.52794-0.51401 0.85806-0.69329 1.2754-0.69268 0.75127 6.8e-4 1.1463 0.30378 1.6015 1.2271 0.35851 0.72719 0.45955 0.84414 0.84641 0.97969 0.32957 0.11548 0.55928 0.069 0.80973-0.16405z" stroke-width=".070008"/><path d="m176.78 162.26c-2.638-0.52246-5.27-2.6073-6.4078-5.0756-0.37654-0.81691-0.77637-2.0456-0.88852-2.7303-0.26465-1.616-0.26777-57.709-3e-3 -59.538 0.58533-4.048 3.8952-7.3579 7.9432-7.9432 0.7482-0.10819 12.469-0.19639 26.415-0.19878 27.307-0.0047 26.377-0.04358 28.487 1.1927 1.2007 0.70366 2.0994 1.7952 2.7022 3.282l0.47556 1.1731v25.061c0 23.756-0.0204 25.12-0.39122 26.183-0.47752 1.3698-2.1176 3.2316-3.3274 3.7771l-0.8671 0.391v9.8981l1.573 0.11897c1.8019 0.13627 2.3459 0.40347 2.8092 1.3798 0.42421 0.89396 0.22807 1.991-0.47391 2.6505l-0.53002 0.49796-28.297 0.0311c-15.563 0.0171-28.712-0.0512-29.219-0.15153zm49.445-9.1576v-4.6923l-24.368 5e-3c-23.243 5e-3 -24.408 0.0229-25.236 0.39902-3.5011 1.5902-3.4927 6.9904 0.0133 8.5832 0.8108 0.36834 2.114 0.38865 25.223 0.39308l24.368 5e-3zm-46.23-9.3494 3.5726-0.0782v-52.212l-2.826 0.0012c-1.5543 6.6e-4 -3.1957 0.10383-3.6475 0.22928-1.0775 0.29919-2.5252 1.7595-2.8621 2.8869-0.20101 0.67272-0.26231 6.6641-0.26231 25.636v24.758l1.2264-0.57133c1.1468-0.53421 1.4585-0.57641 4.799-0.64956zm49.893-0.52919c0.31382-0.21303 0.67375-0.68325 0.79983-1.0449 0.15824-0.45397 0.22924-8.1466 0.22924-24.841 0-22.106-0.0302-24.23-0.3516-24.72-0.7902-1.206 0.18447-1.1547-21.926-1.1547h-20.38v52.264l20.529-0.0574c19.43-0.0545 20.559-0.0782 21.099-0.4448z" stroke-width=".21329"/><path d="m88.166 125.53c-6.6619-0.85799-12.076-5.7649-13.514-12.247-0.43058-1.9414-0.51612-3.5963-0.27927-5.403 0.5061-3.8607 1.9932-6.8543 4.7143-9.4898 2.55-2.4698 5.5947-3.9152 9.2249-4.3794 3.7954-0.48527 8.0518 0.64097 11.187 2.96 4.6368 3.43 7.0598 9.0395 6.3558 14.714-0.57404 4.6274-2.9187 8.4847-6.803 11.192-1.9357 1.3491-4.2448 2.2472-6.7285 2.617-0.98954 0.14731-3.1484 0.16614-4.1571 0.0363zm3.9553-5.3331v-1.4986l3.9346-3.9316v-4.9645h-7.9169l-1.0078-1.0106-1.0078-1.0106 0.0255-0.97902 0.02551-0.97904 4.963-0.0477v-1.9228l-0.98366-0.9806-0.98365-0.98063v-1.0792l0.98365-0.9806 0.98366-0.98059v-1.9033l-0.27944-0.05601c-0.74406-0.1488-2.6353 0.03659-4.0969 0.40167-2.7077 0.67627-5.3417 2.4727-7.0647 4.8184-0.63191 0.86026-1.6168 2.8034-1.8494 3.6491l-0.15518 0.56398 2.4889 2.4937h3.0667l2.8824 3.0186v3.9148l1.9673 1.9612v3.9824h4.0241zm10.857-10.708c-8e-3 -1.347-0.15681-2.3395-0.54159-3.6172-0.21302-0.70736-0.84688-2.2799-0.96763-2.4007-0.0298-0.0297-0.59614 0.48647-1.2584 1.1474l-1.2041 1.2016v4.9689l1.9897-0.024 1.9897-0.0241-7e-3 -1.2519z" stroke-width=".089423"/><path d="m66.689 153.27c-1.6785-0.28091-3.7157-1.1838-5.2165-2.312-2.1043-1.5818-3.6532-3.1769-4.0942-6.0084-0.12212-0.78408-0.15317-7.7234-0.12089-27.012 0.0487-29.092-0.05163-26.44 1.0888-28.771 1.5322-3.1311 4.3138-5.4573 7.606-6.3608 0.86217-0.2366 2.4-0.25095 26.896-0.25095h25.981l0.38852 0.29006c0.21369 0.15954 0.51905 0.46489 0.67859 0.67858l0.29005 0.38851v52.259l-0.29005 0.38851c-0.62907 0.84259-0.94225 0.9648-2.6038 1.0162l-1.5377 0.0477v11.275l1.5377 0.0476c1.2868 0.0399 1.601 0.0949 1.9257 0.33767 0.73801 0.55172 0.96813 1.0011 0.96813 1.8906 0 0.88972-0.23037 1.3394-0.96861 1.8906l-0.3885 0.29007-25.7 0.0193c-14.262 0.0107-26.03-0.0359-26.44-0.10461zm44.564-10.009v-5.6623l-21.771 2e-3c-18.712 2e-3 -21.895 0.0313-22.653 0.21003-3.1178 0.73508-5.0972 2.2457-5.0972 5.6079 0.28132 3.154 2.1003 4.5541 4.9944 5.3061 0.54379 0.13496 5.6762 0.17729 22.615 0.18654l21.912 0.0119zm-48.537-8.324c0.46919-0.30326 1.3102-0.74109 1.8688-0.97297 2.2015-0.91373 0.74725-0.86732 27.177-0.86732h23.993v-46.11l-24.092 0.0021c-26.509 0.0023-25.007-0.04628-26.715 0.86418-0.97431 0.5193-1.9273 1.495-2.4309 2.4888-0.81198 1.6024-0.78026 0.65912-0.78252 23.27-9.14e-4 11.432 0.02741 21.877 0.0635 21.877s0.44948-0.24813 0.91867-0.55137z" stroke-width=".14069"/></g></svg>
