<?xml version="1.0" encoding="UTF-8"?>
<!-- Created with Inkscape (http://www.inkscape.org/) -->
<svg width="77.685mm" height="77.685mm" version="1.1" viewBox="0 0 77.685 77.685" xml:space="preserve" xmlns="http://www.w3.org/2000/svg"><g transform="translate(-49.844 -80.168)" fill="#808080"><path d="m37.018 214.99c-4.5712-0.66748-8.432-3.8308-9.9578-8.1588-0.26912-0.76336-0.54529-2.0054-0.64031-2.8796-0.34945-3.2152 0.64913-6.5715 2.7089-9.1048 0.55468-0.6822 1.7096-1.7616 2.4735-2.3119 1.9365-1.3948 4.726-2.2875 7.1555-2.2898 4.9122-5e-3 9.4981 3.008 11.425 7.5052 1.9015 4.4387 1.0882 9.5525-2.0926 13.158-1.9561 2.217-4.6487 3.663-7.6025 4.0828-0.89206 0.12678-2.5988 0.12644-3.4694-6.4e-4zm4.1348-0.86637c1.5145-0.31128 2.8607-0.87358 4.1226-1.722l0.6221-0.41827-0.5871-0.54312c-0.75813-0.70132-1.0279-0.81267-1.6632-0.68656-0.85546 0.16979-1.2649 0.16925-1.7233-2e-3 -0.76411-0.28589-1.3139-0.96869-1.6801-2.0864-0.26407-0.80611 0.03284-1.8669 0.67685-2.4181 0.14718-0.12599 0.70071-0.46953 1.2301-0.76343 0.89288-0.49573 0.98643-0.56742 1.2939-0.99163 0.52504-0.7243 1.2036-1.0761 1.8978-0.98405 0.60825 0.0807 1.0193 0.3306 1.5343 0.93282 0.22091 0.25833 0.37667 0.27788 0.96207 0.12074 0.73099-0.1962 1.1496-0.11479 1.918 0.37307 0.18853 0.11968 0.36621 0.20313 0.39486 0.18544 0.0287-0.0177 0.10688-0.39477 0.17387-0.83792 0.14551-0.96258 0.11492-2.7095-0.065-3.7111-0.16986-0.9457-0.62037-2.2866-1.0564-3.1444-1.1098-2.1833-3.023-4.0886-5.2012-5.1801-0.67518-0.33831-1.3472-0.62247-1.3843-0.58536-0.01181 0.0118-0.22714 0.79969-0.4786 1.7509-0.44107 1.6072-0.42592 2.396-1.8746 2.8554-0.77962 0.24264-1.0376 0.46219-1.0376 0.88301 0 0.29517 0.0527 0.39838 0.53974 1.0569 0.84245 1.1392 0.85426 1.6034 0.07188 2.8238-0.47364 0.73884-1.1094 1.137-1.9928 1.2479-0.54057 0.0679-0.79582 0.19751-0.91832 0.46636-0.11666 0.25604-0.10186 0.42572 0.09422 1.0809 0.20713 0.69201 0.21935 1.1224 0.04274 1.5052-0.33615 0.72834-1.2186 1.0192-2.0188 0.66535-0.48736-0.21551-0.69255-0.44523-1.074-1.2025-0.18762-0.37243-0.41209-0.72686-0.49881-0.7876-0.08936-0.0626-0.30038-0.11045-0.487-0.11045-0.31873 0-0.34578 0.0171-0.84203 0.5334-0.57827 0.6016-1.0413 0.86503-1.5222 0.8661-0.17015 2.6e-4 -0.96915-0.12705-1.7756-0.28316-0.80642-0.15612-1.482-0.26808-1.5013-0.24882-0.09141 0.0914 0.32803 1.5302 0.71948 2.4679 0.54702 1.3104 1.2741 2.4213 2.2811 3.4853 1.8062 1.9086 4.0837 3.0922 6.7463 3.5062 0.92702 0.14413 3.1387 0.0899 4.0605-0.0996zm6.4589-3.8047c0.64637-0.76532 1.199-1.6002 1.5866-2.397 0.30736-0.63183 0.74069-1.7357 0.74045-1.8863-6e-5 -0.0407-0.26382-0.2395-0.58611-0.44165-0.64399-0.40391-0.8236-0.43743-1.4026-0.26177-0.48695 0.14772-1.0072 0.1338-1.2829-0.0343-0.12453-0.0759-0.33775-0.29302-0.47382-0.48242-0.28372-0.3949-0.59444-0.56915-1.015-0.56915-0.40423 0-0.75488 0.18359-0.97219 0.50903-0.41326 0.61884-0.65197 0.81829-1.6242 1.357-0.535 0.29644-1.0701 0.63414-1.189 0.75045-0.57068 0.55794-0.64637 1.2066-0.24068 2.0625 0.2958 0.624 0.5214 0.88883 0.91072 1.0691 0.34622 0.1603 0.75934 0.16675 1.3201 0.0206 0.85471-0.22272 1.4408-0.0147 2.4604 0.87358l0.63007 0.5489 0.3255-0.27076c0.17901-0.14892 0.54476-0.53039 0.81277-0.84771zm-11.377-5.1496c0.2501-0.23266 0.25462-0.6113 0.01645-1.378-0.26141-0.8416-0.21805-1.194 0.20926-1.7008 0.27167-0.32219 0.62089-0.4809 1.251-0.56855 0.8292-0.11533 1.0228-0.25041 1.6335-1.1395 0.47568-0.69251 0.45845-0.8522-0.18423-1.7072-0.2783-0.37025-0.55038-0.7794-0.60462-0.90922-0.14866-0.3558-0.12178-0.85359 0.06786-1.2556 0.26803-0.56839 0.57272-0.77474 1.392-0.94268 0.443-0.0908 0.76149-0.31279 0.88041-0.6136 0.07019-0.17756 0.99162-3.4149 0.99162-3.484 0-0.041-0.41314-0.14889-1.1222-0.29309-0.82928-0.16867-3.0642-0.16814-3.97 1e-3 -2.4001 0.44805-4.4883 1.5279-6.1823 3.1971-1.9407 1.9123-3.0814 4.2441-3.4237 6.999-0.08437 0.67906-0.10001 2.5919-0.02123 2.5927 0.02888 2.7e-4 0.76029 0.12633 1.6254 0.28004 0.86508 0.15371 1.685 0.27947 1.8222 0.27947 0.30751 0 0.4639-0.10186 1.0855-0.7071 0.52794-0.51401 0.85806-0.69329 1.2754-0.69268 0.75127 6.8e-4 1.1463 0.30378 1.6015 1.2271 0.35851 0.72719 0.45955 0.84414 0.84641 0.97969 0.32957 0.11548 0.55928 0.069 0.80973-0.16405z" stroke-width=".070008"/><path d="m67.159 151.28c-2.2323-0.44211-4.4595-2.2063-5.4223-4.295-0.31863-0.69127-0.65697-1.731-0.75187-2.3104-0.22395-1.3674-0.22659-48.833-0.0027-50.381 0.49531-3.4254 3.2962-6.2262 6.7216-6.7216 0.63313-0.09155 10.551-0.16619 22.352-0.16821 23.107-4e-3 22.321-0.03688 24.106 1.0093 1.016 0.59544 1.7765 1.5191 2.2866 2.7773l0.40242 0.99266v21.207c0 20.102-0.0173 21.256-0.33105 22.156-0.40408 1.1591-1.7919 2.7346-2.8156 3.1962l-0.73374 0.33087v8.3758l1.331 0.10067c1.5248 0.11531 1.9851 0.34142 2.3772 1.1676 0.35897 0.75647 0.19299 1.6848-0.40102 2.2429l-0.44851 0.42137-23.945 0.0263c-13.17 0.0145-24.296-0.0433-24.725-0.12822zm41.84-7.7492v-3.9706l-20.62 4e-3c-19.669 4e-3 -20.654 0.0194-21.355 0.33765-2.9626 1.3456-2.9555 5.9153 0.01126 7.2631 0.6861 0.31169 1.7889 0.32888 21.344 0.33263l20.62 4e-3zm-39.12-7.9115 3.0231-0.0662v-44.182l-2.3914 1e-3c-1.3153 5.59e-4 -2.7042 0.08786-3.0865 0.19401-0.91177 0.25317-2.1368 1.4889-2.4219 2.4429-0.17009 0.56925-0.22196 5.6391-0.22196 21.693v20.95l1.0378-0.48346c0.97038-0.45205 1.2341-0.48776 4.0609-0.54966zm42.22-0.4478c0.26555-0.18027 0.57012-0.57817 0.67681-0.88423 0.13391-0.38415 0.19399-6.8937 0.19399-21.021 0-18.706-0.0256-20.503-0.29753-20.918-0.66867-1.0205 0.1561-0.97709-18.554-0.97709h-17.245v44.226l17.372-0.0486c16.442-0.0461 17.397-0.0662 17.854-0.37639z" stroke-width=".18048"/><path d="m92.291 125.88c-5.0834-0.6547-9.2149-4.399-10.312-9.3454-0.32856-1.4814-0.39383-2.7442-0.2131-4.1228 0.38618-2.946 1.5209-5.2302 3.5973-7.2413 1.9458-1.8846 4.2691-2.9876 7.0391-3.3418 2.8961-0.37029 6.144 0.4891 8.5362 2.2587 3.5382 2.6173 5.3871 6.8976 4.8499 11.228-0.43801 3.531-2.2271 6.4743-5.1911 8.54-1.477 1.0294-3.239 1.7147-5.1342 1.9969-0.75507 0.11242-2.4024 0.12678-3.1721 0.0277zm3.0181-4.0694v-1.1435l3.0023-3v-3.7882h-6.041l-0.76898-0.77116-0.76898-0.77117 0.03898-1.4941 3.787-0.0364v-1.4672l-1.5012-1.4965v-0.82349l1.5012-1.4965v-1.4523l-0.21323-0.0427c-0.56776-0.11355-2.0109 0.0279-3.1262 0.30649-2.0661 0.51604-4.076 1.8868-5.3908 3.6767-0.48218 0.65643-1.2337 2.1392-1.4112 2.7845l-0.11841 0.43035 0.94959 0.9514 0.94958 0.95141h2.3401l2.1994 2.3034v2.9872l0.75059 0.74825 0.75058 0.74826v3.0388h3.0706zm8.2847-8.1706c-6e-3 -1.0278-0.11965-1.7852-0.41326-2.7601-0.16255-0.53976-0.64622-1.7397-0.73837-1.8318-0.0228-0.0228-0.45488 0.3712-0.96022 0.8755l-0.91881 0.9169v3.7916l3.0365-0.0368-5e-3 -0.95529z" stroke-width=".068235"/></g></svg>
