<?xml version="1.0" encoding="UTF-8"?>
<!-- Created with Inkscape (http://www.inkscape.org/) -->
<svg width="77.685mm" height="77.685mm" version="1.1" viewBox="0 0 77.685 77.685" xml:space="preserve" xmlns="http://www.w3.org/2000/svg"><g transform="translate(-49.844 -80.168)"><path d="m83.365 157.42c-14.165-2.0684-26.13-11.871-30.858-25.283-0.83398-2.3656-1.6898-6.2144-1.9843-8.9235-1.0829-9.9635 2.0116-20.364 8.3945-28.215 1.7189-2.1141 5.2977-5.459 7.665-7.1642 6.0011-4.3225 14.645-7.0886 22.174-7.0957 15.222-0.01419 29.434 9.3214 35.404 23.258 5.8926 13.755 3.3723 29.602-6.4846 40.774-6.0618 6.8702-14.406 11.351-23.559 12.652-2.7644 0.39286-8.0534 0.3918-10.751-2e-3zm12.813-2.6848c4.6932-0.96465 8.8648-2.7071 12.775-5.3362l1.9278-1.2961-1.8194-1.6831c-2.3494-2.1733-3.1853-2.5184-5.1542-2.1276-2.651 0.52615-3.9199 0.52449-5.3403-6e-3 -2.3679-0.88594-4.0717-3.0019-5.2065-6.4656-0.81835-2.498 0.10174-5.7852 2.0975-7.4934 0.4561-0.39042 2.1714-1.455 3.8118-2.3658 2.7669-1.5362 3.0568-1.7584 4.0097-3.073 1.627-2.2445 3.7296-3.3348 5.8809-3.0494 1.8849 0.25004 3.1587 1.0245 4.7546 2.8907 0.68458 0.80053 1.1673 0.86112 2.9814 0.37419 2.2652-0.60801 3.5623-0.35573 5.9436 1.1561 0.58424 0.37089 1.1349 0.62949 1.2236 0.57465 0.0888-0.0548 0.33122-1.2233 0.53881-2.5966 0.45091-2.9829 0.35611-8.3965-0.20139-11.5-0.52641-2.9306-1.9225-7.086-3.2736-9.744-3.4393-6.7658-9.3678-12.67-16.118-16.053-2.0923-1.0484-4.1748-1.929-4.2898-1.814-0.0365 0.03649-0.70387 2.4781-1.4831 5.4259-1.3669 4.9804-1.3199 7.4248-5.8092 8.8487-2.416 0.75192-3.2155 1.4323-3.2155 2.7363 0 0.9147 0.16332 1.2345 1.6726 3.2754 2.6106 3.5301 2.6473 4.9687 0.22274 8.7507-1.4678 2.2896-3.438 3.5233-6.1754 3.867-1.6752 0.21035-2.4662 0.61203-2.8458 1.4452-0.36151 0.79344-0.31568 1.3193 0.29199 3.3495 0.64187 2.1445 0.67972 3.4784 0.13232 4.6644-1.0417 2.257-3.7763 3.1583-6.2559 2.0618-1.5103-0.66783-2.1461-1.3797-3.3283-3.7264-0.58143-1.1541-1.277-2.2524-1.5458-2.4407-0.2769-0.19394-0.93085-0.34225-1.5091-0.34225-0.9877 0-1.0715 0.0531-2.6093 1.6529-1.792 1.8643-3.2267 2.6806-4.717 2.6839-0.52726 8.2e-4 -3.0033-0.3937-5.5023-0.87747-2.499-0.48378-4.5925-0.83075-4.6522-0.77104-0.28328 0.28329 1.0165 4.7417 2.2296 7.6476 1.6951 4.0607 3.9482 7.5032 7.0689 10.801 5.5973 5.9144 12.655 9.5823 20.906 10.865 2.8727 0.44666 9.7265 0.27861 12.583-0.30853zm20.015-11.79c2.003-2.3716 3.7154-4.9587 4.9167-7.428 0.9525-1.958 2.2953-5.3788 2.2946-5.8455-2e-4 -0.1263-0.81754-0.74219-1.8163-1.3686-1.9956-1.2517-2.5522-1.3556-4.3466-0.81121-1.509 0.45777-3.1212 0.41463-3.9756-0.10636-0.38592-0.2353-1.0467-0.90804-1.4684-1.495-0.87918-1.2238-1.8421-1.7637-3.1452-1.7637-1.2527 0-2.3393 0.56893-3.0127 1.5774-1.2806 1.9177-2.0204 2.5358-5.0332 4.2051-1.6579 0.91862-3.316 1.9651-3.6847 2.3256-1.7685 1.729-2.003 3.7392-0.74585 6.3913 0.91665 1.9337 1.6158 2.7544 2.8222 3.313 1.0729 0.49673 2.3531 0.51674 4.0907 0.064 2.6486-0.6902 4.465-0.0454 7.6245 2.7071l1.9525 1.701 1.0086-0.83905c0.55475-0.46147 1.6882-1.6436 2.5187-2.627zm-35.256-15.958c0.77502-0.72098 0.78903-1.8944 0.051-4.2704-0.81007-2.608-0.6757-3.7001 0.64849-5.2705 0.84186-0.99844 1.9241-1.4903 3.8766-1.7618 2.5696-0.35739 3.1697-0.77601 5.0622-3.5311 1.4741-2.146 1.4207-2.6408-0.57092-5.2905-0.86242-1.1474-1.7056-2.4153-1.8736-2.8176-0.4607-1.1026-0.37737-2.6452 0.21017-3.8911 0.8306-1.7614 1.7748-2.4008 4.3135-2.9212 1.3728-0.28143 2.3598-0.96929 2.7283-1.9015 0.21752-0.55022 3.0729-10.582 3.0729-10.796 0-0.12699-1.2803-0.46138-3.4775-0.90827-2.5698-0.52268-9.4957-0.52104-12.302 0.0032-7.4377 1.3885-13.909 4.7348-19.158 9.9075-6.0141 5.926-9.5489 13.152-10.61 21.689-0.26146 2.1043-0.30993 8.0319-0.0657 8.0345 0.08949 8.2e-4 2.3561 0.39147 5.0368 0.86779 2.6808 0.47633 5.2218 0.86605 5.6466 0.86605 0.95294 0 1.4376-0.31567 3.3639-2.1912 1.636-1.5928 2.659-2.1484 3.9523-2.1465 2.3281 3e-3 3.5522 0.94136 4.9629 3.8027 1.111 2.2535 1.4241 2.6159 2.6229 3.0359 1.0213 0.35786 1.7331 0.21365 2.5093-0.50837z" fill="#808080" stroke-width=".21695"/></g></svg>
