<?xml version="1.0" encoding="UTF-8" standalone="no"?>
<!-- Created with Inkscape (http://www.inkscape.org/) -->

<svg
   width="61.722519mm"
   height="61.709831mm"
   viewBox="0 0 61.722519 61.709831"
   version="1.1"
   id="svg5"
   xml:space="preserve"
   inkscape:version="1.2.2 (b0a8486541, 2022-12-01)"
   sodipodi:docname="view-booknotes.svg"
   xmlns:inkscape="http://www.inkscape.org/namespaces/inkscape"
   xmlns:sodipodi="http://sodipodi.sourceforge.net/DTD/sodipodi-0.dtd"
   xmlns="http://www.w3.org/2000/svg"
   xmlns:svg="http://www.w3.org/2000/svg"><sodipodi:namedview
     id="namedview7"
     pagecolor="#ffffff"
     bordercolor="#000000"
     borderopacity="0.25"
     inkscape:showpageshadow="2"
     inkscape:pageopacity="0.0"
     inkscape:pagecheckerboard="0"
     inkscape:deskcolor="#d1d1d1"
     inkscape:document-units="mm"
     showgrid="false"
     inkscape:zoom="0.2102413"
     inkscape:cx="-90.372348"
     inkscape:cy="390.02803"
     inkscape:window-width="1503"
     inkscape:window-height="934"
     inkscape:window-x="0"
     inkscape:window-y="0"
     inkscape:window-maximized="1"
     inkscape:current-layer="layer1" /><defs
     id="defs2" /><g
     inkscape:label="Layer 1"
     inkscape:groupmode="layer"
     id="layer1"
     transform="translate(-77.545411,-45.360481)"><path
       style="fill:#000000;stroke-width:0.103518"
       d="m 91.740302,102.56339 c -5.022681,-0.78765 -8.922877,-4.725926 -9.684663,-9.779252 -0.220576,-1.463179 -0.220576,-31.663397 0,-33.126574 0.769142,-5.102093 4.68566,-9.018609 9.787748,-9.787748 1.463177,-0.220575 31.663393,-0.220575 33.126573,0 5.10209,0.769139 9.01861,4.685655 9.78774,9.787748 0.22058,1.463177 0.22058,31.663395 0,33.126574 -0.76913,5.102095 -4.68565,9.018612 -9.78774,9.787752 -1.40156,0.21128 -31.877837,0.20348 -33.229658,-0.009 z M 124.6487,99.299779 c 3.4561,-0.560775 6.27613,-3.380803 6.83689,-6.836896 0.1485,-0.915185 0.1485,-31.56888 0,-32.484064 -0.56076,-3.456095 -3.38079,-6.27612 -6.83689,-6.836893 -0.91518,-0.148495 -31.568876,-0.148495 -32.484057,0 -3.456098,0.560773 -6.27612,3.380798 -6.836891,6.836893 -0.148495,0.915184 -0.148495,31.568879 0,32.484064 0.553079,3.408685 3.379893,6.269625 6.749819,6.83132 0.801735,0.133634 31.749259,0.138927 32.571129,0.006 z m -30.198342,-8.34645 c -0.189045,-0.09316 -0.468545,-0.333031 -0.621107,-0.533053 L 93.551864,90.056599 V 87.814849 85.5731 l 0.278828,-0.365567 c 0.49182,-0.644804 0.747423,-0.705254 2.98198,-0.705254 2.234564,0 2.490167,0.06046 2.98198,0.705254 l 0.278838,0.365567 v 2.241749 2.24175 l -0.278838,0.365568 c -0.492998,0.646359 -0.74542,0.705546 -2.997622,0.702897 -1.642042,-0.0019 -2.06489,-0.03287 -2.346672,-0.171735 z m 8.987462,-3.13848 v -1.656285 h 9.93771 9.93772 v 1.656285 1.656286 h -9.93772 -9.93771 z M 94.450358,79.35933 C 94.261313,79.26617 93.981813,79.026298 93.829251,78.826277 L 93.551864,78.4626 v -2.24175 -2.241749 l 0.278828,-0.365567 c 0.49182,-0.644804 0.747423,-0.705255 2.98198,-0.705255 2.234564,0 2.490167,0.06046 2.98198,0.705255 l 0.278838,0.365567 v 2.241749 2.24175 l -0.278838,0.365566 c -0.492998,0.646361 -0.74542,0.705548 -2.997622,0.702899 -1.642042,-0.0019 -2.06489,-0.03288 -2.346672,-0.171735 z m 8.987462,-3.13848 v -1.656285 h 9.93771 9.93772 v 1.656285 1.656286 h -9.93772 -9.93771 z m -8.987462,-8.455519 c -0.189045,-0.09316 -0.468545,-0.333033 -0.621107,-0.533054 l -0.277387,-0.363676 v -2.241749 -2.24175 l 0.278828,-0.365568 c 0.49182,-0.644803 0.747423,-0.705254 2.98198,-0.705254 2.234564,0 2.490167,0.06045 2.98198,0.705254 l 0.278838,0.365568 v 2.24175 2.241749 l -0.278838,0.365567 c -0.492998,0.64636 -0.74542,0.705548 -2.997622,0.702897 -1.642042,-0.0019 -2.06489,-0.03287 -2.346672,-0.171734 z m 8.987462,-3.138479 v -1.656286 h 9.93771 9.93772 v 1.656286 1.656285 h -9.93772 -9.93771 z"
       id="path307" /></g></svg>
