<?xml version="1.0" encoding="UTF-8" standalone="no"?>
<!-- Created with Inkscape (http://www.inkscape.org/) -->

<svg
   width="86.722771mm"
   height="86.865784mm"
   viewBox="0 0 86.722771 86.865784"
   version="1.1"
   id="svg5"
   inkscape:version="1.1.2 (0a00cf5339, 2022-02-04)"
   sodipodi:docname="web.svg"
   xmlns:inkscape="http://www.inkscape.org/namespaces/inkscape"
   xmlns:sodipodi="http://sodipodi.sourceforge.net/DTD/sodipodi-0.dtd"
   xmlns="http://www.w3.org/2000/svg"
   xmlns:svg="http://www.w3.org/2000/svg">
  <sodipodi:namedview
     id="namedview7"
     pagecolor="#ffffff"
     bordercolor="#666666"
     borderopacity="1.0"
     inkscape:pageshadow="2"
     inkscape:pageopacity="0.0"
     inkscape:pagecheckerboard="0"
     inkscape:document-units="mm"
     showgrid="false"
     inkscape:zoom="0.7198092"
     inkscape:cx="170.87862"
     inkscape:cy="314.66672"
     inkscape:window-width="1920"
     inkscape:window-height="1016"
     inkscape:window-x="0"
     inkscape:window-y="0"
     inkscape:window-maximized="1"
     inkscape:current-layer="layer1" />
  <defs
     id="defs2" />
  <g
     inkscape:label="Layer 1"
     inkscape:groupmode="layer"
     id="layer1"
     transform="translate(-59.996787,-65.111984)">
    <path
       style="fill:#808080;fill-opacity:1;stroke:#808080;stroke-width:0.241404;stroke-opacity:1"
       d="m 98.463635,148.24484 c -8.558082,-1.16716 -15.961149,-4.74628 -22.185102,-10.72569 -5.950866,-5.71706 -9.776886,-12.60742 -11.527842,-20.76075 -0.471561,-2.19579 -0.544352,-3.24494 -0.544352,-7.84562 0,-4.57349 0.0739,-5.65156 0.532482,-7.76459 1.770681,-8.159436 5.191891,-14.447925 11.013434,-20.243684 7.762021,-7.727634 17.000484,-11.552902 27.901575,-11.552902 6.50165,0 11.93781,1.240792 17.4513,3.98326 11.13152,5.536913 18.78042,15.448595 21.46369,27.813326 0.45856,2.11303 0.53248,3.1911 0.53248,7.76459 0,4.60068 -0.0728,5.64983 -0.54434,7.84562 -2.08791,9.72236 -7.34426,17.99137 -15.18244,23.88422 -8.31013,6.24768 -18.73773,8.98965 -28.910885,7.60222 z m 7.809275,-5.33627 c 2.46593,-1.18455 5.4501,-4.77589 7.37968,-8.88116 0.86314,-1.83638 2.05818,-5.34365 2.67622,-7.85426 0.21244,-0.86301 0.44218,-1.75923 0.51053,-1.99157 0.11725,-0.39873 -0.62366,-0.42247 -13.19611,-0.42247 H 90.322872 l 0.164221,0.87539 c 0.663456,3.5365 2.863574,9.26809 4.64972,12.11309 2.366429,3.76929 4.424468,5.73442 6.929347,6.61654 1.45399,0.51203 2.40741,0.40878 4.20675,-0.45556 z m -14.826991,-2.86696 c -2.250701,-3.35639 -4.430371,-8.70767 -5.673453,-13.9288 l -0.560373,-2.3537 h -6.473868 -6.473866 l 0.761355,1.50879 c 3.447869,6.83257 9.892978,12.64615 17.471589,15.75964 1.062181,0.43636 1.959884,0.76548 1.994902,0.73135 0.03504,-0.0342 -0.435814,-0.8069 -1.046286,-1.71728 z m 29.439161,-0.97751 c 5.79653,-3.36703 10.68523,-8.40055 13.39928,-13.7962 l 0.75894,-1.50879 h -6.47328 -6.47327 l -0.5542,2.3537 c -1.18811,5.04595 -3.42299,10.62657 -5.58972,13.95791 -0.52416,0.80589 -0.95302,1.53553 -0.95302,1.62142 0,0.26793 3.89067,-1.46943 5.88527,-2.62804 z M 84.189163,116.57736 c -0.269202,-3.02067 -0.270781,-12.00503 -0.0027,-15.20843 l 0.207085,-2.474399 h -7.012507 c -3.856878,0 -7.067014,0.08821 -7.133629,0.195974 -0.0666,0.107736 -0.366799,1.329895 -0.667077,2.715795 -0.456552,2.10721 -0.547472,3.27084 -0.555274,7.10648 -0.0082,3.94886 0.06925,4.93914 0.555767,7.12141 0.310798,1.39411 0.615171,2.61622 0.676393,2.7158 0.06122,0.0996 3.268137,0.18105 7.126484,0.18105 h 7.01518 l -0.209759,-2.35368 z m 33.800157,1.97763 c 0.0794,-0.20682 0.2733,-2.45147 0.43098,-4.98811 0.22311,-3.58908 0.22158,-5.64833 -0.007,-9.28414 -0.16147,-2.56965 -0.35543,-4.833229 -0.431,-5.030155 -0.11932,-0.310848 -2.00827,-0.358054 -14.32857,-0.358054 -12.625599,0 -14.207106,0.04148 -14.335497,0.376051 -0.07938,0.206833 -0.272887,2.444628 -0.430047,4.972898 -0.219285,3.52769 -0.219888,5.68125 -0.0027,9.25942 0.155746,2.56443 0.349264,4.83485 0.430048,5.04536 0.131787,0.34343 1.605858,0.38278 14.338066,0.38278 12.62559,0 14.2071,-0.0415 14.33549,-0.37605 z m 19.67199,-2.1587 c 0.49755,-2.09598 0.57603,-3.05014 0.59565,-7.24211 0.0195,-4.17811 -0.0514,-5.16729 -0.52651,-7.34788 -0.30203,-1.3859 -0.60363,-2.60801 -0.67025,-2.715795 -0.0666,-0.107735 -3.33168,-0.195974 -7.25571,-0.195974 h -7.13457 l 0.16308,1.087558 c 0.81318,5.422651 0.81064,12.957431 -0.006,18.047311 l -0.14584,0.90889 7.2036,-0.0639 7.20359,-0.0639 z M 85.656418,92.195572 c 0.669569,-2.862795 1.701532,-6.086206 2.757737,-8.613996 0.943386,-2.257791 3.422213,-6.725533 3.892917,-7.016444 0.133191,-0.08224 0.242167,-0.244278 0.242167,-0.359908 0,-0.251233 -2.338893,0.676259 -4.698268,1.86311 -6.175314,3.106415 -11.914742,8.715558 -14.825887,14.489343 l -0.760725,1.508777 h 6.477242 6.477243 z m 30.883272,0.362105 c -1.01677,-4.401514 -2.39587,-8.182943 -3.89524,-10.68062 -3.73397,-6.22009 -7.5368,-8.72399 -11.03183,-7.263663 -3.137753,1.311034 -6.64522,5.752933 -8.804197,11.149753 -0.951508,2.378472 -2.008643,5.761169 -2.32133,7.427926 l -0.164221,0.875381 h 13.282678 13.28268 z m 17.74288,0 c -3.26901,-6.483536 -10.13808,-12.762325 -17.0951,-15.626048 -0.98754,-0.406492 -1.87789,-0.709677 -1.97859,-0.673721 -0.10066,0.03599 0.20314,0.662826 0.67517,1.393074 2.21363,3.424571 4.48002,9.05669 5.65851,14.06178 l 0.55419,2.353692 h 6.47327 6.47328 z"
       id="path1066" />
  </g>
</svg>
