<?xml version="1.0" encoding="UTF-8"?>
<!-- Created with Inkscape (http://www.inkscape.org/) -->
<svg width="105.99mm" height="105.99mm" version="1.1" viewBox="0 0 105.99 105.99" xmlns="http://www.w3.org/2000/svg">
 <g transform="translate(31.558 -13.403)">
  <g transform="matrix(.56091 0 0 .56091 -73.572 -111.03)" stroke="#4b8501" stroke-width="2.1883">
   <g transform="matrix(-3.8653 0 0 3.8653 731.88 31.09)" fill="none" stroke="#666">
    <circle cx="145.53" cy="73.795" r="19.228" stroke-width=".72835"/>
    <path transform="matrix(-.24909 .089222 -.089222 -.24909 227.11 125.94)" d="m220.76 282.64c-0.44771-0.78222 0.43524-1.5896 1.1237-1.7698 1.8828-0.49294 3.3919 1.3796 3.5908 3.0671 0.40702 3.4544-2.9403 5.9612-6.1052 6.0711-5.5208 0.19172-9.3319-5.1505-9.2324-10.291 0.15683-8.1001 8.0351-13.531 15.667-13.093 11.207 0.643 18.579 11.615 17.668 22.265-1.2707 14.853-15.906 24.496-30.115 22.972-19.05-2.0435-31.297-20.925-29.016-39.242 2.9645-23.806 26.684-38.998 49.669-35.813 29.129 4.0364 47.612 33.196 43.373 61.415-5.2618 35.028-40.472 57.151-74.499 51.705-15.924-2.5483-30.663-10.677-41.58-22.508" stroke-width="2.7528"/>
   </g>
  </g>
 </g>
</svg>
