<?xml version="1.0" encoding="UTF-8" standalone="no"?>
<!-- Created with Inkscape (http://www.inkscape.org/) -->

<svg
   width="145.96268mm"
   height="145.96269mm"
   viewBox="0 0 145.96267 145.96269"
   version="1.1"
   id="svg426929"
   inkscape:version="1.1.2 (0a00cf5339, 2022-02-04)"
   sodipodi:docname="icon-ecoaccounting.svg"
   xmlns:inkscape="http://www.inkscape.org/namespaces/inkscape"
   xmlns:sodipodi="http://sodipodi.sourceforge.net/DTD/sodipodi-0.dtd"
   xmlns="http://www.w3.org/2000/svg"
   xmlns:svg="http://www.w3.org/2000/svg">
  <sodipodi:namedview
     id="namedview426931"
     pagecolor="#ffffff"
     bordercolor="#666666"
     borderopacity="1.0"
     inkscape:pageshadow="2"
     inkscape:pageopacity="0.0"
     inkscape:pagecheckerboard="0"
     inkscape:document-units="mm"
     showgrid="false"
     inkscape:zoom="1.0179639"
     inkscape:cx="271.12946"
     inkscape:cy="255.90298"
     inkscape:window-width="1920"
     inkscape:window-height="1016"
     inkscape:window-x="0"
     inkscape:window-y="0"
     inkscape:window-maximized="1"
     inkscape:current-layer="path100157" />
  <defs
     id="defs426926" />
  <g
     inkscape:label="Layer 1"
     inkscape:groupmode="layer"
     id="layer1"
     transform="translate(-27.637007,-55.435929)">
    <g
       id="g397968"
       transform="matrix(7.9896819,0,0,7.9896819,-269.65924,-760.057)">
      <path
         sodipodi:nodetypes="cccc"
         id="path16125"
         d="m 44.973822,109.12286 h 4.4203 c 0.0786,0.89052 -0.69727,2.06122 -2.1792,2.051 -1.16994,-0.007 -2.06478,-0.57639 -2.2411,-2.051 z"
         style="fill:#ffffff;fill-opacity:1;stroke:none;stroke-width:0.0383787px;stroke-linecap:butt;stroke-linejoin:miter;stroke-opacity:1" />
      <path
         style="fill:#ffffff;fill-opacity:1;stroke:none;stroke-width:0.0383787px;stroke-linecap:butt;stroke-linejoin:miter;stroke-opacity:1"
         d="m 44.950822,110.54287 h 4.46657 c 0.0786,0.89052 -0.74355,2.06122 -2.22548,2.05101 -1.16993,-0.007 -2.06477,-0.5764 -2.24109,-2.05101 z"
         id="path16125-3"
         sodipodi:nodetypes="cccc" />
      <g
         id="path100157">
        <path
           id="path1737"
           style="color:#000000;fill:#4d4d4d;stroke:none;stroke-width:0.227094;-inkscape-stroke:none"
           d="m 46.344439,102.06826 a 9.1344505,9.1344505 0 0 0 -9.134416,9.13441 9.1344505,9.1344505 0 0 0 9.134416,9.13449 9.1344505,9.1344505 0 0 0 9.134481,-9.13449 9.1344505,9.1344505 0 0 0 -9.134481,-9.13441 z m 0.313952,2.80914 c 0.240732,-0.006 0.486829,0.1034 0.647436,0.33199 l 0.109308,0.15549 0.01138,0.75972 c 0.0063,0.41784 0.02316,0.77188 0.03764,0.78669 0.01448,0.0148 0.93805,0.16401 2.052393,0.33161 2.478531,0.37277 2.435437,0.36558 2.496673,0.4164 0.06634,0.0551 0.0633,0.2128 -0.006,0.31175 -0.04168,0.0595 -0.09183,0.0797 -0.1974,0.0797 -0.0965,0 -0.141518,0.0158 -0.141518,0.0496 0,0.0273 0.37963,0.84694 0.843608,1.82149 0.07809,0.16401 0.124057,0.25875 0.189057,0.39467 0.0328,0.004 0.0659,0.008 0.09954,0.015 0.188058,0.0382 0.506225,0.15329 0.506049,0.18194 0,0.043 -0.127963,0.21061 -0.245845,0.32378 -0.02268,0.0218 -0.04943,0.0436 -0.07846,0.0649 0.33145,0.68164 0.423914,0.83385 0.515944,0.91062 0.185657,0.15485 0.236121,0.32796 0.177997,0.61024 -0.192284,0.93384 -0.863612,1.66372 -1.792578,1.94897 -0.378549,0.11624 -0.979615,0.11583 -1.363885,-9e-4 -0.918135,-0.27891 -1.588842,-0.98524 -1.782358,-1.87699 -0.07869,-0.36262 -0.0516,-0.47911 0.158657,-0.68242 0.153165,-0.14812 0.257278,-0.34731 1.045471,-2.00078 0.489161,-1.02616 0.861304,-1.849 0.843479,-1.86502 -0.02995,-0.0269 -3.153516,-0.50744 -3.28912,-0.50598 -0.05947,6.3e-4 -0.0628,0.23159 -0.0628,4.34177 v 4.34105 l 1.501975,0.0108 c 1.208198,0.009 1.513579,0.0205 1.561285,0.0601 0.07273,0.0604 0.0774,0.25326 0.0084,0.34765 -0.04974,0.068 -0.126272,0.0697 -3.275149,0.0718 -1.773304,0.001 -3.465665,-0.003 -3.760823,-0.01 -0.433281,-0.01 -0.549093,-0.0234 -0.601191,-0.0705 -0.07737,-0.07 -0.08385,-0.22246 -0.01358,-0.3186 0.04879,-0.0668 0.114055,-0.0701 1.561286,-0.0801 l 1.510383,-0.0104 v -4.46543 -4.46537 l -0.116681,-0.0203 c -0.44263,-0.0766 -3.487087,-0.52235 -3.510257,-0.51394 -0.01589,0.006 0.361601,0.82909 0.838886,1.82964 0.78066,1.63653 0.884696,1.83541 1.036157,1.98041 0.211231,0.20223 0.240152,0.32877 0.160275,0.70157 -0.142541,0.66524 -0.619023,1.30128 -1.232846,1.64556 -0.384644,0.21574 -0.729504,0.30397 -1.195461,0.30593 -0.272544,0.001 -0.491968,-0.0185 -0.646014,-0.0579 -0.690663,-0.1766 -1.314216,-0.6807 -1.627969,-1.31616 -0.203907,-0.41297 -0.299095,-0.81384 -0.240282,-1.01177 0.02333,-0.0785 0.0976,-0.1823 0.182265,-0.25477 0.123464,-0.10568 0.242053,-0.32925 0.872002,-1.64414 0.401003,-0.83701 0.818733,-1.69635 0.928272,-1.90958 l 0.199147,-0.38769 -0.104134,-0.0208 c -0.174508,-0.0349 -0.228043,-0.22312 -0.106202,-0.37359 0.05455,-0.0674 0.09694,-0.0813 0.224371,-0.0738 0.152391,0.009 1.294248,0.17316 3.273791,0.47074 0.529788,0.0796 0.984783,0.14475 1.011061,0.14475 0.03755,0 0.0503,-0.13654 0.05963,-0.63709 0.01159,-0.62176 0.01431,-0.64109 0.111571,-0.80655 0.139099,-0.23663 0.37443,-0.35943 0.615162,-0.36588 z m -4.749571,1.88067 c -0.0375,0.0375 -2.140691,4.01117 -2.127808,4.0498 7.98e-4,0.002 0.0057,0.004 0.0083,0.007 h 4.126389 l -0.430374,-0.96831 c -0.899338,-2.02359 -1.550957,-3.11362 -1.576486,-3.08809 z m 9.312413,1.39564 c -0.568276,0.59491 -0.875118,1.39347 -1.167002,2.01313 -0.56998,1.18855 -1.000604,1.97347 -0.951428,1.99392 5.46e-4,2.3e-4 0.01053,3e-4 0.01151,5.2e-4 -7.81e-4,-0.006 -0.0016,-0.0125 -0.0023,-0.0188 h 2.088548 0.549771 c -0.0048,-0.007 -0.0066,-0.015 -0.0039,-0.0244 0.264511,-0.9469 -0.145145,-1.5925 -0.376885,-1.67584 l -6.4e-5,-6e-5 c -0.165294,-0.0516 -0.164986,-0.0238 10e-4,0.0855 0.185829,0.12368 0.277446,0.24783 0.21137,0.28699 -0.08813,0.052 -0.318027,0.0664 -0.443956,0.0287 -0.21553,-0.0654 -0.539974,-0.34384 -0.614709,-0.52759 -0.03946,-0.0974 0.542074,-0.26214 0.799238,-0.22586 0.308975,0.043 0.475315,0.191 0.45437,0.40444 -0.0091,0.0917 0.125011,0.60895 0.158399,0.60895 0.03341,0 0.110493,-0.28936 0.101481,-0.38057 -0.01988,-0.20266 0.156591,-0.35587 0.409288,-0.39946 -0.132324,-0.2664 -0.248848,-0.49778 -0.417179,-0.84626 -0.273883,-0.56699 -0.790637,-1.32326 -0.807517,-1.32326 z m 1.339243,2.49363 c -0.01818,-0.002 -0.05719,0.005 -0.116358,0.0237 -0.246288,0.0769 -0.406219,0.37201 -0.425652,0.75946 0.02799,0.33181 -0.0238,0.57884 0.03228,0.70377 0.0013,0.003 0.0011,0.006 -2.59e-4,0.008 h 1.128325 c 0.119253,-0.0746 -0.01256,-0.36607 -0.389562,-1.12373 -0.101319,0.05 -0.201787,0.0838 -0.266283,0.084 -0.100424,1.5e-4 -0.326564,-0.0573 -0.326564,-0.0826 0,-0.0477 0.17324,-0.22586 0.278572,-0.28698 0.08829,-0.0516 0.115805,-0.0822 0.08551,-0.0858 z m 0.728609,1.49512 c 5e-6,6e-5 -6e-6,1.3e-4 0,1.9e-4 l 6.4e-5,-1.9e-4 z" />
      </g>
      <g
         style="fill:#ffffff;fill-opacity:1"
         transform="matrix(0.0382845,0,0,0.0382845,-74.481557,129.76369)"
         id="g13412" />
    </g>
  </g>
</svg>
