<?xml version="1.0" encoding="UTF-8" standalone="no"?>
<!-- Created with Inkscape (http://www.inkscape.org/) -->

<svg
   width="77.326462mm"
   height="73.424263mm"
   viewBox="0 0 77.326462 73.424263"
   version="1.1"
   id="svg431840"
   inkscape:version="1.1.2 (0a00cf5339, 2022-02-04)"
   sodipodi:docname="icon-biodiversity.svg"
   xmlns:inkscape="http://www.inkscape.org/namespaces/inkscape"
   xmlns:sodipodi="http://sodipodi.sourceforge.net/DTD/sodipodi-0.dtd"
   xmlns="http://www.w3.org/2000/svg"
   xmlns:svg="http://www.w3.org/2000/svg">
  <sodipodi:namedview
     id="namedview431842"
     pagecolor="#ffffff"
     bordercolor="#666666"
     borderopacity="1.0"
     inkscape:pageshadow="2"
     inkscape:pageopacity="0.0"
     inkscape:pagecheckerboard="0"
     inkscape:document-units="mm"
     showgrid="false"
     inkscape:zoom="0.7198092"
     inkscape:cx="295.91175"
     inkscape:cy="302.16341"
     inkscape:window-width="1920"
     inkscape:window-height="1016"
     inkscape:window-x="0"
     inkscape:window-y="0"
     inkscape:window-maximized="1"
     inkscape:current-layer="layer1" />
  <defs
     id="defs431837" />
  <g
     inkscape:label="Layer 1"
     inkscape:groupmode="layer"
     id="layer1"
     transform="translate(-26.973178,-68.382513)">
    <g
       id="g99813"
       transform="matrix(3.2641188,0,0,3.2641188,-111.43647,-687.53035)"
       style="fill:#666666">
      <path
         style="fill:#666666;stroke:none;stroke-width:0.105186;stop-color:#000000"
         d="m 42.404654,236.01847 c -0.01124,-2.45554 0.04688,-3.74026 0.359731,-4.08592 0.518877,-0.57335 1.906177,-0.40177 3.130539,0.22383 1.261825,0.64474 3.524886,2.13021 5.169724,4.01665 1.722751,1.97581 2.286606,2.64907 2.855485,4.33509 0.0033,0.0105 0.0097,0.003 -0.0013,0.003 -0.206024,-6.5e-4 -0.298881,0.046 -0.299177,0.22362 l -0.0066,3.91223 h -2.373302 c -1.097591,0 -0.871784,10e-4 -1.502203,0.0109 -0.268236,0.004 -0.284541,0.13921 -0.293812,0.25345 -0.0093,0.11489 2.76e-4,0.19593 2.76e-4,0.26955 -5.695939,-0.66597 -6.988508,-4.39378 -7.039325,-9.16239 z"
         id="path465021"
         sodipodi:nodetypes="cccsssscsssccc" />
      <path
         style="fill:#666666;stroke:none;stroke-width:0.105186;stop-color:#000000"
         d="m 48.033391,253.44431 c -1.117046,-0.70841 -2.886032,-2.98729 -3.067058,-3.95224 -0.276073,-1.47159 0.715045,-2.81016 2.156016,-3.51688 0.733566,-0.35978 1.383736,-0.6498 2.303668,-0.65733 0.01723,-1.4e-4 0.0082,-0.0117 0.0085,0.008 6.58e-4,0.0456 0.0066,0.18923 0.0066,0.23009 0,0.24268 0.127099,0.28936 0.309164,0.28936 0.304864,0 1.275297,10e-4 1.665964,10e-4 l 2.149894,-0.006 v 2.28197 l -2e-5,1.51431 c 0.0026,0.27909 0.07437,0.35528 0.357043,0.35575 0.105928,1.7e-4 -0.135758,-4.7e-4 -0.02275,-2.1e-4 v 0 c -0.87849,0.38241 -1.061896,1.50309 -1.389713,1.97886 -1.32645,2.10968 -2.98169,2.69929 -4.477265,1.47269 z"
         id="path465695"
         sodipodi:nodetypes="cssssssccccscccc" />
      <path
         style="fill:#666666;stroke:none;stroke-width:0.105186;stop-color:#000000"
         d="m 66.091936,236.01821 c 0.01124,-2.45555 -0.04688,-3.74027 -0.359731,-4.08593 -0.518877,-0.57335 -1.906177,-0.40177 -3.130539,0.22383 -1.261825,0.64474 -3.524886,2.13021 -5.169724,4.01665 -1.722751,1.97581 -2.286606,2.64907 -2.855485,4.33509 -0.0033,0.0105 -0.0097,0.003 0.0013,0.003 0.206024,-6.5e-4 0.298881,0.046 0.299177,0.22362 l 0.0066,3.91224 h 2.373302 c 1.097591,0 0.871784,10e-4 1.502203,0.0108 0.268236,0.004 0.284541,0.13921 0.293812,0.25345 0.0093,0.11489 -2.76e-4,0.19593 -2.76e-4,0.26955 5.695939,-0.66597 6.988508,-4.39378 7.039325,-9.16238 z"
         id="path50588"
         sodipodi:nodetypes="cccsssscsssccc" />
      <path
         style="fill:#666666;stroke:none;stroke-width:0.105186;stop-color:#000000"
         d="m 60.463199,253.44404 c 1.117046,-0.70841 2.886032,-2.98729 3.067058,-3.95224 0.276073,-1.47159 -0.715045,-2.81016 -2.156016,-3.51688 -0.733566,-0.35978 -1.383736,-0.6498 -2.303668,-0.65733 -0.01723,-1.4e-4 -0.0082,-0.0117 -0.0085,0.008 -6.58e-4,0.0457 -0.0066,0.18923 -0.0066,0.23009 0,0.24268 -0.127099,0.28936 -0.309164,0.28936 -0.304864,0 -1.275297,10e-4 -1.665964,10e-4 l -2.149894,-0.006 v 2.28197 l 2e-5,1.51431 c -0.0026,0.27909 -0.07437,0.35528 -0.357043,0.35575 -0.105928,1.7e-4 0.135758,-4.7e-4 0.02275,-2e-4 v 0 c 0.87849,0.3824 1.061896,1.50308 1.389713,1.97885 1.32645,2.10968 2.98169,2.69929 4.477265,1.47269 z"
         id="path50590"
         sodipodi:nodetypes="cssssssccccscccc" />
    </g>
  </g>
</svg>
